<svg xmlns="http://www.w3.org/2000/svg" xmlns:xlink="http://www.w3.org/1999/xlink" width="500" zoomAndPan="magnify" viewBox="0 0 375 149.999998" height="200" preserveAspectRatio="xMidYMid meet" version="1.0"><defs><g/></defs><g fill="#ffffff" fill-opacity="1"><g transform="translate(8.759757, 66.605558)"><g><path d="M 39.203125 1.125 C 26.390625 1.125 16.957031 -1.515625 10.90625 -6.796875 C 5.5625 -11.460938 2.890625 -17.820312 2.890625 -25.875 C 2.890625 -33.9375 5.5625 -40.304688 10.90625 -44.984375 C 16.957031 -50.265625 26.390625 -52.90625 39.203125 -52.90625 C 46.503906 -52.90625 52.570312 -52.082031 57.40625 -50.4375 C 62.25 -48.800781 66.050781 -46.566406 68.8125 -43.734375 C 71.570312 -40.910156 73.457031 -37.65625 74.46875 -33.96875 L 51.203125 -33.96875 C 48.765625 -37.3125 44.765625 -38.984375 39.203125 -38.984375 C 33.953125 -38.984375 30.085938 -37.476562 27.609375 -34.46875 C 25.628906 -32.039062 24.640625 -29.175781 24.640625 -25.875 C 24.640625 -22.570312 25.628906 -19.71875 27.609375 -17.3125 C 30.085938 -14.300781 33.953125 -12.796875 39.203125 -12.796875 C 43.441406 -12.796875 46.625 -13.160156 48.75 -13.890625 C 50.882812 -14.628906 52.445312 -15.585938 53.4375 -16.765625 L 44.953125 -16.765625 L 44.953125 -25.875 L 74.46875 -25.875 L 74.46875 0.03125 L 65.4375 0.03125 L 63.59375 -4.984375 C 57.832031 -0.910156 49.703125 1.125 39.203125 1.125 Z M 39.203125 1.125 "/></g></g><g transform="translate(87.571996, 66.605558)"><g><path d="M 87.328125 0 L 69.1875 0 L 56.40625 -33.671875 L 43.609375 0 L 25.46875 0 L 0.546875 -51.8125 L 22.578125 -51.8125 L 35.59375 -18.890625 L 49.53125 -51.8125 L 63.265625 -51.8125 L 77.21875 -18.890625 L 90.21875 -51.8125 L 112.265625 -51.8125 Z M 87.328125 0 "/></g></g><g transform="translate(200.388046, 66.605558)"><g><path d="M 68.21875 0 L 5.78125 0 L 5.78125 -51.84375 L 65.359375 -51.84375 L 65.359375 -39.03125 L 27.53125 -39.03125 L 27.53125 -30.890625 L 59.515625 -30.890625 L 59.515625 -20.921875 L 27.53125 -20.921875 L 27.53125 -12.828125 L 68.21875 -12.828125 Z M 68.21875 0 "/></g></g><g transform="translate(271.503353, 66.605558)"><g><path d="M 82.703125 0 L 56.84375 0 L 27.53125 -35.078125 L 27.53125 0 L 5.78125 0 L 5.78125 -51.84375 L 31.65625 -51.84375 L 60.953125 -16.953125 L 60.953125 -51.84375 L 82.703125 -51.84375 Z M 82.703125 0 "/></g></g></g><g fill="#ffffff" fill-opacity="1"><g transform="translate(8.759757, 132.993079)"><g><path d="M 39.203125 1.125 C 26.390625 1.125 16.957031 -1.515625 10.90625 -6.796875 C 5.5625 -11.441406 2.890625 -17.800781 2.890625 -25.875 C 2.890625 -33.9375 5.5625 -40.304688 10.90625 -44.984375 C 16.957031 -50.234375 26.390625 -52.859375 39.203125 -52.859375 C 46.722656 -52.859375 52.9375 -52 57.84375 -50.28125 C 62.757812 -48.5625 66.578125 -46.207031 69.296875 -43.21875 C 72.023438 -40.226562 73.832031 -36.804688 74.71875 -32.953125 L 51.84375 -32.953125 C 49.5625 -36.972656 45.347656 -38.984375 39.203125 -38.984375 C 33.953125 -38.984375 30.085938 -37.46875 27.609375 -34.4375 C 25.628906 -32.03125 24.640625 -29.175781 24.640625 -25.875 C 24.640625 -22.570312 25.628906 -19.71875 27.609375 -17.3125 C 30.085938 -14.269531 33.953125 -12.75 39.203125 -12.75 C 45.347656 -12.75 49.5625 -14.773438 51.84375 -18.828125 L 74.71875 -18.828125 C 73.832031 -14.953125 72.023438 -11.519531 69.296875 -8.53125 C 66.578125 -5.539062 62.757812 -3.179688 57.84375 -1.453125 C 52.9375 0.265625 46.722656 1.125 39.203125 1.125 Z M 39.203125 1.125 "/></g></g><g transform="translate(86.379513, 132.993079)"><g><path d="M 76.609375 0 L 54.84375 0 L 54.84375 -20.921875 L 27.53125 -20.921875 L 27.53125 0 L 5.78125 0 L 5.78125 -51.84375 L 27.53125 -51.84375 L 27.53125 -30.890625 L 54.84375 -30.890625 L 54.84375 -51.84375 L 76.609375 -51.84375 Z M 76.609375 0 "/></g></g><g transform="translate(168.769198, 132.993079)"><g><path d="M 27.53125 0 L 5.78125 0 L 5.78125 -51.84375 L 27.53125 -51.84375 Z M 27.53125 0 "/></g></g><g transform="translate(202.08643, 132.993079)"><g><path d="M 36.453125 1.125 C 23.804688 1.125 14.90625 -1.5 9.75 -6.75 C 5.414062 -11.164062 3.25 -17.539062 3.25 -25.875 L 3.25 -51.8125 L 25 -51.8125 L 25 -25.875 C 25 -22.257812 25.613281 -19.40625 26.84375 -17.3125 C 28.601562 -14.300781 31.804688 -12.796875 36.453125 -12.796875 C 41.148438 -12.796875 44.367188 -14.300781 46.109375 -17.3125 C 47.335938 -19.476562 47.953125 -22.332031 47.953125 -25.875 L 47.953125 -51.8125 L 69.703125 -51.8125 L 69.703125 -25.578125 C 69.703125 -17.441406 67.546875 -11.164062 63.234375 -6.75 C 58.054688 -1.5 49.128906 1.125 36.453125 1.125 Z M 36.453125 1.125 "/></g></g></g></svg>