<svg xmlns="http://www.w3.org/2000/svg" xmlns:xlink="http://www.w3.org/1999/xlink" width="350" zoomAndPan="magnify" viewBox="0 0 262.5 74.999997" height="100" preserveAspectRatio="xMidYMid meet" version="1.0"><defs><g/></defs><g fill="#ffffff" fill-opacity="1"><g transform="translate(-0.000000000000021316, 33.87312)"><g><path d="M 17.421875 0.5 C 11.722656 0.5 7.53125 -0.671875 4.84375 -3.015625 C 2.46875 -5.085938 1.28125 -7.914062 1.28125 -11.5 C 1.28125 -15.082031 2.46875 -17.910156 4.84375 -19.984375 C 7.53125 -22.328125 11.722656 -23.5 17.421875 -23.5 C 20.660156 -23.5 23.351562 -23.132812 25.5 -22.40625 C 27.65625 -21.675781 29.34375 -20.679688 30.5625 -19.421875 C 31.789062 -18.171875 32.628906 -16.726562 33.078125 -15.09375 L 22.75 -15.09375 C 21.664062 -16.582031 19.890625 -17.328125 17.421875 -17.328125 C 15.085938 -17.328125 13.367188 -16.65625 12.265625 -15.3125 C 11.390625 -14.226562 10.953125 -12.957031 10.953125 -11.5 C 10.953125 -10.03125 11.390625 -8.757812 12.265625 -7.6875 C 13.367188 -6.351562 15.085938 -5.6875 17.421875 -5.6875 C 19.296875 -5.6875 20.707031 -5.847656 21.65625 -6.171875 C 22.601562 -6.492188 23.296875 -6.921875 23.734375 -7.453125 L 19.96875 -7.453125 L 19.96875 -11.5 L 33.078125 -11.5 L 33.078125 0.015625 L 29.078125 0.015625 L 28.25 -2.21875 C 25.695312 -0.40625 22.085938 0.5 17.421875 0.5 Z M 17.421875 0.5 "/></g></g><g transform="translate(35.00735, 33.87312)"><g><path d="M 38.796875 0 L 30.734375 0 L 25.0625 -14.953125 L 19.375 0 L 11.3125 0 L 0.234375 -23.015625 L 10.03125 -23.015625 L 15.8125 -8.390625 L 22 -23.015625 L 28.109375 -23.015625 L 34.296875 -8.390625 L 40.078125 -23.015625 L 49.875 -23.015625 Z M 38.796875 0 "/></g></g><g transform="translate(85.118743, 33.87312)"><g><path d="M 22.46875 0 L 12.8125 0 L 12.8125 -10.921875 L 0.234375 -23.03125 L 10.953125 -23.03125 L 17.640625 -16.15625 L 24.3125 -23.03125 L 35.03125 -23.03125 L 22.46875 -10.921875 Z M 22.46875 0 "/></g></g><g transform="translate(120.38291, 33.87312)"><g><path d="M 36.75 0 L 25.25 0 L 12.234375 -15.59375 L 12.234375 0 L 2.5625 0 L 2.5625 -23.03125 L 14.0625 -23.03125 L 27.078125 -7.53125 L 27.078125 -23.03125 L 36.75 -23.03125 Z M 36.75 0 "/></g></g><g transform="translate(159.691942, 33.87312)"><g><path d="M 30.3125 0 L 2.5625 0 L 2.5625 -23.03125 L 29.03125 -23.03125 L 29.03125 -17.34375 L 12.234375 -17.34375 L 12.234375 -13.71875 L 26.4375 -13.71875 L 26.4375 -9.296875 L 12.234375 -9.296875 L 12.234375 -5.703125 L 30.3125 -5.703125 Z M 30.3125 0 "/></g></g><g transform="translate(191.280418, 33.87312)"><g><path d="M 19.640625 0 L 9.984375 0 L 9.984375 -17.34375 L 0.96875 -17.34375 L 0.96875 -23.03125 L 28.671875 -23.03125 L 28.671875 -17.34375 L 19.640625 -17.34375 Z M 19.640625 0 "/></g></g><g transform="translate(220.910665, 33.87312)"><g><path d="M 34.03125 0 L 24.375 0 L 24.375 -9.296875 L 12.234375 -9.296875 L 12.234375 0 L 2.5625 0 L 2.5625 -23.03125 L 12.234375 -23.03125 L 12.234375 -13.71875 L 24.375 -13.71875 L 24.375 -23.03125 L 34.03125 -23.03125 Z M 34.03125 0 "/></g></g></g><g fill="#ffffff" fill-opacity="1"><g transform="translate(0.00917203, 61.227787)"><g><path d="M 17.40625 0.5 C 11.71875 0.5 7.53125 -0.671875 4.84375 -3.015625 C 2.46875 -5.078125 1.28125 -7.898438 1.28125 -11.484375 C 1.28125 -15.066406 2.46875 -17.894531 4.84375 -19.96875 C 7.53125 -22.300781 11.71875 -23.46875 17.40625 -23.46875 C 20.75 -23.46875 23.507812 -23.082031 25.6875 -22.3125 C 27.863281 -21.550781 29.554688 -20.507812 30.765625 -19.1875 C 31.984375 -17.863281 32.789062 -16.34375 33.1875 -14.625 L 23.03125 -14.625 C 22.007812 -16.414062 20.132812 -17.3125 17.40625 -17.3125 C 15.070312 -17.3125 13.359375 -16.640625 12.265625 -15.296875 C 11.378906 -14.222656 10.9375 -12.953125 10.9375 -11.484375 C 10.9375 -10.023438 11.378906 -8.757812 12.265625 -7.6875 C 13.359375 -6.332031 15.070312 -5.65625 17.40625 -5.65625 C 20.132812 -5.65625 22.007812 -6.554688 23.03125 -8.359375 L 33.1875 -8.359375 C 32.789062 -6.640625 31.984375 -5.113281 30.765625 -3.78125 C 29.554688 -2.457031 27.863281 -1.410156 25.6875 -0.640625 C 23.507812 0.117188 20.75 0.5 17.40625 0.5 Z M 17.40625 0.5 "/></g></g></g><g fill="#ffffff" fill-opacity="1"><g transform="translate(34.477217, 61.227787)"><g><path d="M 34.015625 0 L 24.359375 0 L 24.359375 -9.296875 L 12.21875 -9.296875 L 12.21875 0 L 2.5625 0 L 2.5625 -23.03125 L 12.21875 -23.03125 L 12.21875 -13.71875 L 24.359375 -13.71875 L 24.359375 -23.03125 L 34.015625 -23.03125 Z M 34.015625 0 "/></g></g></g><g fill="#ffffff" fill-opacity="1"><g transform="translate(71.063411, 61.227787)"><g><path d="M 12.21875 0 L 2.5625 0 L 2.5625 -23.03125 L 12.21875 -23.03125 Z M 12.21875 0 "/></g></g></g><g fill="#ffffff" fill-opacity="1"><g transform="translate(85.858354, 61.227787)"><g><path d="M 16.1875 0.5 C 10.570312 0.5 6.617188 -0.664062 4.328125 -3 C 2.398438 -4.957031 1.4375 -7.785156 1.4375 -11.484375 L 1.4375 -23.015625 L 11.109375 -23.015625 L 11.109375 -11.484375 C 11.109375 -9.878906 11.378906 -8.613281 11.921875 -7.6875 C 12.703125 -6.351562 14.125 -5.6875 16.1875 -5.6875 C 18.269531 -5.6875 19.695312 -6.351562 20.46875 -7.6875 C 21.019531 -8.644531 21.296875 -9.910156 21.296875 -11.484375 L 21.296875 -23.015625 L 30.953125 -23.015625 L 30.953125 -11.359375 C 30.953125 -7.742188 29.992188 -4.957031 28.078125 -3 C 25.773438 -0.664062 21.8125 0.5 16.1875 0.5 Z M 16.1875 0.5 "/></g></g></g></svg>