<svg xmlns="http://www.w3.org/2000/svg" xmlns:xlink="http://www.w3.org/1999/xlink" width="500" zoomAndPan="magnify" viewBox="0 0 375 135.000003" height="180" preserveAspectRatio="xMidYMid meet" version="1.0"><defs><clipPath id="816d43d5f7"><path d="M 2 123 L 373 123 L 373 133.914062 L 2 133.914062 Z M 2 123 " clip-rule="nonzero"/></clipPath><clipPath id="4322b4d620"><path d="M 1.378906 122 L 373.621094 122 L 373.621094 133.914062 L 1.378906 133.914062 Z M 1.378906 122 " clip-rule="nonzero"/></clipPath><clipPath id="7cf00c2c9c"><path d="M 302 20.007812 L 342 20.007812 L 342 84 L 302 84 Z M 302 20.007812 " clip-rule="nonzero"/></clipPath><clipPath id="f83b4b3239"><path d="M 302 20.007812 L 342 20.007812 L 342 85 L 302 85 Z M 302 20.007812 " clip-rule="nonzero"/></clipPath></defs><g clip-path="url(#816d43d5f7)"><path fill="#bda099" d="M 367.480469 123.027344 L 7.519531 123.027344 C 4.765625 123.027344 2.492188 125.300781 2.492188 128.050781 C 2.492188 130.804688 4.765625 133.195312 7.519531 133.195312 L 367.480469 133.195312 C 370.234375 133.195312 372.507812 130.804688 372.507812 128.050781 C 372.507812 125.300781 370.234375 123.027344 367.480469 123.027344 Z M 367.480469 123.027344 " fill-opacity="1" fill-rule="evenodd"/></g><g clip-path="url(#4322b4d620)"><path fill="#4a3635" d="M 367.480469 122.1875 L 7.519531 122.1875 C 5.84375 122.1875 4.40625 122.90625 3.328125 123.984375 C 2.371094 125.058594 1.652344 126.496094 1.652344 128.050781 C 1.652344 129.726562 2.371094 131.164062 3.328125 132.238281 C 4.40625 133.316406 5.84375 133.914062 7.519531 133.914062 L 367.480469 133.914062 C 369.15625 133.914062 370.59375 133.316406 371.671875 132.238281 C 372.628906 131.164062 373.347656 129.726562 373.347656 128.050781 C 373.347656 126.496094 372.628906 125.058594 371.671875 123.984375 C 370.59375 122.90625 369.15625 122.1875 367.480469 122.1875 Z M 7.519531 123.863281 L 367.480469 123.863281 C 368.675781 123.863281 369.753906 124.34375 370.472656 125.058594 C 371.3125 125.777344 371.789062 126.855469 371.789062 128.050781 C 371.789062 129.246094 371.3125 130.324219 370.472656 131.042969 C 369.753906 131.878906 368.675781 132.359375 367.480469 132.359375 L 7.519531 132.359375 C 6.324219 132.359375 5.246094 131.878906 4.527344 131.042969 C 3.6875 130.324219 3.210938 129.246094 3.210938 128.050781 C 3.210938 126.855469 3.6875 125.898438 4.527344 125.058594 C 5.246094 124.34375 6.324219 123.863281 7.519531 123.863281 Z M 7.519531 123.863281 " fill-opacity="1" fill-rule="nonzero"/></g><path fill="#eaddd4" d="M 28.59375 99.695312 C 28.59375 99.695312 32.546875 110.105469 29.074219 119.199219 L 134.929688 119.199219 L 134.929688 98.140625 Z M 28.59375 99.695312 " fill-opacity="1" fill-rule="evenodd"/><path fill="#4a3635" d="M 28.117188 99.8125 C 28.117188 99.933594 32.1875 110.105469 28.59375 119.078125 L 28.476562 119.675781 L 135.410156 119.675781 L 135.410156 97.78125 L 134.929688 97.78125 L 28.59375 99.335938 L 27.996094 99.335938 Z M 29.671875 118.71875 C 32.425781 110.941406 29.914062 102.328125 29.195312 100.171875 L 134.570312 98.617188 L 134.570312 118.71875 Z M 29.671875 118.71875 " fill-opacity="1" fill-rule="nonzero"/><path stroke-linecap="butt" transform="matrix(-0.119747, 0, 0, 0.119649, 373.347596, 20.008049)" fill-opacity="1" fill="#a9b549" fill-rule="nonzero" stroke-linejoin="round" d="M 2919.986315 674.004914 L 2011.007367 674.004914 L 2011.007367 818.9923 L 2913.984086 818.9923 L 2913.984086 859.997515 L 1991.010809 859.997515 C 1979.00635 859.997515 1970.003006 850.986815 1970.003006 839.005196 L 1970.003006 653.012595 C 1970.003006 642.010399 1979.00635 632.999699 1991.010809 632.999699 L 2919.986315 632.999699 Z M 2919.986315 674.004914 " stroke="#4a3635" stroke-width="9.999" stroke-opacity="1" stroke-miterlimit="4"/><path fill="#4a3635" d="M 127.507812 105.199219 L 32.066406 105.199219 L 32.066406 105.796875 L 127.507812 105.796875 Z M 127.507812 105.199219 " fill-opacity="1" fill-rule="nonzero"/><path fill="#4a3635" d="M 127.507812 105.199219 L 32.066406 105.199219 L 32.066406 105.796875 L 127.507812 105.796875 Z M 32.1875 105.199219 L 127.507812 105.199219 L 127.507812 105.796875 L 32.1875 105.796875 Z M 32.1875 105.199219 " fill-opacity="1" fill-rule="nonzero"/><path fill="#4a3635" d="M 127.507812 109.027344 L 32.066406 109.027344 L 32.066406 109.625 L 127.507812 109.625 Z M 127.507812 109.027344 " fill-opacity="1" fill-rule="nonzero"/><path fill="#4a3635" d="M 127.507812 108.90625 L 32.066406 108.90625 L 32.066406 109.625 L 127.507812 109.625 Z M 32.1875 109.027344 L 127.507812 109.027344 L 127.507812 109.625 L 32.1875 109.625 Z M 32.1875 109.027344 " fill-opacity="1" fill-rule="nonzero"/><path fill="#4a3635" d="M 127.507812 113.214844 L 32.066406 113.214844 L 32.066406 113.933594 L 127.507812 113.933594 Z M 127.507812 113.214844 " fill-opacity="1" fill-rule="nonzero"/><path fill="#4a3635" d="M 127.507812 113.214844 L 32.066406 113.214844 L 32.066406 113.933594 L 127.507812 113.933594 Z M 32.1875 113.335938 L 127.507812 113.335938 L 127.507812 113.8125 L 32.1875 113.8125 Z M 32.1875 113.335938 " fill-opacity="1" fill-rule="nonzero"/><path fill="#eaddd4" d="M 28.117188 71.695312 C 28.117188 71.695312 32.1875 82.105469 28.59375 91.199219 L 134.570312 91.199219 L 134.570312 70.140625 Z M 28.117188 71.695312 " fill-opacity="1" fill-rule="evenodd"/><path fill="#4a3635" d="M 27.757812 71.816406 C 27.757812 71.816406 31.707031 82.105469 28.234375 90.960938 L 27.996094 91.558594 L 134.929688 91.558594 L 134.929688 69.664062 L 134.570312 69.78125 L 28.117188 71.21875 L 27.519531 71.335938 Z M 29.195312 90.722656 C 31.949219 82.945312 29.433594 74.328125 28.714844 72.054688 L 134.09375 70.621094 L 134.09375 90.722656 Z M 29.195312 90.722656 " fill-opacity="1" fill-rule="nonzero"/><path fill="#a9b549" d="M 23.207031 72.535156 L 132.058594 72.535156 L 132.058594 90.003906 L 23.925781 90.003906 L 23.925781 94.789062 L 134.570312 94.789062 C 135.890625 94.789062 136.964844 93.710938 136.964844 92.394531 L 136.964844 70.140625 C 136.964844 68.824219 135.890625 67.75 134.570312 67.75 L 23.207031 67.75 Z M 23.207031 72.535156 " fill-opacity="1" fill-rule="nonzero"/><path fill="#000000" d="M 127.027344 77.199219 L 31.707031 77.199219 L 31.707031 77.796875 L 127.027344 77.796875 Z M 127.027344 77.199219 " fill-opacity="1" fill-rule="nonzero"/><path fill="#4a3635" d="M 127.027344 77.082031 L 31.589844 77.082031 L 31.589844 77.796875 L 127.148438 77.796875 L 127.148438 77.082031 Z M 31.707031 77.199219 L 127.027344 77.199219 L 127.027344 77.796875 L 31.707031 77.796875 Z M 31.707031 77.199219 " fill-opacity="1" fill-rule="nonzero"/><path fill="#4a3635" d="M 127.027344 80.910156 L 31.707031 80.910156 L 31.707031 81.628906 L 127.027344 81.628906 Z M 127.027344 80.910156 " fill-opacity="1" fill-rule="nonzero"/><path fill="#4a3635" d="M 127.027344 80.910156 L 31.589844 80.910156 L 31.589844 81.628906 L 127.148438 81.628906 L 127.148438 80.910156 Z M 31.707031 81.027344 L 127.027344 81.027344 L 127.027344 81.507812 L 31.707031 81.507812 Z M 31.707031 81.027344 " fill-opacity="1" fill-rule="nonzero"/><path fill="#4a3635" d="M 127.027344 85.21875 L 31.707031 85.21875 L 31.707031 85.816406 L 127.027344 85.816406 Z M 127.027344 85.21875 " fill-opacity="1" fill-rule="nonzero"/><path fill="#4a3635" d="M 127.027344 85.21875 L 31.589844 85.21875 L 31.589844 85.933594 L 127.148438 85.933594 L 127.148438 85.21875 Z M 31.707031 85.335938 L 127.027344 85.335938 L 127.027344 85.816406 L 31.707031 85.816406 Z M 31.707031 85.335938 " fill-opacity="1" fill-rule="nonzero"/><path stroke-linecap="butt" transform="matrix(-0.119747, 0, 0, 0.119649, 373.347596, 20.008049)" fill-opacity="1" fill="#ef8494" fill-rule="nonzero" stroke-linejoin="round" d="M 2923.998675 439.00847 L 2014.987106 439.00847 L 2014.987106 585.007928 L 2917.996446 585.007928 L 2917.996446 625.001071 L 1994.011924 625.001071 C 1982.986089 625.001071 1974.015366 615.990371 1974.015366 604.988175 L 1974.015366 418.995574 C 1974.015366 407.993379 1982.986089 399.015327 1994.011924 399.015327 L 2923.998675 399.015327 Z M 2923.998675 439.00847 " stroke="#4a3635" stroke-width="9.999" stroke-opacity="1" stroke-miterlimit="4"/><path fill="#eaddd4" d="M 143.792969 99.695312 C 143.792969 99.695312 147.863281 110.105469 144.269531 119.199219 L 250.246094 119.199219 L 250.246094 98.140625 Z M 143.792969 99.695312 " fill-opacity="1" fill-rule="evenodd"/><path fill="#4a3635" d="M 143.433594 99.8125 C 143.433594 99.933594 147.382812 110.105469 143.910156 119.078125 L 143.671875 119.554688 L 250.605469 119.554688 L 250.605469 97.78125 L 250.246094 97.78125 L 143.792969 99.335938 L 143.195312 99.335938 Z M 144.871094 118.71875 C 147.625 110.941406 145.109375 102.328125 144.390625 100.171875 L 249.769531 98.617188 L 249.769531 118.71875 Z M 144.871094 118.71875 " fill-opacity="1" fill-rule="nonzero"/><path fill="#a9b549" d="M 138.882812 100.652344 L 247.734375 100.652344 L 247.734375 118 L 139.601562 118 L 139.601562 122.90625 L 250.246094 122.90625 C 251.566406 122.90625 252.640625 121.710938 252.640625 120.394531 L 252.640625 98.140625 C 252.640625 96.824219 251.566406 95.746094 250.246094 95.746094 L 138.882812 95.746094 Z M 138.882812 100.652344 " fill-opacity="1" fill-rule="nonzero"/><path fill="#000000" d="M 242.703125 105.199219 L 147.382812 105.199219 L 147.382812 105.796875 L 242.703125 105.796875 Z M 242.703125 105.199219 " fill-opacity="1" fill-rule="nonzero"/><path fill="#4a3635" d="M 242.703125 105.199219 L 147.265625 105.199219 L 147.265625 105.796875 L 242.824219 105.796875 L 242.824219 105.199219 Z M 147.382812 105.199219 L 242.703125 105.199219 L 242.703125 105.796875 L 147.382812 105.796875 Z M 147.382812 105.199219 " fill-opacity="1" fill-rule="nonzero"/><path fill="#4a3635" d="M 242.703125 109.027344 L 147.382812 109.027344 L 147.382812 109.625 L 242.703125 109.625 Z M 242.703125 109.027344 " fill-opacity="1" fill-rule="nonzero"/><path fill="#4a3635" d="M 242.703125 108.90625 L 147.265625 108.90625 L 147.265625 109.625 L 242.824219 109.625 L 242.824219 108.90625 Z M 147.382812 109.027344 L 242.703125 109.027344 L 242.703125 109.503906 L 147.382812 109.503906 Z M 147.382812 109.027344 " fill-opacity="1" fill-rule="nonzero"/><path fill="#4a3635" d="M 242.703125 113.214844 L 147.382812 113.214844 L 147.382812 113.933594 L 242.703125 113.933594 Z M 242.703125 113.214844 " fill-opacity="1" fill-rule="nonzero"/><path fill="#4a3635" d="M 242.703125 113.214844 L 147.265625 113.214844 L 147.265625 113.933594 L 242.824219 113.933594 L 242.824219 113.214844 Z M 147.382812 113.335938 L 242.703125 113.335938 L 242.703125 113.8125 L 147.382812 113.8125 Z M 147.382812 113.335938 " fill-opacity="1" fill-rule="nonzero"/><path stroke-linecap="butt" transform="matrix(-0.119747, 0, 0, 0.119649, 373.347596, 20.008049)" fill-opacity="1" fill="#ef8494" fill-rule="nonzero" stroke-linejoin="round" d="M 1957.998546 674.004914 L 1048.986977 674.004914 L 1048.986977 818.9923 L 1951.996317 818.9923 L 1951.996317 859.997515 L 1028.011795 859.997515 C 1016.98596 859.997515 1008.015237 850.007391 1008.015237 839.005196 L 1008.015237 653.012595 C 1008.015237 642.010399 1016.98596 632.999699 1028.011795 632.999699 L 1957.998546 632.999699 Z M 1957.998546 674.004914 " stroke="#4a3635" stroke-width="9.999" stroke-opacity="1" stroke-miterlimit="4"/><path fill="#eaddd4" d="M 143.792969 71.578125 C 143.792969 71.578125 147.863281 81.988281 144.269531 91.078125 L 250.246094 91.078125 L 250.246094 70.023438 Z M 143.792969 71.578125 " fill-opacity="1" fill-rule="evenodd"/><path fill="#4a3635" d="M 143.433594 71.695312 C 143.433594 71.816406 147.382812 81.988281 143.910156 90.960938 L 143.671875 91.4375 L 250.605469 91.4375 L 250.605469 69.664062 L 250.246094 69.664062 L 143.792969 71.21875 L 143.195312 71.21875 Z M 144.871094 90.601562 C 147.625 82.824219 145.109375 74.210938 144.390625 72.054688 L 249.769531 70.5 L 249.769531 90.601562 Z M 144.871094 90.601562 " fill-opacity="1" fill-rule="nonzero"/><path fill="#a9b549" d="M 138.882812 72.535156 L 247.734375 72.535156 L 247.734375 89.882812 L 139.601562 89.882812 L 139.601562 94.789062 L 250.246094 94.789062 C 251.566406 94.789062 252.640625 93.59375 252.640625 92.277344 L 252.640625 70.023438 C 252.640625 68.707031 251.566406 67.628906 250.246094 67.628906 L 138.882812 67.628906 Z M 138.882812 72.535156 " fill-opacity="1" fill-rule="nonzero"/><path fill="#000000" d="M 242.703125 77.082031 L 147.382812 77.082031 L 147.382812 77.679688 L 242.703125 77.679688 Z M 242.703125 77.082031 " fill-opacity="1" fill-rule="nonzero"/><path fill="#4a3635" d="M 242.703125 77.082031 L 147.265625 77.082031 L 147.265625 77.679688 L 242.824219 77.679688 L 242.824219 77.082031 Z M 147.382812 77.082031 L 242.703125 77.082031 L 242.703125 77.679688 L 147.382812 77.679688 Z M 147.382812 77.082031 " fill-opacity="1" fill-rule="nonzero"/><path fill="#4a3635" d="M 242.703125 80.910156 L 147.382812 80.910156 L 147.382812 81.507812 L 242.703125 81.507812 Z M 242.703125 80.910156 " fill-opacity="1" fill-rule="nonzero"/><path fill="#4a3635" d="M 242.703125 80.789062 L 147.265625 80.789062 L 147.265625 81.507812 L 242.824219 81.507812 L 242.824219 80.789062 Z M 147.382812 80.910156 L 242.703125 80.910156 L 242.703125 81.386719 L 147.382812 81.386719 Z M 147.382812 80.910156 " fill-opacity="1" fill-rule="nonzero"/><path fill="#4a3635" d="M 242.703125 85.097656 L 147.382812 85.097656 L 147.382812 85.695312 L 242.703125 85.695312 Z M 242.703125 85.097656 " fill-opacity="1" fill-rule="nonzero"/><path fill="#4a3635" d="M 242.703125 85.097656 L 147.265625 85.097656 L 147.265625 85.816406 L 242.824219 85.816406 L 242.824219 85.097656 Z M 147.382812 85.21875 L 242.703125 85.21875 L 242.703125 85.695312 L 147.382812 85.695312 Z M 147.382812 85.21875 " fill-opacity="1" fill-rule="nonzero"/><path stroke-linecap="butt" transform="matrix(-0.119747, 0, 0, 0.119649, 373.347596, 20.008049)" fill-opacity="1" fill="#89c3aa" fill-rule="nonzero" stroke-linejoin="round" d="M 1957.998546 439.00847 L 1048.986977 439.00847 L 1048.986977 583.995856 L 1951.996317 583.995856 L 1951.996317 625.001071 L 1028.011795 625.001071 C 1016.98596 625.001071 1008.015237 615.010947 1008.015237 604.008752 L 1008.015237 418.016151 C 1008.015237 407.013955 1016.98596 398.003255 1028.011795 398.003255 L 1957.998546 398.003255 Z M 1957.998546 439.00847 " stroke="#4a3635" stroke-width="9.999" stroke-opacity="1" stroke-miterlimit="4"/><g clip-path="url(#7cf00c2c9c)"><path fill="#78752e" d="M 321.738281 20.605469 C 318.382812 20.605469 315.628906 23.238281 315.628906 26.589844 L 315.628906 57.457031 L 311.796875 57.457031 L 311.796875 44.777344 C 311.796875 42.261719 309.761719 40.230469 307.246094 40.230469 C 304.734375 40.230469 302.695312 42.261719 302.695312 44.777344 L 302.695312 61.765625 C 302.695312 63.917969 304.132812 65.832031 306.167969 66.191406 C 306.648438 66.433594 307.246094 66.550781 307.847656 66.550781 L 315.628906 66.550781 L 315.628906 77.679688 C 315.628906 81.027344 318.382812 83.78125 321.738281 83.78125 C 325.089844 83.78125 327.84375 81.027344 327.84375 77.679688 L 327.84375 56.382812 C 328.082031 56.5 328.441406 56.5 328.800781 56.5 L 336.464844 56.5 C 337.421875 56.5 338.261719 56.261719 338.980469 55.664062 C 340.417969 54.945312 341.253906 53.511719 341.253906 51.714844 L 341.253906 34.726562 C 341.253906 32.210938 339.21875 30.179688 336.703125 30.179688 C 334.191406 30.179688 332.15625 32.210938 332.15625 34.726562 L 332.15625 47.40625 L 328.800781 47.40625 C 328.441406 47.40625 328.082031 47.40625 327.84375 47.527344 L 327.84375 26.589844 C 327.84375 23.238281 325.089844 20.605469 321.738281 20.605469 Z M 321.738281 20.605469 " fill-opacity="1" fill-rule="evenodd"/></g><g clip-path="url(#f83b4b3239)"><path fill="#4a3635" d="M 321.738281 20.007812 C 319.820312 20.007812 318.265625 20.726562 317.066406 21.921875 C 315.75 23.117188 315.03125 24.792969 315.03125 26.589844 L 315.03125 56.859375 L 312.277344 56.859375 L 312.277344 44.777344 C 312.277344 43.339844 311.679688 42.144531 310.839844 41.1875 C 309.882812 40.230469 308.5625 39.75 307.246094 39.75 C 305.808594 39.75 304.492188 40.230469 303.65625 41.1875 C 302.695312 42.144531 302.097656 43.339844 302.097656 44.777344 L 302.097656 61.765625 C 302.097656 62.960938 302.457031 64.039062 303.175781 64.996094 C 303.894531 65.832031 304.851562 66.550781 306.050781 66.789062 C 306.289062 66.910156 306.648438 66.910156 306.886719 67.03125 C 307.246094 67.03125 307.488281 67.148438 307.847656 67.148438 L 315.03125 67.148438 L 315.03125 77.679688 C 315.03125 79.59375 315.75 81.269531 317.066406 82.464844 C 318.265625 83.660156 319.820312 84.378906 321.738281 84.378906 C 323.53125 84.378906 325.210938 83.660156 326.40625 82.464844 C 327.605469 81.269531 328.324219 79.59375 328.324219 77.679688 L 328.324219 57.097656 C 328.441406 57.097656 328.683594 57.097656 328.800781 57.097656 L 336.464844 57.097656 C 336.945312 57.097656 337.421875 56.980469 337.902344 56.859375 C 338.382812 56.742188 338.859375 56.5 339.339844 56.140625 C 340.058594 55.785156 340.65625 55.066406 341.136719 54.347656 C 341.613281 53.511719 341.855469 52.671875 341.855469 51.714844 L 341.855469 34.726562 C 341.855469 33.410156 341.253906 32.09375 340.296875 31.136719 C 339.460938 30.296875 338.140625 29.699219 336.703125 29.699219 C 335.386719 29.699219 334.070312 30.296875 333.113281 31.136719 C 332.15625 32.09375 331.675781 33.410156 331.675781 34.726562 L 331.675781 46.929688 L 328.800781 46.929688 C 328.683594 46.929688 328.441406 46.929688 328.324219 46.929688 L 328.324219 26.589844 C 328.324219 24.792969 327.605469 23.117188 326.40625 21.921875 C 325.210938 20.726562 323.53125 20.007812 321.738281 20.007812 Z M 321.738281 21.085938 C 323.171875 21.085938 324.609375 21.683594 325.570312 22.761719 C 326.644531 23.71875 327.246094 25.152344 327.246094 26.589844 L 327.246094 48.246094 L 327.964844 48.007812 C 328.082031 48.007812 328.203125 48.007812 328.324219 48.007812 C 328.441406 48.007812 328.5625 48.007812 328.800781 48.007812 L 332.753906 48.007812 L 332.753906 34.726562 C 332.753906 33.648438 333.230469 32.691406 333.949219 31.972656 C 334.667969 31.253906 335.628906 30.777344 336.703125 30.777344 C 337.78125 30.777344 338.859375 31.253906 339.578125 31.972656 C 340.296875 32.691406 340.777344 33.648438 340.777344 34.726562 L 340.777344 51.714844 C 340.777344 52.550781 340.535156 53.152344 340.175781 53.75 C 339.820312 54.347656 339.339844 54.945312 338.742188 55.304688 C 338.382812 55.542969 338.023438 55.664062 337.664062 55.785156 C 337.183594 55.902344 336.824219 56.023438 336.464844 56.023438 L 328.800781 56.023438 C 328.5625 56.023438 328.441406 56.023438 328.324219 56.023438 C 328.203125 55.902344 328.082031 55.902344 327.964844 55.902344 L 327.246094 55.785156 L 327.246094 77.679688 C 327.246094 79.234375 326.644531 80.671875 325.570312 81.628906 C 324.609375 82.703125 323.171875 83.300781 321.738281 83.300781 C 320.179688 83.300781 318.742188 82.703125 317.785156 81.628906 C 316.828125 80.671875 316.109375 79.234375 316.109375 77.679688 L 316.109375 66.074219 L 307.847656 66.074219 C 307.605469 66.074219 307.367188 65.953125 307.128906 65.953125 C 306.886719 65.953125 306.648438 65.832031 306.410156 65.714844 L 306.289062 65.714844 C 305.449219 65.476562 304.613281 64.996094 304.015625 64.277344 C 303.535156 63.558594 303.175781 62.722656 303.175781 61.765625 L 303.175781 44.777344 C 303.175781 43.699219 303.65625 42.742188 304.375 42.023438 C 305.089844 41.1875 306.050781 40.828125 307.246094 40.828125 C 308.324219 40.828125 309.28125 41.1875 310 42.023438 C 310.71875 42.742188 311.199219 43.699219 311.199219 44.777344 L 311.199219 57.9375 L 316.109375 57.9375 L 316.109375 26.589844 C 316.109375 25.152344 316.828125 23.71875 317.785156 22.761719 C 318.742188 21.683594 320.179688 21.085938 321.738281 21.085938 Z M 321.738281 21.085938 " fill-opacity="1" fill-rule="nonzero"/></g><path fill="#eaddd4" d="M 334.070312 81.988281 L 307.605469 81.988281 C 303.535156 81.988281 300.0625 86.414062 300.0625 91.917969 L 300.0625 112.019531 C 300.0625 117.523438 303.535156 122.070312 307.605469 122.070312 L 334.070312 122.070312 C 338.261719 122.070312 341.734375 117.523438 341.734375 112.019531 L 341.734375 91.917969 C 341.734375 86.414062 338.261719 81.988281 334.070312 81.988281 Z M 334.070312 81.988281 " fill-opacity="1" fill-rule="evenodd"/><path fill="#4a3635" d="M 334.070312 81.386719 L 307.605469 81.386719 C 305.332031 81.386719 303.296875 82.585938 301.859375 84.5 C 300.421875 86.414062 299.582031 89.046875 299.582031 91.917969 L 299.582031 112.019531 C 299.582031 114.890625 300.421875 117.523438 301.859375 119.4375 C 303.296875 121.351562 305.332031 122.546875 307.605469 122.546875 L 334.070312 122.546875 C 336.347656 122.546875 338.382812 121.351562 339.9375 119.4375 C 341.375 117.523438 342.214844 114.890625 342.214844 112.019531 L 342.214844 91.917969 C 342.214844 89.046875 341.375 86.414062 339.9375 84.5 C 338.382812 82.585938 336.347656 81.386719 334.070312 81.386719 Z M 307.605469 82.464844 L 334.070312 82.464844 C 335.988281 82.464844 337.78125 83.542969 338.980469 85.21875 C 340.296875 86.890625 341.136719 89.285156 341.136719 91.917969 L 341.136719 112.019531 C 341.136719 114.652344 340.296875 117.042969 338.980469 118.71875 C 337.78125 120.394531 335.988281 121.472656 334.070312 121.472656 L 307.605469 121.472656 C 305.691406 121.472656 304.015625 120.394531 302.695312 118.71875 C 301.378906 117.042969 300.660156 114.652344 300.660156 112.019531 L 300.660156 91.917969 C 300.660156 89.285156 301.378906 86.890625 302.695312 85.21875 C 304.015625 83.542969 305.691406 82.464844 307.605469 82.464844 Z M 307.605469 82.464844 " fill-opacity="1" fill-rule="nonzero"/><path fill="#a17d75" d="M 340.535156 76.125 L 301.5 76.125 C 299.941406 76.125 298.503906 77.917969 298.503906 80.191406 L 298.503906 88.089844 C 298.503906 90.363281 299.941406 92.15625 301.5 92.15625 L 340.535156 92.15625 C 342.214844 92.15625 343.53125 90.363281 343.53125 88.089844 L 343.53125 80.191406 C 343.53125 77.917969 342.214844 76.125 340.535156 76.125 Z M 340.535156 76.125 " fill-opacity="1" fill-rule="evenodd"/><path fill="#4a3635" d="M 340.535156 75.644531 L 301.5 75.644531 C 300.542969 75.644531 299.582031 76.125 298.984375 76.960938 C 298.386719 77.796875 298.027344 78.875 298.027344 80.191406 L 298.027344 88.089844 C 298.027344 89.40625 298.386719 90.480469 298.984375 91.320312 C 299.582031 92.15625 300.542969 92.636719 301.5 92.636719 L 340.535156 92.636719 C 341.496094 92.636719 342.453125 92.15625 343.050781 91.320312 C 343.769531 90.480469 344.128906 89.40625 344.128906 88.089844 L 344.128906 80.191406 C 344.128906 78.875 343.769531 77.796875 343.050781 76.960938 C 342.453125 76.125 341.496094 75.644531 340.535156 75.644531 Z M 301.5 76.722656 L 340.535156 76.722656 C 341.136719 76.722656 341.734375 77.082031 342.214844 77.679688 C 342.691406 78.277344 343.050781 79.113281 343.050781 80.191406 L 343.050781 88.089844 C 343.050781 89.164062 342.691406 90.003906 342.214844 90.601562 C 341.734375 91.199219 341.136719 91.558594 340.535156 91.558594 L 301.5 91.558594 C 300.902344 91.558594 300.300781 91.199219 299.824219 90.601562 C 299.34375 90.003906 299.105469 89.164062 299.105469 88.089844 L 299.105469 80.191406 C 299.105469 79.113281 299.34375 78.277344 299.824219 77.679688 C 300.300781 77.082031 300.902344 76.722656 301.5 76.722656 Z M 301.5 76.722656 " fill-opacity="1" fill-rule="nonzero"/><path fill="#eaddd4" d="M 325.089844 25.75 L 324.609375 25.75 L 324.609375 29.699219 L 325.089844 29.699219 Z M 325.089844 25.75 " fill-opacity="1" fill-rule="nonzero"/><path fill="#eaddd4" d="M 319.941406 30.777344 L 319.339844 30.777344 L 319.339844 34.726562 L 319.941406 34.726562 Z M 319.941406 30.777344 " fill-opacity="1" fill-rule="nonzero"/><path fill="#eaddd4" d="M 322.8125 34.246094 L 322.335938 34.246094 L 322.335938 38.195312 L 322.8125 38.195312 Z M 322.8125 34.246094 " fill-opacity="1" fill-rule="nonzero"/><path fill="#eaddd4" d="M 325.210938 41.664062 L 324.730469 41.664062 L 324.730469 45.613281 L 325.210938 45.613281 Z M 325.210938 41.664062 " fill-opacity="1" fill-rule="nonzero"/><path fill="#eaddd4" d="M 319.460938 48.84375 L 318.863281 48.84375 L 318.863281 52.792969 L 319.460938 52.792969 Z M 319.460938 48.84375 " fill-opacity="1" fill-rule="nonzero"/><path fill="#eaddd4" d="M 338.5 35.683594 L 337.902344 35.683594 L 337.902344 39.628906 L 338.5 39.628906 Z M 338.5 35.683594 " fill-opacity="1" fill-rule="nonzero"/><path fill="#eaddd4" d="M 335.746094 42.503906 L 335.269531 42.503906 L 335.269531 46.449219 L 335.746094 46.449219 Z M 335.746094 42.503906 " fill-opacity="1" fill-rule="nonzero"/><path fill="#eaddd4" d="M 338.023438 48.007812 L 337.542969 48.007812 L 337.542969 51.953125 L 338.023438 51.953125 Z M 338.023438 48.007812 " fill-opacity="1" fill-rule="nonzero"/><path fill="#eaddd4" d="M 313.953125 60.449219 L 313.472656 60.449219 L 313.472656 64.398438 L 313.953125 64.398438 Z M 313.953125 60.449219 " fill-opacity="1" fill-rule="nonzero"/><path fill="#eaddd4" d="M 305.808594 44.777344 L 305.332031 44.777344 L 305.332031 48.605469 L 305.808594 48.605469 Z M 305.808594 44.777344 " fill-opacity="1" fill-rule="nonzero"/><path fill="#eaddd4" d="M 309.523438 49.800781 L 309.042969 49.800781 L 309.042969 53.75 L 309.523438 53.75 Z M 309.523438 49.800781 " fill-opacity="1" fill-rule="nonzero"/><path fill="#eaddd4" d="M 306.648438 59.253906 L 306.167969 59.253906 L 306.167969 63.082031 L 306.648438 63.082031 Z M 306.648438 59.253906 " fill-opacity="1" fill-rule="nonzero"/><path fill="#eaddd4" d="M 323.773438 55.425781 L 323.292969 55.425781 L 323.292969 59.253906 L 323.773438 59.253906 Z M 323.773438 55.425781 " fill-opacity="1" fill-rule="nonzero"/><path fill="#eaddd4" d="M 321.617188 66.910156 L 321.136719 66.910156 L 321.136719 70.859375 L 321.617188 70.859375 Z M 321.617188 66.910156 " fill-opacity="1" fill-rule="nonzero"/></svg>