<svg xmlns="http://www.w3.org/2000/svg" xmlns:xlink="http://www.w3.org/1999/xlink" width="400" zoomAndPan="magnify" viewBox="0 0 300 225" height="300" preserveAspectRatio="xMidYMid meet" version="1.0"><defs><clipPath id="0319b62842"><path d="M 0 3.375 L 300 3.375 L 300 225 L 0 225 Z M 0 3.375 " clip-rule="nonzero"/></clipPath><clipPath id="d58bdcaafd"><path d="M 22.5 32.175781 L 277.734375 32.175781 L 277.734375 123.933594 L 22.5 123.933594 Z M 22.5 32.175781 " clip-rule="nonzero"/></clipPath><clipPath id="f6bd825271"><path d="M 33 32.175781 L 267 32.175781 C 272.800781 32.175781 277.5 36.878906 277.5 42.675781 L 277.5 113.433594 C 277.5 119.234375 272.800781 123.933594 267 123.933594 L 33 123.933594 C 27.199219 123.933594 22.5 119.234375 22.5 113.433594 L 22.5 42.675781 C 22.5 36.878906 27.199219 32.175781 33 32.175781 " clip-rule="nonzero"/></clipPath></defs><path fill="#f7ece3" d="M 13.546875 4.164062 L 286.449219 4.164062 C 287.289062 4.164062 288.117188 4.246094 288.9375 4.40625 C 289.761719 4.570312 290.558594 4.8125 291.332031 5.136719 C 292.105469 5.457031 292.839844 5.851562 293.539062 6.316406 C 294.234375 6.78125 294.878906 7.3125 295.472656 7.90625 C 296.0625 8.5 296.59375 9.144531 297.058594 9.84375 C 297.523438 10.539062 297.917969 11.277344 298.238281 12.050781 C 298.558594 12.828125 298.800781 13.625 298.964844 14.449219 C 299.128906 15.273438 299.207031 16.105469 299.207031 16.945312 L 299.207031 211.804688 C 299.207031 212.644531 299.128906 213.472656 298.964844 214.296875 C 298.800781 215.121094 298.558594 215.917969 298.238281 216.695312 C 297.917969 217.46875 297.523438 218.207031 297.058594 218.902344 C 296.59375 219.601562 296.0625 220.246094 295.472656 220.839844 C 294.878906 221.433594 294.234375 221.964844 293.539062 222.429688 C 292.839844 222.898438 292.105469 223.289062 291.332031 223.613281 C 290.558594 223.933594 289.761719 224.175781 288.9375 224.339844 C 288.117188 224.503906 287.289062 224.585938 286.449219 224.585938 L 13.546875 224.585938 C 12.710938 224.585938 11.878906 224.503906 11.058594 224.339844 C 10.238281 224.175781 9.4375 223.933594 8.664062 223.613281 C 7.890625 223.289062 7.15625 222.898438 6.457031 222.429688 C 5.761719 221.964844 5.117188 221.433594 4.523438 220.839844 C 3.933594 220.246094 3.402344 219.601562 2.9375 218.902344 C 2.472656 218.207031 2.078125 217.46875 1.757812 216.695312 C 1.4375 215.917969 1.195312 215.121094 1.03125 214.296875 C 0.871094 213.472656 0.789062 212.644531 0.789062 211.804688 L 0.789062 16.945312 C 0.789062 16.105469 0.871094 15.273438 1.03125 14.449219 C 1.195312 13.625 1.4375 12.828125 1.757812 12.050781 C 2.078125 11.277344 2.472656 10.539062 2.9375 9.84375 C 3.402344 9.144531 3.933594 8.5 4.523438 7.90625 C 5.117188 7.3125 5.761719 6.78125 6.457031 6.316406 C 7.15625 5.851562 7.890625 5.457031 8.664062 5.136719 C 9.4375 4.8125 10.238281 4.570312 11.058594 4.40625 C 11.878906 4.246094 12.710938 4.164062 13.546875 4.164062 Z M 13.546875 4.164062 " fill-opacity="1" fill-rule="nonzero"/><g clip-path="url(#0319b62842)"><path fill="#a57d71" d="M 286.449219 225.371094 L 13.546875 225.371094 C 6.078125 225.371094 0 219.285156 0 211.804688 L 0 16.945312 C 0 9.460938 6.078125 3.375 13.546875 3.375 L 286.449219 3.375 C 293.917969 3.375 299.996094 9.460938 299.996094 16.945312 L 299.996094 211.804688 C 299.996094 219.285156 293.921875 225.371094 286.449219 225.371094 Z M 13.546875 4.949219 C 6.945312 4.949219 1.574219 10.332031 1.574219 16.945312 L 1.574219 211.804688 C 1.574219 218.417969 6.945312 223.796875 13.546875 223.796875 L 286.449219 223.796875 C 293.050781 223.796875 298.425781 218.414062 298.425781 211.804688 L 298.425781 16.945312 C 298.425781 10.328125 293.050781 4.949219 286.449219 4.949219 Z M 13.546875 4.949219 " fill-opacity="1" fill-rule="nonzero"/></g><path fill="#e0b9a5" d="M 31.085938 20.125 L 268.914062 20.125 C 269.75 20.125 270.578125 20.207031 271.402344 20.371094 C 272.222656 20.535156 273.019531 20.777344 273.796875 21.097656 C 274.570312 21.421875 275.304688 21.8125 276 22.28125 C 276.699219 22.746094 277.34375 23.277344 277.933594 23.871094 C 278.527344 24.464844 279.054688 25.109375 279.519531 25.804688 C 279.988281 26.503906 280.378906 27.242188 280.699219 28.015625 C 281.019531 28.792969 281.261719 29.589844 281.425781 30.414062 C 281.589844 31.238281 281.671875 32.066406 281.671875 32.90625 L 281.671875 123.433594 C 281.671875 124.273438 281.589844 125.105469 281.425781 125.925781 C 281.261719 126.75 281.019531 127.550781 280.699219 128.324219 C 280.378906 129.101562 279.988281 129.835938 279.519531 130.535156 C 279.054688 131.230469 278.527344 131.878906 277.933594 132.472656 C 277.34375 133.0625 276.699219 133.59375 276 134.058594 C 275.304688 134.527344 274.570312 134.921875 273.796875 135.242188 C 273.019531 135.5625 272.222656 135.804688 271.402344 135.96875 C 270.578125 136.132812 269.75 136.214844 268.914062 136.214844 L 31.085938 136.214844 C 30.246094 136.214844 29.417969 136.132812 28.59375 135.96875 C 27.773438 135.804688 26.976562 135.5625 26.203125 135.242188 C 25.429688 134.921875 24.691406 134.527344 23.996094 134.058594 C 23.300781 133.59375 22.65625 133.0625 22.0625 132.472656 C 21.46875 131.878906 20.941406 131.230469 20.476562 130.535156 C 20.011719 129.835938 19.617188 129.101562 19.296875 128.324219 C 18.976562 127.550781 18.734375 126.75 18.570312 125.925781 C 18.40625 125.105469 18.324219 124.273438 18.324219 123.433594 L 18.324219 32.90625 C 18.324219 32.066406 18.40625 31.238281 18.570312 30.414062 C 18.734375 29.589844 18.976562 28.792969 19.296875 28.015625 C 19.617188 27.242188 20.011719 26.503906 20.476562 25.804688 C 20.941406 25.109375 21.46875 24.464844 22.0625 23.871094 C 22.65625 23.277344 23.300781 22.746094 23.996094 22.28125 C 24.691406 21.8125 25.429688 21.421875 26.203125 21.097656 C 26.976562 20.777344 27.773438 20.535156 28.59375 20.371094 C 29.417969 20.207031 30.246094 20.125 31.085938 20.125 Z M 31.085938 20.125 " fill-opacity="1" fill-rule="nonzero"/><path fill="#a57d71" d="M 268.914062 137 L 31.085938 137 C 23.617188 137 17.539062 130.914062 17.539062 123.433594 L 17.539062 32.910156 C 17.539062 25.425781 23.617188 19.339844 31.085938 19.339844 L 268.914062 19.339844 C 276.382812 19.339844 282.460938 25.425781 282.460938 32.910156 L 282.460938 123.433594 C 282.460938 130.914062 276.382812 137 268.914062 137 Z M 31.085938 20.914062 C 24.484375 20.914062 19.113281 26.292969 19.113281 32.90625 L 19.113281 123.433594 C 19.113281 130.046875 24.484375 135.425781 31.085938 135.425781 L 268.914062 135.425781 C 275.515625 135.425781 280.886719 130.046875 280.886719 123.433594 L 280.886719 32.910156 C 280.886719 26.292969 275.515625 20.914062 268.914062 20.914062 Z M 31.085938 20.914062 " fill-opacity="1" fill-rule="nonzero"/><path fill="#ccd5b1" d="M 214.519531 181.027344 C 214.519531 181.742188 214.449219 182.445312 214.308594 183.144531 C 214.171875 183.84375 213.964844 184.523438 213.691406 185.183594 C 213.421875 185.839844 213.085938 186.464844 212.691406 187.058594 C 212.296875 187.652344 211.847656 188.199219 211.34375 188.703125 C 210.839844 189.207031 210.292969 189.65625 209.703125 190.054688 C 209.109375 190.449219 208.484375 190.78125 207.828125 191.054688 C 207.171875 191.328125 206.492188 191.535156 205.796875 191.671875 C 205.097656 191.8125 204.394531 191.882812 203.683594 191.882812 C 202.972656 191.882812 202.265625 191.8125 201.570312 191.671875 C 200.871094 191.535156 200.191406 191.328125 199.535156 191.054688 C 198.878906 190.78125 198.253906 190.449219 197.664062 190.054688 C 197.070312 189.65625 196.523438 189.207031 196.019531 188.703125 C 195.519531 188.199219 195.070312 187.652344 194.671875 187.058594 C 194.277344 186.464844 193.945312 185.839844 193.671875 185.183594 C 193.398438 184.523438 193.195312 183.84375 193.054688 183.144531 C 192.917969 182.445312 192.847656 181.742188 192.847656 181.027344 C 192.847656 180.316406 192.917969 179.609375 193.054688 178.910156 C 193.195312 178.210938 193.398438 177.535156 193.671875 176.875 C 193.945312 176.214844 194.277344 175.589844 194.671875 175 C 195.070312 174.40625 195.519531 173.859375 196.019531 173.355469 C 196.523438 172.851562 197.070312 172.398438 197.664062 172.003906 C 198.253906 171.609375 198.878906 171.273438 199.535156 171 C 200.191406 170.726562 200.871094 170.523438 201.570312 170.382812 C 202.265625 170.246094 202.972656 170.175781 203.683594 170.175781 C 204.394531 170.175781 205.097656 170.246094 205.796875 170.382812 C 206.492188 170.523438 207.171875 170.726562 207.828125 171 C 208.484375 171.273438 209.109375 171.609375 209.703125 172.003906 C 210.292969 172.398438 210.839844 172.851562 211.34375 173.355469 C 211.847656 173.859375 212.296875 174.40625 212.691406 175 C 213.085938 175.589844 213.421875 176.214844 213.691406 176.875 C 213.964844 177.535156 214.171875 178.210938 214.308594 178.910156 C 214.449219 179.609375 214.519531 180.316406 214.519531 181.027344 Z M 214.519531 181.027344 " fill-opacity="1" fill-rule="nonzero"/><path fill="#a57d71" d="M 203.683594 192.667969 C 197.273438 192.667969 192.0625 187.445312 192.0625 181.027344 C 192.0625 174.609375 197.273438 169.386719 203.683594 169.386719 C 210.089844 169.386719 215.304688 174.609375 215.304688 181.027344 C 215.304688 187.445312 210.089844 192.667969 203.683594 192.667969 Z M 203.683594 170.960938 C 198.140625 170.960938 193.632812 175.476562 193.632812 181.027344 C 193.632812 186.578125 198.140625 191.09375 203.683594 191.09375 C 209.222656 191.09375 213.730469 186.578125 213.730469 181.027344 C 213.730469 175.476562 209.222656 170.960938 203.683594 170.960938 Z M 203.683594 170.960938 " fill-opacity="1" fill-rule="nonzero"/><path fill="#fde0a6" d="M 272.828125 181.027344 C 272.828125 181.804688 272.789062 182.578125 272.714844 183.347656 C 272.640625 184.121094 272.523438 184.886719 272.375 185.644531 C 272.222656 186.40625 272.035156 187.15625 271.8125 187.898438 C 271.585938 188.640625 271.324219 189.367188 271.03125 190.085938 C 270.734375 190.800781 270.402344 191.5 270.039062 192.183594 C 269.675781 192.867188 269.277344 193.53125 268.847656 194.175781 C 268.417969 194.820312 267.957031 195.441406 267.464844 196.042969 C 266.972656 196.640625 266.457031 197.214844 265.910156 197.761719 C 265.359375 198.3125 264.789062 198.832031 264.191406 199.324219 C 263.59375 199.8125 262.972656 200.277344 262.328125 200.707031 C 261.683594 201.136719 261.023438 201.535156 260.339844 201.898438 C 259.65625 202.265625 258.957031 202.597656 258.242188 202.894531 C 257.527344 203.191406 256.800781 203.449219 256.058594 203.675781 C 255.320312 203.902344 254.570312 204.089844 253.8125 204.238281 C 253.050781 204.390625 252.289062 204.503906 251.519531 204.582031 C 250.746094 204.65625 249.976562 204.695312 249.203125 204.695312 C 248.429688 204.695312 247.65625 204.65625 246.886719 204.582031 C 246.117188 204.503906 245.351562 204.390625 244.59375 204.238281 C 243.835938 204.089844 243.085938 203.902344 242.34375 203.675781 C 241.601562 203.449219 240.875 203.191406 240.160156 202.894531 C 239.445312 202.597656 238.746094 202.265625 238.066406 201.898438 C 237.382812 201.535156 236.71875 201.136719 236.078125 200.707031 C 235.433594 200.277344 234.8125 199.8125 234.214844 199.324219 C 233.617188 198.832031 233.042969 198.3125 232.496094 197.761719 C 231.949219 197.214844 231.429688 196.640625 230.9375 196.042969 C 230.449219 195.441406 229.988281 194.820312 229.558594 194.175781 C 229.128906 193.53125 228.730469 192.867188 228.367188 192.183594 C 228 191.5 227.671875 190.800781 227.375 190.085938 C 227.078125 189.367188 226.816406 188.640625 226.59375 187.898438 C 226.367188 187.15625 226.179688 186.40625 226.03125 185.644531 C 225.878906 184.886719 225.765625 184.121094 225.691406 183.347656 C 225.613281 182.578125 225.574219 181.804688 225.574219 181.027344 C 225.574219 180.253906 225.613281 179.480469 225.691406 178.707031 C 225.765625 177.9375 225.878906 177.171875 226.03125 176.410156 C 226.179688 175.652344 226.367188 174.898438 226.59375 174.160156 C 226.816406 173.417969 227.078125 172.6875 227.375 171.972656 C 227.671875 171.253906 228 170.554688 228.367188 169.871094 C 228.730469 169.1875 229.128906 168.523438 229.558594 167.878906 C 229.988281 167.234375 230.449219 166.613281 230.9375 166.015625 C 231.429688 165.414062 231.949219 164.84375 232.496094 164.292969 C 233.042969 163.746094 233.617188 163.226562 234.214844 162.734375 C 234.8125 162.242188 235.433594 161.78125 236.078125 161.351562 C 236.71875 160.921875 237.382812 160.523438 238.066406 160.15625 C 238.746094 159.792969 239.445312 159.460938 240.160156 159.164062 C 240.875 158.867188 241.601562 158.605469 242.34375 158.382812 C 243.085938 158.15625 243.835938 157.96875 244.59375 157.816406 C 245.351562 157.664062 246.117188 157.550781 246.886719 157.476562 C 247.65625 157.402344 248.429688 157.363281 249.203125 157.363281 C 249.976562 157.363281 250.746094 157.402344 251.519531 157.476562 C 252.289062 157.550781 253.050781 157.664062 253.8125 157.816406 C 254.570312 157.96875 255.320312 158.15625 256.058594 158.382812 C 256.800781 158.605469 257.527344 158.867188 258.242188 159.164062 C 258.957031 159.460938 259.65625 159.792969 260.339844 160.15625 C 261.023438 160.523438 261.683594 160.921875 262.328125 161.351562 C 262.972656 161.78125 263.59375 162.242188 264.191406 162.734375 C 264.789062 163.226562 265.359375 163.746094 265.910156 164.292969 C 266.457031 164.84375 266.976562 165.414062 267.464844 166.015625 C 267.957031 166.613281 268.417969 167.234375 268.847656 167.878906 C 269.277344 168.523438 269.675781 169.1875 270.039062 169.871094 C 270.402344 170.554688 270.734375 171.253906 271.03125 171.972656 C 271.324219 172.6875 271.585938 173.417969 271.8125 174.160156 C 272.035156 174.898438 272.222656 175.652344 272.375 176.410156 C 272.523438 177.171875 272.640625 177.9375 272.714844 178.707031 C 272.789062 179.480469 272.828125 180.253906 272.828125 181.027344 Z M 272.828125 181.027344 " fill-opacity="1" fill-rule="nonzero"/><path fill="#a57d71" d="M 249.203125 205.480469 C 235.742188 205.480469 224.789062 194.511719 224.789062 181.027344 C 224.789062 167.546875 235.742188 156.574219 249.203125 156.574219 C 262.664062 156.574219 273.613281 167.546875 273.613281 181.027344 C 273.613281 194.511719 262.664062 205.480469 249.203125 205.480469 Z M 249.203125 158.148438 C 236.609375 158.148438 226.363281 168.414062 226.363281 181.027344 C 226.363281 193.644531 236.609375 203.90625 249.203125 203.90625 C 261.796875 203.90625 272.042969 193.644531 272.042969 181.027344 C 272.042969 168.414062 261.796875 158.148438 249.203125 158.148438 Z M 249.203125 158.148438 " fill-opacity="1" fill-rule="nonzero"/><path fill="#a57d71" d="M 86.085938 77.382812 C 86.085938 99.070312 78.050781 111.042969 63.945312 111.042969 C 51.503906 111.042969 43.082031 99.363281 42.882812 78.269531 C 42.882812 56.878906 52.089844 45.101562 65.023438 45.101562 C 77.953125 45.101562 86.082031 57.074219 86.082031 77.382812 Z M 51.503906 78.367188 C 51.503906 94.949219 56.597656 104.367188 64.4375 104.367188 C 73.253906 104.367188 77.464844 94.066406 77.464844 77.777344 C 77.464844 61.488281 73.449219 51.773438 64.535156 51.773438 C 56.992188 51.773438 51.503906 60.996094 51.503906 78.367188 Z M 51.503906 78.367188 " fill-opacity="1" fill-rule="nonzero"/><path fill="#a57d71" d="M 99.015625 103.878906 C 100.875 104.074219 103.03125 103.878906 105.96875 103.585938 C 110.964844 102.898438 115.667969 100.835938 119.292969 97.402344 C 123.503906 93.578125 126.539062 87.984375 127.714844 80.429688 L 127.421875 80.429688 C 123.894531 84.746094 118.800781 87.296875 112.433594 87.296875 C 100.972656 87.296875 93.628906 78.664062 93.628906 67.769531 C 93.628906 55.699219 102.347656 45.105469 115.375 45.105469 C 128.402344 45.105469 136.4375 55.699219 136.4375 71.992188 C 136.4375 86.023438 131.734375 95.835938 125.464844 101.917969 C 120.566406 106.726562 113.804688 109.667969 106.949219 110.457031 C 103.816406 110.945312 101.070312 111.042969 99.015625 110.945312 Z M 102.148438 67.179688 C 102.148438 75.128906 106.949219 80.722656 114.394531 80.722656 C 120.171875 80.722656 124.679688 77.875 126.933594 74.050781 C 127.425781 73.265625 127.714844 72.28125 127.714844 70.910156 C 127.714844 60.015625 123.699219 51.675781 114.6875 51.675781 C 107.339844 51.675781 102.148438 58.152344 102.148438 67.179688 Z M 102.148438 67.179688 " fill-opacity="1" fill-rule="nonzero"/><path fill="#a57d71" d="M 144.953125 70.320312 C 144.953125 66.691406 147.40625 64.140625 150.832031 64.140625 C 154.261719 64.140625 156.515625 66.691406 156.613281 70.320312 C 156.613281 73.753906 154.359375 76.402344 150.734375 76.402344 C 147.304688 76.402344 144.953125 73.753906 144.953125 70.320312 Z M 144.953125 104.957031 C 144.953125 101.328125 147.40625 98.777344 150.832031 98.777344 C 154.261719 98.777344 156.515625 101.328125 156.613281 104.957031 C 156.613281 108.390625 154.359375 111.042969 150.734375 111.042969 C 147.304688 111.042969 144.953125 108.390625 144.953125 104.957031 Z M 144.953125 104.957031 " fill-opacity="1" fill-rule="nonzero"/><path fill="#a57d71" d="M 202.554688 53.441406 L 178.257812 53.441406 L 175.808594 69.832031 C 177.28125 69.632812 178.652344 69.4375 181 69.4375 C 185.898438 69.4375 190.796875 70.515625 194.714844 72.871094 C 199.710938 75.71875 203.824219 81.210938 203.824219 89.261719 C 203.824219 101.722656 193.933594 111.042969 180.117188 111.042969 C 173.164062 111.042969 167.285156 109.082031 164.25 107.121094 L 166.40625 100.546875 C 169.050781 102.113281 174.242188 104.078125 180.023438 104.078125 C 188.152344 104.078125 195.109375 98.777344 195.109375 90.242188 C 195.011719 82 189.523438 76.109375 176.789062 76.109375 C 173.164062 76.109375 170.324219 76.503906 167.972656 76.796875 L 172.085938 46.183594 L 202.550781 46.183594 L 202.550781 53.445312 Z M 202.554688 53.441406 " fill-opacity="1" fill-rule="nonzero"/><path fill="#a57d71" d="M 252.804688 53.441406 L 228.507812 53.441406 L 226.058594 69.832031 C 227.53125 69.632812 228.902344 69.4375 231.25 69.4375 C 236.148438 69.4375 241.046875 70.515625 244.964844 72.871094 C 249.960938 75.71875 254.074219 81.210938 254.074219 89.261719 C 254.074219 101.722656 244.183594 111.042969 230.371094 111.042969 C 223.414062 111.042969 217.535156 109.082031 214.5 107.121094 L 216.65625 100.546875 C 219.300781 102.113281 224.492188 104.078125 230.273438 104.078125 C 238.402344 104.078125 245.359375 98.777344 245.359375 90.242188 C 245.261719 82 239.773438 76.109375 227.039062 76.109375 C 223.414062 76.109375 220.574219 76.503906 218.222656 76.796875 L 222.335938 46.183594 L 252.800781 46.183594 L 252.800781 53.445312 Z M 252.804688 53.441406 " fill-opacity="1" fill-rule="nonzero"/><g clip-path="url(#d58bdcaafd)"><g clip-path="url(#f6bd825271)"><path fill="#dfb9a4" d="M 22.5 32.175781 L 277.734375 32.175781 L 277.734375 123.933594 L 22.5 123.933594 Z M 22.5 32.175781 " fill-opacity="1" fill-rule="nonzero"/></g></g></svg>