<svg xmlns="http://www.w3.org/2000/svg" xmlns:xlink="http://www.w3.org/1999/xlink" width="200" zoomAndPan="magnify" viewBox="0 0 150 374.999991" height="500" preserveAspectRatio="xMidYMid meet" version="1.0"><path fill="#a67e71" d="M 62.320312 332.125 C 61.804688 332.125 61.34375 331.742188 61.246094 331.207031 C 61.152344 330.613281 51.921875 272.046875 52.863281 205.867188 C 53.417969 166.96875 57.332031 133.085938 64.472656 105.132812 C 73.453125 70.082031 87.59375 44.332031 106.515625 28.566406 C 106.976562 28.183594 107.667969 28.238281 108.050781 28.699219 C 108.433594 29.15625 108.378906 29.847656 107.917969 30.230469 C 89.339844 45.6875 75.449219 71.058594 66.582031 105.652344 C 59.460938 133.410156 55.585938 167.125 55.03125 205.847656 C 54.089844 271.835938 63.28125 330.25 63.378906 330.84375 C 63.472656 331.433594 63.070312 331.988281 62.476562 332.085938 C 62.4375 332.125 62.378906 332.125 62.320312 332.125 Z M 62.320312 332.125 " fill-opacity="1" fill-rule="nonzero"/><path fill="#ccd5b2" d="M 54.28125 235.140625 C 54.28125 235.140625 76.3125 193.738281 111.910156 164.175781 C 111.890625 164.175781 97.496094 212.335938 54.28125 235.140625 Z M 54.28125 235.140625 " fill-opacity="1" fill-rule="nonzero"/><path fill="#a67e71" d="M 54.28125 236.230469 C 53.992188 236.230469 53.726562 236.117188 53.515625 235.90625 C 53.167969 235.5625 53.089844 235.042969 53.320312 234.644531 C 53.550781 234.222656 75.871094 192.722656 111.21875 163.355469 C 111.582031 163.046875 112.121094 163.03125 112.503906 163.277344 C 112.90625 163.546875 113.078125 164.023438 112.945312 164.484375 C 112.792969 164.960938 97.917969 213.347656 54.78125 236.097656 C 54.625 236.191406 54.453125 236.230469 54.28125 236.230469 Z M 109.546875 167.582031 C 81.953125 191.554688 62.898438 222.320312 57.082031 232.347656 C 90.148438 213.234375 105.308594 178.890625 109.546875 167.582031 Z M 109.546875 167.582031 " fill-opacity="1" fill-rule="nonzero"/><path fill="#ccd5b2" d="M 54.28125 235.140625 C 54.28125 235.140625 20.390625 199.648438 16.152344 173.457031 C 16.132812 173.476562 53.417969 206.421875 54.28125 235.140625 Z M 54.28125 235.140625 " fill-opacity="1" fill-rule="nonzero"/><path fill="#a67e71" d="M 54.28125 236.230469 C 53.992188 236.230469 53.707031 236.117188 53.496094 235.886719 C 52.09375 234.433594 19.316406 199.859375 15.078125 173.628906 C 15 173.167969 15.230469 172.730469 15.632812 172.5 C 16.035156 172.269531 16.535156 172.328125 16.878906 172.632812 C 18.414062 173.992188 54.53125 206.230469 55.375 235.082031 C 55.394531 235.523438 55.125 235.945312 54.703125 236.117188 C 54.550781 236.210938 54.414062 236.230469 54.28125 236.230469 Z M 17.878906 176.574219 C 23.136719 197.890625 45.894531 224.292969 52.957031 232.117188 C 50.269531 209.253906 25.824219 184.171875 17.878906 176.574219 Z M 17.878906 176.574219 " fill-opacity="1" fill-rule="nonzero"/><path fill="#ccd5b2" d="M 55.433594 171.3125 C 55.433594 171.3125 89.859375 157.40625 106.824219 126.160156 C 106.804688 126.160156 79.457031 135.382812 55.433594 171.3125 Z M 55.433594 171.3125 " fill-opacity="1" fill-rule="nonzero"/><path fill="#a67e71" d="M 55.433594 172.40625 C 55.105469 172.40625 54.800781 172.269531 54.589844 172.003906 C 54.28125 171.640625 54.261719 171.121094 54.53125 170.71875 C 78.5 134.886719 106.191406 125.222656 106.457031 125.128906 C 106.878906 124.992188 107.339844 125.109375 107.628906 125.453125 C 107.917969 125.796875 107.972656 126.277344 107.761719 126.65625 C 90.820312 157.902344 56.179688 172.175781 55.835938 172.308594 C 55.703125 172.386719 55.566406 172.40625 55.433594 172.40625 Z M 104.308594 128.359375 C 97.035156 131.671875 77.003906 142.539062 58.542969 168.691406 C 67.367188 164.386719 90.644531 151.359375 104.308594 128.359375 Z M 104.308594 128.359375 " fill-opacity="1" fill-rule="nonzero"/><path fill="#ccd5b2" d="M 55.125 170.929688 C 55.125 170.929688 18.683594 152.351562 16.152344 120.25 C 16.132812 120.25 45.800781 142.214844 55.125 170.929688 Z M 55.125 170.929688 " fill-opacity="1" fill-rule="nonzero"/><path fill="#a67e71" d="M 55.125 172.023438 C 54.953125 172.023438 54.78125 171.984375 54.625 171.90625 C 54.261719 171.714844 17.628906 152.679688 15.058594 120.34375 C 15.019531 119.921875 15.25 119.523438 15.613281 119.3125 C 15.980469 119.101562 16.4375 119.140625 16.785156 119.386719 C 17.089844 119.617188 46.835938 141.886719 56.144531 170.605469 C 56.277344 171.027344 56.144531 171.484375 55.816406 171.753906 C 55.625 171.925781 55.375 172.023438 55.125 172.023438 Z M 17.496094 122.699219 C 20.949219 147.550781 45.242188 163.890625 53.148438 168.578125 C 44.726562 146.058594 24.019531 127.996094 17.496094 122.699219 Z M 17.496094 122.699219 " fill-opacity="1" fill-rule="nonzero"/><path fill="#ccd5b2" d="M 63.03125 116.136719 C 63.03125 116.136719 90.722656 112.652344 107.667969 81.390625 C 107.667969 81.390625 77.710938 93.425781 63.03125 116.136719 Z M 63.03125 116.136719 " fill-opacity="1" fill-rule="nonzero"/><path fill="#a67e71" d="M 63.03125 117.207031 C 62.667969 117.207031 62.320312 117.015625 62.109375 116.710938 C 61.878906 116.34375 61.878906 115.90625 62.109375 115.542969 C 76.808594 92.8125 106.957031 80.492188 107.246094 80.375 C 107.667969 80.203125 108.148438 80.320312 108.453125 80.664062 C 108.761719 81.007812 108.820312 81.503906 108.609375 81.90625 C 91.585938 113.285156 63.433594 117.1875 63.148438 117.207031 C 63.109375 117.207031 63.070312 117.207031 63.03125 117.207031 Z M 105.078125 83.707031 C 97.515625 87.246094 77.308594 97.824219 65.410156 114.527344 C 72.261719 112.863281 91.605469 106.320312 105.078125 83.707031 Z M 105.078125 83.707031 " fill-opacity="1" fill-rule="nonzero"/><path fill="#ccd5b2" d="M 62.742188 116.019531 C 62.742188 116.019531 41.558594 100.808594 44.109375 71.25 C 44.109375 71.25 63.589844 93.214844 62.742188 116.019531 Z M 62.742188 116.019531 " fill-opacity="1" fill-rule="nonzero"/><path fill="#a67e71" d="M 62.742188 117.109375 C 62.515625 117.109375 62.304688 117.035156 62.109375 116.902344 C 61.898438 116.746094 40.464844 100.980469 43.015625 71.15625 C 43.054688 70.714844 43.34375 70.351562 43.765625 70.21875 C 44.167969 70.082031 44.628906 70.199219 44.917969 70.523438 C 45.722656 71.441406 64.683594 93.082031 63.839844 116.058594 C 63.820312 116.460938 63.589844 116.824219 63.222656 116.996094 C 63.070312 117.074219 62.917969 117.109375 62.742188 117.109375 Z M 45.011719 74.0625 C 44.1875 96.121094 56.96875 109.554688 61.667969 113.722656 C 61.304688 96.429688 49.523438 79.800781 45.011719 74.0625 Z M 45.011719 74.0625 " fill-opacity="1" fill-rule="nonzero"/><path fill="#ccd5b2" d="M 76.0625 73.890625 C 76.0625 73.890625 90.703125 55.199219 115.285156 52.652344 C 115.285156 52.652344 96.152344 73.144531 76.0625 73.890625 Z M 76.0625 73.890625 " fill-opacity="1" fill-rule="nonzero"/><path fill="#a67e71" d="M 76.0625 74.960938 C 75.660156 74.960938 75.273438 74.730469 75.101562 74.367188 C 74.910156 73.984375 74.949219 73.546875 75.21875 73.203125 C 75.371094 73.011719 90.433594 54.105469 115.191406 51.5625 C 115.632812 51.523438 116.074219 51.753906 116.265625 52.15625 C 116.476562 52.558594 116.398438 53.054688 116.089844 53.378906 C 115.304688 54.222656 96.421875 74.214844 76.121094 74.960938 C 76.082031 74.960938 76.082031 74.960938 76.0625 74.960938 Z M 112.214844 54.164062 C 94.847656 57.054688 82.914062 68.074219 78.652344 72.589844 C 93.179688 70.808594 106.9375 59.140625 112.214844 54.164062 Z M 112.214844 54.164062 " fill-opacity="1" fill-rule="nonzero"/><path fill="#ccd5b2" d="M 76.3125 73.777344 C 76.3125 73.777344 63.609375 61.953125 66.984375 38.285156 C 66.984375 38.285156 80.53125 55.199219 76.3125 73.777344 Z M 76.3125 73.777344 " fill-opacity="1" fill-rule="nonzero"/><path fill="#a67e71" d="M 76.3125 74.867188 C 76.042969 74.867188 75.773438 74.769531 75.5625 74.578125 C 75.027344 74.082031 62.476562 62.085938 65.910156 38.152344 C 65.96875 37.730469 66.273438 37.367188 66.695312 37.25 C 67.121094 37.136719 67.5625 37.289062 67.828125 37.613281 C 68.40625 38.324219 81.664062 55.140625 77.367188 74.023438 C 77.289062 74.40625 77.003906 74.714844 76.617188 74.828125 C 76.523438 74.847656 76.40625 74.867188 76.3125 74.867188 Z M 67.734375 41.230469 C 66.199219 57.664062 72.703125 67.769531 75.660156 71.421875 C 77.710938 58.238281 70.9375 46.089844 67.734375 41.230469 Z M 67.734375 41.230469 " fill-opacity="1" fill-rule="nonzero"/><path fill="#ccd5b2" d="M 106.707031 29.558594 C 106.707031 29.558594 127.144531 16.320312 139.847656 18.84375 C 139.867188 18.863281 124.421875 28.449219 106.707031 29.558594 Z M 106.707031 29.558594 " fill-opacity="1" fill-rule="nonzero"/><path fill="#a67e71" d="M 106.707031 30.652344 C 106.246094 30.652344 105.824219 30.34375 105.671875 29.90625 C 105.519531 29.445312 105.691406 28.929688 106.113281 28.660156 C 106.957031 28.105469 127.066406 15.210938 140.058594 17.792969 C 140.5 17.890625 140.828125 18.234375 140.921875 18.65625 C 141 19.09375 140.808594 19.535156 140.425781 19.765625 C 139.792969 20.164062 124.535156 29.503906 106.785156 30.632812 C 106.765625 30.652344 106.746094 30.652344 106.707031 30.652344 Z M 136.261719 19.609375 C 127.894531 19.648438 117.359375 24.738281 111.582031 27.933594 C 122.289062 26.328125 131.671875 22.023438 136.261719 19.609375 Z M 136.261719 19.609375 " fill-opacity="1" fill-rule="nonzero"/><path fill="#ccd5b2" d="M 106.6875 29.847656 C 106.6875 29.847656 100.894531 15.058594 108.644531 1.1875 C 108.625 1.1875 112.503906 19.226562 106.6875 29.847656 Z M 106.6875 29.847656 " fill-opacity="1" fill-rule="nonzero"/><path fill="#a67e71" d="M 106.6875 30.917969 C 106.667969 30.917969 106.648438 30.917969 106.613281 30.917969 C 106.191406 30.898438 105.824219 30.632812 105.671875 30.230469 C 105.421875 29.597656 99.78125 14.808594 107.6875 0.652344 C 107.898438 0.25 108.339844 0.0390625 108.800781 0.113281 C 109.242188 0.171875 109.605469 0.515625 109.703125 0.957031 C 109.855469 1.703125 113.578125 19.515625 107.648438 30.363281 C 107.4375 30.707031 107.074219 30.917969 106.6875 30.917969 Z M 108.128906 4.707031 C 104.40625 13.601562 105.804688 22.480469 106.878906 26.765625 C 109.625 19.417969 108.820312 9.71875 108.128906 4.707031 Z M 108.128906 4.707031 " fill-opacity="1" fill-rule="nonzero"/><path fill="#fde0a6" d="M 28.796875 361.511719 C 36.914062 369.890625 59.789062 374.960938 75.890625 361.453125 C 78.554688 359.90625 82.183594 353.914062 82.816406 347.199219 C 83.316406 341.84375 82.914062 336.449219 81.800781 331.1875 L 69.574219 273.539062 C 68.003906 266.078125 67.964844 258.386719 69.5 250.90625 L 70.226562 247.367188 C 70.746094 244.820312 68.671875 242.316406 66.101562 242.316406 L 40.503906 242.316406 C 37.605469 242.316406 35.1875 245.109375 35.648438 248.035156 L 36.820312 255.515625 C 37.816406 261.964844 37.683594 268.546875 36.378906 274.957031 L 24.75 332.699219 C 23.902344 336.925781 23.480469 341.230469 23.691406 345.535156 C 24.058594 353.417969 25.878906 357.226562 28.796875 361.511719 Z M 28.796875 361.511719 " fill-opacity="1" fill-rule="nonzero"/><path fill="#a67e71" d="M 52.265625 370.886719 C 51.269531 370.886719 50.269531 370.847656 49.273438 370.773438 C 40.636719 370.160156 32.5 366.886719 28.03125 362.257812 C 27.992188 362.21875 27.953125 362.160156 27.914062 362.105469 C 24.769531 357.457031 22.984375 353.457031 22.617188 345.613281 C 22.425781 341.441406 22.792969 337.023438 23.691406 332.507812 L 35.320312 274.765625 C 36.589844 268.46875 36.742188 262.058594 35.746094 255.707031 L 34.574219 248.226562 C 34.304688 246.503906 34.824219 244.746094 36.011719 243.367188 C 37.183594 242.007812 38.816406 241.242188 40.523438 241.242188 L 66.121094 241.242188 C 67.675781 241.242188 69.152344 241.96875 70.171875 243.214844 C 71.207031 244.476562 71.609375 246.066406 71.304688 247.59375 L 70.574219 251.136719 C 69.058594 258.5 69.078125 265.964844 70.648438 273.328125 L 82.875 330.976562 C 84.0625 336.5625 84.410156 342.054688 83.910156 347.316406 C 83.257812 354.28125 79.59375 360.496094 76.523438 362.351562 C 69.84375 367.902344 61.34375 370.886719 52.265625 370.886719 Z M 29.640625 360.824219 C 37.796875 369.164062 60.039062 373.335938 75.179688 360.613281 C 75.21875 360.574219 75.273438 360.535156 75.332031 360.496094 C 77.558594 359.214844 81.109375 353.6875 81.722656 347.085938 C 82.203125 342.054688 81.855469 336.773438 80.726562 331.398438 L 68.5 273.75 C 66.890625 266.097656 66.851562 258.347656 68.425781 250.675781 L 69.152344 247.136719 C 69.34375 246.257812 69.097656 245.300781 68.480469 244.554688 C 67.867188 243.808594 67.003906 243.367188 66.101562 243.367188 L 40.503906 243.367188 C 39.449219 243.367188 38.390625 243.863281 37.644531 244.746094 C 36.875 245.625 36.550781 246.773438 36.703125 247.863281 L 37.875 255.34375 C 38.890625 261.945312 38.757812 268.601562 37.433594 275.164062 L 25.804688 332.925781 C 24.921875 337.269531 24.574219 341.519531 24.769531 345.515625 C 25.113281 352.863281 26.6875 356.460938 29.640625 360.824219 Z M 29.640625 360.824219 " fill-opacity="1" fill-rule="nonzero"/><path fill="#ffffff" d="M 49.195312 361.261719 C 49.175781 361.261719 49.175781 361.261719 49.15625 361.261719 C 41.425781 360.996094 35.859375 358.585938 32.617188 354.089844 C 27.433594 346.914062 30.082031 337.136719 30.332031 336.257812 L 40.484375 286.453125 C 40.597656 285.859375 41.175781 285.496094 41.769531 285.613281 C 42.363281 285.726562 42.730469 286.300781 42.613281 286.894531 L 32.445312 336.734375 C 32.445312 336.773438 32.425781 336.792969 32.425781 336.832031 C 32.40625 336.925781 29.679688 346.359375 34.382812 352.84375 C 37.222656 356.765625 42.210938 358.871094 49.214844 359.101562 C 49.808594 359.121094 50.289062 359.617188 50.269531 360.210938 C 50.25 360.804688 49.773438 361.261719 49.195312 361.261719 Z M 49.195312 361.261719 " fill-opacity="1" fill-rule="nonzero"/></svg>