<svg xmlns="http://www.w3.org/2000/svg" xmlns:xlink="http://www.w3.org/1999/xlink" width="500" zoomAndPan="magnify" viewBox="0 0 375 112.499997" height="150" preserveAspectRatio="xMidYMid meet" version="1.0"><defs><clipPath id="6c7787b240"><path d="M 0.828125 14.933594 L 374.167969 14.933594 L 374.167969 92 L 0.828125 92 Z M 0.828125 14.933594 " clip-rule="nonzero"/></clipPath><clipPath id="5e5198553d"><path d="M 157 53 L 218 53 L 218 100.800781 L 157 100.800781 Z M 157 53 " clip-rule="nonzero"/></clipPath><clipPath id="7643e25ea0"><path d="M 201 51 L 262 51 L 262 100.800781 L 201 100.800781 Z M 201 51 " clip-rule="nonzero"/></clipPath><clipPath id="f684dff6b9"><path d="M 200 46 L 259 46 L 259 100.800781 L 200 100.800781 Z M 200 46 " clip-rule="nonzero"/></clipPath><clipPath id="7342c6cba0"><path d="M 244 43 L 305 43 L 305 100.800781 L 244 100.800781 Z M 244 43 " clip-rule="nonzero"/></clipPath><clipPath id="291a18d121"><path d="M 284 31 L 346 31 L 346 100.800781 L 284 100.800781 Z M 284 31 " clip-rule="nonzero"/></clipPath><clipPath id="ae8a7a2348"><path d="M 320 14.933594 L 374.167969 14.933594 L 374.167969 60 L 320 60 Z M 320 14.933594 " clip-rule="nonzero"/></clipPath><clipPath id="34fe8e259c"><path d="M 324 14.933594 L 374.167969 14.933594 L 374.167969 84 L 324 84 Z M 324 14.933594 " clip-rule="nonzero"/></clipPath><clipPath id="3c35e5e527"><path d="M 320 14.933594 L 374.167969 14.933594 L 374.167969 67 L 320 67 Z M 320 14.933594 " clip-rule="nonzero"/></clipPath><clipPath id="3fb949b5ba"><path d="M 112 51 L 173 51 L 173 100.800781 L 112 100.800781 Z M 112 51 " clip-rule="nonzero"/></clipPath><clipPath id="71742b3d0d"><path d="M 115 46 L 173 46 L 173 100.800781 L 115 100.800781 Z M 115 46 " clip-rule="nonzero"/></clipPath><clipPath id="480f77a07b"><path d="M 68 43 L 129 43 L 129 100.800781 L 68 100.800781 Z M 68 43 " clip-rule="nonzero"/></clipPath><clipPath id="80b853bf26"><path d="M 28 31 L 90 31 L 90 100.800781 L 28 100.800781 Z M 28 31 " clip-rule="nonzero"/></clipPath><clipPath id="8bae4bd48b"><path d="M 0.828125 14.933594 L 54 14.933594 L 54 60 L 0.828125 60 Z M 0.828125 14.933594 " clip-rule="nonzero"/></clipPath><clipPath id="f593018c89"><path d="M 0.828125 14.933594 L 50 14.933594 L 50 84 L 0.828125 84 Z M 0.828125 14.933594 " clip-rule="nonzero"/></clipPath><clipPath id="1207847f41"><path d="M 0.828125 14.933594 L 54 14.933594 L 54 67 L 0.828125 67 Z M 0.828125 14.933594 " clip-rule="nonzero"/></clipPath></defs><g clip-path="url(#6c7787b240)"><path stroke-linecap="butt" transform="matrix(0.165577, 0, 0, 0.165577, 1.093118, 14.933627)" fill="none" stroke-linejoin="miter" d="M 2.598902 4.269896 C 166.419711 104.629015 566.535049 319.573051 1120.043661 321.059328 C 1680.299502 322.569197 2085.369099 104.511056 2249.001173 4.269896 " stroke="#a57d71" stroke-width="10" stroke-opacity="1" stroke-miterlimit="10"/></g><path stroke-linecap="butt" transform="matrix(0.165577, 0, 0, 0.165577, 1.093118, 14.933627)" fill-opacity="1" fill="#e0b9a5" fill-rule="nonzero" stroke-linejoin="miter" d="M 1106.785123 326.862888 L 1144.838545 326.862888 L 1144.838545 348.425708 L 1106.785123 348.425708 Z M 1106.785123 326.862888 " stroke="#a57d71" stroke-width="10" stroke-opacity="1" stroke-miterlimit="10"/><path fill="#fde0a6" d="M 193.722656 88.542969 C 193.722656 89.292969 193.679688 90.035156 193.601562 90.773438 C 193.523438 91.507812 193.402344 92.222656 193.246094 92.914062 C 193.089844 93.609375 192.898438 94.265625 192.671875 94.890625 C 192.445312 95.515625 192.1875 96.09375 191.898438 96.621094 C 191.609375 97.152344 191.296875 97.625 190.957031 98.042969 C 190.617188 98.460938 190.257812 98.8125 189.882812 99.097656 C 189.503906 99.386719 189.117188 99.601562 188.714844 99.75 C 188.3125 99.894531 187.910156 99.96875 187.5 99.96875 C 187.09375 99.96875 186.6875 99.894531 186.289062 99.75 C 185.886719 99.601562 185.5 99.386719 185.121094 99.097656 C 184.746094 98.8125 184.386719 98.460938 184.046875 98.042969 C 183.707031 97.625 183.394531 97.152344 183.105469 96.621094 C 182.816406 96.09375 182.558594 95.515625 182.332031 94.890625 C 182.105469 94.265625 181.914062 93.609375 181.757812 92.914062 C 181.601562 92.222656 181.480469 91.507812 181.402344 90.773438 C 181.324219 90.035156 181.28125 89.292969 181.28125 88.542969 C 181.28125 87.792969 181.324219 87.050781 181.402344 86.3125 C 181.480469 85.578125 181.601562 84.863281 181.757812 84.167969 C 181.914062 83.476562 182.105469 82.816406 182.332031 82.195312 C 182.558594 81.570312 182.816406 80.992188 183.105469 80.464844 C 183.394531 79.933594 183.707031 79.457031 184.046875 79.042969 C 184.386719 78.625 184.746094 78.273438 185.121094 77.984375 C 185.5 77.699219 185.886719 77.480469 186.289062 77.335938 C 186.6875 77.1875 187.09375 77.117188 187.5 77.117188 C 187.910156 77.117188 188.3125 77.1875 188.714844 77.335938 C 189.117188 77.480469 189.503906 77.699219 189.882812 77.984375 C 190.257812 78.273438 190.617188 78.625 190.957031 79.042969 C 191.296875 79.457031 191.609375 79.933594 191.898438 80.464844 C 192.1875 80.992188 192.445312 81.570312 192.671875 82.195312 C 192.898438 82.816406 193.089844 83.476562 193.246094 84.167969 C 193.402344 84.863281 193.523438 85.578125 193.601562 86.3125 C 193.679688 87.050781 193.722656 87.792969 193.722656 88.542969 Z M 193.722656 88.542969 " fill-opacity="1" fill-rule="nonzero"/><g clip-path="url(#5e5198553d)"><path stroke-linecap="butt" transform="matrix(0.165577, 0, 0, 0.165577, 1.093118, 14.933627)" fill="none" stroke-linejoin="miter" d="M 1163.381626 444.561911 C 1163.381626 449.091518 1163.122117 453.573942 1162.650283 458.032775 C 1162.178449 462.468016 1161.447106 466.785298 1160.503438 470.96103 C 1159.559769 475.160354 1158.403776 479.12376 1157.035457 482.898433 C 1155.667138 486.673106 1154.110085 490.164679 1152.364299 493.349559 C 1150.618513 496.558031 1148.731176 499.412628 1146.678698 501.93694 C 1144.626219 504.461253 1142.455782 506.584506 1140.190979 508.306701 C 1137.902583 510.052487 1135.567004 511.350031 1133.137058 512.246516 C 1130.707113 513.119409 1128.277167 513.567651 1125.800038 513.567651 C 1123.3465 513.567651 1120.892963 513.119409 1118.486609 512.246516 C 1116.056663 511.350031 1113.721084 510.052487 1111.432689 508.306701 C 1109.167885 506.584506 1106.997448 504.461253 1104.944969 501.93694 C 1102.892491 499.412628 1101.005154 496.558031 1099.259368 493.349559 C 1097.513582 490.164679 1095.956529 486.673106 1094.58821 482.898433 C 1093.219891 479.12376 1092.063898 475.160354 1091.12023 470.96103 C 1090.176561 466.785298 1089.445218 462.468016 1088.973384 458.032775 C 1088.50155 453.573942 1088.242041 449.091518 1088.242041 444.561911 C 1088.242041 440.032303 1088.50155 435.549879 1088.973384 431.091046 C 1089.445218 426.655806 1090.176561 422.338523 1091.12023 418.1392 C 1092.063898 413.963468 1093.219891 409.976469 1094.58821 406.225388 C 1095.956529 402.450715 1097.513582 398.959142 1099.259368 395.774262 C 1101.005154 392.56579 1102.892491 389.687602 1104.944969 387.186881 C 1106.997448 384.662568 1109.167885 382.539315 1111.432689 380.793529 C 1113.721084 379.071334 1116.056663 377.750198 1118.486609 376.877305 C 1120.892963 375.98082 1123.3465 375.55617 1125.800038 375.55617 C 1128.277167 375.55617 1130.707113 375.98082 1133.137058 376.877305 C 1135.567004 377.750198 1137.902583 379.071334 1140.190979 380.793529 C 1142.455782 382.539315 1144.626219 384.662568 1146.678698 387.186881 C 1148.731176 389.687602 1150.618513 392.56579 1152.364299 395.774262 C 1154.110085 398.959142 1155.667138 402.450715 1157.035457 406.225388 C 1158.403776 409.976469 1159.559769 413.963468 1160.503438 418.1392 C 1161.447106 422.338523 1162.178449 426.655806 1162.650283 431.091046 C 1163.122117 435.549879 1163.381626 440.032303 1163.381626 444.561911 Z M 1163.381626 444.561911 " stroke="#a57d71" stroke-width="10" stroke-opacity="1" stroke-miterlimit="10"/></g><path stroke-linecap="butt" transform="matrix(0.165577, 0, 0, 0.165577, 1.093118, 14.933627)" fill-opacity="1" fill="#e0b9a5" fill-rule="nonzero" stroke-linejoin="miter" d="M 1097.655132 348.425708 L 1153.968535 348.425708 L 1153.968535 391.551347 L 1097.655132 391.551347 Z M 1097.655132 348.425708 " stroke="#a57d71" stroke-width="10" stroke-opacity="1" stroke-miterlimit="10"/><path stroke-linecap="butt" transform="matrix(0.163913, -0.0234159, 0.0234159, 0.163913, -4.203707, 47.669904)" fill-opacity="1" fill="#e0b9a5" fill-rule="nonzero" stroke-linejoin="miter" d="M 1356.067113 313.151656 L 1394.101745 313.151588 L 1394.118465 334.721228 L 1356.060479 334.717959 Z M 1356.067113 313.151656 " stroke="#a57d71" stroke-width="10" stroke-opacity="1" stroke-miterlimit="10"/><path fill="#fde0a6" d="M 237.433594 85.214844 C 237.539062 85.957031 237.605469 86.699219 237.632812 87.4375 C 237.65625 88.175781 237.640625 88.902344 237.585938 89.609375 C 237.527344 90.316406 237.429688 90.996094 237.292969 91.648438 C 237.160156 92.296875 236.984375 92.902344 236.773438 93.46875 C 236.5625 94.035156 236.320312 94.550781 236.042969 95.011719 C 235.765625 95.472656 235.460938 95.871094 235.128906 96.207031 C 234.792969 96.546875 234.441406 96.816406 234.0625 97.015625 C 233.6875 97.21875 233.296875 97.347656 232.894531 97.40625 C 232.488281 97.464844 232.078125 97.449219 231.660156 97.359375 C 231.246094 97.269531 230.828125 97.113281 230.414062 96.878906 C 230 96.648438 229.597656 96.351562 229.203125 95.988281 C 228.804688 95.621094 228.429688 95.199219 228.066406 94.714844 C 227.707031 94.230469 227.371094 93.695312 227.058594 93.109375 C 226.742188 92.523438 226.460938 91.898438 226.207031 91.234375 C 225.957031 90.570312 225.738281 89.878906 225.554688 89.164062 C 225.371094 88.445312 225.226562 87.714844 225.121094 86.972656 C 225.015625 86.230469 224.949219 85.488281 224.925781 84.75 C 224.898438 84.007812 224.914062 83.285156 224.972656 82.578125 C 225.027344 81.867188 225.125 81.191406 225.261719 80.539062 C 225.398438 79.890625 225.570312 79.28125 225.78125 78.71875 C 225.992188 78.152344 226.238281 77.636719 226.515625 77.175781 C 226.792969 76.714844 227.097656 76.316406 227.429688 75.980469 C 227.761719 75.640625 228.117188 75.371094 228.492188 75.171875 C 228.867188 74.96875 229.257812 74.839844 229.664062 74.78125 C 230.066406 74.722656 230.476562 74.738281 230.894531 74.828125 C 231.3125 74.914062 231.726562 75.074219 232.140625 75.304688 C 232.554688 75.539062 232.960938 75.835938 233.355469 76.199219 C 233.75 76.5625 234.128906 76.988281 234.488281 77.472656 C 234.851562 77.957031 235.1875 78.492188 235.5 79.078125 C 235.8125 79.664062 236.09375 80.289062 236.347656 80.953125 C 236.601562 81.617188 236.816406 82.308594 237 83.023438 C 237.183594 83.742188 237.328125 84.472656 237.433594 85.214844 Z M 237.433594 85.214844 " fill-opacity="1" fill-rule="nonzero"/><g clip-path="url(#7643e25ea0)"><path stroke-linecap="butt" transform="matrix(0.163913, -0.0234159, 0.0234159, 0.163913, -6.657564, 48.199754)" fill="none" stroke-linejoin="miter" d="M 1427.752437 429.78338 C 1427.749109 434.310836 1427.512234 438.804929 1427.04515 443.242303 C 1426.554712 447.676342 1425.840736 452.006953 1424.909896 456.187428 C 1423.955701 460.364566 1422.791315 464.344859 1421.416736 468.128306 C 1420.068849 471.891736 1418.500761 475.361565 1416.755845 478.56782 C 1415.010928 481.774076 1413.122547 484.650032 1411.070683 487.168996 C 1409.018819 489.68796 1406.856855 491.809896 1404.584789 493.534804 C 1402.286032 495.27973 1399.953911 496.590928 1397.518362 497.458389 C 1395.10283 498.352541 1392.657271 498.78961 1390.201702 498.796287 C 1387.722778 498.799627 1385.28389 498.355894 1382.861683 497.461751 C 1380.46283 496.570944 1378.097341 495.279773 1375.821932 493.524846 C 1373.543188 491.793273 1371.391225 489.674681 1369.342688 487.165734 C 1367.274133 484.630095 1365.392415 481.78751 1363.634142 478.581261 C 1361.899223 475.378347 1360.347804 471.891842 1358.979885 468.121745 C 1357.588611 464.348312 1356.440893 460.371359 1355.490019 456.184215 C 1354.562501 452.000407 1353.845173 447.679808 1353.358055 443.249108 C 1352.874273 438.795053 1352.634047 434.304298 1352.637375 429.776842 C 1352.640703 425.249386 1352.877577 420.755294 1353.368016 416.321255 C 1353.838436 411.860526 1354.549076 407.55327 1355.503271 403.376131 C 1356.437447 399.172302 1357.598497 395.215363 1358.973075 391.431916 C 1360.344317 387.671823 1361.892387 384.175303 1363.633967 380.992402 C 1365.378884 377.786146 1367.290619 374.913527 1369.342483 372.394563 C 1371.394347 369.875599 1373.556312 367.753663 1375.828377 366.028755 C 1378.10378 364.280492 1380.459255 362.972631 1382.87145 362.101834 C 1385.286981 361.207682 1387.732541 360.770613 1390.211464 360.767272 C 1392.667034 360.760595 1395.105922 361.204328 1397.528129 362.098471 C 1399.953672 362.96926 1402.292471 364.280449 1404.571216 366.012022 C 1406.846624 367.766949 1409.021942 369.888877 1411.070478 372.397825 C 1413.119015 374.906772 1415.020751 377.776048 1416.75567 380.978962 C 1418.513944 384.185211 1420.065362 387.671716 1421.433281 391.441813 C 1422.8012 395.21191 1423.948919 399.188863 1424.899792 403.376007 C 1425.850666 407.563151 1426.544639 411.880414 1427.031757 416.311115 C 1427.515539 420.765169 1427.755765 425.255925 1427.752437 429.78338 Z M 1427.752437 429.78338 " stroke="#a57d71" stroke-width="10" stroke-opacity="1" stroke-miterlimit="10"/></g><path fill="#e0b9a5" d="M 224.414062 70.996094 L 233.644531 69.675781 L 234.65625 76.742188 L 225.421875 78.0625 Z M 224.414062 70.996094 " fill-opacity="1" fill-rule="nonzero"/><g clip-path="url(#f684dff6b9)"><path stroke-linecap="butt" transform="matrix(0.163913, -0.0234159, 0.0234159, 0.163913, -4.945481, 47.828853)" fill="none" stroke-linejoin="miter" d="M 1351.502825 334.407878 L 1407.817435 334.397768 L 1407.830858 377.510357 L 1351.492893 377.517131 Z M 1351.502825 334.407878 " stroke="#a57d71" stroke-width="10" stroke-opacity="1" stroke-miterlimit="10"/></g><path stroke-linecap="butt" transform="matrix(0.16185, -0.0349341, 0.0349341, 0.16185, -2.524745, 72.941976)" fill-opacity="1" fill="#e0b9a5" fill-rule="nonzero" stroke-linejoin="miter" d="M 1612.365095 266.82298 L 1650.401016 266.826843 L 1650.406846 288.380653 L 1612.370925 288.376791 Z M 1612.365095 266.82298 " stroke="#a57d71" stroke-width="10" stroke-opacity="1" stroke-miterlimit="10"/><path fill="#fde0a6" d="M 281.027344 76.871094 C 281.183594 77.605469 281.304688 78.339844 281.378906 79.078125 C 281.457031 79.8125 281.492188 80.535156 281.488281 81.246094 C 281.480469 81.957031 281.433594 82.640625 281.339844 83.300781 C 281.25 83.957031 281.121094 84.574219 280.949219 85.15625 C 280.78125 85.734375 280.574219 86.265625 280.328125 86.742188 C 280.085938 87.222656 279.808594 87.640625 279.5 88 C 279.191406 88.363281 278.859375 88.65625 278.496094 88.882812 C 278.136719 89.109375 277.757812 89.269531 277.359375 89.355469 C 276.960938 89.441406 276.546875 89.453125 276.125 89.394531 C 275.703125 89.335938 275.277344 89.207031 274.847656 89.007812 C 274.417969 88.804688 273.996094 88.535156 273.574219 88.199219 C 273.15625 87.863281 272.746094 87.46875 272.355469 87.011719 C 271.960938 86.554688 271.585938 86.042969 271.230469 85.480469 C 270.878906 84.917969 270.554688 84.316406 270.253906 83.671875 C 269.953125 83.027344 269.6875 82.351562 269.457031 81.652344 C 269.222656 80.949219 269.027344 80.230469 268.867188 79.496094 C 268.710938 78.761719 268.59375 78.027344 268.515625 77.292969 C 268.4375 76.558594 268.402344 75.832031 268.410156 75.121094 C 268.414062 74.414062 268.464844 73.726562 268.554688 73.070312 C 268.644531 72.414062 268.773438 71.792969 268.945312 71.214844 C 269.113281 70.636719 269.320312 70.105469 269.566406 69.625 C 269.808594 69.148438 270.085938 68.726562 270.394531 68.367188 C 270.703125 68.007812 271.035156 67.714844 271.398438 67.484375 C 271.757812 67.257812 272.136719 67.101562 272.535156 67.015625 C 272.9375 66.929688 273.347656 66.914062 273.769531 66.972656 C 274.191406 67.03125 274.617188 67.164062 275.046875 67.363281 C 275.476562 67.566406 275.902344 67.832031 276.320312 68.167969 C 276.742188 68.503906 277.148438 68.902344 277.542969 69.359375 C 277.9375 69.816406 278.308594 70.328125 278.664062 70.886719 C 279.015625 71.449219 279.34375 72.054688 279.640625 72.699219 C 279.941406 73.34375 280.207031 74.015625 280.441406 74.71875 C 280.671875 75.421875 280.867188 76.140625 281.027344 76.871094 Z M 281.027344 76.871094 " fill-opacity="1" fill-rule="nonzero"/><g clip-path="url(#7342c6cba0)"><path stroke-linecap="butt" transform="matrix(0.16185, -0.0349341, 0.0349341, 0.16185, -6.091275, 74.119217)" fill="none" stroke-linejoin="miter" d="M 1691.50578 382.101176 C 1691.492443 386.635677 1691.27156 391.12538 1690.768972 395.578415 C 1690.294421 400.013366 1689.581136 404.324383 1688.652177 408.516444 C 1687.700157 412.703527 1686.552373 416.679412 1685.157726 420.457202 C 1683.791117 424.21691 1682.243677 427.696236 1680.487366 430.913264 C 1678.759093 434.112209 1676.859944 436.984652 1674.799872 439.484471 C 1672.757884 442.012328 1670.587989 444.126418 1668.308271 445.854778 C 1666.023576 447.606199 1663.69011 448.912663 1661.256777 449.787276 C 1658.846504 450.666867 1656.405545 451.12954 1653.943855 451.129173 C 1651.482165 451.128806 1649.022803 450.670376 1646.606915 449.786901 C 1644.191027 448.903425 1641.841672 447.59988 1639.558852 445.876266 C 1637.281008 444.129591 1635.133903 442.00084 1633.071415 439.480058 C 1631.031987 436.964253 1629.113343 434.112494 1627.389642 430.916651 C 1625.642879 427.715832 1624.081105 424.21705 1622.69934 420.443367 C 1621.340637 416.674662 1620.193132 412.710192 1619.238744 408.52192 C 1618.284356 404.333649 1617.577333 400.005689 1617.107721 395.584162 C 1616.620025 391.134597 1616.382846 386.642564 1616.373123 382.103086 C 1616.38646 377.568586 1616.630404 373.08386 1617.104954 368.648908 C 1617.579504 364.213957 1618.297767 359.879879 1619.249787 355.692796 C 1620.173768 351.523796 1621.34959 347.529828 1622.716199 343.770121 C 1624.082808 340.010413 1625.635227 336.508026 1627.38656 333.314059 C 1629.114832 330.115114 1631.013982 327.242671 1633.079031 324.719791 C 1635.116042 322.214995 1637.290914 320.077845 1639.570632 318.349485 C 1641.85035 316.621124 1644.183815 315.31466 1646.622126 314.416986 C 1649.032399 313.537395 1651.46838 313.097783 1653.930071 313.09815 C 1656.414822 313.103495 1658.8561 313.533886 1661.271988 314.417362 C 1663.687876 315.300838 1666.032253 316.627443 1668.315074 318.351057 C 1670.592917 320.097732 1672.768061 322.2084 1674.807488 324.724205 C 1676.869976 327.244987 1678.760583 330.114829 1680.507345 333.315649 C 1682.254107 336.516469 1683.792821 340.010273 1685.179563 343.760895 C 1686.538266 347.5296 1687.703854 351.522108 1688.635182 355.705403 C 1689.58957 359.893674 1690.30157 364.198574 1690.789266 368.648138 C 1691.253901 373.092726 1691.49108 377.584759 1691.50578 382.101176 Z M 1691.50578 382.101176 " stroke="#a57d71" stroke-width="10" stroke-opacity="1" stroke-miterlimit="10"/></g><path stroke-linecap="butt" transform="matrix(0.16185, -0.0349341, 0.0349341, 0.16185, -3.602646, 73.29796)" fill-opacity="1" fill="#e0b9a5" fill-rule="nonzero" stroke-linejoin="miter" d="M 1610.039806 287.653237 L 1666.372004 287.648071 L 1666.378686 330.778753 L 1610.051466 330.760858 Z M 1610.039806 287.653237 " stroke="#a57d71" stroke-width="10" stroke-opacity="1" stroke-miterlimit="10"/><path stroke-linecap="butt" transform="matrix(0.156566, -0.0538794, 0.0538794, 0.156566, 6.772405, 117.136223)" fill-opacity="1" fill="#e0b9a5" fill-rule="nonzero" stroke-linejoin="miter" d="M 1843.159755 195.306328 L 1881.209385 195.301909 L 1881.202014 216.85581 L 1843.152384 216.860228 Z M 1843.159755 195.306328 " stroke="#a57d71" stroke-width="10" stroke-opacity="1" stroke-miterlimit="10"/><path fill="#fde0a6" d="M 321.074219 63.78125 C 321.316406 64.492188 321.519531 65.207031 321.683594 65.929688 C 321.847656 66.648438 321.96875 67.363281 322.046875 68.070312 C 322.125 68.777344 322.160156 69.460938 322.148438 70.125 C 322.136719 70.789062 322.078125 71.417969 321.980469 72.015625 C 321.878906 72.609375 321.734375 73.160156 321.550781 73.664062 C 321.363281 74.167969 321.140625 74.617188 320.878906 75.011719 C 320.613281 75.40625 320.316406 75.738281 319.984375 76.007812 C 319.65625 76.277344 319.296875 76.476562 318.910156 76.609375 C 318.523438 76.742188 318.117188 76.804688 317.691406 76.796875 C 317.265625 76.789062 316.828125 76.710938 316.375 76.5625 C 315.925781 76.414062 315.472656 76.195312 315.015625 75.914062 C 314.558594 75.628906 314.109375 75.285156 313.664062 74.875 C 313.21875 74.46875 312.785156 74.007812 312.367188 73.492188 C 311.949219 72.976562 311.554688 72.414062 311.183594 71.808594 C 310.808594 71.207031 310.464844 70.566406 310.148438 69.898438 C 309.835938 69.226562 309.554688 68.539062 309.3125 67.828125 C 309.066406 67.121094 308.863281 66.402344 308.699219 65.683594 C 308.535156 64.960938 308.414062 64.246094 308.335938 63.539062 C 308.257812 62.835938 308.226562 62.148438 308.238281 61.484375 C 308.246094 60.820312 308.304688 60.191406 308.40625 59.597656 C 308.503906 59 308.648438 58.449219 308.832031 57.945312 C 309.019531 57.441406 309.242188 56.992188 309.507812 56.597656 C 309.769531 56.203125 310.066406 55.871094 310.398438 55.601562 C 310.730469 55.335938 311.085938 55.132812 311.472656 55 C 311.859375 54.867188 312.265625 54.804688 312.691406 54.8125 C 313.117188 54.820312 313.558594 54.898438 314.007812 55.050781 C 314.457031 55.199219 314.910156 55.414062 315.367188 55.699219 C 315.824219 55.980469 316.273438 56.328125 316.722656 56.734375 C 317.167969 57.140625 317.597656 57.605469 318.015625 58.121094 C 318.433594 58.636719 318.828125 59.195312 319.203125 59.800781 C 319.574219 60.40625 319.917969 61.042969 320.234375 61.710938 C 320.546875 62.382812 320.828125 63.074219 321.074219 63.78125 Z M 321.074219 63.78125 " fill-opacity="1" fill-rule="nonzero"/><g clip-path="url(#291a18d121)"><path stroke-linecap="butt" transform="matrix(0.156566, -0.0538794, 0.0538794, 0.156566, 1.63951, 119.921213)" fill="none" stroke-linejoin="miter" d="M 1934.551613 307.170787 C 1934.537512 311.706758 1934.292657 316.188269 1933.809371 320.637627 C 1933.333762 325.064677 1932.620445 329.384974 1931.677096 333.576212 C 1930.733747 337.767449 1929.591074 341.740394 1928.219092 345.509679 C 1926.84711 349.278965 1925.276526 352.755358 1923.54428 355.976522 C 1921.797403 359.167701 1919.889585 362.02905 1917.850812 364.545938 C 1915.789732 367.055149 1913.635357 369.182961 1911.36538 370.921695 C 1909.073095 372.652754 1906.725178 373.965473 1904.29932 374.852178 C 1901.895769 375.746559 1899.45194 376.177987 1896.982462 376.176445 C 1894.512984 376.174904 1892.07015 375.733439 1889.65396 374.85205 C 1887.23777 373.970662 1884.89284 372.664704 1882.596861 370.926499 C 1880.32319 369.195971 1878.165394 367.056227 1876.108119 364.551882 C 1874.058521 362.02523 1872.168691 359.179315 1870.431675 355.961845 C 1868.686981 352.766683 1867.116687 349.282244 1865.743098 345.516203 C 1864.36951 341.750162 1863.22189 337.762489 1862.292561 333.575492 C 1861.333248 329.403126 1860.629165 325.069097 1860.134974 320.632651 C 1859.670767 316.181575 1859.415729 311.702682 1859.42983 307.166711 C 1859.413946 302.645371 1859.666478 298.141553 1860.142087 293.714502 C 1860.625373 289.265145 1861.33869 284.944847 1862.282039 280.75361 C 1863.217711 276.584681 1864.390369 272.597104 1865.762351 268.827819 C 1867.112025 265.050857 1868.682609 261.574463 1870.429486 258.383284 C 1872.161732 255.162121 1874.06955 252.300772 1876.108323 249.783884 C 1878.169404 247.274672 1880.323779 245.146861 1882.616063 243.415803 C 1884.88604 241.677068 1887.233958 240.364348 1889.659816 239.477644 C 1892.077997 238.613247 1894.507196 238.151835 1896.976674 238.153376 C 1899.446152 238.154918 1901.888985 238.596383 1904.305175 239.477771 C 1906.721365 240.35916 1909.088603 241.672795 1911.354598 243.42563 C 1913.628268 245.156158 1915.793741 247.273595 1917.843339 249.800247 C 1919.900614 252.304592 1921.782767 255.172814 1923.549768 258.375653 C 1925.294462 261.570815 1926.834772 265.069886 1928.20836 268.835927 C 1929.581948 272.601967 1930.737245 276.567332 1931.688882 280.762006 C 1932.61821 284.949003 1933.32997 289.260725 1933.824162 293.69717 C 1934.288369 298.148246 1934.535729 302.649447 1934.551613 307.170787 Z M 1934.551613 307.170787 " stroke="#a57d71" stroke-width="10" stroke-opacity="1" stroke-miterlimit="10"/></g><path stroke-linecap="butt" transform="matrix(0.156566, -0.0538794, 0.0538794, 0.156566, 5.220967, 117.978974)" fill-opacity="1" fill="#e0b9a5" fill-rule="nonzero" stroke-linejoin="miter" d="M 1844.558933 215.105185 L 1900.872386 215.098646 L 1900.879952 258.214124 L 1844.544192 258.212986 Z M 1844.558933 215.105185 " stroke="#a57d71" stroke-width="10" stroke-opacity="1" stroke-miterlimit="10"/><path fill="#e0b9a5" d="M 343.824219 32.660156 L 349.519531 29.964844 L 351.046875 33.191406 L 345.351562 35.886719 Z M 343.824219 32.660156 " fill-opacity="1" fill-rule="nonzero"/><g clip-path="url(#ae8a7a2348)"><path stroke-linecap="butt" transform="matrix(0.149658, -0.0708391, 0.0708391, 0.149658, 26.706261, 164.850577)" fill="none" stroke-linejoin="miter" d="M 2072.658012 97.788189 L 2110.712133 97.790912 L 2110.712608 119.350649 L 2072.658488 119.347926 Z M 2072.658012 97.788189 " stroke="#a57d71" stroke-width="10" stroke-opacity="1" stroke-miterlimit="10"/></g><path fill="#fde0a6" d="M 360.632812 46.265625 C 360.953125 46.945312 361.234375 47.632812 361.476562 48.332031 C 361.71875 49.03125 361.917969 49.726562 362.074219 50.421875 C 362.230469 51.113281 362.339844 51.792969 362.398438 52.453125 C 362.460938 53.113281 362.476562 53.746094 362.441406 54.347656 C 362.40625 54.949219 362.328125 55.511719 362.199219 56.035156 C 362.070312 56.558594 361.894531 57.027344 361.679688 57.449219 C 361.460938 57.871094 361.199219 58.234375 360.902344 58.535156 C 360.601562 58.839844 360.269531 59.078125 359.898438 59.253906 C 359.53125 59.429688 359.132812 59.535156 358.707031 59.574219 C 358.285156 59.613281 357.839844 59.585938 357.375 59.488281 C 356.910156 59.386719 356.4375 59.222656 355.953125 58.992188 C 355.464844 58.761719 354.980469 58.464844 354.492188 58.109375 C 354.003906 57.753906 353.523438 57.34375 353.050781 56.875 C 352.582031 56.410156 352.125 55.898438 351.6875 55.335938 C 351.25 54.777344 350.835938 54.183594 350.449219 53.550781 C 350.0625 52.917969 349.710938 52.265625 349.390625 51.585938 C 349.066406 50.910156 348.785156 50.21875 348.542969 49.519531 C 348.300781 48.820312 348.101562 48.125 347.945312 47.433594 C 347.789062 46.738281 347.683594 46.0625 347.621094 45.402344 C 347.558594 44.738281 347.542969 44.109375 347.578125 43.503906 C 347.613281 42.902344 347.695312 42.339844 347.824219 41.816406 C 347.949219 41.296875 348.125 40.824219 348.34375 40.402344 C 348.5625 39.980469 348.820312 39.621094 349.117188 39.316406 C 349.417969 39.011719 349.753906 38.773438 350.121094 38.597656 C 350.492188 38.421875 350.886719 38.316406 351.3125 38.277344 C 351.738281 38.238281 352.179688 38.269531 352.644531 38.367188 C 353.109375 38.464844 353.582031 38.628906 354.070312 38.859375 C 354.554688 39.09375 355.039062 39.386719 355.527344 39.742188 C 356.015625 40.097656 356.496094 40.507812 356.96875 40.976562 C 357.441406 41.441406 357.894531 41.957031 358.332031 42.515625 C 358.769531 43.074219 359.183594 43.671875 359.570312 44.300781 C 359.957031 44.933594 360.308594 45.585938 360.632812 46.265625 Z M 360.632812 46.265625 " fill-opacity="1" fill-rule="nonzero"/><g clip-path="url(#34fe8e259c)"><path stroke-linecap="butt" transform="matrix(0.149658, -0.0708391, 0.0708391, 0.149658, 20.588193, 169.630795)" fill="none" stroke-linejoin="miter" d="M 2175.007488 205.203434 C 2174.999792 209.741383 2174.758674 214.221047 2174.27404 218.663749 C 2173.789406 223.10645 2173.080307 227.416802 2172.136648 231.616129 C 2171.203082 235.794131 2170.043913 239.787044 2168.658004 243.542126 C 2167.293419 247.307302 2165.743604 250.802093 2163.997328 253.995084 C 2162.251053 257.188074 2160.371151 260.056803 2158.314975 262.581083 C 2156.258799 265.105364 2154.088046 267.209995 2151.825177 268.957811 C 2149.540984 270.695533 2147.173631 272.002376 2144.775858 272.877203 C 2142.346668 273.763259 2139.918475 274.206069 2137.438539 274.206769 C 2134.979926 274.217563 2132.532404 273.763786 2130.107202 272.876855 C 2127.703324 272.000018 2125.343089 270.70012 2123.057916 268.965932 C 2120.782837 267.21042 2118.626602 265.093545 2116.577982 262.583889 C 2114.508039 260.064139 2112.631004 257.191983 2110.884046 253.989879 C 2109.137087 250.787776 2107.574081 247.307329 2106.205121 243.527215 C 2104.847392 239.778518 2103.674753 235.804218 2102.739943 231.603178 C 2101.795041 227.423461 2101.068919 223.112392 2100.592996 218.65874 C 2100.117072 214.205088 2099.883526 209.735658 2099.891222 205.197709 C 2099.867502 200.67099 2100.118713 196.170003 2100.603347 191.727301 C 2101.087981 187.284599 2101.79708 182.974247 2102.730646 178.796245 C 2103.674305 174.596918 2104.844704 170.635423 2106.20929 166.870247 C 2107.583968 163.083748 2109.12369 159.61028 2110.880059 156.395966 C 2112.626334 153.202976 2114.52756 150.34434 2116.583736 147.82006 C 2118.608495 145.30701 2120.789341 143.181055 2123.073534 141.443332 C 2125.357727 139.70561 2127.693663 138.409997 2130.10153 137.513847 C 2132.530719 136.62779 2134.980236 136.195074 2137.438848 136.18428 C 2139.918785 136.18358 2142.344983 136.627264 2144.770185 137.514195 C 2147.195387 138.401125 2149.524204 139.712253 2151.809377 141.446441 C 2154.09455 143.18063 2156.250785 145.297505 2158.320729 147.817254 C 2160.359255 150.348234 2162.246383 153.199067 2163.993341 156.40117 C 2165.7403 159.603274 2167.303306 163.083721 2168.672266 166.863835 C 2170.051319 170.622625 2171.192541 174.608155 2172.137444 178.787872 C 2173.082346 182.967588 2173.798374 187.299981 2174.284391 191.732309 C 2174.760315 196.185961 2174.993861 200.655392 2175.007488 205.203434 Z M 2175.007488 205.203434 " stroke="#a57d71" stroke-width="10" stroke-opacity="1" stroke-miterlimit="10"/></g><path fill="#e0b9a5" d="M 343.984375 36.535156 L 352.414062 32.542969 L 355.46875 38.996094 L 347.039062 42.988281 Z M 343.984375 36.535156 " fill-opacity="1" fill-rule="nonzero"/><g clip-path="url(#3c35e5e527)"><path stroke-linecap="butt" transform="matrix(0.149658, -0.0708391, 0.0708391, 0.149658, 24.855089, 166.296118)" fill="none" stroke-linejoin="miter" d="M 2077.360098 116.247223 L 2133.691682 116.235809 L 2133.692634 159.355282 L 2077.361049 159.366696 Z M 2077.360098 116.247223 " stroke="#a57d71" stroke-width="10" stroke-opacity="1" stroke-miterlimit="10"/></g><path stroke-linecap="butt" transform="matrix(-0.163913, -0.0234159, 0.0234159, -0.163913, 279.989692, 142.262605)" fill-opacity="1" fill="#e0b9a5" fill-rule="nonzero" stroke-linejoin="miter" d="M 850.48638 313.881335 L 888.544366 313.878063 L 888.547666 335.421012 L 850.489679 335.424283 Z M 850.48638 313.881335 " stroke="#a57d71" stroke-width="10" stroke-opacity="1" stroke-miterlimit="10"/><path fill="#fde0a6" d="M 144.179688 74.902344 C 144.582031 74.960938 144.972656 75.089844 145.347656 75.292969 C 145.722656 75.492188 146.078125 75.761719 146.410156 76.101562 C 146.746094 76.4375 147.050781 76.835938 147.328125 77.296875 C 147.605469 77.757812 147.847656 78.269531 148.058594 78.835938 C 148.269531 79.402344 148.441406 80.011719 148.578125 80.660156 C 148.714844 81.3125 148.8125 81.988281 148.867188 82.699219 C 148.925781 83.40625 148.941406 84.128906 148.917969 84.871094 C 148.890625 85.609375 148.824219 86.351562 148.71875 87.09375 C 148.613281 87.835938 148.46875 88.566406 148.285156 89.285156 C 148.101562 90 147.886719 90.691406 147.632812 91.355469 C 147.378906 92.019531 147.097656 92.644531 146.785156 93.230469 C 146.472656 93.816406 146.132812 94.351562 145.773438 94.835938 C 145.414062 95.320312 145.035156 95.742188 144.640625 96.109375 C 144.246094 96.472656 143.839844 96.769531 143.425781 97 C 143.011719 97.230469 142.597656 97.390625 142.179688 97.480469 C 141.761719 97.566406 141.351562 97.582031 140.945312 97.527344 C 140.542969 97.46875 140.152344 97.339844 139.777344 97.136719 C 139.402344 96.933594 139.046875 96.664062 138.714844 96.328125 C 138.382812 95.992188 138.074219 95.589844 137.796875 95.128906 C 137.523438 94.671875 137.277344 94.15625 137.066406 93.589844 C 136.855469 93.023438 136.683594 92.417969 136.546875 91.765625 C 136.410156 91.117188 136.3125 90.4375 136.257812 89.730469 C 136.199219 89.023438 136.183594 88.296875 136.210938 87.558594 C 136.234375 86.820312 136.300781 86.078125 136.40625 85.335938 C 136.511719 84.59375 136.65625 83.863281 136.839844 83.144531 C 137.023438 82.425781 137.242188 81.738281 137.492188 81.074219 C 137.746094 80.410156 138.027344 79.785156 138.339844 79.199219 C 138.652344 78.613281 138.992188 78.078125 139.351562 77.59375 C 139.710938 77.109375 140.089844 76.683594 140.484375 76.320312 C 140.882812 75.957031 141.285156 75.65625 141.699219 75.425781 C 142.113281 75.195312 142.53125 75.035156 142.945312 74.949219 C 143.363281 74.859375 143.773438 74.84375 144.179688 74.902344 Z M 144.179688 74.902344 " fill-opacity="1" fill-rule="nonzero"/><g clip-path="url(#3fb949b5ba)"><path stroke-linecap="butt" transform="matrix(0.0234159, -0.163913, 0.163913, 0.0234159, 51.993224, 216.181186)" fill="none" stroke-linejoin="miter" d="M 923.411421 430.496217 C 923.404743 432.951786 922.967674 435.397345 922.073522 437.812876 C 921.202725 440.225071 919.894863 442.580547 918.1466 444.855949 C 916.425028 447.151369 914.303092 449.313334 911.784128 451.365198 C 909.265164 453.417061 906.412563 455.302106 903.206307 457.047022 C 900.000051 458.791938 896.503531 460.340008 892.743438 461.71125 C 888.959991 463.085828 885.003052 464.246878 880.799223 465.181054 C 876.622084 466.135249 872.314828 466.845888 867.857435 467.339662 C 863.42006 467.806746 858.925968 468.04362 854.398512 468.046948 C 849.871056 468.050277 845.380301 467.81005 840.926246 467.326267 C 836.495546 466.839149 832.178283 466.145176 827.991138 465.194302 C 823.803994 464.243429 819.827042 463.09571 816.056945 461.727791 C 812.286848 460.359872 808.797006 458.785098 805.594093 457.050179 C 802.39118 455.31526 799.545259 453.410187 797.012957 451.364987 C 794.504009 449.31645 792.382081 447.141132 790.650509 444.862387 C 788.918936 442.583643 787.607746 440.244844 786.713603 437.822637 C 785.842815 435.397093 785.399082 432.958205 785.379068 430.482617 C 785.385746 428.027048 785.822815 425.581489 786.716967 423.165958 C 787.611119 420.750427 788.918981 418.394951 790.643889 416.122885 C 792.368797 413.850819 794.510751 411.662164 797.029715 409.6103 C 799.528661 407.585127 802.40128 405.673392 805.607536 403.928476 C 808.813792 402.183559 812.286958 400.638826 816.070405 399.264248 C 819.830498 397.893006 823.810791 396.72862 827.991266 395.79778 C 832.168405 394.843586 836.499016 394.12961 840.936391 393.662526 C 845.370429 393.172088 849.864521 392.935214 854.391977 392.931886 C 858.919433 392.928558 863.410188 393.168785 867.864243 393.652567 C 872.318298 394.136349 876.615543 394.857013 880.799351 395.784532 C 884.986495 396.735405 888.963447 397.883124 892.733544 399.251043 C 896.503641 400.618963 899.993483 402.193736 903.196396 403.928655 C 906.399309 405.663574 909.268585 407.565311 911.777532 409.613848 C 914.289816 411.685739 916.431763 413.834366 918.163335 416.113111 C 919.894908 418.391855 921.209433 420.754009 922.076886 423.156197 C 922.971029 425.578405 923.414761 428.017293 923.411421 430.496217 Z M 923.411421 430.496217 " stroke="#a57d71" stroke-width="10" stroke-opacity="1" stroke-miterlimit="10"/></g><path fill="#e0b9a5" d="M 148.421875 78.179688 L 139.1875 76.863281 L 140.199219 69.792969 L 149.429688 71.113281 Z M 148.421875 78.179688 " fill-opacity="1" fill-rule="nonzero"/><g clip-path="url(#71742b3d0d)"><path stroke-linecap="butt" transform="matrix(-0.163913, -0.0234159, 0.0234159, -0.163913, 277.732963, 152.703806)" fill="none" stroke-linejoin="miter" d="M 836.773486 335.118494 L 893.108114 335.101908 L 893.098032 378.237851 L 836.783422 378.227746 Z M 836.773486 335.118494 " stroke="#a57d71" stroke-width="10" stroke-opacity="1" stroke-miterlimit="10"/></g><path stroke-linecap="butt" transform="matrix(-0.16185, -0.0349341, 0.0349341, -0.16185, 192.159341, 127.47496)" fill-opacity="1" fill="#e0b9a5" fill-rule="nonzero" stroke-linejoin="miter" d="M 594.187565 267.52914 L 632.246545 267.520305 L 632.240712 289.074115 L 594.181732 289.082949 Z M 594.187565 267.52914 " stroke="#a57d71" stroke-width="10" stroke-opacity="1" stroke-miterlimit="10"/><path fill="#fde0a6" d="M 101.308594 67.15625 C 101.707031 67.242188 102.089844 67.398438 102.449219 67.625 C 102.808594 67.851562 103.144531 68.148438 103.453125 68.507812 C 103.761719 68.867188 104.035156 69.285156 104.28125 69.765625 C 104.523438 70.246094 104.730469 70.773438 104.902344 71.355469 C 105.074219 71.933594 105.203125 72.550781 105.292969 73.210938 C 105.382812 73.867188 105.429688 74.550781 105.4375 75.261719 C 105.445312 75.972656 105.410156 76.695312 105.332031 77.433594 C 105.253906 78.167969 105.136719 78.902344 104.976562 79.636719 C 104.820312 80.371094 104.625 81.085938 104.390625 81.789062 C 104.15625 82.492188 103.890625 83.164062 103.59375 83.808594 C 103.292969 84.453125 102.96875 85.058594 102.613281 85.621094 C 102.261719 86.183594 101.886719 86.691406 101.492188 87.148438 C 101.097656 87.605469 100.691406 88.003906 100.273438 88.339844 C 99.851562 88.675781 99.425781 88.945312 98.996094 89.144531 C 98.570312 89.347656 98.144531 89.476562 97.71875 89.535156 C 97.296875 89.59375 96.886719 89.578125 96.488281 89.492188 C 96.089844 89.40625 95.707031 89.25 95.347656 89.023438 C 94.988281 88.792969 94.652344 88.5 94.34375 88.140625 C 94.035156 87.78125 93.761719 87.359375 93.515625 86.882812 C 93.273438 86.402344 93.066406 85.875 92.894531 85.292969 C 92.726562 84.714844 92.59375 84.097656 92.503906 83.4375 C 92.414062 82.78125 92.367188 82.097656 92.359375 81.386719 C 92.351562 80.675781 92.390625 79.953125 92.464844 79.214844 C 92.542969 78.480469 92.660156 77.746094 92.820312 77.011719 C 92.976562 76.277344 93.171875 75.558594 93.40625 74.859375 C 93.640625 74.15625 93.90625 73.480469 94.203125 72.835938 C 94.503906 72.191406 94.832031 71.589844 95.183594 71.027344 C 95.535156 70.464844 95.910156 69.957031 96.304688 69.5 C 96.699219 69.039062 97.105469 68.644531 97.527344 68.308594 C 97.945312 67.972656 98.371094 67.703125 98.800781 67.503906 C 99.230469 67.300781 99.65625 67.171875 100.078125 67.113281 C 100.5 67.054688 100.910156 67.066406 101.308594 67.15625 Z M 101.308594 67.15625 " fill-opacity="1" fill-rule="nonzero"/><g clip-path="url(#480f77a07b)"><path stroke-linecap="butt" transform="matrix(0.0349341, -0.16185, 0.16185, 0.0349341, 16.306451, 160.550581)" fill="none" stroke-linejoin="miter" d="M 659.668236 382.806445 C 659.668603 385.268136 659.233969 387.727178 658.354378 390.137451 C 657.474787 392.547723 656.15024 394.909227 654.42188 397.188945 C 652.693519 399.468663 650.574452 401.615497 648.051573 403.680546 C 645.523716 405.722534 642.674334 407.616706 639.457305 409.373017 C 636.263338 411.12435 632.784011 412.671791 629.001243 414.043377 C 625.241536 415.409986 621.265652 416.55777 617.078568 417.50979 C 612.891485 418.46181 608.580468 419.175095 604.122456 419.654623 C 599.687504 420.129173 595.202778 420.373117 590.6633 420.363393 C 586.1288 420.376731 581.659828 420.134574 577.210263 419.646879 C 572.760698 419.159183 568.455799 418.447183 564.272504 417.515855 C 560.084232 416.561467 556.096702 415.41894 552.323019 414.037176 C 548.554314 412.678472 545.078593 411.11172 541.877773 409.364958 C 538.676953 407.618195 535.807111 405.727589 533.291306 403.688162 C 530.770524 401.625674 528.636796 399.455508 526.913182 397.172687 C 525.171484 394.917904 523.867939 392.56855 522.979486 390.129601 C 522.09601 387.713713 521.665619 385.272435 521.665252 382.810744 C 521.664885 380.349054 522.099519 377.890012 522.97911 375.479739 C 523.881762 373.064489 525.183249 370.707963 526.911609 368.428245 C 528.639969 366.148527 530.782096 363.996716 533.281915 361.936644 C 535.809773 359.894656 538.659155 358.000484 541.876183 356.244173 C 545.075128 354.5159 548.549477 352.945399 552.332245 351.573812 C 556.091953 350.207203 560.067837 349.059419 564.25492 348.1074 C 568.442003 347.15538 572.757998 346.465155 577.211033 345.962567 C 581.645984 345.488017 586.13071 345.244073 590.670188 345.253796 C 595.204689 345.240459 599.696721 345.477638 604.123226 345.970311 C 608.57279 346.458006 612.90075 347.165029 617.084045 348.096357 C 621.272317 349.050745 625.241764 350.22131 629.010469 351.580014 C 632.779174 352.938718 636.254895 354.50547 639.455715 356.252232 C 642.679596 357.994017 645.526377 359.8896 648.047159 361.952089 C 650.562964 363.991516 652.696692 366.161682 654.420307 368.444503 C 656.166981 370.722346 657.470526 373.071701 658.354002 375.487589 C 659.237478 377.903477 659.69093 380.339778 659.668236 382.806445 Z M 659.668236 382.806445 " stroke="#a57d71" stroke-width="10" stroke-opacity="1" stroke-miterlimit="10"/></g><path stroke-linecap="butt" transform="matrix(-0.16185, -0.0349341, 0.0349341, -0.16185, 188.821181, 137.588263)" fill-opacity="1" fill="#e0b9a5" fill-rule="nonzero" stroke-linejoin="miter" d="M 578.225873 288.351679 L 634.558067 288.356853 L 634.551379 331.487532 L 578.219184 331.482358 Z M 578.225873 288.351679 " stroke="#a57d71" stroke-width="10" stroke-opacity="1" stroke-miterlimit="10"/><path stroke-linecap="butt" transform="matrix(-0.156566, -0.0538794, 0.0538794, -0.156566, 113.14259, 102.154665)" fill-opacity="1" fill="#e0b9a5" fill-rule="nonzero" stroke-linejoin="miter" d="M 363.393148 196.010631 L 401.442778 196.015047 L 401.45015 217.568947 L 363.400521 217.564531 Z M 363.393148 196.010631 " stroke="#a57d71" stroke-width="10" stroke-opacity="1" stroke-miterlimit="10"/><path fill="#fde0a6" d="M 62.367188 55.105469 C 62.753906 55.238281 63.113281 55.4375 63.445312 55.707031 C 63.773438 55.976562 64.070312 56.308594 64.335938 56.703125 C 64.597656 57.09375 64.824219 57.546875 65.007812 58.050781 C 65.195312 58.554688 65.335938 59.105469 65.4375 59.699219 C 65.539062 60.296875 65.59375 60.925781 65.605469 61.589844 C 65.617188 62.253906 65.582031 62.9375 65.503906 63.644531 C 65.425781 64.351562 65.304688 65.0625 65.140625 65.785156 C 64.976562 66.507812 64.773438 67.222656 64.53125 67.933594 C 64.285156 68.640625 64.007812 69.332031 63.691406 70 C 63.375 70.671875 63.03125 71.308594 62.660156 71.914062 C 62.285156 72.519531 61.890625 73.078125 61.472656 73.59375 C 61.054688 74.109375 60.625 74.570312 60.179688 74.980469 C 59.734375 75.386719 59.28125 75.734375 58.824219 76.015625 C 58.367188 76.300781 57.914062 76.515625 57.464844 76.664062 C 57.015625 76.8125 56.578125 76.894531 56.148438 76.902344 C 55.722656 76.910156 55.316406 76.847656 54.929688 76.714844 C 54.546875 76.582031 54.1875 76.378906 53.855469 76.109375 C 53.523438 75.84375 53.226562 75.511719 52.964844 75.117188 C 52.699219 74.722656 52.476562 74.273438 52.289062 73.769531 C 52.105469 73.265625 51.960938 72.714844 51.863281 72.117188 C 51.761719 71.523438 51.707031 70.894531 51.695312 70.230469 C 51.683594 69.566406 51.714844 68.878906 51.792969 68.175781 C 51.871094 67.46875 51.992188 66.753906 52.15625 66.03125 C 52.320312 65.308594 52.523438 64.59375 52.769531 63.886719 C 53.011719 63.175781 53.292969 62.484375 53.605469 61.816406 C 53.921875 61.144531 54.265625 60.507812 54.640625 59.90625 C 55.011719 59.300781 55.40625 58.738281 55.824219 58.222656 C 56.242188 57.707031 56.675781 57.246094 57.121094 56.839844 C 57.566406 56.429688 58.015625 56.085938 58.472656 55.800781 C 58.929688 55.515625 59.382812 55.300781 59.835938 55.152344 C 60.285156 55.003906 60.722656 54.925781 61.148438 54.917969 C 61.574219 54.910156 61.980469 54.972656 62.367188 55.105469 Z M 62.367188 55.105469 " fill-opacity="1" fill-rule="nonzero"/><g clip-path="url(#80b853bf26)"><path stroke-linecap="butt" transform="matrix(0.0538793, -0.156566, 0.156566, 0.0538793, -8.283557, 103.745959)" fill="none" stroke-linejoin="miter" d="M 416.622574 307.8795 C 416.624115 310.348978 416.192687 312.792807 415.305983 315.218665 C 414.411601 317.622215 413.098881 319.970133 411.367823 322.262417 C 409.651396 324.524717 407.508953 326.709076 404.992066 328.747849 C 402.482854 330.808929 399.613829 332.694438 396.42265 334.441315 C 393.209163 336.195869 389.725093 337.744144 385.955808 339.116126 C 382.186523 340.488108 378.213577 341.630781 374.02234 342.574129 C 369.831103 343.517478 365.533114 344.223118 361.083756 344.706404 C 356.634399 345.189689 352.152888 345.434544 347.616917 345.448644 C 343.095578 345.43276 338.602054 345.207707 334.165609 344.713515 C 329.706856 344.227 325.395135 343.51524 321.208139 342.585911 C 317.013465 341.634275 313.0481 340.478978 309.28206 339.105389 C 305.516019 337.731801 302.039257 336.183813 298.821787 334.446797 C 295.626626 332.702103 292.750727 330.797642 290.246382 328.740367 C 287.71973 326.69077 285.602294 324.525297 283.871767 322.251626 C 282.141239 319.977955 280.812973 317.640701 279.923908 315.202204 C 279.04252 312.786014 278.601055 310.34318 278.599514 307.873703 C 278.605649 305.426533 279.059385 302.975026 279.946089 300.549168 C 280.810486 298.130987 282.123206 295.78307 283.861941 293.513093 C 285.592999 291.220809 287.720811 289.066434 290.230022 287.005354 C 292.74691 284.966581 295.608259 283.058764 298.829422 281.326518 C 302.020601 279.579641 305.504672 278.031366 309.273957 276.659384 C 313.043242 275.287403 317.030818 274.114745 321.199747 273.179074 C 325.390984 272.235725 329.711281 271.522408 334.160639 271.039122 C 338.609997 270.555837 343.091507 270.310982 347.612847 270.326866 C 352.148818 270.312766 356.650018 270.560127 361.078786 271.032011 C 365.537539 271.518525 369.84926 272.230286 374.021626 273.189599 C 378.208622 274.118928 382.196295 275.266548 385.962335 276.640137 C 389.728376 278.013725 393.212815 279.58402 396.407977 281.328714 C 399.625446 283.06573 402.471361 284.95556 404.998013 287.005158 C 407.524665 289.054756 409.642101 291.220229 411.380305 293.516208 C 413.110833 295.789879 414.416791 298.134809 415.298179 300.550999 C 416.179567 302.967189 416.621032 305.410022 416.622574 307.8795 Z M 416.622574 307.8795 " stroke="#a57d71" stroke-width="10" stroke-opacity="1" stroke-miterlimit="10"/></g><path stroke-linecap="butt" transform="matrix(-0.156566, -0.0538794, 0.0538794, -0.156566, 108.104087, 111.438664)" fill-opacity="1" fill="#e0b9a5" fill-rule="nonzero" stroke-linejoin="miter" d="M 343.740536 215.814976 L 400.04631 215.799204 L 400.046423 258.936989 L 343.732972 258.930453 Z M 343.740536 215.814976 " stroke="#a57d71" stroke-width="10" stroke-opacity="1" stroke-miterlimit="10"/><path fill="#e0b9a5" d="M 28.492188 35.988281 L 22.796875 33.292969 L 24.324219 30.066406 L 30.019531 32.761719 Z M 28.492188 35.988281 " fill-opacity="1" fill-rule="nonzero"/><g clip-path="url(#8bae4bd48b)"><path stroke-linecap="butt" transform="matrix(-0.149658, -0.0708391, 0.0708391, -0.149658, 41.553632, 60.214062)" fill="none" stroke-linejoin="miter" d="M 133.896688 98.495346 L 171.950808 98.492622 L 171.950333 120.052358 L 133.896213 120.055082 Z M 133.896688 98.495346 " stroke="#a57d71" stroke-width="10" stroke-opacity="1" stroke-miterlimit="10"/></g><path fill="#fde0a6" d="M 23.726562 38.699219 C 24.09375 38.871094 24.429688 39.113281 24.726562 39.414062 C 25.027344 39.71875 25.285156 40.082031 25.503906 40.503906 C 25.722656 40.921875 25.894531 41.394531 26.023438 41.917969 C 26.152344 42.4375 26.234375 43 26.269531 43.605469 C 26.300781 44.207031 26.289062 44.839844 26.226562 45.5 C 26.164062 46.160156 26.054688 46.839844 25.898438 47.53125 C 25.746094 48.226562 25.546875 48.921875 25.304688 49.621094 C 25.058594 50.320312 24.777344 51.007812 24.457031 51.6875 C 24.136719 52.363281 23.78125 53.019531 23.394531 53.648438 C 23.007812 54.28125 22.597656 54.875 22.160156 55.4375 C 21.722656 55.996094 21.265625 56.507812 20.792969 56.976562 C 20.320312 57.441406 19.84375 57.855469 19.355469 58.210938 C 18.867188 58.566406 18.378906 58.859375 17.894531 59.089844 C 17.410156 59.324219 16.933594 59.488281 16.472656 59.585938 C 16.007812 59.683594 15.5625 59.714844 15.136719 59.675781 C 14.714844 59.636719 14.316406 59.527344 13.949219 59.351562 C 13.578125 59.179688 13.246094 58.941406 12.945312 58.636719 C 12.644531 58.332031 12.386719 57.96875 12.167969 57.550781 C 11.949219 57.128906 11.777344 56.65625 11.648438 56.132812 C 11.519531 55.613281 11.4375 55.050781 11.40625 54.445312 C 11.371094 53.84375 11.382812 53.210938 11.445312 52.550781 C 11.507812 51.890625 11.617188 51.214844 11.773438 50.519531 C 11.925781 49.828125 12.125 49.128906 12.371094 48.429688 C 12.613281 47.730469 12.894531 47.042969 13.214844 46.363281 C 13.535156 45.6875 13.890625 45.03125 14.277344 44.402344 C 14.664062 43.769531 15.074219 43.175781 15.515625 42.613281 C 15.953125 42.054688 16.40625 41.542969 16.878906 41.074219 C 17.351562 40.609375 17.832031 40.195312 18.316406 39.839844 C 18.804688 39.484375 19.292969 39.191406 19.777344 38.960938 C 20.261719 38.726562 20.738281 38.5625 21.203125 38.464844 C 21.664062 38.367188 22.109375 38.339844 22.535156 38.378906 C 22.957031 38.417969 23.355469 38.523438 23.726562 38.699219 Z M 23.726562 38.699219 " fill-opacity="1" fill-rule="nonzero"/><g clip-path="url(#f593018c89)"><path stroke-linecap="butt" transform="matrix(0.0708391, -0.149658, 0.149658, 0.0708391, -19.570961, 50.476492)" fill="none" stroke-linejoin="miter" d="M 176.165648 205.922956 C 176.176178 208.371475 175.722138 210.831085 174.847312 213.228858 C 173.961255 215.658048 172.644319 218.004078 170.906597 220.288271 C 169.190198 222.56237 167.05415 224.721893 164.529869 226.778069 C 162.026913 228.824151 159.168277 230.725377 155.953963 232.481746 C 152.75088 234.206698 149.266182 235.777837 145.501007 237.142422 C 141.735831 238.507008 137.742919 239.666177 133.564916 240.599743 C 129.375683 241.564725 125.065331 242.273825 120.62263 242.758459 C 116.169835 243.22177 111.690171 243.462888 107.152222 243.470584 C 102.635597 243.468187 98.13475 243.223412 93.702421 242.737395 C 89.248769 242.261471 84.947794 241.556673 80.746753 240.621864 C 76.567037 239.676962 72.592737 238.504323 68.812623 237.135363 C 65.053833 235.75631 61.562155 234.224722 58.360052 232.477763 C 55.157949 230.730804 52.297022 228.822353 49.787366 226.773734 C 47.256387 224.735207 45.129418 222.557649 43.405323 220.2938 C 41.671135 218.008627 40.349913 215.658486 39.462983 213.233284 C 38.586145 210.829406 38.153692 208.371791 38.164485 205.913178 C 38.143861 203.443335 38.586671 201.015142 39.472728 198.585953 C 40.358785 196.156763 41.675721 193.810733 43.39212 191.536633 C 45.129842 189.25244 47.26589 187.092918 49.79017 185.036742 C 52.293127 182.990659 55.151762 181.089434 58.376169 179.354388 C 61.56916 177.608113 65.053858 176.036974 68.819033 174.672388 C 72.584209 173.307803 76.555798 172.158727 80.755124 171.215068 C 84.923033 170.260179 89.254708 169.540985 93.707503 169.077675 C 98.150205 168.593041 102.629868 168.351923 107.167817 168.344226 C 111.684443 168.346623 116.18529 168.591399 120.617618 169.077416 C 125.07127 169.55334 129.372246 170.258137 133.583379 171.21427 C 137.763096 172.159172 141.727303 173.310488 145.507417 174.679447 C 149.266207 176.0585 152.767977 177.611413 155.959988 179.337048 C 159.162091 181.084006 162.023017 182.992457 164.532673 185.041077 C 167.063653 187.079603 169.190622 189.257161 170.92481 191.542334 C 172.648905 193.806184 173.948803 196.166418 174.835733 198.59162 C 175.712571 200.995498 176.166348 203.44302 176.165648 205.922956 Z M 176.165648 205.922956 " stroke="#a57d71" stroke-width="10" stroke-opacity="1" stroke-miterlimit="10"/></g><path fill="#e0b9a5" d="M 26.808594 43.089844 L 18.378906 39.097656 L 21.433594 32.644531 L 29.863281 36.636719 Z M 26.808594 43.089844 " fill-opacity="1" fill-rule="nonzero"/><g clip-path="url(#1207847f41)"><path stroke-linecap="butt" transform="matrix(-0.149658, -0.0708391, 0.0708391, -0.149658, 35.121022, 68.448515)" fill="none" stroke-linejoin="miter" d="M 110.89985 116.950474 L 167.231434 116.961887 L 167.230484 160.081359 L 110.8989 160.069947 Z M 110.89985 116.950474 " stroke="#a57d71" stroke-width="10" stroke-opacity="1" stroke-miterlimit="10"/></g></svg>