<svg xmlns="http://www.w3.org/2000/svg" xmlns:xlink="http://www.w3.org/1999/xlink" width="360" zoomAndPan="magnify" viewBox="0 0 270 374.999991" height="500" preserveAspectRatio="xMidYMid meet" version="1.0"><path fill="#7c5b54" d="M 58.660156 267.804688 C 58.59375 263.5625 58.539062 259.316406 58.46875 255.074219 C 58.453125 239.28125 58.707031 223.492188 59.476562 207.71875 C 59.847656 191.632812 59.847656 175.539062 60.417969 159.457031 C 60.453125 157.9375 60.519531 156.417969 60.582031 154.902344 C 60.625 153.492188 60.648438 152.089844 60.675781 150.679688 C 60.675781 150.484375 60.710938 150.304688 60.789062 150.136719 C 60.480469 136.007812 60.074219 121.886719 59.847656 107.757812 C 59.300781 91.03125 59.214844 74.082031 62.707031 57.660156 C 63.878906 52.425781 65.546875 47.308594 67.660156 42.402344 C 68.527344 39.867188 69.492188 37.367188 70.5625 34.910156 C 77.371094 19.078125 88.847656 3.96875 107.011719 5.003906 C 108.238281 5.09375 109.460938 5.285156 110.660156 5.582031 C 114.121094 6.304688 117.515625 7.863281 120.148438 9.953125 C 121.742188 11.230469 123.136719 12.757812 124.429688 14.359375 C 125.0625 15.175781 124.695312 16.113281 124.039062 16.5 C 124.464844 16.96875 124.613281 17.714844 124.121094 18.390625 C 123.160156 19.640625 121.980469 20.695312 120.867188 21.796875 C 120.230469 22.328125 118.539062 24.25 117.402344 24.425781 C 116.824219 24.886719 115.988281 24.613281 115.265625 24.230469 C 114.578125 23.953125 113.878906 23.71875 113.167969 23.53125 C 111.269531 23.070312 109.3125 22.882812 107.367188 22.9375 C 100.054688 23.171875 92.921875 26.957031 88.570312 33.140625 C 84.203125 39.777344 81.429688 47.511719 79.566406 55.292969 C 78.910156 58.230469 78.355469 61.195312 77.96875 64.179688 C 78.007812 64.324219 78.023438 64.472656 78.011719 64.625 C 77.925781 65.511719 77.871094 66.402344 77.78125 67.289062 C 77.742188 67.695312 77.671875 68.09375 77.632812 68.5 C 77.589844 68.960938 77.542969 69.421875 77.5 69.882812 C 77.40625 70.851562 77.339844 71.828125 77.253906 72.800781 C 77.089844 74.804688 76.9375 76.808594 76.769531 78.820312 C 76.679688 79.890625 76.625 80.96875 76.554688 82.042969 C 76.496094 82.988281 76.425781 83.925781 76.371094 84.867188 C 76.386719 84.882812 76.402344 84.898438 76.414062 84.914062 L 76.402344 85.261719 C 76.378906 85.574219 76.402344 85.890625 76.394531 86.203125 C 76.394531 86.371094 76.378906 86.542969 76.371094 86.71875 C 76.363281 86.878906 76.371094 87.039062 76.375 87.199219 C 76.378906 87.367188 76.386719 87.535156 76.394531 87.699219 C 76.402344 87.875 76.414062 88.042969 76.417969 88.21875 C 76.425781 88.414062 76.417969 88.609375 76.414062 88.804688 C 76.414062 88.972656 76.425781 89.144531 76.425781 89.320312 C 76.4375 89.667969 76.449219 90.015625 76.460938 90.359375 L 76.460938 90.382812 C 76.472656 90.699219 76.488281 91.019531 76.503906 91.335938 C 76.28125 98.640625 76.0625 105.945312 75.8125 113.246094 C 75.355469 131.445312 74.238281 149.597656 74.628906 167.804688 C 74.667969 173.824219 74.882812 179.851562 74.851562 185.875 L 74.851562 185.886719 C 74.875 187.273438 74.894531 188.667969 74.917969 190.058594 C 75.128906 206.566406 75.472656 223.078125 75.128906 239.589844 C 74.949219 256.324219 74.753906 273.070312 75 289.8125 C 75.09375 294.164062 75.203125 298.527344 75.453125 302.863281 C 75.441406 304.253906 75.847656 305.65625 75.925781 306.996094 C 75.820312 307.550781 75.308594 307.929688 74.800781 307.929688 L 74.773438 307.929688 C 74.601562 307.925781 74.429688 307.878906 74.273438 307.777344 C 74.050781 307.566406 73.894531 307.316406 73.785156 307.03125 C 73.652344 307.074219 73.496094 307.089844 73.324219 307.078125 C 69.277344 306.78125 65.386719 305.472656 61.390625 304.855469 C 61.265625 305.054688 61.105469 305.148438 60.914062 305.113281 C 60.816406 305.019531 60.734375 304.921875 60.660156 304.808594 C 60.507812 304.789062 60.359375 304.746094 60.226562 304.664062 C 60.117188 304.804688 59.960938 304.902344 59.785156 304.910156 C 59.792969 305.007812 59.796875 305.101562 59.800781 305.199219 C 59.839844 305.789062 59.863281 306.386719 59.941406 306.976562 C 60.082031 307.171875 60.101562 307.453125 59.976562 307.675781 C 59.863281 307.894531 59.648438 308.007812 59.429688 308.007812 L 59.417969 308.007812 C 59.265625 308.003906 59.109375 307.941406 58.992188 307.816406 C 58.535156 307.007812 58.714844 305.933594 58.59375 305.023438 C 58.519531 303.738281 58.457031 302.449219 58.410156 301.164062 C 58.175781 296.035156 58.339844 290.90625 58.394531 285.773438 C 58.523438 279.785156 58.554688 273.792969 58.660156 267.804688 Z M 58.660156 267.804688 " fill-opacity="1" fill-rule="nonzero"/><path fill="#7c5b54" d="M 67.941406 374.894531 C 49.015625 374.234375 29.898438 370.832031 12.746094 362.125 C 9.832031 360.628906 6.921875 359.03125 4.398438 356.875 C 3.433594 356.296875 2.605469 355.410156 1.941406 354.507812 C 0.828125 352.347656 0.960938 349.707031 0.695312 347.316406 C 0.386719 341.371094 0.609375 335.492188 0.757812 329.554688 C 0.792969 328.90625 1.566406 328.796875 1.851562 329.214844 C 1.921875 329.238281 1.996094 329.273438 2.054688 329.324219 C 2.28125 329.507812 2.507812 329.6875 2.730469 329.875 C 2.785156 329.894531 2.835938 329.921875 2.882812 329.964844 C 5.644531 332.21875 8.421875 334.457031 11.320312 336.523438 C 22.492188 344.855469 35.570312 350.148438 49.148438 352.035156 C 53.839844 352.710938 58.4375 352.820312 63.128906 353 C 71.953125 353.328125 80.804688 353.140625 89.589844 352.148438 C 98.8125 351.203125 108.089844 349.140625 116.445312 344.886719 C 122.859375 341.695312 129.007812 337.464844 133.421875 331.59375 C 133.703125 331.226562 133.980469 330.855469 134.257812 330.480469 C 134.480469 330.207031 134.667969 329.800781 135.066406 329.832031 C 135.328125 329.832031 135.546875 330.042969 135.617188 330.292969 C 135.703125 330.382812 135.757812 330.496094 135.769531 330.625 C 135.851562 331.308594 135.921875 332 135.984375 332.691406 C 136.226562 337.402344 135.894531 342.132812 135.574219 346.835938 C 135.558594 347.019531 135.542969 347.203125 135.523438 347.386719 C 135.660156 347.484375 135.753906 347.648438 135.757812 347.878906 C 135.738281 348.351562 135.683594 348.832031 135.625 349.304688 C 135.523438 350.039062 135.332031 350.761719 135.054688 351.472656 C 135.035156 351.597656 135.015625 351.722656 134.992188 351.847656 C 134.992188 352.242188 134.78125 352.648438 134.464844 352.734375 C 131.054688 359.054688 121.410156 363.914062 115.929688 366.429688 C 102.449219 372.617188 87.648438 374.984375 72.976562 374.984375 C 71.296875 374.984375 69.613281 374.957031 67.941406 374.894531 " fill-opacity="1" fill-rule="nonzero"/><path fill="#a37b6f" d="M 159.441406 15.304688 C 159.738281 15.792969 160.382812 16.617188 159.617188 16.996094 C 159.613281 16.996094 159.605469 17 159.597656 17 C 159.273438 17.234375 158.691406 17.265625 158.382812 17.390625 C 156.046875 18.097656 153.746094 18.9375 151.472656 19.835938 C 145.660156 22.152344 140.578125 25.703125 135.835938 29.707031 C 132.429688 32.59375 129.085938 35.589844 126.359375 39.128906 C 123.921875 42.421875 121.542969 45.84375 119.71875 49.507812 C 119.417969 50.121094 119.117188 50.734375 118.851562 51.359375 C 118.875 51.417969 118.890625 51.488281 118.894531 51.570312 C 118.914062 52.03125 118.429688 52.335938 118.015625 52.15625 C 118.015625 52.15625 118.015625 52.152344 118.011719 52.152344 C 117.9375 52.140625 117.863281 52.113281 117.789062 52.066406 C 117.789062 52.0625 117.785156 52.058594 117.78125 52.058594 C 117.230469 51.796875 116.789062 51.34375 116.320312 50.964844 C 115.363281 50.136719 114.4375 49.273438 113.515625 48.40625 C 110.671875 46.3125 107.988281 43.996094 105.507812 41.480469 C 104.617188 40.484375 103.464844 39.507812 102.984375 38.230469 C 102.925781 38.183594 102.878906 38.121094 102.839844 38.046875 C 102.726562 37.847656 102.777344 37.570312 102.808594 37.355469 C 102.9375 36.460938 103.195312 35.589844 103.460938 34.722656 C 104.609375 31.121094 106.347656 27.703125 108.492188 24.589844 C 115.644531 14.4375 125.984375 6.078125 137.597656 1.613281 C 140.1875 0.738281 142.890625 0.25 145.605469 0.00390625 C 145.753906 -0.0117188 145.894531 0.0351562 146.007812 0.117188 C 146.714844 0.433594 147.507812 1.425781 147.992188 1.761719 C 150.851562 4.269531 153.398438 7.113281 155.691406 10.144531 C 156.992188 11.828125 158.296875 13.515625 159.441406 15.304688 " fill-opacity="1" fill-rule="nonzero"/><path fill="#a37b6f" d="M 264.1875 56.40625 C 264.578125 57.917969 262.402344 57.257812 261.613281 57.089844 C 259.652344 56.621094 257.890625 56.023438 255.972656 55.59375 C 252.613281 54.910156 249.066406 54.6875 245.664062 54.660156 C 240.988281 54.671875 236.292969 54.773438 231.652344 55.386719 C 217.757812 57.257812 205.027344 63.929688 193.414062 71.484375 C 185.636719 76.816406 177.886719 82.476562 171.253906 89.128906 C 158.640625 102.332031 148.800781 118.640625 145.25 136.683594 C 143.691406 144.632812 142.933594 152.808594 143.84375 160.882812 C 143.976562 161.757812 144.125 162.636719 144.410156 163.476562 C 144.519531 163.585938 144.582031 163.730469 144.605469 163.890625 C 144.652344 164.289062 144.273438 164.589844 143.902344 164.574219 C 143.894531 164.574219 143.882812 164.574219 143.875 164.570312 C 143.65625 164.863281 143.207031 164.921875 142.894531 164.695312 C 139.234375 161.367188 136.476562 157.105469 133.738281 153.011719 C 128.964844 145.410156 125.546875 137.0625 122.699219 128.574219 C 119.289062 118.507812 116.414062 108.21875 114.847656 97.691406 C 111.117188 75.871094 109.234375 52.574219 124.402344 34.425781 C 128.230469 29.765625 132.738281 25.671875 137.761719 22.335938 C 139.003906 21.507812 140.300781 20.75 141.59375 20 C 141.769531 19.894531 141.980469 19.910156 142.160156 20 C 144.707031 18.597656 147.402344 17.457031 150.175781 16.554688 C 162.414062 12.800781 175.605469 11.816406 188.246094 13.90625 C 196.324219 15.335938 204.148438 17.914062 211.839844 20.738281 C 219.675781 23.582031 227.335938 26.953125 234.503906 31.222656 C 241.660156 35.46875 248.316406 40.554688 254.609375 45.992188 C 257.902344 48.847656 260.988281 51.953125 263.699219 55.371094 C 263.859375 55.574219 263.863281 55.855469 263.742188 56.070312 C 263.929688 56.105469 264.09375 56.21875 264.1875 56.40625 " fill-opacity="1" fill-rule="nonzero"/><path fill="#7c5b54" d="M 268.359375 62.605469 C 269.472656 66.3125 269.5 70.226562 269.421875 74.058594 C 267.867188 97.707031 253.226562 119.058594 237.035156 135.496094 C 232.964844 139.660156 228.570312 143.503906 223.910156 146.992188 C 223.617188 147.210938 223.328125 147.429688 223.035156 147.648438 C 221.507812 148.980469 219.882812 150.21875 218.308594 151.492188 C 208.933594 158.695312 198.464844 164.429688 187.230469 168.125 C 182.4375 169.746094 177.507812 170.933594 172.515625 171.742188 C 169.28125 172.273438 165.992188 172.578125 162.714844 172.300781 C 161.140625 172.164062 159.566406 171.96875 158.003906 171.707031 C 157.785156 171.921875 157.394531 171.984375 157.074219 171.902344 C 154.6875 171.570312 151.320312 170.574219 148.441406 169.226562 C 148.125 169.113281 147.808594 168.996094 147.492188 168.875 C 147.164062 168.734375 146.5625 168.363281 145.996094 167.914062 C 145.234375 167.4375 144.5625 166.9375 144.019531 166.421875 C 140.402344 162.742188 139.953125 152.457031 139.746094 147.335938 C 139.742188 144.996094 139.929688 142.667969 140.144531 140.339844 C 140.175781 138.289062 140.3125 136.234375 140.578125 134.195312 C 141.242188 129.21875 142.632812 124.363281 144.320312 119.644531 C 151.035156 101.128906 163.949219 85.429688 178.9375 72.910156 C 192.003906 61.808594 208.109375 54.761719 224.851562 51.398438 C 224.980469 51.371094 225.109375 51.347656 225.242188 51.324219 C 226.265625 51.101562 227.292969 50.90625 228.332031 50.746094 C 228.476562 50.722656 228.621094 50.699219 228.761719 50.671875 C 228.808594 50.664062 228.851562 50.664062 228.898438 50.664062 C 229.371094 50.597656 229.847656 50.539062 230.320312 50.484375 C 238.378906 49.777344 246.601562 49.679688 254.566406 51.253906 C 259.84375 52.210938 265.265625 54.875 267.613281 59.953125 C 267.890625 60.53125 268.125 61.136719 268.351562 61.734375 C 268.429688 61.933594 268.375 62.148438 268.25 62.3125 C 268.289062 62.429688 268.328125 62.53125 268.359375 62.605469 M 142.050781 158.171875 C 142.042969 158.148438 142.039062 158.132812 142.035156 158.109375 C 142.039062 158.132812 142.042969 158.148438 142.050781 158.171875 Z M 142.050781 158.171875 " fill-opacity="1" fill-rule="nonzero"/><path fill="#feeac3" d="M 190.335938 64.675781 C 190.574219 64.808594 190.816406 64.9375 191.058594 65.0625 C 199.882812 68.929688 209.804688 71.960938 215.875 79.972656 C 221.367188 87.132812 223.554688 96.660156 220.171875 105.21875 C 219.519531 107.046875 218.703125 108.816406 217.753906 110.511719 C 217.730469 110.574219 217.710938 110.632812 217.695312 110.683594 C 215.292969 116.09375 210.148438 119.773438 205.128906 122.601562 C 200.441406 125.003906 194.917969 125.234375 189.769531 124.609375 C 186.988281 124.203125 184.433594 123.101562 182.058594 121.671875 C 180.242188 120.914062 178.5 119.972656 176.871094 118.875 C 170.953125 115.320312 166.847656 110.265625 164.75 103.152344 C 163.53125 99.410156 163.46875 95.398438 162.191406 91.675781 C 162.007812 91.167969 161.804688 90.671875 161.585938 90.183594 C 166.8125 83.890625 172.691406 78.125 178.933594 72.910156 C 182.523438 69.859375 186.339844 67.117188 190.335938 64.675781 Z M 190.335938 64.675781 " fill-opacity="1" fill-rule="nonzero"/><path fill="#feeac3" d="M 0.609375 328.78125 C 0.445312 322.058594 7.742188 316.753906 13.414062 313.535156 C 23.367188 307.972656 34.832031 305.203125 46.273438 303.714844 C 62.871094 301.5625 79.9375 301.535156 96.320312 305.042969 C 102.511719 306.390625 108.636719 308.15625 114.359375 310.75 C 116.414062 311.660156 118.4375 312.664062 120.339844 313.824219 C 126.617188 317.105469 132.78125 321.234375 135.382812 327.574219 C 135.90625 329.125 136.144531 330.824219 135.769531 332.433594 C 135.554688 332.96875 135.25 334.492188 134.507812 334.535156 C 133.914062 335.410156 133.183594 336.226562 132.519531 337.027344 C 128.03125 341.945312 122.039062 345.472656 115.808594 348.242188 C 99.53125 355.753906 80.9375 357.964844 62.90625 357.382812 C 50.515625 356.703125 38.046875 354.574219 26.707031 349.777344 C 24.242188 348.792969 21.871094 347.648438 19.585938 346.367188 C 14.804688 344.605469 10.460938 341.550781 6.5625 338.210938 C 4.84375 336.730469 3.078125 335.261719 1.644531 333.472656 C 0.640625 332.160156 0.480469 330.429688 0.609375 328.78125 Z M 110.484375 311.078125 L 110.527344 311.078125 C 110.539062 311.078125 110.554688 311.078125 110.566406 311.074219 C 110.539062 311.078125 110.511719 311.078125 110.484375 311.078125 Z M 110.484375 311.078125 " fill-opacity="1" fill-rule="nonzero"/><path fill="#a37b6f" d="M 64.171875 334.386719 C 56.640625 334.152344 48.796875 333.136719 42.339844 329.183594 C 39.5625 327.542969 37.007812 325.105469 36.878906 321.816406 C 36.851562 321.554688 36.980469 321.308594 37.203125 321.179688 C 37.207031 321.132812 37.207031 321.082031 37.207031 321.035156 C 37.253906 319.75 37.542969 318.484375 37.910156 317.25 C 37.972656 316.820312 38.050781 316.390625 38.144531 315.964844 C 39.011719 311.980469 40.867188 308.082031 43.9375 305.195312 C 47.933594 301.25 52.988281 298.285156 58.492188 296.691406 C 58.621094 296.757812 58.753906 296.824219 58.878906 296.890625 C 59.082031 296.988281 59.277344 297.082031 59.488281 297.160156 C 59.671875 297.230469 59.855469 297.308594 60.035156 297.378906 C 60.210938 297.453125 60.386719 297.507812 60.5625 297.5625 C 60.933594 297.6875 61.304688 297.796875 61.683594 297.890625 C 62.085938 297.988281 62.496094 298.078125 62.90625 298.160156 C 63.320312 298.246094 63.738281 298.324219 64.160156 298.375 C 64.367188 298.402344 64.574219 298.425781 64.78125 298.449219 C 64.996094 298.472656 65.207031 298.484375 65.421875 298.5 C 65.640625 298.515625 65.867188 298.535156 66.09375 298.550781 C 66.300781 298.5625 66.515625 298.5625 66.730469 298.5625 L 66.820312 298.5625 C 67.230469 298.5625 67.636719 298.542969 68.046875 298.511719 C 68.488281 298.476562 68.925781 298.40625 69.363281 298.328125 C 70.199219 298.183594 71.035156 298.007812 71.832031 297.710938 C 72.25 297.554688 72.65625 297.378906 73.0625 297.199219 C 73.441406 297.027344 73.8125 296.839844 74.15625 296.613281 C 74.496094 296.394531 74.828125 296.160156 75.082031 295.851562 C 75.171875 295.746094 75.246094 295.609375 75.25 295.46875 C 81.804688 296.328125 87.992188 299.695312 92.09375 304.640625 C 94.621094 307.894531 96.472656 311.609375 97.78125 315.449219 C 98.632812 318.058594 98.828125 320.828125 98.765625 323.542969 C 98.675781 324.289062 98.964844 326.183594 97.890625 326.082031 C 96.847656 327.328125 94.839844 328.484375 93.8125 329.042969 C 85.609375 333.257812 76.136719 334.414062 66.898438 334.414062 C 65.988281 334.414062 65.082031 334.402344 64.171875 334.382812 " fill-opacity="1" fill-rule="nonzero"/></svg>