<svg xmlns="http://www.w3.org/2000/svg" xmlns:xlink="http://www.w3.org/1999/xlink" width="460" zoomAndPan="magnify" viewBox="0 0 345 344.999992" height="460" preserveAspectRatio="xMidYMid meet" version="1.0"><path fill="#ccd5b1" d="M 344.164062 172.5 C 344.164062 175.308594 344.09375 178.117188 343.957031 180.921875 C 343.820312 183.726562 343.613281 186.527344 343.335938 189.324219 C 343.0625 192.121094 342.71875 194.90625 342.304688 197.6875 C 341.894531 200.464844 341.414062 203.234375 340.867188 205.988281 C 340.316406 208.742188 339.703125 211.484375 339.019531 214.210938 C 338.335938 216.933594 337.585938 219.640625 336.773438 222.332031 C 335.957031 225.019531 335.074219 227.6875 334.128906 230.332031 C 333.183594 232.976562 332.171875 235.597656 331.097656 238.191406 C 330.023438 240.789062 328.882812 243.355469 327.683594 245.894531 C 326.480469 248.433594 325.21875 250.941406 323.894531 253.421875 C 322.570312 255.898438 321.183594 258.34375 319.742188 260.753906 C 318.296875 263.160156 316.792969 265.535156 315.234375 267.871094 C 313.671875 270.207031 312.054688 272.503906 310.382812 274.757812 C 308.707031 277.015625 306.980469 279.230469 305.199219 281.402344 C 303.414062 283.574219 301.582031 285.699219 299.695312 287.78125 C 297.808594 289.863281 295.871094 291.898438 293.882812 293.882812 C 291.898438 295.871094 289.863281 297.808594 287.78125 299.695312 C 285.699219 301.582031 283.574219 303.414062 281.402344 305.199219 C 279.230469 306.980469 277.015625 308.707031 274.757812 310.382812 C 272.503906 312.054688 270.207031 313.671875 267.871094 315.234375 C 265.535156 316.792969 263.160156 318.296875 260.753906 319.742188 C 258.34375 321.183594 255.898438 322.570312 253.421875 323.894531 C 250.941406 325.21875 248.433594 326.480469 245.894531 327.683594 C 243.355469 328.882812 240.789062 330.023438 238.191406 331.097656 C 235.597656 332.171875 232.976562 333.183594 230.332031 334.128906 C 227.6875 335.074219 225.019531 335.957031 222.332031 336.773438 C 219.640625 337.585938 216.933594 338.335938 214.210938 339.019531 C 211.484375 339.703125 208.742188 340.316406 205.988281 340.867188 C 203.234375 341.414062 200.464844 341.894531 197.6875 342.304688 C 194.90625 342.71875 192.121094 343.0625 189.324219 343.335938 C 186.527344 343.613281 183.726562 343.820312 180.921875 343.957031 C 178.117188 344.09375 175.308594 344.164062 172.5 344.164062 C 169.6875 344.164062 166.882812 344.09375 164.074219 343.957031 C 161.269531 343.820312 158.46875 343.613281 155.671875 343.335938 C 152.875 343.0625 150.089844 342.71875 147.308594 342.304688 C 144.53125 341.894531 141.761719 341.414062 139.007812 340.867188 C 136.253906 340.316406 133.511719 339.703125 130.785156 339.019531 C 128.0625 338.335938 125.355469 337.585938 122.667969 336.773438 C 119.976562 335.957031 117.3125 335.074219 114.664062 334.128906 C 112.019531 333.183594 109.398438 332.171875 106.804688 331.097656 C 104.210938 330.023438 101.640625 328.882812 99.101562 327.683594 C 96.5625 326.480469 94.054688 325.21875 91.574219 323.894531 C 89.097656 322.570312 86.652344 321.183594 84.246094 319.742188 C 81.835938 318.296875 79.460938 316.792969 77.125 315.234375 C 74.789062 313.671875 72.492188 312.054688 70.238281 310.382812 C 67.980469 308.707031 65.765625 306.980469 63.59375 305.199219 C 61.421875 303.414062 59.296875 301.582031 57.214844 299.695312 C 55.132812 297.808594 53.097656 295.871094 51.113281 293.882812 C 49.125 291.898438 47.1875 289.863281 45.300781 287.78125 C 43.414062 285.699219 41.582031 283.574219 39.800781 281.402344 C 38.015625 279.230469 36.289062 277.015625 34.613281 274.757812 C 32.941406 272.503906 31.324219 270.207031 29.761719 267.871094 C 28.203125 265.535156 26.699219 263.160156 25.253906 260.753906 C 23.8125 258.34375 22.425781 255.898438 21.101562 253.421875 C 19.777344 250.941406 18.515625 248.433594 17.3125 245.894531 C 16.113281 243.355469 14.976562 240.789062 13.898438 238.191406 C 12.824219 235.597656 11.8125 232.976562 10.867188 230.332031 C 9.921875 227.6875 9.039062 225.019531 8.222656 222.332031 C 7.410156 219.640625 6.660156 216.933594 5.976562 214.210938 C 5.292969 211.484375 4.679688 208.742188 4.132812 205.988281 C 3.582031 203.234375 3.101562 200.464844 2.691406 197.6875 C 2.277344 194.90625 1.933594 192.121094 1.660156 189.324219 C 1.382812 186.527344 1.175781 183.726562 1.039062 180.921875 C 0.902344 178.117188 0.832031 175.308594 0.832031 172.5 C 0.832031 169.6875 0.902344 166.882812 1.039062 164.074219 C 1.175781 161.269531 1.382812 158.46875 1.660156 155.671875 C 1.933594 152.875 2.277344 150.089844 2.691406 147.308594 C 3.101562 144.53125 3.582031 141.761719 4.132812 139.007812 C 4.679688 136.253906 5.292969 133.511719 5.976562 130.785156 C 6.660156 128.0625 7.410156 125.355469 8.222656 122.667969 C 9.039062 119.976562 9.921875 117.3125 10.867188 114.664062 C 11.8125 112.019531 12.824219 109.398438 13.898438 106.804688 C 14.976562 104.210938 16.113281 101.640625 17.3125 99.101562 C 18.515625 96.5625 19.777344 94.054688 21.101562 91.574219 C 22.425781 89.097656 23.8125 86.652344 25.253906 84.246094 C 26.699219 81.835938 28.203125 79.460938 29.761719 77.125 C 31.324219 74.789062 32.941406 72.492188 34.613281 70.238281 C 36.289062 67.980469 38.015625 65.765625 39.800781 63.59375 C 41.582031 61.421875 43.414062 59.296875 45.300781 57.214844 C 47.1875 55.132812 49.125 53.097656 51.113281 51.113281 C 53.097656 49.125 55.132812 47.1875 57.214844 45.300781 C 59.296875 43.414062 61.421875 41.582031 63.59375 39.800781 C 65.765625 38.015625 67.980469 36.289062 70.238281 34.613281 C 72.492188 32.941406 74.789062 31.324219 77.125 29.761719 C 79.460938 28.203125 81.835938 26.699219 84.246094 25.253906 C 86.652344 23.8125 89.097656 22.425781 91.574219 21.101562 C 94.054688 19.777344 96.5625 18.515625 99.101562 17.3125 C 101.640625 16.113281 104.210938 14.976562 106.804688 13.898438 C 109.398438 12.824219 112.019531 11.8125 114.664062 10.867188 C 117.3125 9.921875 119.976562 9.039062 122.667969 8.222656 C 125.355469 7.410156 128.0625 6.660156 130.785156 5.976562 C 133.511719 5.292969 136.253906 4.679688 139.007812 4.132812 C 141.761719 3.582031 144.53125 3.101562 147.308594 2.691406 C 150.089844 2.277344 152.875 1.933594 155.671875 1.660156 C 158.46875 1.382812 161.269531 1.175781 164.074219 1.039062 C 166.882812 0.902344 169.6875 0.832031 172.5 0.832031 C 175.308594 0.832031 178.117188 0.902344 180.921875 1.039062 C 183.726562 1.175781 186.527344 1.382812 189.324219 1.660156 C 192.121094 1.933594 194.90625 2.277344 197.6875 2.691406 C 200.464844 3.101562 203.234375 3.582031 205.988281 4.132812 C 208.742188 4.679688 211.484375 5.292969 214.210938 5.976562 C 216.933594 6.660156 219.640625 7.410156 222.332031 8.222656 C 225.019531 9.039062 227.6875 9.921875 230.332031 10.867188 C 232.976562 11.8125 235.597656 12.824219 238.191406 13.898438 C 240.789062 14.976562 243.355469 16.113281 245.894531 17.3125 C 248.433594 18.515625 250.941406 19.777344 253.421875 21.101562 C 255.898438 22.425781 258.34375 23.8125 260.753906 25.253906 C 263.160156 26.699219 265.535156 28.203125 267.871094 29.761719 C 270.207031 31.324219 272.503906 32.941406 274.757812 34.613281 C 277.015625 36.289062 279.230469 38.015625 281.402344 39.800781 C 283.574219 41.582031 285.699219 43.414062 287.78125 45.300781 C 289.863281 47.1875 291.898438 49.125 293.882812 51.113281 C 295.871094 53.097656 297.808594 55.132812 299.695312 57.214844 C 301.582031 59.296875 303.414062 61.421875 305.199219 63.59375 C 306.980469 65.765625 308.707031 67.980469 310.382812 70.238281 C 312.054688 72.492188 313.671875 74.789062 315.234375 77.125 C 316.792969 79.460938 318.296875 81.835938 319.742188 84.246094 C 321.183594 86.652344 322.570312 89.097656 323.894531 91.574219 C 325.21875 94.054688 326.480469 96.5625 327.683594 99.101562 C 328.882812 101.640625 330.023438 104.210938 331.097656 106.804688 C 332.171875 109.398438 333.183594 112.019531 334.128906 114.664062 C 335.074219 117.3125 335.957031 119.976562 336.773438 122.667969 C 337.585938 125.355469 338.335938 128.0625 339.019531 130.785156 C 339.703125 133.511719 340.316406 136.253906 340.867188 139.007812 C 341.414062 141.761719 341.894531 144.53125 342.304688 147.308594 C 342.71875 150.089844 343.0625 152.875 343.335938 155.671875 C 343.613281 158.46875 343.820312 161.269531 343.957031 164.074219 C 344.09375 166.882812 344.164062 169.6875 344.164062 172.5 Z M 344.164062 172.5 " fill-opacity="1" fill-rule="nonzero"/><path fill="#a57d71" d="M 172.5 344.996094 C 149.210938 344.996094 126.621094 340.4375 105.351562 331.441406 C 84.8125 322.753906 66.363281 310.316406 50.523438 294.472656 C 34.679688 278.628906 22.242188 260.183594 13.554688 239.640625 C 4.558594 218.375 0 195.785156 0 172.5 C 0 149.210938 4.558594 126.621094 13.554688 105.351562 C 22.242188 84.8125 34.679688 66.363281 50.523438 50.523438 C 66.367188 34.679688 84.8125 22.242188 105.355469 13.554688 C 126.621094 4.558594 149.210938 0 172.5 0 C 195.785156 0 218.375 4.558594 239.644531 13.554688 C 260.183594 22.242188 278.632812 34.679688 294.472656 50.523438 C 310.316406 66.367188 322.753906 84.8125 331.441406 105.355469 C 340.4375 126.621094 345 149.210938 345 172.5 C 345 195.789062 340.4375 218.375 331.441406 239.644531 C 322.753906 260.1875 310.316406 278.632812 294.472656 294.476562 C 278.632812 310.320312 260.1875 322.757812 239.644531 331.445312 C 218.375 340.441406 195.785156 345 172.5 345 Z M 172.5 1.664062 C 78.300781 1.664062 1.664062 78.300781 1.664062 172.5 C 1.664062 266.695312 78.300781 343.332031 172.5 343.332031 C 266.695312 343.332031 343.332031 266.695312 343.332031 172.5 C 343.332031 78.300781 266.695312 1.664062 172.5 1.664062 Z M 172.5 1.664062 " fill-opacity="1" fill-rule="nonzero"/><path fill="#f7ece3" d="M 324.253906 172.5 C 324.253906 174.980469 324.191406 177.464844 324.070312 179.945312 C 323.949219 182.425781 323.765625 184.902344 323.523438 187.371094 C 323.277344 189.84375 322.972656 192.308594 322.609375 194.765625 C 322.246094 197.222656 321.820312 199.667969 321.335938 202.105469 C 320.851562 204.539062 320.308594 206.960938 319.703125 209.371094 C 319.101562 211.78125 318.4375 214.171875 317.71875 216.550781 C 316.996094 218.925781 316.21875 221.285156 315.382812 223.621094 C 314.546875 225.960938 313.652344 228.277344 312.699219 230.570312 C 311.75 232.867188 310.746094 235.136719 309.683594 237.382812 C 308.621094 239.625 307.503906 241.84375 306.332031 244.035156 C 305.164062 246.226562 303.9375 248.386719 302.664062 250.515625 C 301.386719 252.644531 300.058594 254.742188 298.675781 256.808594 C 297.296875 258.875 295.867188 260.902344 294.386719 262.898438 C 292.910156 264.894531 291.382812 266.851562 289.804688 268.769531 C 288.230469 270.691406 286.609375 272.570312 284.941406 274.410156 C 283.273438 276.25 281.5625 278.046875 279.804688 279.804688 C 278.046875 281.5625 276.25 283.273438 274.410156 284.941406 C 272.570312 286.609375 270.691406 288.230469 268.769531 289.804688 C 266.851562 291.382812 264.894531 292.910156 262.898438 294.386719 C 260.902344 295.867188 258.875 297.296875 256.808594 298.675781 C 254.742188 300.058594 252.644531 301.386719 250.515625 302.664062 C 248.386719 303.9375 246.226562 305.164062 244.035156 306.332031 C 241.84375 307.503906 239.625 308.621094 237.382812 309.683594 C 235.136719 310.746094 232.867188 311.75 230.570312 312.699219 C 228.277344 313.652344 225.960938 314.546875 223.621094 315.382812 C 221.285156 316.21875 218.925781 316.996094 216.550781 317.71875 C 214.171875 318.4375 211.78125 319.101562 209.371094 319.703125 C 206.960938 320.308594 204.539062 320.851562 202.105469 321.335938 C 199.667969 321.820312 197.222656 322.246094 194.765625 322.609375 C 192.308594 322.972656 189.84375 323.277344 187.371094 323.523438 C 184.902344 323.765625 182.425781 323.949219 179.945312 324.070312 C 177.464844 324.191406 174.980469 324.253906 172.5 324.253906 C 170.015625 324.253906 167.53125 324.191406 165.050781 324.070312 C 162.570312 323.949219 160.09375 323.765625 157.625 323.523438 C 155.152344 323.277344 152.6875 322.972656 150.230469 322.609375 C 147.773438 322.246094 145.328125 321.820312 142.890625 321.335938 C 140.457031 320.851562 138.035156 320.308594 135.625 319.703125 C 133.214844 319.101562 130.824219 318.4375 128.445312 317.71875 C 126.070312 316.996094 123.710938 316.21875 121.375 315.382812 C 119.035156 314.546875 116.71875 313.652344 114.425781 312.699219 C 112.128906 311.75 109.859375 310.746094 107.613281 309.683594 C 105.371094 308.621094 103.152344 307.503906 100.960938 306.332031 C 98.773438 305.164062 96.609375 303.9375 94.480469 302.664062 C 92.351562 301.386719 90.253906 300.058594 88.1875 298.675781 C 86.125 297.296875 84.09375 295.867188 82.097656 294.386719 C 80.105469 292.910156 78.144531 291.382812 76.226562 289.804688 C 74.304688 288.230469 72.425781 286.609375 70.585938 284.941406 C 68.746094 283.273438 66.949219 281.5625 65.191406 279.804688 C 63.4375 278.046875 61.722656 276.25 60.054688 274.410156 C 58.386719 272.570312 56.765625 270.691406 55.191406 268.769531 C 53.613281 266.851562 52.085938 264.894531 50.609375 262.898438 C 49.128906 260.902344 47.699219 258.875 46.320312 256.808594 C 44.9375 254.742188 43.609375 252.644531 42.335938 250.515625 C 41.058594 248.386719 39.832031 246.226562 38.664062 244.035156 C 37.492188 241.84375 36.375 239.625 35.3125 237.382812 C 34.253906 235.136719 33.246094 232.867188 32.296875 230.570312 C 31.34375 228.277344 30.453125 225.960938 29.613281 223.621094 C 28.777344 221.285156 28 218.925781 27.277344 216.550781 C 26.558594 214.171875 25.894531 211.78125 25.292969 209.371094 C 24.6875 206.960938 24.144531 204.539062 23.660156 202.105469 C 23.175781 199.667969 22.75 197.222656 22.386719 194.765625 C 22.023438 192.308594 21.71875 189.84375 21.476562 187.371094 C 21.230469 184.902344 21.046875 182.425781 20.925781 179.945312 C 20.804688 177.464844 20.742188 174.980469 20.742188 172.5 C 20.742188 170.015625 20.804688 167.53125 20.925781 165.050781 C 21.046875 162.570312 21.230469 160.09375 21.476562 157.625 C 21.71875 155.152344 22.023438 152.6875 22.386719 150.230469 C 22.75 147.773438 23.175781 145.328125 23.660156 142.890625 C 24.144531 140.457031 24.6875 138.035156 25.292969 135.625 C 25.894531 133.214844 26.558594 130.824219 27.277344 128.445312 C 28 126.070312 28.777344 123.710938 29.613281 121.375 C 30.453125 119.035156 31.34375 116.71875 32.296875 114.425781 C 33.246094 112.128906 34.253906 109.859375 35.3125 107.613281 C 36.375 105.371094 37.492188 103.152344 38.664062 100.960938 C 39.832031 98.773438 41.058594 96.609375 42.335938 94.480469 C 43.609375 92.351562 44.9375 90.253906 46.320312 88.1875 C 47.699219 86.125 49.128906 84.09375 50.609375 82.097656 C 52.085938 80.105469 53.613281 78.144531 55.191406 76.226562 C 56.765625 74.304688 58.386719 72.425781 60.054688 70.585938 C 61.722656 68.746094 63.4375 66.949219 65.191406 65.191406 C 66.949219 63.4375 68.746094 61.722656 70.585938 60.054688 C 72.425781 58.386719 74.304688 56.765625 76.226562 55.191406 C 78.144531 53.613281 80.105469 52.085938 82.097656 50.609375 C 84.09375 49.128906 86.125 47.699219 88.1875 46.320312 C 90.253906 44.9375 92.351562 43.609375 94.480469 42.335938 C 96.609375 41.058594 98.773438 39.832031 100.960938 38.664062 C 103.152344 37.492188 105.371094 36.375 107.613281 35.3125 C 109.859375 34.253906 112.128906 33.246094 114.425781 32.296875 C 116.71875 31.34375 119.035156 30.453125 121.375 29.613281 C 123.710938 28.777344 126.070312 28 128.445312 27.277344 C 130.824219 26.558594 133.214844 25.894531 135.625 25.292969 C 138.035156 24.6875 140.457031 24.144531 142.890625 23.660156 C 145.328125 23.175781 147.773438 22.75 150.230469 22.386719 C 152.6875 22.023438 155.152344 21.71875 157.625 21.476562 C 160.09375 21.230469 162.570312 21.046875 165.050781 20.925781 C 167.53125 20.804688 170.015625 20.742188 172.5 20.742188 C 174.980469 20.742188 177.464844 20.804688 179.945312 20.925781 C 182.425781 21.046875 184.902344 21.230469 187.371094 21.476562 C 189.84375 21.71875 192.308594 22.023438 194.765625 22.386719 C 197.222656 22.75 199.667969 23.175781 202.105469 23.660156 C 204.539062 24.144531 206.960938 24.6875 209.371094 25.292969 C 211.78125 25.894531 214.171875 26.558594 216.550781 27.277344 C 218.925781 28 221.285156 28.777344 223.621094 29.613281 C 225.960938 30.453125 228.277344 31.34375 230.570312 32.296875 C 232.867188 33.246094 235.136719 34.253906 237.382812 35.3125 C 239.625 36.375 241.84375 37.492188 244.035156 38.664062 C 246.226562 39.832031 248.386719 41.058594 250.515625 42.335938 C 252.644531 43.609375 254.742188 44.9375 256.808594 46.320312 C 258.875 47.699219 260.902344 49.128906 262.898438 50.609375 C 264.894531 52.085938 266.851562 53.613281 268.769531 55.191406 C 270.691406 56.765625 272.570312 58.386719 274.410156 60.054688 C 276.25 61.722656 278.046875 63.4375 279.804688 65.191406 C 281.5625 66.949219 283.273438 68.746094 284.941406 70.585938 C 286.609375 72.425781 288.230469 74.304688 289.804688 76.226562 C 291.382812 78.144531 292.910156 80.105469 294.386719 82.097656 C 295.867188 84.09375 297.296875 86.125 298.675781 88.1875 C 300.058594 90.253906 301.386719 92.351562 302.664062 94.480469 C 303.9375 96.609375 305.164062 98.773438 306.332031 100.960938 C 307.503906 103.152344 308.621094 105.371094 309.683594 107.613281 C 310.746094 109.859375 311.75 112.128906 312.699219 114.425781 C 313.652344 116.71875 314.546875 119.035156 315.382812 121.375 C 316.21875 123.710938 316.996094 126.070312 317.71875 128.445312 C 318.4375 130.824219 319.101562 133.214844 319.703125 135.625 C 320.308594 138.035156 320.851562 140.457031 321.335938 142.890625 C 321.820312 145.328125 322.246094 147.773438 322.609375 150.230469 C 322.972656 152.6875 323.277344 155.152344 323.523438 157.625 C 323.765625 160.09375 323.949219 162.570312 324.070312 165.050781 C 324.191406 167.53125 324.253906 170.015625 324.253906 172.5 Z M 324.253906 172.5 " fill-opacity="1" fill-rule="nonzero"/><path fill="#a57d71" d="M 172.5 325.085938 C 151.898438 325.085938 131.917969 321.050781 113.105469 313.09375 C 94.933594 305.410156 78.617188 294.40625 64.601562 280.394531 C 50.589844 266.382812 39.589844 250.0625 31.902344 231.894531 C 23.945312 213.082031 19.910156 193.097656 19.910156 172.5 C 19.910156 151.898438 23.945312 131.917969 31.902344 113.105469 C 39.589844 94.933594 50.589844 78.617188 64.601562 64.605469 C 78.617188 50.59375 94.933594 39.589844 113.105469 31.90625 C 131.917969 23.949219 151.898438 19.914062 172.5 19.914062 C 193.097656 19.914062 213.082031 23.949219 231.890625 31.90625 C 250.0625 39.589844 266.378906 50.59375 280.390625 64.605469 C 294.40625 78.617188 305.40625 94.933594 313.09375 113.105469 C 321.050781 131.917969 325.082031 151.902344 325.082031 172.5 C 325.082031 193.097656 321.050781 213.082031 313.09375 231.894531 C 305.40625 250.0625 294.40625 266.382812 280.390625 280.394531 C 266.378906 294.40625 250.0625 305.410156 231.890625 313.09375 C 213.078125 321.050781 193.097656 325.085938 172.5 325.085938 Z M 172.5 21.578125 C 89.28125 21.578125 21.578125 89.28125 21.578125 172.5 C 21.578125 255.71875 89.28125 323.421875 172.5 323.421875 C 255.71875 323.421875 323.421875 255.71875 323.421875 172.5 C 323.421875 89.28125 255.71875 21.578125 172.5 21.578125 Z M 172.5 21.578125 " fill-opacity="1" fill-rule="nonzero"/><path stroke-linecap="round" transform="matrix(0.166498, 0, 0, 0.166498, 0.00000425, 0.000000000000021316)" fill="none" stroke-linejoin="miter" d="M 1036.050102 193.649406 L 1036.050102 370.758609 " stroke="#a57d71" stroke-width="10" stroke-opacity="1" stroke-miterlimit="10"/><path stroke-linecap="round" transform="matrix(0.166498, 0, 0, 0.166498, 0.00000425, 0.000000000000021316)" fill="none" stroke-linejoin="miter" d="M 1036.050102 1701.318185 L 1036.050102 1878.45085 " stroke="#a57d71" stroke-width="10" stroke-opacity="1" stroke-miterlimit="10"/><path stroke-linecap="round" transform="matrix(0.166498, 0, 0, 0.166498, 0.00000425, 0.000000000000021316)" fill-opacity="1" fill="#f7ece3" fill-rule="nonzero" stroke-linejoin="miter" d="M 1631.708542 440.368227 L 1506.448768 565.628001 " stroke="#a57d71" stroke-width="10" stroke-opacity="1" stroke-miterlimit="10"/><path stroke-linecap="round" transform="matrix(0.166498, 0, 0, 0.166498, 0.00000425, 0.000000000000021316)" fill-opacity="1" fill="#f7ece3" fill-rule="nonzero" stroke-linejoin="miter" d="M 565.627976 1506.448793 L 440.368201 1631.708567 " stroke="#a57d71" stroke-width="10" stroke-opacity="1" stroke-miterlimit="10"/><path stroke-linecap="round" transform="matrix(0.166498, 0, 0, 0.166498, 0.00000425, 0.000000000000021316)" fill="none" stroke-linejoin="miter" d="M 1878.450824 1036.050128 L 1701.31816 1036.050128 " stroke="#a57d71" stroke-width="10" stroke-opacity="1" stroke-miterlimit="10"/><path stroke-linecap="round" transform="matrix(0.166498, 0, 0, 0.166498, 0.00000425, 0.000000000000021316)" fill="none" stroke-linejoin="miter" d="M 370.758583 1036.050128 L 193.64938 1036.050128 " stroke="#a57d71" stroke-width="10" stroke-opacity="1" stroke-miterlimit="10"/><path stroke-linecap="round" transform="matrix(0.166498, 0, 0, 0.166498, 0.00000425, 0.000000000000021316)" fill-opacity="1" fill="#f7ece3" fill-rule="nonzero" stroke-linejoin="miter" d="M 1631.708542 1631.708567 L 1506.448768 1506.448793 " stroke="#a57d71" stroke-width="10" stroke-opacity="1" stroke-miterlimit="10"/><path stroke-linecap="round" transform="matrix(0.166498, 0, 0, 0.166498, 0.00000425, 0.000000000000021316)" fill-opacity="1" fill="#f7ece3" fill-rule="nonzero" stroke-linejoin="miter" d="M 565.627976 565.628001 L 440.368201 440.368227 " stroke="#a57d71" stroke-width="10" stroke-opacity="1" stroke-miterlimit="10"/><path stroke-linecap="round" transform="matrix(0.166498, 0, 0, 0.166498, 0.00000425, 0.000000000000021316)" fill="none" stroke-linejoin="miter" d="M 1036.050102 991.403312 L 1036.050102 544.419004 " stroke="#a57d71" stroke-width="20" stroke-opacity="1" stroke-miterlimit="10"/><path stroke-linecap="round" transform="matrix(0.166498, 0, 0, 0.166498, 0.00000425, 0.000000000000021316)" fill-opacity="1" fill="#e0b9a5" fill-rule="nonzero" stroke-linejoin="miter" d="M 1071.171639 1063.124445 L 1321.456574 1313.385919 " stroke="#a57d71" stroke-width="20" stroke-opacity="1" stroke-miterlimit="10"/><path stroke-linecap="butt" transform="matrix(0.166498, 0, 0, 0.166498, 0.00000425, 0.000000000000021316)" fill-opacity="1" fill="#e0b9a5" fill-rule="nonzero" stroke-linejoin="miter" d="M 1080.673457 1036.050128 C 1080.673457 1038.982788 1080.391922 1041.868525 1079.828851 1044.754263 C 1079.242319 1047.616539 1078.397713 1050.408431 1077.271571 1053.12994 C 1076.168891 1055.827987 1074.784676 1058.408728 1073.165847 1060.848701 C 1071.523558 1063.288674 1069.670117 1065.540957 1067.605524 1067.605549 C 1065.540931 1069.670142 1063.288648 1071.523583 1060.848675 1073.165873 C 1058.408702 1074.784701 1055.827961 1076.168917 1053.129914 1077.271597 C 1050.408406 1078.397738 1047.616513 1079.242344 1044.754237 1079.828876 C 1041.8685 1080.391947 1038.982762 1080.673482 1036.050102 1080.673482 C 1033.117442 1080.673482 1030.208244 1080.391947 1027.322506 1079.828876 C 1024.46023 1079.242344 1021.668338 1078.397738 1018.946829 1077.271597 C 1016.248782 1076.168917 1013.668041 1074.784701 1011.228068 1073.165873 C 1008.811556 1071.523583 1006.535812 1069.670142 1004.471219 1067.605549 C 1002.406627 1065.540957 1000.553186 1063.288674 998.934357 1060.848701 C 997.292068 1058.408728 995.931313 1055.827987 994.805172 1053.12994 C 993.67903 1050.408431 992.834424 1047.616539 992.247892 1044.754263 C 991.684822 1041.868525 991.403286 1038.982788 991.403286 1036.050128 C 991.403286 1033.117468 991.684822 1030.208269 992.247892 1027.322532 C 992.834424 1024.460255 993.67903 1021.668363 994.805172 1018.946855 C 995.931313 1016.248807 997.292068 1013.668067 998.934357 1011.228093 C 1000.553186 1008.811582 1002.406627 1006.535837 1004.471219 1004.471245 C 1006.535812 1002.406652 1008.811556 1000.553211 1011.228068 998.934383 C 1013.668041 997.292093 1016.248782 995.931339 1018.946829 994.805197 C 1021.668338 993.679056 1024.46023 992.83445 1027.322506 992.247918 C 1030.208244 991.684847 1033.117442 991.403312 1036.050102 991.403312 C 1038.982762 991.403312 1041.8685 991.684847 1044.754237 992.247918 C 1047.616513 992.83445 1050.408406 993.679056 1053.129914 994.805197 C 1055.827961 995.931339 1058.408702 997.292093 1060.848675 998.934383 C 1063.288648 1000.553211 1065.540931 1002.406652 1067.605524 1004.471245 C 1069.670117 1006.535837 1071.523558 1008.811582 1073.165847 1011.228093 C 1074.784676 1013.668067 1076.168891 1016.248807 1077.271571 1018.946855 C 1078.397713 1021.668363 1079.242319 1024.460255 1079.828851 1027.322532 C 1080.391922 1030.208269 1080.673457 1033.117468 1080.673457 1036.050128 Z M 1080.673457 1036.050128 " stroke="#a57d71" stroke-width="10" stroke-opacity="1" stroke-miterlimit="10"/></svg>