<svg xmlns="http://www.w3.org/2000/svg" xmlns:xlink="http://www.w3.org/1999/xlink" width="500" zoomAndPan="magnify" viewBox="0 0 375 292.499991" height="390" preserveAspectRatio="xMidYMid meet" version="1.0"><defs><g/></defs><path fill="#ddb39a" d="M 152.335938 74.6875 C 144.054688 73.808594 72.175781 79.894531 56.039062 79.375 C 39.90625 78.855469 26.371094 78.332031 17.519531 96.558594 C 8.671875 114.78125 3.46875 141.859375 1.90625 161.644531 C 0.347656 181.429688 1.90625 214.753906 3.46875 224.648438 C 5.027344 234.542969 5.027344 259.011719 32.617188 261.097656 C 60.203125 263.179688 136.199219 270.988281 164.304688 270.988281 C 192.414062 270.988281 253.835938 262.136719 271.011719 261.617188 C 288.1875 261.097656 345.574219 258.363281 360.148438 240.140625 C 374.726562 221.914062 366.914062 178.175781 364.316406 158.390625 C 361.710938 138.605469 362.753906 81.328125 352.863281 77.160156 C 342.972656 72.996094 292.480469 75.601562 268.019531 75.078125 C 243.554688 74.558594 158.449219 75.339844 152.335938 74.6875 " fill-opacity="1" fill-rule="evenodd"/><path fill="#896d58" d="M 93.855469 92.714844 C 97.273438 88.324219 185.886719 14.320312 196.65625 5.332031 L 289.324219 90.824219 C 289.96875 91.417969 290.972656 91.378906 291.566406 90.734375 C 292.160156 90.089844 292.121094 89.085938 291.476562 88.492188 L 197.785156 2.058594 C 197.199219 1.519531 196.304688 1.496094 195.691406 2.003906 C 195.691406 2.003906 95.007812 86.070312 91.355469 90.769531 C 90.816406 91.457031 90.941406 92.457031 91.632812 92.992188 C 92.324219 93.53125 93.320312 93.40625 93.855469 92.714844 " fill-opacity="1" fill-rule="evenodd"/><path fill="#e8c7b4" d="M 87.910156 104.160156 C 81.136719 102.382812 54.101562 101.390625 39.003906 122.214844 C 23.910156 143.042969 37.964844 167.515625 39.003906 180.011719 C 40.046875 192.507812 28.59375 220.625 52.019531 236.246094 C 75.441406 251.867188 90.535156 244.863281 113.957031 237.054688 C 137.382812 229.242188 146.921875 237.800781 172.425781 243.53125 C 197.929688 249.257812 227.921875 236.503906 247.179688 229.734375 C 266.4375 222.964844 303.300781 237.660156 327.765625 222.558594 C 352.230469 207.460938 340.902344 185.21875 341.421875 165.953125 C 341.941406 146.691406 346.105469 117.007812 323.203125 113.363281 C 300.300781 109.71875 298.21875 121.695312 273.757812 111.800781 C 249.289062 101.90625 231.59375 82.640625 198.800781 90.453125 C 166.007812 98.261719 177.980469 103.472656 148.832031 107.117188 C 119.683594 110.757812 102.464844 107.96875 87.910156 104.160156 " fill-opacity="1" fill-rule="evenodd"/><path fill="#c59388" d="M 197.238281 0.0585938 C 201.945312 0.0585938 205.769531 3.882812 205.769531 8.589844 C 205.769531 13.300781 201.945312 17.117188 197.238281 17.117188 C 192.53125 17.117188 188.710938 13.300781 188.710938 8.589844 C 188.710938 3.882812 192.53125 0.0585938 197.238281 0.0585938 " fill-opacity="1" fill-rule="evenodd"/><g fill="#7c5b54" fill-opacity="1"><g transform="translate(73.022527, 158.22373)"><g><path d="M 26.3125 1.53125 C 26.070312 1.53125 25.785156 1.4375 25.453125 1.25 C 25.117188 1.0625 24.953125 0.820312 24.953125 0.53125 C 24.953125 0.03125 25.007812 -0.441406 25.125 -0.890625 C 25.238281 -1.347656 25.328125 -1.804688 25.390625 -2.265625 L 25.21875 -2.140625 L 24.6875 0.34375 C 24.34375 -0.144531 24.171875 -0.640625 24.171875 -1.140625 C 24.171875 -1.253906 24.195312 -1.367188 24.25 -1.484375 C 23.695312 -1.222656 23.132812 -1.003906 22.5625 -0.828125 C 22 -0.648438 21.410156 -0.5625 20.796875 -0.5625 C 19.222656 -0.5625 17.742188 -0.765625 16.359375 -1.171875 C 14.984375 -1.585938 13.59375 -2.097656 12.1875 -2.703125 L 11.96875 -3.28125 C 10.570312 -3.863281 9.285156 -4.648438 8.109375 -5.640625 C 6.929688 -6.628906 5.910156 -7.753906 5.046875 -9.015625 C 4.191406 -10.285156 3.519531 -11.648438 3.03125 -13.109375 C 2.550781 -14.566406 2.3125 -16.050781 2.3125 -17.5625 C 2.3125 -18.875 2.492188 -20.15625 2.859375 -21.40625 C 3.222656 -22.664062 3.769531 -23.832031 4.5 -24.90625 L 4.234375 -25.046875 C 3.535156 -23.960938 2.972656 -22.804688 2.546875 -21.578125 C 2.128906 -20.359375 1.921875 -19.09375 1.921875 -17.78125 C 1.921875 -16.5 2.09375 -15.207031 2.4375 -13.90625 C 2.789062 -12.613281 3.285156 -11.367188 3.921875 -10.171875 C 4.566406 -8.984375 5.328125 -7.878906 6.203125 -6.859375 C 7.078125 -5.898438 8.039062 -5.070312 9.09375 -4.375 C 8.070312 -5.007812 7.109375 -5.796875 6.203125 -6.734375 C 5.296875 -7.722656 4.515625 -8.804688 3.859375 -9.984375 C 3.210938 -11.160156 2.695312 -12.394531 2.3125 -13.6875 C 1.9375 -14.988281 1.75 -16.253906 1.75 -17.484375 C 1.75 -19.640625 2.234375 -21.625 3.203125 -23.4375 C 4.179688 -25.257812 5.457031 -26.828125 7.03125 -28.140625 C 8.601562 -29.453125 10.390625 -30.476562 12.390625 -31.21875 C 14.390625 -31.96875 16.40625 -32.34375 18.4375 -32.34375 C 19.75 -32.34375 21.007812 -32.164062 22.21875 -31.8125 C 23.425781 -31.46875 24.644531 -31.085938 25.875 -30.671875 C 25.726562 -30.585938 25.644531 -30.472656 25.625 -30.328125 C 25.613281 -30.179688 25.59375 -30.039062 25.5625 -29.90625 C 25.53125 -29.78125 25.476562 -29.671875 25.40625 -29.578125 C 25.332031 -29.492188 25.179688 -29.453125 24.953125 -29.453125 C 24.578125 -29.453125 24.207031 -29.507812 23.84375 -29.625 C 23.476562 -29.75 23.132812 -29.882812 22.8125 -30.03125 L 22.6875 -29.453125 C 22.882812 -29.398438 23.148438 -29.285156 23.484375 -29.109375 C 23.828125 -28.929688 24.164062 -28.734375 24.5 -28.515625 C 24.832031 -28.296875 25.117188 -28.054688 25.359375 -27.796875 C 25.609375 -27.535156 25.734375 -27.285156 25.734375 -27.046875 C 25.734375 -26.703125 25.59375 -26.492188 25.3125 -26.421875 C 25.039062 -26.347656 24.773438 -26.3125 24.515625 -26.3125 C 23.640625 -26.3125 22.765625 -26.441406 21.890625 -26.703125 C 21.015625 -26.960938 20.140625 -27.09375 19.265625 -27.09375 C 17.691406 -27.09375 16.175781 -26.875 14.71875 -26.4375 C 13.269531 -26 11.988281 -25.363281 10.875 -24.53125 C 9.769531 -23.707031 8.882812 -22.691406 8.21875 -21.484375 C 7.550781 -20.273438 7.21875 -18.882812 7.21875 -17.3125 C 7.21875 -15.707031 7.609375 -14.195312 8.390625 -12.78125 C 9.179688 -11.363281 10.191406 -10.125 11.421875 -9.0625 C 12.660156 -8 14.050781 -7.160156 15.59375 -6.546875 C 17.144531 -5.941406 18.675781 -5.640625 20.1875 -5.640625 C 20.300781 -5.640625 20.484375 -5.644531 20.734375 -5.65625 C 20.984375 -5.675781 21.253906 -5.6875 21.546875 -5.6875 C 21.953125 -5.6875 22.320312 -5.648438 22.65625 -5.578125 C 22.988281 -5.503906 23.171875 -5.347656 23.203125 -5.109375 C 22.796875 -5.054688 22.375 -4.992188 21.9375 -4.921875 C 21.5 -4.847656 21.078125 -4.8125 20.671875 -4.8125 C 19.472656 -4.8125 18.234375 -4.96875 16.953125 -5.28125 C 18.328125 -4.875 19.695312 -4.671875 21.0625 -4.671875 C 21.382812 -4.671875 21.71875 -4.6875 22.0625 -4.71875 C 22.414062 -4.75 22.753906 -4.789062 23.078125 -4.84375 L 23.515625 -4.328125 C 23.773438 -4.378906 23.992188 -4.410156 24.171875 -4.421875 C 24.347656 -4.441406 24.648438 -4.539062 25.078125 -4.71875 C 25.078125 -5.65625 25.117188 -6.566406 25.203125 -7.453125 C 25.296875 -8.335938 25.34375 -9.25 25.34375 -10.1875 L 25.34375 -10.796875 C 25.34375 -11.316406 25.304688 -11.875 25.234375 -12.46875 C 25.160156 -13.070312 24.953125 -13.546875 24.609375 -13.890625 L 24.34375 -13.765625 C 24.632812 -13.097656 24.820312 -12.382812 24.90625 -11.625 C 25 -10.863281 25.046875 -10.109375 25.046875 -9.359375 C 25.046875 -8.097656 24.957031 -6.882812 24.78125 -5.71875 C 24.863281 -6.6875 24.90625 -7.648438 24.90625 -8.609375 C 24.90625 -8.816406 24.882812 -9.21875 24.84375 -9.8125 C 24.800781 -10.40625 24.734375 -11.015625 24.640625 -11.640625 C 24.554688 -12.273438 24.445312 -12.835938 24.3125 -13.328125 C 24.1875 -13.828125 24.050781 -14.078125 23.90625 -14.078125 C 23.207031 -14.078125 22.5 -14.132812 21.78125 -14.25 C 21.070312 -14.363281 20.367188 -14.421875 19.671875 -14.421875 L 19.453125 -14.421875 L 18.265625 -14.375 C 18.265625 -14.46875 18.253906 -14.570312 18.234375 -14.6875 C 18.222656 -14.800781 18.21875 -14.914062 18.21875 -15.03125 C 18.21875 -15.269531 18.257812 -15.488281 18.34375 -15.6875 C 18.4375 -15.894531 18.644531 -16 18.96875 -16 L 19.484375 -15.953125 L 19.484375 -16.46875 C 19.078125 -16.59375 18.660156 -16.785156 18.234375 -17.046875 C 17.816406 -17.304688 17.609375 -17.6875 17.609375 -18.1875 C 17.609375 -18.53125 17.796875 -18.800781 18.171875 -19 C 18.554688 -19.207031 19.003906 -19.363281 19.515625 -19.46875 C 20.023438 -19.570312 20.523438 -19.632812 21.015625 -19.65625 C 21.515625 -19.6875 21.894531 -19.703125 22.15625 -19.703125 C 24.8125 -19.703125 26.816406 -19.019531 28.171875 -17.65625 C 29.523438 -16.289062 30.203125 -14.28125 30.203125 -11.625 C 30.203125 -9.875 30.054688 -8.128906 29.765625 -6.390625 C 29.472656 -4.660156 29.328125 -2.925781 29.328125 -1.1875 C 29.328125 -0.800781 29.273438 -0.445312 29.171875 -0.125 C 29.066406 0.1875 28.78125 0.34375 28.3125 0.34375 L 28.53125 -2.796875 L 28.140625 0.21875 C 28.054688 0.21875 27.96875 0.222656 27.875 0.234375 C 27.789062 0.253906 27.707031 0.265625 27.625 0.265625 C 27.5625 0.265625 27.515625 0.253906 27.484375 0.234375 C 27.460938 0.222656 27.421875 0.21875 27.359375 0.21875 L 27.359375 0.875 C 27.128906 1.3125 26.78125 1.53125 26.3125 1.53125 Z M 24.34375 -1.921875 C 23.820312 -1.890625 23.304688 -1.828125 22.796875 -1.734375 C 22.285156 -1.648438 21.765625 -1.609375 21.234375 -1.609375 C 19.171875 -1.609375 17.117188 -1.953125 15.078125 -2.640625 C 13.035156 -3.328125 11.175781 -4.289062 9.5 -5.53125 C 7.832031 -6.769531 6.398438 -8.265625 5.203125 -10.015625 C 4.359375 -11.265625 3.734375 -12.617188 3.328125 -14.078125 C 3.734375 -12.410156 4.414062 -10.910156 5.375 -9.578125 C 6.625 -7.765625 8.148438 -6.242188 9.953125 -5.015625 C 11.765625 -3.796875 13.765625 -2.878906 15.953125 -2.265625 C 18.140625 -1.660156 20.335938 -1.359375 22.546875 -1.359375 L 22.8125 -1.359375 C 23.101562 -1.359375 23.378906 -1.382812 23.640625 -1.4375 C 23.898438 -1.5 24.132812 -1.660156 24.34375 -1.921875 Z M 7.90625 -11.28125 L 7.90625 -11.1875 C 7.90625 -10.894531 8.09375 -10.546875 8.46875 -10.140625 C 8.851562 -9.734375 9.289062 -9.332031 9.78125 -8.9375 C 10.28125 -8.539062 10.769531 -8.175781 11.25 -7.84375 C 11.726562 -7.507812 12.085938 -7.285156 12.328125 -7.171875 C 12.066406 -7.367188 11.722656 -7.628906 11.296875 -7.953125 C 10.867188 -8.273438 10.4375 -8.625 10 -9 C 9.570312 -9.382812 9.160156 -9.769531 8.765625 -10.15625 C 8.367188 -10.550781 8.082031 -10.925781 7.90625 -11.28125 Z M 25.65625 -4.625 C 25.707031 -5.300781 25.789062 -5.953125 25.90625 -6.578125 C 26.03125 -7.203125 26.09375 -7.847656 26.09375 -8.515625 C 26.09375 -8.929688 26.078125 -9.328125 26.046875 -9.703125 C 26.015625 -10.078125 25.957031 -10.46875 25.875 -10.875 C 25.875 -9.832031 25.859375 -8.785156 25.828125 -7.734375 C 25.796875 -6.679688 25.707031 -5.644531 25.5625 -4.625 Z M 29.375 -9.796875 C 29.019531 -8.921875 28.859375 -8.0625 28.890625 -7.21875 C 28.921875 -6.425781 28.875 -5.632812 28.75 -4.84375 C 28.894531 -5.632812 29.015625 -6.4375 29.109375 -7.25 C 29.222656 -8.09375 29.3125 -8.941406 29.375 -9.796875 Z M 3.0625 -15.34375 C 3.144531 -14.90625 3.234375 -14.484375 3.328125 -14.078125 C 3.234375 -14.484375 3.144531 -14.90625 3.0625 -15.34375 Z M 3.015625 -15.828125 C 3.046875 -15.648438 3.0625 -15.488281 3.0625 -15.34375 C 3.03125 -15.488281 3.015625 -15.648438 3.015625 -15.828125 Z M 3.015625 -15.828125 "/></g></g></g><g fill="#7c5b54" fill-opacity="1"><g transform="translate(105.411366, 158.22373)"><g><path d="M 31.953125 -22.6875 C 31.304688 -21.457031 30.546875 -19.816406 29.671875 -17.765625 C 28.796875 -15.710938 27.835938 -13.550781 26.796875 -11.28125 C 27.640625 -12.96875 28.460938 -14.640625 29.265625 -16.296875 C 30.066406 -17.960938 30.914062 -19.695312 31.8125 -21.5 C 31.519531 -20.25 31.175781 -19.078125 30.78125 -17.984375 C 30.394531 -16.890625 29.957031 -15.832031 29.46875 -14.8125 C 28.988281 -13.789062 28.488281 -12.753906 27.96875 -11.703125 C 27.445312 -10.660156 26.921875 -9.554688 26.390625 -8.390625 L 25.65625 -7.953125 C 25.15625 -6.753906 24.632812 -5.550781 24.09375 -4.34375 C 23.5625 -3.132812 22.921875 -1.988281 22.171875 -0.90625 C 21.429688 0.164062 20.566406 1.140625 19.578125 2.015625 C 18.585938 2.890625 17.421875 3.585938 16.078125 4.109375 C 15.640625 3.847656 15.1875 3.554688 14.71875 3.234375 C 14.257812 2.910156 13.796875 2.648438 13.328125 2.453125 C 13.328125 2.421875 13.316406 2.390625 13.296875 2.359375 C 13.285156 2.328125 13.28125 2.285156 13.28125 2.234375 C 13.28125 1.992188 13.300781 1.617188 13.34375 1.109375 C 13.394531 0.597656 13.445312 0.0820312 13.5 -0.4375 C 13.5625 -0.957031 13.613281 -1.425781 13.65625 -1.84375 C 13.695312 -2.269531 13.71875 -2.53125 13.71875 -2.625 L 13.453125 -2.359375 C 13.453125 -2.148438 13.429688 -1.847656 13.390625 -1.453125 C 13.347656 -1.066406 13.289062 -0.65625 13.21875 -0.21875 C 13.144531 0.21875 13.085938 0.644531 13.046875 1.0625 C 13.003906 1.488281 12.984375 1.832031 12.984375 2.09375 L 12.984375 2.3125 L 16.34375 4.375 C 17.1875 4.28125 18.082031 3.78125 19.03125 2.875 C 19.976562 1.976562 20.890625 0.921875 21.765625 -0.296875 C 22.640625 -1.523438 23.425781 -2.765625 24.125 -4.015625 C 24.738281 -5.097656 25.21875 -5.988281 25.5625 -6.6875 C 25.15625 -5.8125 24.660156 -4.804688 24.078125 -3.671875 C 23.441406 -2.421875 22.722656 -1.210938 21.921875 -0.046875 C 21.117188 1.117188 20.25 2.128906 19.3125 2.984375 C 18.382812 3.847656 17.410156 4.367188 16.390625 4.546875 L 12.9375 2.53125 C 12.875 2.414062 12.84375 2.285156 12.84375 2.140625 C 12.84375 1.671875 12.914062 1.03125 13.0625 0.21875 C 13.207031 -0.59375 13.28125 -1.273438 13.28125 -1.828125 L 13.28125 -2.1875 C 13.132812 -2.039062 12.914062 -1.765625 12.625 -1.359375 C 12.332031 -0.953125 12.003906 -0.535156 11.640625 -0.109375 C 11.273438 0.316406 10.910156 0.6875 10.546875 1 C 10.191406 1.320312 9.894531 1.484375 9.65625 1.484375 C 9.164062 1.160156 8.703125 0.816406 8.265625 0.453125 C 7.828125 0.0859375 7.375 -0.265625 6.90625 -0.609375 C 6.695312 -1.515625 6.394531 -2.414062 6 -3.3125 C 5.613281 -4.21875 5.203125 -5.113281 4.765625 -6 C 4.328125 -6.894531 3.914062 -7.789062 3.53125 -8.6875 C 3.15625 -9.59375 2.894531 -10.53125 2.75 -11.5 C 2.519531 -12.894531 2.164062 -14.289062 1.6875 -15.6875 C 1.207031 -17.082031 0.789062 -18.484375 0.4375 -19.890625 L 0.609375 -19.796875 C 0.753906 -19.859375 0.890625 -19.945312 1.015625 -20.0625 C 1.148438 -20.175781 1.28125 -20.234375 1.40625 -20.234375 C 1.570312 -20.234375 1.726562 -20.078125 1.875 -19.765625 C 2.019531 -19.460938 2.144531 -19.113281 2.25 -18.71875 C 2.351562 -18.332031 2.441406 -17.957031 2.515625 -17.59375 C 2.585938 -17.226562 2.640625 -16.988281 2.671875 -16.875 L 3.1875 -17 C 3.132812 -17.644531 3.078125 -18.28125 3.015625 -18.90625 C 2.953125 -19.53125 2.921875 -20.160156 2.921875 -20.796875 L 2.921875 -21.234375 C 2.921875 -21.441406 2.941406 -21.660156 2.984375 -21.890625 C 3.035156 -22.128906 3.097656 -22.332031 3.171875 -22.5 C 3.242188 -22.675781 3.351562 -22.765625 3.5 -22.765625 C 3.84375 -22.765625 4.234375 -22.285156 4.671875 -21.328125 C 5.109375 -20.367188 5.5625 -19.195312 6.03125 -17.8125 C 6.5 -16.425781 6.957031 -14.972656 7.40625 -13.453125 C 7.851562 -11.941406 8.269531 -10.617188 8.65625 -9.484375 C 8.738281 -9.191406 8.859375 -8.847656 9.015625 -8.453125 C 9.179688 -8.054688 9.335938 -7.671875 9.484375 -7.296875 C 9.628906 -6.921875 9.765625 -6.578125 9.890625 -6.265625 C 10.023438 -5.960938 10.109375 -5.753906 10.140625 -5.640625 C 10.222656 -6.078125 10.363281 -6.679688 10.5625 -7.453125 C 10.769531 -8.222656 10.984375 -9.035156 11.203125 -9.890625 C 11.421875 -10.753906 11.640625 -11.570312 11.859375 -12.34375 C 12.078125 -13.113281 12.257812 -13.703125 12.40625 -14.109375 C 12.644531 -14.140625 12.863281 -14.160156 13.0625 -14.171875 C 13.269531 -14.191406 13.460938 -14.203125 13.640625 -14.203125 C 14.222656 -14.203125 14.742188 -14.132812 15.203125 -14 C 15.671875 -13.875 16.269531 -13.664062 17 -13.375 C 17.207031 -12.9375 17.367188 -12.378906 17.484375 -11.703125 C 17.597656 -11.035156 17.691406 -10.320312 17.765625 -9.5625 C 17.835938 -8.8125 17.878906 -8.039062 17.890625 -7.25 C 17.910156 -6.46875 17.921875 -5.738281 17.921875 -5.0625 L 17.921875 -3.328125 C 19.109375 -5.066406 20.144531 -6.847656 21.03125 -8.671875 C 21.925781 -10.492188 22.8125 -12.351562 23.6875 -14.25 C 23.769531 -14.445312 23.914062 -14.789062 24.125 -15.28125 C 24.332031 -15.78125 24.570312 -16.335938 24.84375 -16.953125 C 25.125 -17.566406 25.414062 -18.210938 25.71875 -18.890625 C 26.019531 -19.578125 26.316406 -20.195312 26.609375 -20.75 C 26.898438 -21.3125 27.171875 -21.773438 27.421875 -22.140625 C 27.671875 -22.503906 27.867188 -22.6875 28.015625 -22.6875 L 28.28125 -22.546875 C 27.8125 -21.472656 27.347656 -20.441406 26.890625 -19.453125 C 26.441406 -18.460938 25.988281 -17.484375 25.53125 -16.515625 C 25.082031 -15.554688 24.640625 -14.570312 24.203125 -13.5625 C 23.773438 -12.5625 23.34375 -11.519531 22.90625 -10.4375 L 28.40625 -22.28125 L 28.84375 -21.890625 L 29.0625 -22.03125 C 29.125 -22.226562 29.234375 -22.515625 29.390625 -22.890625 C 29.546875 -23.273438 29.734375 -23.65625 29.953125 -24.03125 C 30.171875 -24.414062 30.40625 -24.753906 30.65625 -25.046875 C 30.90625 -25.335938 31.160156 -25.484375 31.421875 -25.484375 C 31.535156 -25.484375 31.632812 -25.421875 31.71875 -25.296875 C 31.8125 -25.179688 31.878906 -25.035156 31.921875 -24.859375 C 31.960938 -24.691406 32 -24.523438 32.03125 -24.359375 C 32.0625 -24.203125 32.078125 -24.082031 32.078125 -24 Z M 10.921875 -4.890625 C 11.066406 -5.359375 11.234375 -5.890625 11.421875 -6.484375 C 11.617188 -7.085938 11.828125 -7.722656 12.046875 -8.390625 C 12.265625 -9.054688 12.46875 -9.6875 12.65625 -10.28125 C 12.84375 -10.882812 12.992188 -11.382812 13.109375 -11.78125 C 13.222656 -12.175781 13.28125 -12.398438 13.28125 -12.453125 L 13.28125 -12.5 L 12.8125 -12.15625 L 12.625 -12.15625 C 12.476562 -11.539062 12.300781 -10.890625 12.09375 -10.203125 C 11.894531 -9.515625 11.691406 -8.820312 11.484375 -8.125 C 11.285156 -7.425781 11.101562 -6.734375 10.9375 -6.046875 C 10.78125 -5.367188 10.6875 -4.738281 10.65625 -4.15625 C 10.6875 -4.238281 10.773438 -4.484375 10.921875 -4.890625 Z M 16 3.546875 C 16.8125 3.421875 17.644531 2.960938 18.5 2.171875 C 19.363281 1.390625 20.171875 0.5 20.921875 -0.5 C 21.679688 -1.507812 22.359375 -2.53125 22.953125 -3.5625 C 23.554688 -4.59375 24.019531 -5.445312 24.34375 -6.125 L 25.078125 -7.734375 C 24.472656 -6.515625 23.847656 -5.335938 23.203125 -4.203125 C 22.503906 -2.972656 21.789062 -1.863281 21.0625 -0.875 C 20.332031 0.113281 19.585938 0.957031 18.828125 1.65625 C 18.078125 2.351562 17.335938 2.820312 16.609375 3.0625 L 15.828125 3.40625 L 14.03125 2.1875 C 14.03125 2.007812 14.050781 1.738281 14.09375 1.375 C 14.132812 1.007812 14.175781 0.625 14.21875 0.21875 C 14.269531 -0.1875 14.316406 -0.578125 14.359375 -0.953125 C 14.398438 -1.335938 14.421875 -1.660156 14.421875 -1.921875 C 14.390625 -1.691406 14.34375 -1.378906 14.28125 -0.984375 C 14.226562 -0.585938 14.164062 -0.195312 14.09375 0.1875 C 14.019531 0.582031 13.960938 0.953125 13.921875 1.296875 C 13.878906 1.648438 13.859375 1.914062 13.859375 2.09375 C 13.859375 2.238281 13.9375 2.382812 14.09375 2.53125 C 14.25 2.675781 14.4375 2.8125 14.65625 2.9375 C 14.875 3.070312 15.109375 3.195312 15.359375 3.3125 C 15.609375 3.4375 15.804688 3.539062 15.953125 3.625 Z M 22.8125 -10.21875 C 22.082031 -8.738281 21.335938 -7.269531 20.578125 -5.8125 C 19.828125 -4.351562 18.894531 -3.015625 17.78125 -1.796875 L 17.78125 -1.65625 C 18.894531 -2.882812 19.84375 -4.25 20.625 -5.75 C 21.414062 -7.25 22.144531 -8.738281 22.8125 -10.21875 Z M 15.46875 0.21875 L 15.78125 -2.140625 L 15.03125 0.125 Z M 9.3125 -2.625 C 9.21875 -2.625 9.101562 -2.539062 8.96875 -2.375 C 8.84375 -2.21875 8.707031 -2.046875 8.5625 -1.859375 C 8.414062 -1.671875 8.285156 -1.476562 8.171875 -1.28125 C 8.054688 -1.09375 7.984375 -0.972656 7.953125 -0.921875 L 8 -0.875 C 8.050781 -0.90625 8.148438 -1 8.296875 -1.15625 C 8.441406 -1.320312 8.585938 -1.5 8.734375 -1.6875 C 8.878906 -1.875 9.007812 -2.050781 9.125 -2.21875 C 9.25 -2.394531 9.335938 -2.515625 9.390625 -2.578125 Z M 18 0.703125 C 17.5625 0.441406 17.066406 0.3125 16.515625 0.3125 L 15.90625 0.34375 C 16.226562 0.40625 16.546875 0.476562 16.859375 0.5625 C 17.179688 0.65625 17.503906 0.703125 17.828125 0.703125 Z M 14.296875 -3.5 L 14.296875 -3.109375 C 14.296875 -3.160156 14.296875 -3.203125 14.296875 -3.234375 C 14.316406 -3.316406 14.328125 -3.40625 14.328125 -3.5 Z M 14.328125 -2.703125 C 14.328125 -2.765625 14.316406 -2.8125 14.296875 -2.84375 C 14.296875 -2.8125 14.304688 -2.765625 14.328125 -2.703125 Z M 25.734375 -7.03125 C 25.679688 -6.914062 25.625 -6.800781 25.5625 -6.6875 C 25.625 -6.800781 25.679688 -6.914062 25.734375 -7.03125 Z M 25.734375 -7.03125 "/></g></g></g><g fill="#7c5b54" fill-opacity="1"><g transform="translate(137.931341, 158.22373)"><g><path d="M 1.828125 11.75 C 2.066406 11.988281 2.46875 12.171875 3.03125 12.296875 C 3.601562 12.429688 4.148438 12.5 4.671875 12.5 C 5.640625 12.5 6.554688 12.1875 7.421875 11.5625 C 8.296875 10.9375 9.132812 10.082031 9.9375 9 C 10.738281 7.925781 11.503906 6.6875 12.234375 5.28125 C 12.960938 3.882812 13.660156 2.414062 14.328125 0.875 L 14.296875 0.875 C 13.710938 2.15625 13.082031 3.472656 12.40625 4.828125 C 11.738281 6.179688 11.007812 7.414062 10.21875 8.53125 C 9.4375 9.65625 8.585938 10.578125 7.671875 11.296875 C 6.753906 12.015625 5.769531 12.375 4.71875 12.375 C 3.875 12.375 3.046875 12.125 2.234375 11.625 C 2.671875 11.476562 3.078125 11.40625 3.453125 11.40625 C 3.566406 11.40625 3.769531 11.4375 4.0625 11.5 C 4.53125 11.5 4.921875 11.484375 5.234375 11.453125 C 5.554688 11.421875 5.863281 11.351562 6.15625 11.25 C 6.445312 11.144531 6.722656 10.984375 6.984375 10.765625 C 7.253906 10.546875 7.546875 10.265625 7.859375 9.921875 L 8.390625 10.046875 C 9.234375 8.941406 10.023438 7.75 10.765625 6.46875 C 11.515625 5.1875 12.253906 3.890625 12.984375 2.578125 L 13.765625 0.828125 L 13.375 0.75 L 12.71875 2.3125 C 12.050781 3.625 11.351562 4.910156 10.625 6.171875 C 9.894531 7.441406 9.0625 8.601562 8.125 9.65625 C 9.144531 8.40625 10.078125 7.003906 10.921875 5.453125 C 11.765625 3.910156 12.535156 2.3125 13.234375 0.65625 L 12.984375 0.21875 C 12.835938 -0.445312 12.617188 -1.101562 12.328125 -1.75 C 12.117188 -2.238281 11.882812 -2.75 11.625 -3.28125 C 12.144531 -2.03125 12.507812 -0.820312 12.71875 0.34375 C 12.425781 0.257812 12.1875 0.0820312 12 -0.1875 C 11.8125 -0.46875 11.632812 -0.796875 11.46875 -1.171875 C 11.3125 -1.554688 11.164062 -1.953125 11.03125 -2.359375 C 10.90625 -2.765625 10.738281 -3.171875 10.53125 -3.578125 L 10.75 -3.984375 C 10.28125 -4.703125 9.773438 -5.597656 9.234375 -6.671875 C 8.703125 -7.753906 8.132812 -8.863281 7.53125 -10 C 6.9375 -11.144531 6.332031 -12.253906 5.71875 -13.328125 C 5.113281 -14.410156 4.519531 -15.3125 3.9375 -16.03125 L 3.796875 -15.90625 L 9.265625 -6.078125 C 8.160156 -7.941406 6.976562 -9.832031 5.71875 -11.75 C 4.46875 -13.675781 3.347656 -15.804688 2.359375 -18.140625 C 2.359375 -18.335938 2.328125 -18.601562 2.265625 -18.9375 C 2.210938 -19.28125 2.148438 -19.632812 2.078125 -20 C 2.003906 -20.363281 1.921875 -20.726562 1.828125 -21.09375 C 1.742188 -21.457031 1.660156 -21.78125 1.578125 -22.0625 L 2.703125 -22.421875 C 2.847656 -22.421875 2.976562 -22.351562 3.09375 -22.21875 C 3.21875 -22.09375 3.320312 -21.828125 3.40625 -21.421875 C 3.550781 -21.421875 3.679688 -21.535156 3.796875 -21.765625 C 3.921875 -21.992188 4.046875 -22.253906 4.171875 -22.546875 C 4.304688 -22.835938 4.453125 -23.097656 4.609375 -23.328125 C 4.765625 -23.566406 4.976562 -23.6875 5.25 -23.6875 C 5.625 -23.6875 5.960938 -23.429688 6.265625 -22.921875 C 6.578125 -22.410156 6.867188 -21.789062 7.140625 -21.0625 C 7.421875 -20.332031 7.71875 -19.566406 8.03125 -18.765625 C 8.351562 -17.960938 8.734375 -17.269531 9.171875 -16.6875 C 9.640625 -15.90625 10.113281 -15.132812 10.59375 -14.375 C 11.070312 -13.613281 11.519531 -12.8125 11.9375 -11.96875 C 12.375 -10.800781 12.941406 -9.628906 13.640625 -8.453125 C 14.335938 -7.273438 14.890625 -6.046875 15.296875 -4.765625 C 15.992188 -7.097656 16.550781 -9.171875 16.96875 -10.984375 C 17.394531 -12.804688 17.726562 -14.625 17.96875 -16.4375 C 18.28125 -17.363281 18.550781 -18.410156 18.78125 -19.578125 C 19.019531 -20.742188 19.140625 -21.878906 19.140625 -22.984375 L 20.109375 -22.9375 C 20.253906 -22.9375 20.382812 -22.867188 20.5 -22.734375 C 20.613281 -22.609375 20.671875 -22.300781 20.671875 -21.8125 C 20.671875 -21.664062 20.660156 -21.507812 20.640625 -21.34375 C 20.628906 -21.1875 20.609375 -20.992188 20.578125 -20.765625 L 20.984375 -20.765625 C 21.242188 -21.722656 21.546875 -22.492188 21.890625 -23.078125 C 22.242188 -23.660156 22.582031 -23.953125 22.90625 -23.953125 C 23.132812 -23.953125 23.359375 -23.703125 23.578125 -23.203125 C 23.796875 -22.710938 23.90625 -21.882812 23.90625 -20.71875 C 23.90625 -18.757812 23.671875 -16.644531 23.203125 -14.375 C 22.734375 -12.101562 22.253906 -9.859375 21.765625 -7.640625 C 20.953125 -4.671875 19.988281 -1.816406 18.875 0.921875 C 17.769531 3.660156 16.375 6.441406 14.6875 9.265625 C 14.15625 10.046875 13.5625 10.867188 12.90625 11.734375 C 12.257812 12.597656 11.503906 13.378906 10.640625 14.078125 C 9.785156 14.773438 8.8125 15.347656 7.71875 15.796875 C 6.625 16.242188 5.378906 16.46875 3.984375 16.46875 C 2.960938 16.46875 2.269531 16.335938 1.90625 16.078125 C 1.539062 15.816406 1.359375 15.613281 1.359375 15.46875 C 1.359375 15.382812 1.382812 15.285156 1.4375 15.171875 C 2.3125 15.460938 3.242188 15.609375 4.234375 15.609375 C 4.929688 15.609375 5.738281 15.484375 6.65625 15.234375 C 7.582031 14.984375 8.410156 14.609375 9.140625 14.109375 C 8.460938 14.460938 7.707031 14.769531 6.875 15.03125 C 6.050781 15.289062 5.300781 15.421875 4.625 15.421875 C 3.582031 15.421875 2.566406 15.289062 1.578125 15.03125 C 1.578125 14.832031 1.492188 14.644531 1.328125 14.46875 C 1.171875 14.289062 0.988281 14.117188 0.78125 13.953125 C 0.582031 13.796875 0.398438 13.628906 0.234375 13.453125 C 0.078125 13.285156 0 13.082031 0 12.84375 C 0 12.613281 0.0703125 12.441406 0.21875 12.328125 C 0.363281 12.210938 0.53125 12.125 0.71875 12.0625 C 0.90625 12 1.097656 11.945312 1.296875 11.90625 C 1.503906 11.863281 1.679688 11.8125 1.828125 11.75 Z M 16.515625 4.015625 C 15.671875 5.535156 14.796875 7.054688 13.890625 8.578125 C 12.992188 10.109375 11.859375 11.5625 10.484375 12.9375 C 11.890625 11.625 13.050781 10.203125 13.96875 8.671875 C 14.882812 7.140625 15.734375 5.585938 16.515625 4.015625 Z M 13.234375 -6.953125 L 14.6875 -3.359375 L 14.953125 -3.625 Z M 15.5625 -3.984375 C 15.675781 -4.328125 15.773438 -4.675781 15.859375 -5.03125 L 16.125 -6.078125 L 15.859375 -6.203125 L 15.390625 -4.5 C 15.441406 -4.269531 15.5 -4.097656 15.5625 -3.984375 Z M 10.625 -5.546875 C 10.300781 -6.304688 9.925781 -7.054688 9.5 -7.796875 C 9.082031 -8.546875 8.625 -9.285156 8.125 -10.015625 C 8.5625 -9.160156 9.015625 -8.3125 9.484375 -7.46875 C 9.953125 -6.6875 10.390625 -5.882812 10.796875 -5.0625 Z M 11.671875 -10.53125 C 11.703125 -10.09375 11.765625 -9.726562 11.859375 -9.4375 C 11.960938 -9.144531 12.078125 -8.890625 12.203125 -8.671875 C 12.335938 -8.453125 12.472656 -8.25 12.609375 -8.0625 C 12.742188 -7.875 12.867188 -7.648438 12.984375 -7.390625 L 12.890625 -7.515625 Z M 15.03125 -3.453125 L 14.734375 -3.109375 C 14.785156 -3.015625 14.835938 -2.929688 14.890625 -2.859375 C 14.953125 -2.785156 15 -2.691406 15.03125 -2.578125 L 15.25 -2.921875 Z M 15.03125 -3.453125 "/></g></g></g><g fill="#7c5b54" fill-opacity="1"><g transform="translate(164.025996, 158.22373)"><g><path d="M 2.625 -2.796875 C 2.625 -2.941406 2.664062 -3.113281 2.75 -3.3125 C 2.84375 -3.519531 2.890625 -3.742188 2.890625 -3.984375 C 2.972656 -4.679688 3.03125 -5.179688 3.0625 -5.484375 C 3.09375 -5.785156 3.109375 -6.054688 3.109375 -6.296875 C 3.109375 -7.515625 3.070312 -8.832031 3 -10.25 C 2.925781 -11.664062 2.84375 -13.023438 2.75 -14.328125 C 2.75 -14.742188 2.738281 -15.226562 2.71875 -15.78125 C 2.707031 -16.332031 2.675781 -16.769531 2.625 -17.09375 C 2.707031 -18.113281 2.773438 -19.117188 2.828125 -20.109375 C 2.890625 -21.097656 2.921875 -22.101562 2.921875 -23.125 L 2.921875 -24.21875 C 2.921875 -24.59375 2.910156 -24.96875 2.890625 -25.34375 C 2.972656 -25.257812 3.054688 -25.21875 3.140625 -25.21875 C 3.265625 -25.21875 3.390625 -25.257812 3.515625 -25.34375 C 3.648438 -25.4375 3.773438 -25.484375 3.890625 -25.484375 C 4.097656 -25.484375 4.265625 -25.265625 4.390625 -24.828125 C 4.523438 -24.390625 4.59375 -23.425781 4.59375 -21.9375 L 4.984375 -21.9375 C 5.128906 -23.570312 5.351562 -24.867188 5.65625 -25.828125 C 5.96875 -26.785156 6.28125 -27.265625 6.59375 -27.265625 C 6.738281 -27.265625 6.972656 -26.953125 7.296875 -26.328125 C 7.617188 -25.703125 7.78125 -24.71875 7.78125 -23.375 L 8.265625 -24.171875 C 8.578125 -24.546875 8.929688 -24.9375 9.328125 -25.34375 C 9.722656 -25.75 10.164062 -26.113281 10.65625 -26.4375 C 11.15625 -26.757812 11.707031 -27.03125 12.3125 -27.25 C 12.925781 -27.46875 13.628906 -27.578125 14.421875 -27.578125 C 15.929688 -27.578125 17.25 -27.234375 18.375 -26.546875 C 19.5 -25.859375 20.4375 -24.96875 21.1875 -23.875 C 21.945312 -22.789062 22.566406 -21.554688 23.046875 -20.171875 C 23.535156 -18.785156 23.910156 -17.382812 24.171875 -15.96875 C 24.429688 -14.5625 24.601562 -13.203125 24.6875 -11.890625 C 24.78125 -10.578125 24.828125 -9.453125 24.828125 -8.515625 C 24.828125 -7.671875 24.773438 -7.171875 24.671875 -7.015625 C 24.566406 -6.859375 24.382812 -6.765625 24.125 -6.734375 C 24.0625 -8.972656 23.914062 -11.257812 23.6875 -13.59375 C 23.457031 -15.925781 22.90625 -18.179688 22.03125 -20.359375 C 22.8125 -18.054688 23.3125 -15.789062 23.53125 -13.5625 C 23.75 -11.332031 23.859375 -9.097656 23.859375 -6.859375 C 23.679688 -6.953125 23.519531 -7 23.375 -7 C 23.257812 -7 23.160156 -6.953125 23.078125 -6.859375 C 23.078125 -6.628906 23.09375 -6.382812 23.125 -6.125 C 23.144531 -5.882812 23.160156 -5.644531 23.171875 -5.40625 C 23.191406 -5.175781 23.203125 -4.960938 23.203125 -4.765625 C 23.023438 -4.097656 22.847656 -3.617188 22.671875 -3.328125 C 22.503906 -3.035156 22.347656 -2.890625 22.203125 -2.890625 C 22.023438 -2.890625 21.878906 -2.96875 21.765625 -3.125 C 21.648438 -3.28125 21.539062 -3.472656 21.4375 -3.703125 C 21.332031 -3.941406 21.226562 -4.195312 21.125 -4.46875 C 21.03125 -4.75 20.894531 -5.019531 20.71875 -5.28125 C 20.769531 -5.78125 20.8125 -6.179688 20.84375 -6.484375 C 20.875 -6.796875 20.890625 -7.050781 20.890625 -7.25 C 20.890625 -8.039062 20.875 -8.988281 20.84375 -10.09375 C 20.8125 -11.195312 20.726562 -12.351562 20.59375 -13.5625 C 20.46875 -14.78125 20.265625 -15.992188 19.984375 -17.203125 C 19.710938 -18.410156 19.335938 -19.484375 18.859375 -20.421875 C 18.378906 -21.367188 17.773438 -22.140625 17.046875 -22.734375 C 16.316406 -23.335938 15.441406 -23.640625 14.421875 -23.640625 C 13.722656 -23.640625 13.101562 -23.40625 12.5625 -22.9375 C 12.019531 -22.476562 11.550781 -21.882812 11.15625 -21.15625 C 10.769531 -20.425781 10.429688 -19.628906 10.140625 -18.765625 C 9.847656 -17.910156 9.613281 -17.085938 9.4375 -16.296875 C 9.695312 -17.117188 9.960938 -17.953125 10.234375 -18.796875 C 10.515625 -19.640625 10.851562 -20.410156 11.25 -21.109375 C 11.644531 -21.804688 12.101562 -22.378906 12.625 -22.828125 C 13.15625 -23.285156 13.769531 -23.515625 14.46875 -23.515625 C 15.375 -23.515625 16.148438 -23.265625 16.796875 -22.765625 C 17.453125 -22.273438 18.003906 -21.632812 18.453125 -20.84375 C 18.910156 -20.0625 19.273438 -19.164062 19.546875 -18.15625 C 19.828125 -17.15625 20.039062 -16.132812 20.1875 -15.09375 C 20.332031 -14.0625 20.425781 -13.054688 20.46875 -12.078125 C 20.519531 -11.109375 20.546875 -10.273438 20.546875 -9.578125 C 20.546875 -9.015625 20.535156 -8.457031 20.515625 -7.90625 C 20.503906 -7.351562 20.484375 -6.785156 20.453125 -6.203125 C 20.191406 -7.304688 19.992188 -8.460938 19.859375 -9.671875 C 19.734375 -10.890625 19.597656 -12.085938 19.453125 -13.265625 C 19.304688 -14.441406 19.125 -15.578125 18.90625 -16.671875 C 18.6875 -17.765625 18.375 -18.773438 17.96875 -19.703125 L 18.265625 -20.140625 C 17.972656 -20.816406 17.644531 -21.335938 17.28125 -21.703125 C 16.914062 -22.066406 16.554688 -22.332031 16.203125 -22.5 C 15.859375 -22.675781 15.539062 -22.78125 15.25 -22.8125 C 14.957031 -22.84375 14.769531 -22.859375 14.6875 -22.859375 C 13.957031 -22.859375 13.304688 -22.59375 12.734375 -22.0625 C 12.171875 -21.539062 11.675781 -20.835938 11.25 -19.953125 C 10.832031 -19.066406 10.460938 -18.039062 10.140625 -16.875 C 9.816406 -15.707031 9.535156 -14.484375 9.296875 -13.203125 C 9.066406 -11.921875 8.863281 -10.628906 8.6875 -9.328125 C 8.519531 -8.035156 8.378906 -6.820312 8.265625 -5.6875 L 8.65625 -5.6875 C 8.800781 -6.675781 8.953125 -7.765625 9.109375 -8.953125 C 9.273438 -10.148438 9.453125 -11.367188 9.640625 -12.609375 C 9.828125 -13.847656 10.050781 -15.050781 10.3125 -16.21875 C 10.570312 -17.382812 10.882812 -18.429688 11.25 -19.359375 C 11.613281 -20.296875 12.046875 -21.054688 12.546875 -21.640625 C 13.003906 -22.191406 13.570312 -22.507812 14.25 -22.59375 C 13.601562 -22.445312 13.0625 -22.039062 12.625 -21.375 C 12.164062 -20.675781 11.757812 -19.816406 11.40625 -18.796875 C 11.050781 -17.773438 10.734375 -16.660156 10.453125 -15.453125 C 10.179688 -14.242188 9.929688 -13.082031 9.703125 -11.96875 L 8.828125 -5.59375 C 8.710938 -5.1875 8.625 -4.820312 8.5625 -4.5 L 8.390625 -3.578125 C 8.328125 -3.285156 8.265625 -2.972656 8.203125 -2.640625 C 8.148438 -2.304688 8.082031 -1.921875 8 -1.484375 L 7.859375 -0.96875 L 7.609375 -0.96875 L 3.1875 -2.453125 C 3.039062 -2.472656 2.929688 -2.515625 2.859375 -2.578125 C 2.785156 -2.640625 2.707031 -2.710938 2.625 -2.796875 Z M 10.21875 -25.21875 C 9.644531 -24.71875 9.1875 -24.179688 8.84375 -23.609375 C 8.507812 -23.046875 8.195312 -22.472656 7.90625 -21.890625 L 7.90625 -21.84375 C 8.3125 -22.695312 8.878906 -23.5625 9.609375 -24.4375 C 10.304688 -25.25 11.238281 -25.859375 12.40625 -26.265625 C 12.03125 -26.148438 11.664062 -26.035156 11.3125 -25.921875 C 10.90625 -25.773438 10.539062 -25.539062 10.21875 -25.21875 Z M 15.46875 -26.65625 C 15.320312 -26.6875 15.117188 -26.703125 14.859375 -26.703125 C 15.785156 -26.472656 16.65625 -26.21875 17.46875 -25.9375 C 18.289062 -25.65625 19.066406 -25.109375 19.796875 -24.296875 C 19.296875 -24.960938 18.644531 -25.484375 17.84375 -25.859375 C 17.050781 -26.242188 16.257812 -26.507812 15.46875 -26.65625 Z M 16.65625 -21.671875 C 16.414062 -21.847656 16.144531 -21.988281 15.84375 -22.09375 C 15.539062 -22.195312 15.171875 -22.332031 14.734375 -22.5 L 14.6875 -22.59375 C 15.175781 -22.5625 15.609375 -22.453125 15.984375 -22.265625 C 16.367188 -22.078125 16.738281 -21.75 17.09375 -21.28125 Z M 19.890625 -24.21875 C 20.296875 -23.71875 20.671875 -23.144531 21.015625 -22.5 C 21.367188 -21.863281 21.675781 -21.296875 21.9375 -20.796875 C 21.644531 -21.472656 21.367188 -22.085938 21.109375 -22.640625 C 20.847656 -23.191406 20.441406 -23.71875 19.890625 -24.21875 Z M 19.890625 -24.21875 "/></g></g></g><g fill="#7c5b54" fill-opacity="1"><g transform="translate(191.038556, 158.22373)"><g><path d="M 18.09375 0.78125 C 16.988281 1.164062 16.144531 1.378906 15.5625 1.421875 C 14.976562 1.460938 14.46875 1.5 14.03125 1.53125 C 12.394531 1.53125 10.921875 1.222656 9.609375 0.609375 C 8.296875 -0.00390625 7.171875 -0.832031 6.234375 -1.875 C 5.304688 -2.925781 4.585938 -4.15625 4.078125 -5.5625 C 3.578125 -6.976562 3.328125 -8.488281 3.328125 -10.09375 C 3.328125 -11.03125 3.410156 -12 3.578125 -13 C 3.753906 -14.007812 4.015625 -15 4.359375 -15.96875 C 4.710938 -16.945312 5.164062 -17.859375 5.71875 -18.703125 C 6.25 -19.546875 6.878906 -20.304688 7.609375 -20.984375 C 6.847656 -20.367188 6.207031 -19.640625 5.6875 -18.796875 C 5.125 -17.953125 4.65625 -17.039062 4.28125 -16.0625 C 3.90625 -15.082031 3.628906 -14.078125 3.453125 -13.046875 C 3.273438 -12.015625 3.1875 -11.015625 3.1875 -10.046875 C 3.1875 -8.828125 3.382812 -7.523438 3.78125 -6.140625 C 4.175781 -4.753906 4.8125 -3.472656 5.6875 -2.296875 C 6.5625 -1.117188 7.6875 -0.140625 9.0625 0.640625 C 10.445312 1.429688 12.128906 1.828125 14.109375 1.828125 C 15.046875 1.828125 16.023438 1.695312 17.046875 1.4375 C 15.941406 2.164062 14.703125 2.53125 13.328125 2.53125 C 12.222656 2.53125 11.179688 2.363281 10.203125 2.03125 C 9.222656 1.695312 8.316406 1.226562 7.484375 0.625 C 6.660156 0.03125 5.910156 -0.671875 5.234375 -1.484375 C 4.566406 -2.296875 4.003906 -3.171875 3.546875 -4.109375 L 3.9375 -4.453125 C 3.4375 -5.441406 3.078125 -6.429688 2.859375 -7.421875 C 2.640625 -8.421875 2.53125 -9.425781 2.53125 -10.4375 C 2.53125 -11.925781 2.738281 -13.351562 3.15625 -14.71875 C 3.582031 -16.09375 4.144531 -17.394531 4.84375 -18.625 L 5.90625 -20.0625 C 6.070312 -20.382812 6.320312 -20.703125 6.65625 -21.015625 C 7 -21.335938 7.375 -21.648438 7.78125 -21.953125 C 8.1875 -22.265625 8.613281 -22.539062 9.0625 -22.78125 C 9.519531 -23.03125 9.953125 -23.257812 10.359375 -23.46875 C 11.410156 -23.988281 12.457031 -24.457031 13.5 -24.875 C 14.550781 -25.300781 15.773438 -25.617188 17.171875 -25.828125 L 17 -25.953125 C 14.320312 -25.691406 12.050781 -25.046875 10.1875 -24.015625 C 8.320312 -22.984375 6.804688 -21.722656 5.640625 -20.234375 C 4.472656 -18.742188 3.625 -17.117188 3.09375 -15.359375 C 2.570312 -13.597656 2.3125 -11.875 2.3125 -10.1875 C 2.3125 -9.28125 2.390625 -8.367188 2.546875 -7.453125 C 2.710938 -6.535156 2.957031 -5.625 3.28125 -4.71875 C 2.550781 -6.46875 2.1875 -8.316406 2.1875 -10.265625 C 2.1875 -12.191406 2.503906 -14.101562 3.140625 -16 C 3.785156 -17.894531 4.789062 -19.640625 6.15625 -21.234375 C 7.90625 -22.835938 9.8125 -24.066406 11.875 -24.921875 C 13.945312 -25.785156 15.945312 -26.21875 17.875 -26.21875 C 18.488281 -26.21875 19.113281 -26.113281 19.75 -25.90625 C 20.394531 -25.707031 20.976562 -25.394531 21.5 -24.96875 C 22.019531 -24.550781 22.445312 -24.003906 22.78125 -23.328125 C 23.125 -22.660156 23.296875 -21.847656 23.296875 -20.890625 C 23.296875 -20.097656 23.101562 -19.132812 22.71875 -18 C 22.34375 -16.863281 21.78125 -15.765625 21.03125 -14.703125 C 20.289062 -13.640625 19.367188 -12.734375 18.265625 -11.984375 C 17.160156 -11.242188 15.878906 -10.875 14.421875 -10.875 L 12.984375 -10.875 C 11.898438 -11.113281 10.914062 -11.382812 10.03125 -11.6875 C 9.144531 -12 8.304688 -12.238281 7.515625 -12.40625 C 7.398438 -11.945312 7.332031 -11.503906 7.3125 -11.078125 C 7.300781 -10.648438 7.296875 -10.234375 7.296875 -9.828125 C 7.296875 -8.984375 7.390625 -8.160156 7.578125 -7.359375 C 7.765625 -6.554688 8.0625 -5.820312 8.46875 -5.15625 C 8.882812 -4.488281 9.40625 -3.925781 10.03125 -3.46875 C 10.65625 -3.019531 11.421875 -2.738281 12.328125 -2.625 C 12.878906 -2.507812 13.359375 -2.441406 13.765625 -2.421875 C 14.171875 -2.410156 14.507812 -2.394531 14.78125 -2.375 C 15.0625 -2.363281 15.269531 -2.320312 15.40625 -2.25 C 15.539062 -2.175781 15.609375 -2.035156 15.609375 -1.828125 C 15.316406 -1.742188 15.015625 -1.6875 14.703125 -1.65625 C 14.398438 -1.625 14.085938 -1.609375 13.765625 -1.609375 C 12.742188 -1.609375 11.828125 -1.773438 11.015625 -2.109375 C 10.203125 -2.453125 9.503906 -2.84375 8.921875 -3.28125 C 9.585938 -2.601562 10.382812 -2.125 11.3125 -1.84375 C 12.25 -1.570312 13.171875 -1.4375 14.078125 -1.4375 C 14.566406 -1.4375 15.078125 -1.484375 15.609375 -1.578125 C 15.546875 -1.398438 15.515625 -1.296875 15.515625 -1.265625 C 15.515625 -1.085938 15.585938 -0.972656 15.734375 -0.921875 C 15.847656 -0.953125 16.050781 -1.03125 16.34375 -1.15625 C 16.632812 -1.289062 16.929688 -1.421875 17.234375 -1.546875 C 17.546875 -1.679688 17.847656 -1.796875 18.140625 -1.890625 C 18.429688 -1.992188 18.632812 -2.046875 18.75 -2.046875 C 18.894531 -2.046875 19.023438 -2.023438 19.140625 -1.984375 C 19.253906 -1.941406 19.3125 -1.773438 19.3125 -1.484375 C 19.3125 -1.191406 19.207031 -0.84375 19 -0.4375 C 18.800781 -0.03125 18.5 0.375 18.09375 0.78125 Z M 12.0625 -16.515625 L 13.03125 -16.34375 C 13.34375 -16.28125 13.628906 -16.25 13.890625 -16.25 C 14.179688 -16.25 14.523438 -16.34375 14.921875 -16.53125 C 15.316406 -16.726562 15.707031 -17 16.09375 -17.34375 C 16.488281 -17.695312 16.835938 -18.132812 17.140625 -18.65625 C 17.453125 -19.1875 17.679688 -19.785156 17.828125 -20.453125 L 17.921875 -20.71875 C 17.515625 -20.71875 16.898438 -20.613281 16.078125 -20.40625 C 15.265625 -20.207031 14.421875 -19.9375 13.546875 -19.59375 C 12.671875 -19.257812 11.851562 -18.867188 11.09375 -18.421875 C 10.34375 -17.972656 9.820312 -17.484375 9.53125 -16.953125 C 9.96875 -16.867188 10.394531 -16.789062 10.8125 -16.71875 C 11.238281 -16.644531 11.65625 -16.578125 12.0625 -16.515625 Z M 10.046875 -13.28125 C 10.109375 -13.34375 10.144531 -13.429688 10.15625 -13.546875 C 10.175781 -13.660156 10.1875 -13.75 10.1875 -13.8125 L 8.125 -14.546875 L 7.90625 -13.9375 Z M 8.828125 -3.359375 C 8.617188 -3.597656 8.414062 -3.832031 8.21875 -4.0625 C 8.039062 -4.269531 7.894531 -4.472656 7.78125 -4.671875 C 8.039062 -4.179688 8.390625 -3.742188 8.828125 -3.359375 Z M 8.828125 -3.359375 "/></g></g></g><g fill="#7c5b54" fill-opacity="1"><g transform="translate(216.08417, 158.22373)"><g><path d="M 18.4375 -21.84375 C 18.175781 -21.84375 17.816406 -21.800781 17.359375 -21.71875 C 16.910156 -21.632812 16.460938 -21.53125 16.015625 -21.40625 C 15.566406 -21.289062 15.160156 -21.175781 14.796875 -21.0625 C 14.429688 -20.945312 14.203125 -20.859375 14.109375 -20.796875 C 14.867188 -20.921875 15.566406 -21.0625 16.203125 -21.21875 C 16.847656 -21.375 17.550781 -21.453125 18.3125 -21.453125 C 18.164062 -21.191406 17.972656 -20.988281 17.734375 -20.84375 C 17.503906 -20.695312 17.25 -20.585938 16.96875 -20.515625 C 16.695312 -20.441406 16.398438 -20.382812 16.078125 -20.34375 C 15.765625 -20.300781 15.429688 -20.234375 15.078125 -20.140625 L 14.765625 -20.546875 C 14.210938 -20.335938 13.789062 -20.210938 13.5 -20.171875 C 13.207031 -20.128906 12.90625 -20.109375 12.59375 -20.109375 C 12.238281 -20.109375 11.878906 -20.113281 11.515625 -20.125 C 11.148438 -20.132812 10.75 -20.140625 10.3125 -20.140625 C 10.3125 -19.992188 10.296875 -19.878906 10.265625 -19.796875 C 10.941406 -19.796875 11.507812 -19.800781 11.96875 -19.8125 C 12.4375 -19.832031 13.003906 -19.882812 13.671875 -19.96875 C 13.035156 -19.851562 12.476562 -19.765625 12 -19.703125 C 11.519531 -19.648438 10.941406 -19.625 10.265625 -19.625 C 10.148438 -18.957031 10.046875 -18.300781 9.953125 -17.65625 C 9.867188 -17.007812 9.828125 -16.382812 9.828125 -15.78125 C 9.828125 -15.425781 9.84375 -15.015625 9.875 -14.546875 C 9.90625 -14.085938 9.941406 -13.613281 9.984375 -13.125 C 10.023438 -12.644531 10.0625 -12.191406 10.09375 -11.765625 C 10.125 -11.347656 10.140625 -11.039062 10.140625 -10.84375 L 10.140625 -8.21875 C 10.285156 -7.632812 10.707031 -7.195312 11.40625 -6.90625 C 12.101562 -6.613281 13.109375 -6.46875 14.421875 -6.46875 L 15.828125 -6.46875 C 16.316406 -6.46875 16.65625 -6.414062 16.84375 -6.3125 C 17.03125 -6.207031 17.125 -6.070312 17.125 -5.90625 C 17.125 -5.757812 17.007812 -5.675781 16.78125 -5.65625 C 16.550781 -5.644531 16.316406 -5.640625 16.078125 -5.640625 C 15.234375 -5.640625 14.347656 -5.695312 13.421875 -5.8125 C 12.546875 -5.925781 11.6875 -6.054688 10.84375 -6.203125 C 11.6875 -6.003906 12.570312 -5.816406 13.5 -5.640625 C 14.46875 -5.492188 15.398438 -5.421875 16.296875 -5.421875 L 16.6875 -5.421875 C 16.8125 -5.421875 16.945312 -5.4375 17.09375 -5.46875 C 17.09375 -5.320312 17.097656 -5.1875 17.109375 -5.0625 C 17.117188 -4.945312 17.15625 -4.816406 17.21875 -4.671875 L 17.5625 -4.765625 C 17.65625 -4.796875 17.757812 -4.816406 17.875 -4.828125 C 17.988281 -4.835938 18.078125 -4.875 18.140625 -4.9375 C 19.066406 -4.851562 19.53125 -4.535156 19.53125 -3.984375 C 19.53125 -3.660156 19.441406 -3.394531 19.265625 -3.1875 C 19.097656 -2.988281 18.878906 -2.828125 18.609375 -2.703125 C 18.347656 -2.585938 18.054688 -2.507812 17.734375 -2.46875 C 17.421875 -2.425781 17.117188 -2.40625 16.828125 -2.40625 C 15.804688 -2.40625 14.804688 -2.46875 13.828125 -2.59375 C 12.859375 -2.726562 11.90625 -2.867188 10.96875 -3.015625 C 11.78125 -2.722656 12.8125 -2.488281 14.0625 -2.3125 C 15.320312 -2.132812 16.59375 -2.046875 17.875 -2.046875 C 17.550781 -1.847656 17.171875 -1.691406 16.734375 -1.578125 C 16.296875 -1.460938 15.847656 -1.40625 15.390625 -1.40625 L 12.234375 -1.796875 C 11.828125 -1.847656 11.515625 -1.898438 11.296875 -1.953125 C 11.078125 -2.015625 10.863281 -2.082031 10.65625 -2.15625 C 10.457031 -2.226562 10.234375 -2.304688 9.984375 -2.390625 C 9.734375 -2.484375 9.390625 -2.585938 8.953125 -2.703125 L 8.953125 -3.1875 C 8.203125 -3.394531 7.59375 -3.742188 7.125 -4.234375 C 6.65625 -4.734375 6.289062 -5.273438 6.03125 -5.859375 C 5.769531 -6.441406 5.59375 -7.03125 5.5 -7.625 C 5.414062 -8.21875 5.375 -8.75 5.375 -9.21875 C 5.375 -9.71875 5.378906 -10.175781 5.390625 -10.59375 C 5.410156 -11.019531 5.421875 -11.453125 5.421875 -11.890625 C 5.421875 -12.210938 5.410156 -12.617188 5.390625 -13.109375 C 5.378906 -13.609375 5.359375 -14.132812 5.328125 -14.6875 C 5.296875 -15.238281 5.273438 -15.804688 5.265625 -16.390625 C 5.253906 -16.972656 5.25 -17.523438 5.25 -18.046875 C 5.25 -18.367188 5.253906 -18.675781 5.265625 -18.96875 C 5.273438 -19.257812 5.296875 -19.519531 5.328125 -19.75 L 4.890625 -19.75 C 4.859375 -19.550781 4.84375 -19.316406 4.84375 -19.046875 L 4.84375 -18.265625 C 4.84375 -17.421875 4.859375 -16.582031 4.890625 -15.75 C 4.921875 -14.925781 4.941406 -14.160156 4.953125 -13.453125 C 4.972656 -12.753906 4.992188 -12.148438 5.015625 -11.640625 C 5.046875 -11.128906 5.0625 -10.757812 5.0625 -10.53125 L 5.0625 -8.4375 C 4.976562 -9.21875 4.894531 -10.335938 4.8125 -11.796875 C 4.71875 -13.484375 4.671875 -15.347656 4.671875 -17.390625 L 4.671875 -18.1875 C 4.671875 -18.5 4.675781 -18.800781 4.6875 -19.09375 C 4.707031 -19.382812 4.75 -19.601562 4.8125 -19.75 L 3.328125 -19.84375 C 3.003906 -20.039062 2.679688 -20.195312 2.359375 -20.3125 C 2.035156 -20.4375 1.742188 -20.5 1.484375 -20.5 L 1.484375 -21.375 C 1.484375 -21.550781 1.503906 -21.703125 1.546875 -21.828125 C 1.585938 -21.960938 1.726562 -22.03125 1.96875 -22.03125 C 2.019531 -22.03125 2.164062 -22 2.40625 -21.9375 L 2.40625 -22.46875 C 2.082031 -22.632812 1.816406 -22.867188 1.609375 -23.171875 C 1.410156 -23.484375 1.3125 -23.800781 1.3125 -24.125 C 1.3125 -24.882812 1.847656 -25.265625 2.921875 -25.265625 C 3.335938 -25.265625 3.757812 -25.234375 4.1875 -25.171875 C 4.625 -25.109375 5.078125 -25.066406 5.546875 -25.046875 C 5.660156 -25.679688 5.757812 -26.253906 5.84375 -26.765625 C 5.9375 -27.273438 6.023438 -27.769531 6.109375 -28.25 C 6.203125 -28.726562 6.304688 -29.207031 6.421875 -29.6875 C 6.535156 -30.175781 6.679688 -30.679688 6.859375 -31.203125 C 7.117188 -31.785156 7.320312 -32.414062 7.46875 -33.09375 C 7.613281 -33.78125 7.71875 -34.460938 7.78125 -35.140625 L 8.703125 -35.09375 C 8.847656 -35.09375 8.96875 -35.046875 9.0625 -34.953125 C 9.164062 -34.867188 9.21875 -34.664062 9.21875 -34.34375 C 9.21875 -34.082031 9.175781 -33.734375 9.09375 -33.296875 L 9.609375 -33.171875 C 9.847656 -33.953125 10.132812 -34.59375 10.46875 -35.09375 C 10.800781 -35.59375 11.128906 -35.84375 11.453125 -35.84375 C 11.941406 -35.84375 12.25 -35.210938 12.375 -33.953125 L 12.375 -33.171875 C 12.375 -32.410156 12.320312 -31.703125 12.21875 -31.046875 C 12.113281 -30.390625 11.988281 -29.738281 11.84375 -29.09375 C 11.695312 -28.457031 11.550781 -27.804688 11.40625 -27.140625 C 11.257812 -26.472656 11.128906 -25.742188 11.015625 -24.953125 C 11.648438 -24.867188 12.273438 -24.828125 12.890625 -24.828125 C 13.179688 -24.828125 13.472656 -24.832031 13.765625 -24.84375 C 14.054688 -24.851562 14.347656 -24.859375 14.640625 -24.859375 C 14.929688 -24.859375 15.234375 -24.972656 15.546875 -25.203125 C 15.867188 -25.441406 16.164062 -25.5625 16.4375 -25.5625 C 16.664062 -25.5625 16.835938 -25.488281 16.953125 -25.34375 C 17.066406 -25.195312 17.125 -25.035156 17.125 -24.859375 C 16.601562 -24.722656 16.085938 -24.570312 15.578125 -24.40625 C 15.066406 -24.25 14.578125 -24.097656 14.109375 -23.953125 C 14.578125 -24.003906 15.070312 -24.109375 15.59375 -24.265625 C 16.125 -24.429688 16.679688 -24.585938 17.265625 -24.734375 C 17.265625 -24.585938 17.269531 -24.457031 17.28125 -24.34375 C 17.300781 -24.226562 17.335938 -24.097656 17.390625 -23.953125 C 17.453125 -23.953125 17.523438 -23.96875 17.609375 -24 C 17.785156 -24.050781 17.890625 -24.078125 17.921875 -24.078125 C 18.210938 -23.929688 18.398438 -23.75 18.484375 -23.53125 C 18.578125 -23.3125 18.625 -23.070312 18.625 -22.8125 C 18.625 -22.601562 18.59375 -22.421875 18.53125 -22.265625 C 18.46875 -22.109375 18.4375 -21.96875 18.4375 -21.84375 Z M 6.859375 -5.71875 C 6.453125 -6.507812 6.234375 -7.28125 6.203125 -8.03125 C 6.171875 -8.789062 6.128906 -9.507812 6.078125 -10.1875 L 5.6875 -16.828125 L 5.546875 -16.03125 C 5.546875 -14.082031 5.609375 -12.3125 5.734375 -10.71875 C 5.867188 -9.132812 6.070312 -7.90625 6.34375 -7.03125 C 6.34375 -6.769531 6.332031 -6.59375 6.3125 -6.5 C 6.300781 -6.414062 6.296875 -6.347656 6.296875 -6.296875 C 6.296875 -6.234375 6.332031 -6.15625 6.40625 -6.0625 C 6.476562 -5.976562 6.628906 -5.863281 6.859375 -5.71875 Z M 9.359375 -8.078125 C 9.296875 -8.316406 9.265625 -8.566406 9.265625 -8.828125 L 9.265625 -10.96875 C 9.234375 -10.675781 9.203125 -10.390625 9.171875 -10.109375 C 9.148438 -9.835938 9.140625 -9.554688 9.140625 -9.265625 C 9.140625 -8.503906 9.179688 -7.921875 9.265625 -7.515625 C 9.347656 -7.171875 9.523438 -6.878906 9.796875 -6.640625 C 9.648438 -6.816406 9.546875 -7.007812 9.484375 -7.21875 C 9.453125 -7.445312 9.410156 -7.734375 9.359375 -8.078125 Z M 5.109375 -8.125 L 5.0625 -8.4375 Z M 9.875 -6.59375 C 9.84375 -6.625 9.816406 -6.640625 9.796875 -6.640625 C 9.816406 -6.640625 9.84375 -6.625 9.875 -6.59375 Z M 9.875 -6.59375 "/></g></g></g><g fill="#7c5b54" fill-opacity="1"><g transform="translate(236.933667, 158.22373)"><g><path d="M 8.265625 -0.5625 C 8.171875 -0.332031 8.125 -0.160156 8.125 -0.046875 C 8.125 0.046875 8.15625 0.175781 8.21875 0.34375 L 3.015625 -0.484375 L 3.015625 -0.65625 C 2.804688 -0.65625 2.703125 -0.832031 2.703125 -1.1875 C 2.703125 -1.414062 2.734375 -1.644531 2.796875 -1.875 C 2.859375 -2.113281 2.898438 -2.304688 2.921875 -2.453125 C 3.160156 -3.847656 3.34375 -5.171875 3.46875 -6.421875 C 3.601562 -7.671875 3.710938 -9 3.796875 -10.40625 C 3.796875 -13.144531 3.726562 -15.628906 3.59375 -17.859375 C 3.46875 -20.085938 3.40625 -22.28125 3.40625 -24.4375 C 3.40625 -26.269531 3.492188 -27.910156 3.671875 -29.359375 C 3.847656 -30.816406 3.9375 -32.332031 3.9375 -33.90625 C 3.9375 -35.019531 3.890625 -36.144531 3.796875 -37.28125 L 4.8125 -37.453125 C 4.894531 -37.453125 4.976562 -37.398438 5.0625 -37.296875 C 5.15625 -37.191406 5.226562 -36.988281 5.28125 -36.6875 C 5.34375 -36.382812 5.394531 -35.960938 5.4375 -35.421875 C 5.476562 -34.878906 5.5 -34.1875 5.5 -33.34375 L 6.03125 -33.34375 C 6.09375 -35.320312 6.234375 -36.894531 6.453125 -38.0625 C 6.671875 -39.226562 6.9375 -39.8125 7.25 -39.8125 C 7.539062 -39.8125 7.785156 -39.5 7.984375 -38.875 C 8.191406 -38.25 8.363281 -37.410156 8.5 -36.359375 C 8.632812 -35.304688 8.738281 -34.109375 8.8125 -32.765625 C 8.882812 -31.429688 8.921875 -30.050781 8.921875 -28.625 L 8.921875 -23.125 C 9.503906 -23.757812 10.238281 -24.335938 11.125 -24.859375 C 12.007812 -25.390625 12.992188 -25.65625 14.078125 -25.65625 C 15.648438 -25.65625 16.976562 -25.269531 18.0625 -24.5 C 19.15625 -23.726562 20.066406 -22.78125 20.796875 -21.65625 C 21.523438 -20.53125 22.085938 -19.332031 22.484375 -18.0625 C 22.878906 -16.800781 23.164062 -15.691406 23.34375 -14.734375 C 23.488281 -14.148438 23.625 -13.492188 23.75 -12.765625 C 23.882812 -12.035156 23.992188 -11.289062 24.078125 -10.53125 C 24.171875 -9.769531 24.238281 -9.007812 24.28125 -8.25 C 24.320312 -7.5 24.34375 -6.800781 24.34375 -6.15625 C 24.34375 -6.070312 24.332031 -5.832031 24.3125 -5.4375 C 24.300781 -5.039062 24.265625 -4.625 24.203125 -4.1875 C 24.148438 -3.757812 24.066406 -3.367188 23.953125 -3.015625 C 23.835938 -2.660156 23.675781 -2.484375 23.46875 -2.484375 C 23.40625 -2.484375 23.363281 -2.5 23.34375 -2.53125 C 23.394531 -3.207031 23.4375 -3.863281 23.46875 -4.5 C 23.5 -5.144531 23.515625 -5.800781 23.515625 -6.46875 C 23.515625 -8.007812 23.410156 -9.539062 23.203125 -11.0625 C 23.023438 -12.457031 22.765625 -13.867188 22.421875 -15.296875 C 22.710938 -14.015625 22.929688 -12.75 23.078125 -11.5 C 23.253906 -10.15625 23.34375 -8.8125 23.34375 -7.46875 C 23.34375 -5.863281 23.253906 -4.304688 23.078125 -2.796875 C 22.785156 -2.679688 22.570312 -2.40625 22.4375 -1.96875 C 22.3125 -1.53125 22.1875 -1.0625 22.0625 -0.5625 C 21.945312 -0.0703125 21.796875 0.367188 21.609375 0.765625 C 21.421875 1.160156 21.125 1.359375 20.71875 1.359375 C 20.570312 1.359375 20.445312 1.257812 20.34375 1.0625 C 20.238281 0.875 20.140625 0.640625 20.046875 0.359375 C 19.960938 0.0859375 19.898438 -0.210938 19.859375 -0.546875 C 19.816406 -0.878906 19.796875 -1.191406 19.796875 -1.484375 C 19.796875 -1.691406 19.820312 -1.867188 19.875 -2.015625 C 19.9375 -2.160156 20 -2.332031 20.0625 -2.53125 C 20.175781 -3.226562 20.253906 -3.929688 20.296875 -4.640625 C 20.335938 -5.359375 20.359375 -6.097656 20.359375 -6.859375 C 20.359375 -7.734375 20.316406 -8.707031 20.234375 -9.78125 C 20.148438 -10.863281 20.003906 -11.957031 19.796875 -13.0625 C 19.585938 -14.175781 19.320312 -15.25 19 -16.28125 C 18.6875 -17.3125 18.289062 -18.226562 17.8125 -19.03125 C 17.332031 -19.832031 16.769531 -20.472656 16.125 -20.953125 C 15.488281 -21.429688 14.757812 -21.671875 13.9375 -21.671875 C 13.300781 -21.671875 12.726562 -21.398438 12.21875 -20.859375 C 11.707031 -20.328125 11.253906 -19.644531 10.859375 -18.8125 C 10.460938 -17.976562 10.125 -17.054688 9.84375 -16.046875 C 9.570312 -15.046875 9.335938 -14.097656 9.140625 -13.203125 L 9.140625 -12.984375 C 9.304688 -13.878906 9.523438 -14.789062 9.796875 -15.71875 C 10.078125 -16.65625 10.429688 -17.523438 10.859375 -18.328125 C 11.285156 -19.128906 11.785156 -19.820312 12.359375 -20.40625 C 12.941406 -20.988281 13.628906 -21.367188 14.421875 -21.546875 C 15.117188 -21.546875 15.742188 -21.296875 16.296875 -20.796875 C 16.847656 -20.304688 17.335938 -19.660156 17.765625 -18.859375 C 18.191406 -18.054688 18.554688 -17.148438 18.859375 -16.140625 C 19.160156 -15.140625 19.40625 -14.144531 19.59375 -13.15625 C 19.789062 -12.164062 19.929688 -11.222656 20.015625 -10.328125 C 20.097656 -9.441406 20.140625 -8.707031 20.140625 -8.125 C 20.140625 -7.195312 20.097656 -6.273438 20.015625 -5.359375 C 19.929688 -4.441406 19.816406 -3.546875 19.671875 -2.671875 C 19.523438 -3.921875 19.421875 -5.226562 19.359375 -6.59375 C 19.296875 -7.96875 19.191406 -9.320312 19.046875 -10.65625 C 18.910156 -12 18.695312 -13.316406 18.40625 -14.609375 C 18.113281 -15.910156 17.660156 -17.128906 17.046875 -18.265625 L 17.4375 -18.40625 C 17.175781 -18.894531 16.9375 -19.253906 16.71875 -19.484375 C 16.5 -19.722656 16.296875 -19.898438 16.109375 -20.015625 C 15.921875 -20.128906 15.707031 -20.238281 15.46875 -20.34375 C 15.238281 -20.445312 14.976562 -20.628906 14.6875 -20.890625 L 14.03125 -20.890625 C 13.039062 -20.890625 12.148438 -19.957031 11.359375 -18.09375 C 10.578125 -16.226562 9.847656 -13.601562 9.171875 -10.21875 L 9.046875 -7.46875 C 9.222656 -8.664062 9.445312 -10.03125 9.71875 -11.5625 C 10 -13.09375 10.332031 -14.535156 10.71875 -15.890625 C 11.113281 -17.242188 11.582031 -18.378906 12.125 -19.296875 C 12.664062 -20.210938 13.300781 -20.671875 14.03125 -20.671875 C 14.351562 -20.671875 14.734375 -20.566406 15.171875 -20.359375 C 15.609375 -20.160156 16.054688 -19.753906 16.515625 -19.140625 C 16.109375 -19.609375 15.703125 -19.957031 15.296875 -20.1875 C 14.890625 -20.425781 14.523438 -20.546875 14.203125 -20.546875 L 13.890625 -20.5 C 13.316406 -20.5 12.8125 -20.132812 12.375 -19.40625 C 11.9375 -18.675781 11.535156 -17.734375 11.171875 -16.578125 C 10.804688 -15.429688 10.488281 -14.117188 10.21875 -12.640625 C 9.957031 -11.171875 9.710938 -9.703125 9.484375 -8.234375 C 9.253906 -6.765625 9.039062 -5.351562 8.84375 -4 C 8.65625 -2.644531 8.460938 -1.5 8.265625 -0.5625 Z M 7.390625 0.125 C 7.554688 0.0703125 7.660156 -0.0078125 7.703125 -0.125 C 7.753906 -0.25 7.804688 -0.3125 7.859375 -0.3125 L 8.171875 -2.625 L 7.46875 -0.4375 L 7.34375 -0.171875 C 6.84375 -0.203125 6.363281 -0.257812 5.90625 -0.34375 C 5.488281 -0.40625 5.054688 -0.472656 4.609375 -0.546875 C 4.160156 -0.617188 3.757812 -0.6875 3.40625 -0.75 C 3.320312 -1.007812 3.28125 -1.195312 3.28125 -1.3125 C 3.28125 -1.34375 3.285156 -1.367188 3.296875 -1.390625 C 3.316406 -1.421875 3.328125 -1.453125 3.328125 -1.484375 L 3.015625 -1.53125 C 3.078125 -1.0625 3.128906 -0.789062 3.171875 -0.71875 C 3.210938 -0.644531 3.273438 -0.582031 3.359375 -0.53125 Z M 17.96875 -23.375 C 17.382812 -23.789062 16.753906 -24.117188 16.078125 -24.359375 C 15.410156 -24.609375 14.710938 -24.734375 13.984375 -24.734375 C 12.816406 -24.734375 11.8125 -24.421875 10.96875 -23.796875 C 10.125 -23.171875 9.441406 -22.476562 8.921875 -21.71875 L 8.921875 -21.59375 C 9.179688 -21.96875 9.476562 -22.335938 9.8125 -22.703125 C 10.144531 -23.066406 10.515625 -23.382812 10.921875 -23.65625 C 11.328125 -23.9375 11.789062 -24.164062 12.3125 -24.34375 C 12.84375 -24.519531 13.441406 -24.609375 14.109375 -24.609375 C 15.421875 -24.609375 16.59375 -24.226562 17.625 -23.46875 C 18.664062 -22.707031 19.566406 -21.773438 20.328125 -20.671875 C 20.003906 -21.171875 19.660156 -21.648438 19.296875 -22.109375 C 18.929688 -22.578125 18.488281 -23 17.96875 -23.375 Z M 22.328125 -15.609375 L 22.421875 -15.296875 Z M 22.328125 -15.609375 "/></g></g></g><g fill="#7c5b54" fill-opacity="1"><g transform="translate(263.465417, 158.22373)"><g><path d="M 2.1875 -19.921875 C 2.269531 -20.128906 2.328125 -20.34375 2.359375 -20.5625 C 2.390625 -20.78125 2.40625 -21.003906 2.40625 -21.234375 L 2.84375 -21.234375 C 2.8125 -21.378906 2.796875 -21.582031 2.796875 -21.84375 C 2.796875 -22.375 2.835938 -22.867188 2.921875 -23.328125 C 3.015625 -23.796875 3.0625 -24.304688 3.0625 -24.859375 C 3.0625 -25.035156 3.050781 -25.210938 3.03125 -25.390625 C 3.019531 -25.566406 2.984375 -25.742188 2.921875 -25.921875 L 2.703125 -25.921875 C 2.703125 -25.242188 2.6875 -24.488281 2.65625 -23.65625 C 2.632812 -22.832031 2.550781 -22.113281 2.40625 -21.5 L 2.40625 -23.8125 C 2.40625 -25.039062 2.46875 -26.175781 2.59375 -27.21875 C 2.726562 -28.269531 3.085938 -29.351562 3.671875 -30.46875 C 3.753906 -30.4375 3.867188 -30.40625 4.015625 -30.375 C 4.160156 -30.34375 4.3125 -30.304688 4.46875 -30.265625 C 4.632812 -30.222656 4.773438 -30.164062 4.890625 -30.09375 C 5.003906 -30.019531 5.0625 -29.925781 5.0625 -29.8125 C 5.0625 -29.75 5.035156 -29.660156 4.984375 -29.546875 L 5.46875 -29.453125 C 5.875 -29.710938 6.265625 -29.84375 6.640625 -29.84375 C 7.046875 -29.84375 7.410156 -29.75 7.734375 -29.5625 C 8.054688 -29.375 8.21875 -29.046875 8.21875 -28.578125 C 8.21875 -27.390625 8.097656 -26.195312 7.859375 -25 C 7.628906 -23.800781 7.472656 -22.648438 7.390625 -21.546875 L 7.25 -21.15625 C 7.226562 -21.0625 7.203125 -20.957031 7.171875 -20.84375 C 7.140625 -20.726562 7.125 -20.628906 7.125 -20.546875 C 7.125 -20.453125 7.128906 -20.332031 7.140625 -20.1875 C 7.160156 -20.039062 7.171875 -19.894531 7.171875 -19.75 C 7.171875 -19.488281 7.125 -19.238281 7.03125 -19 C 6.945312 -18.769531 6.789062 -18.65625 6.5625 -18.65625 C 6.5 -18.65625 6.429688 -18.671875 6.359375 -18.703125 C 6.285156 -18.734375 6.21875 -18.765625 6.15625 -18.796875 C 6.300781 -19.316406 6.390625 -19.867188 6.421875 -20.453125 C 6.367188 -20.160156 6.296875 -19.882812 6.203125 -19.625 C 6.117188 -19.363281 6.03125 -19.113281 5.9375 -18.875 L 5.28125 -19.09375 C 5.226562 -18.863281 5.097656 -18.75 4.890625 -18.75 C 4.710938 -18.75 4.546875 -18.796875 4.390625 -18.890625 C 4.234375 -18.992188 4.085938 -19.113281 3.953125 -19.25 C 3.828125 -19.382812 3.695312 -19.5 3.5625 -19.59375 C 3.425781 -19.695312 3.285156 -19.75 3.140625 -19.75 C 3.265625 -19.925781 3.351562 -20.21875 3.40625 -20.625 C 3.46875 -21.03125 3.507812 -21.46875 3.53125 -21.9375 C 3.5625 -22.40625 3.582031 -22.859375 3.59375 -23.296875 C 3.613281 -23.734375 3.625 -24.039062 3.625 -24.21875 C 3.59375 -24.070312 3.5625 -23.753906 3.53125 -23.265625 C 3.507812 -22.785156 3.460938 -22.289062 3.390625 -21.78125 C 3.316406 -21.269531 3.234375 -20.8125 3.140625 -20.40625 C 3.054688 -20 2.941406 -19.796875 2.796875 -19.796875 Z M 6.6875 -22.9375 C 6.625 -22.675781 6.578125 -22.421875 6.546875 -22.171875 C 6.523438 -21.929688 6.484375 -21.691406 6.421875 -21.453125 L 6.46875 -21.546875 L 6.46875 -21.5 Z M 2.96875 -19.84375 L 3.140625 -19.75 L 3.0625 -19.703125 L 3.0625 -19.75 Z M 2.96875 -19.84375 "/></g></g></g><g fill="#7c5b54" fill-opacity="1"><g transform="translate(273.868314, 158.22373)"><g><path d="M 5.8125 -7.03125 C 6.28125 -6.882812 6.84375 -6.625 7.5 -6.25 C 8.15625 -5.875 8.890625 -5.476562 9.703125 -5.0625 C 10.515625 -4.65625 11.410156 -4.289062 12.390625 -3.96875 C 13.367188 -3.65625 14.410156 -3.5 15.515625 -3.5 L 16 -3.5 C 16.164062 -3.5 16.367188 -3.523438 16.609375 -3.578125 L 17.09375 -3.234375 C 18.226562 -3.585938 19.160156 -4.25 19.890625 -5.21875 C 20.617188 -6.195312 20.984375 -7.515625 20.984375 -9.171875 C 20.984375 -10.367188 20.695312 -11.191406 20.125 -11.640625 C 19.550781 -12.097656 18.507812 -12.328125 17 -12.328125 C 16.070312 -12.328125 15.101562 -12.257812 14.09375 -12.125 C 13.09375 -12 12.035156 -11.9375 10.921875 -11.9375 C 10.429688 -11.9375 9.921875 -11.957031 9.390625 -12 C 8.867188 -12.039062 8.332031 -12.132812 7.78125 -12.28125 L 7.78125 -12.015625 C 8.945312 -11.722656 10.097656 -11.578125 11.234375 -11.578125 C 12.335938 -11.578125 13.390625 -11.640625 14.390625 -11.765625 C 15.398438 -11.898438 16.375 -11.96875 17.3125 -11.96875 C 18.09375 -11.96875 18.707031 -11.890625 19.15625 -11.734375 C 19.613281 -11.578125 19.957031 -11.363281 20.1875 -11.09375 C 20.425781 -10.832031 20.582031 -10.519531 20.65625 -10.15625 C 20.726562 -9.789062 20.765625 -9.390625 20.765625 -8.953125 C 20.765625 -7.585938 20.398438 -6.425781 19.671875 -5.46875 C 18.972656 -4.5625 18.140625 -3.992188 17.171875 -3.765625 C 18.253906 -4.140625 19.097656 -4.789062 19.703125 -5.71875 C 20.347656 -6.71875 20.671875 -7.828125 20.671875 -9.046875 C 20.671875 -9.921875 20.441406 -10.585938 19.984375 -11.046875 C 19.535156 -11.515625 18.757812 -11.75 17.65625 -11.75 C 16.75 -11.75 15.726562 -11.691406 14.59375 -11.578125 C 13.457031 -11.460938 12.25 -11.40625 10.96875 -11.40625 C 10.1875 -11.40625 9.273438 -11.503906 8.234375 -11.703125 C 7.203125 -11.910156 6.21875 -12.289062 5.28125 -12.84375 C 4.351562 -13.394531 3.566406 -14.160156 2.921875 -15.140625 C 2.285156 -16.117188 1.96875 -17.394531 1.96875 -18.96875 C 1.96875 -20.21875 2.222656 -21.375 2.734375 -22.4375 C 3.242188 -23.5 3.921875 -24.429688 4.765625 -25.234375 C 5.609375 -26.035156 6.578125 -26.671875 7.671875 -27.140625 C 8.765625 -27.609375 9.894531 -27.851562 11.0625 -27.875 C 12.164062 -27.875 13.21875 -27.722656 14.21875 -27.421875 C 15.226562 -27.117188 16.179688 -26.722656 17.078125 -26.234375 C 17.984375 -25.753906 18.84375 -25.222656 19.65625 -24.640625 C 20.476562 -24.066406 21.238281 -23.488281 21.9375 -22.90625 L 21.0625 -22.03125 C 20.863281 -22.03125 20.554688 -22.148438 20.140625 -22.390625 C 19.734375 -22.640625 19.109375 -23.070312 18.265625 -23.6875 L 18 -23.296875 C 19.050781 -22.453125 19.816406 -21.664062 20.296875 -20.9375 C 20.773438 -20.207031 21.015625 -19.640625 21.015625 -19.234375 C 20.960938 -18.992188 20.816406 -18.875 20.578125 -18.875 C 20.347656 -18.875 19.882812 -19.0625 19.1875 -19.4375 C 18.488281 -19.820312 17.691406 -20.25 16.796875 -20.71875 C 15.910156 -21.1875 14.972656 -21.609375 13.984375 -21.984375 C 12.992188 -22.359375 12.09375 -22.546875 11.28125 -22.546875 C 10.8125 -22.546875 10.34375 -22.457031 9.875 -22.28125 C 9.40625 -22.113281 8.984375 -21.875 8.609375 -21.5625 C 8.234375 -21.257812 7.921875 -20.890625 7.671875 -20.453125 C 7.421875 -20.015625 7.296875 -19.535156 7.296875 -19.015625 C 7.296875 -18.171875 7.6875 -17.601562 8.46875 -17.3125 C 9.257812 -17.019531 10.296875 -16.875 11.578125 -16.875 C 11.835938 -16.875 12.117188 -16.878906 12.421875 -16.890625 C 12.734375 -16.898438 13.019531 -16.9375 13.28125 -17 C 13.957031 -17 14.40625 -17.019531 14.625 -17.0625 C 14.84375 -17.101562 15.050781 -17.125 15.25 -17.125 C 16.5 -17.125 17.75 -17.035156 19 -16.859375 C 20.257812 -16.691406 21.382812 -16.316406 22.375 -15.734375 C 23.363281 -15.148438 24.164062 -14.316406 24.78125 -13.234375 C 25.394531 -12.160156 25.703125 -10.722656 25.703125 -8.921875 C 25.703125 -7.660156 25.488281 -6.410156 25.0625 -5.171875 C 24.644531 -3.941406 24.007812 -2.835938 23.15625 -1.859375 C 22.3125 -0.878906 21.265625 -0.09375 20.015625 0.5 C 18.765625 1.101562 17.296875 1.40625 15.609375 1.40625 C 14.585938 1.40625 13.382812 1.207031 12 0.8125 C 10.613281 0.414062 9.300781 -0.0507812 8.0625 -0.59375 C 6.820312 -1.132812 5.769531 -1.691406 4.90625 -2.265625 C 4.050781 -2.847656 3.625 -3.347656 3.625 -3.765625 C 3.625 -3.878906 3.695312 -3.960938 3.84375 -4.015625 C 5.625 -2.703125 7.429688 -1.625 9.265625 -0.78125 C 11.066406 0 12.914062 0.4375 14.8125 0.53125 C 13.882812 0.46875 12.953125 0.304688 12.015625 0.046875 C 11.054688 -0.242188 10.101562 -0.597656 9.15625 -1.015625 C 8.207031 -1.441406 7.300781 -1.925781 6.4375 -2.46875 C 5.582031 -3.007812 4.765625 -3.554688 3.984375 -4.109375 L 4.625 -4.671875 C 4.539062 -4.703125 4.378906 -4.804688 4.140625 -4.984375 C 3.910156 -5.160156 3.6875 -5.378906 3.46875 -5.640625 C 3.25 -5.898438 3.050781 -6.175781 2.875 -6.46875 C 2.707031 -6.757812 2.625 -7.035156 2.625 -7.296875 C 2.625 -7.585938 2.679688 -7.773438 2.796875 -7.859375 C 2.910156 -7.953125 3.039062 -8 3.1875 -8 C 3.332031 -8 3.640625 -7.894531 4.109375 -7.6875 C 4.578125 -7.488281 5.144531 -7.269531 5.8125 -7.03125 Z M 15.46875 -2.578125 C 14.445312 -2.578125 13.316406 -2.785156 12.078125 -3.203125 C 10.835938 -3.628906 9.664062 -4.175781 8.5625 -4.84375 C 9.46875 -4.238281 10.472656 -3.691406 11.578125 -3.203125 C 12.679688 -2.722656 13.960938 -2.484375 15.421875 -2.484375 C 17.378906 -2.484375 18.929688 -3.082031 20.078125 -4.28125 C 21.234375 -5.476562 21.8125 -7.082031 21.8125 -9.09375 L 21.8125 -9.53125 C 21.664062 -10.457031 21.347656 -11.21875 20.859375 -11.8125 C 20.378906 -12.414062 19.644531 -12.75 18.65625 -12.8125 C 19.269531 -12.6875 19.773438 -12.492188 20.171875 -12.234375 C 20.566406 -11.972656 20.875 -11.660156 21.09375 -11.296875 C 21.3125 -10.929688 21.460938 -10.53125 21.546875 -10.09375 C 21.628906 -9.65625 21.671875 -9.203125 21.671875 -8.734375 C 21.554688 -6.816406 20.945312 -5.3125 19.84375 -4.21875 C 18.738281 -3.125 17.28125 -2.578125 15.46875 -2.578125 Z M 21.015625 -0.875 C 21.742188 -1.34375 22.328125 -1.910156 22.765625 -2.578125 C 23.203125 -3.242188 23.582031 -3.941406 23.90625 -4.671875 C 23.289062 -3.453125 22.453125 -2.375 21.390625 -1.4375 C 20.328125 -0.507812 19.066406 0.0703125 17.609375 0.3125 C 18.160156 0.21875 18.734375 0.09375 19.328125 -0.0625 C 19.929688 -0.226562 20.492188 -0.5 21.015625 -0.875 Z M 25.171875 -9.09375 C 25.171875 -9.414062 25.113281 -9.722656 25 -10.015625 C 24.90625 -10.242188 24.832031 -10.488281 24.78125 -10.75 L 24.828125 -10.1875 C 24.847656 -9.945312 24.859375 -9.625 24.859375 -9.21875 C 24.859375 -8.4375 24.769531 -7.679688 24.59375 -6.953125 C 24.425781 -6.222656 24.210938 -5.507812 23.953125 -4.8125 C 24.210938 -5.445312 24.460938 -6.117188 24.703125 -6.828125 C 24.953125 -7.546875 25.109375 -8.300781 25.171875 -9.09375 Z M 24.78125 -10.875 C 24.78125 -10.851562 24.78125 -10.8125 24.78125 -10.75 C 24.78125 -10.8125 24.78125 -10.851562 24.78125 -10.875 Z M 17.125 -3.71875 C 17.101562 -3.71875 17.078125 -3.71875 17.046875 -3.71875 C 17.078125 -3.71875 17.101562 -3.71875 17.125 -3.71875 Z M 17.125 -3.71875 "/></g></g></g><g fill="#7c5b54" fill-opacity="1"><g transform="translate(132.84676, 218.584576)"><g><path d="M 7.21875 1.609375 C 6.976562 1.472656 6.828125 1.140625 6.765625 0.609375 C 6.710938 0.0859375 6.6875 -0.550781 6.6875 -1.3125 L 6.6875 -2.359375 L 6.296875 -2.359375 C 6.265625 -2.179688 6.195312 -1.769531 6.09375 -1.125 C 5.988281 -0.488281 5.859375 0.179688 5.703125 0.890625 C 5.546875 1.609375 5.359375 2.242188 5.140625 2.796875 C 4.921875 3.347656 4.675781 3.625 4.40625 3.625 C 4.175781 3.625 3.988281 3.316406 3.84375 2.703125 C 3.695312 2.097656 3.59375 1.394531 3.53125 0.59375 C 3.476562 -0.207031 3.441406 -1.007812 3.421875 -1.8125 C 3.410156 -2.613281 3.40625 -3.203125 3.40625 -3.578125 C 3.40625 -5.585938 3.429688 -7.578125 3.484375 -9.546875 C 3.546875 -11.515625 3.578125 -13.488281 3.578125 -15.46875 C 3.578125 -17.445312 3.414062 -19.421875 3.09375 -21.390625 C 2.78125 -23.359375 2.625 -25.304688 2.625 -27.234375 C 3.03125 -27.753906 3.414062 -28.289062 3.78125 -28.84375 C 4.144531 -29.394531 4.5 -29.960938 4.84375 -30.546875 C 5.894531 -30.804688 6.988281 -31.050781 8.125 -31.28125 C 9.257812 -31.519531 10.382812 -31.640625 11.5 -31.640625 C 14.550781 -31.640625 17.160156 -31.164062 19.328125 -30.21875 C 21.503906 -29.269531 23.273438 -27.925781 24.640625 -26.1875 C 26.015625 -24.457031 27.019531 -22.390625 27.65625 -19.984375 C 28.300781 -17.585938 28.625 -14.945312 28.625 -12.0625 C 28.625 -7.394531 27.34375 -3.929688 24.78125 -1.671875 C 22.21875 0.578125 18.632812 1.703125 14.03125 1.703125 C 13.851562 1.703125 13.570312 1.679688 13.1875 1.640625 C 12.8125 1.597656 12.550781 1.488281 12.40625 1.3125 C 13.226562 1.195312 14.171875 1.054688 15.234375 0.890625 C 16.296875 0.734375 17.363281 0.535156 18.4375 0.296875 C 19.519531 0.0664062 20.546875 -0.226562 21.515625 -0.59375 C 22.492188 -0.957031 23.304688 -1.414062 23.953125 -1.96875 C 23.078125 -1.382812 22.179688 -0.925781 21.265625 -0.59375 C 20.347656 -0.257812 19.414062 -0.00390625 18.46875 0.171875 C 17.519531 0.347656 16.550781 0.476562 15.5625 0.5625 C 14.570312 0.65625 13.582031 0.757812 12.59375 0.875 L 12.71875 0.390625 L 12.59375 0.046875 C 12.03125 0.128906 11.523438 0.210938 11.078125 0.296875 C 10.628906 0.390625 10.15625 0.4375 9.65625 0.4375 C 9.164062 0.4375 8.6875 0.378906 8.21875 0.265625 L 8.171875 1.53125 Z M 10.3125 -2.09375 C 12.320312 -2.09375 14.191406 -2.148438 15.921875 -2.265625 C 17.660156 -2.390625 19.171875 -2.769531 20.453125 -3.40625 C 21.734375 -4.050781 22.742188 -5.035156 23.484375 -6.359375 C 24.234375 -7.679688 24.609375 -9.550781 24.609375 -11.96875 C 24.609375 -13.164062 24.523438 -14.425781 24.359375 -15.75 C 24.203125 -17.082031 23.910156 -18.378906 23.484375 -19.640625 C 23.066406 -20.910156 22.492188 -22.070312 21.765625 -23.125 C 21.097656 -24.113281 20.253906 -24.925781 19.234375 -25.5625 C 20.222656 -24.894531 21.035156 -24.066406 21.671875 -23.078125 C 22.398438 -21.992188 22.960938 -20.828125 23.359375 -19.578125 C 23.753906 -18.328125 24.03125 -17.035156 24.1875 -15.703125 C 24.351562 -14.378906 24.4375 -13.125 24.4375 -11.9375 C 24.4375 -10.332031 24.289062 -9 24 -7.9375 C 23.707031 -6.875 23.296875 -6.015625 22.765625 -5.359375 C 22.242188 -4.703125 21.597656 -4.195312 20.828125 -3.84375 C 20.054688 -3.5 19.195312 -3.242188 18.25 -3.078125 C 17.300781 -2.921875 16.257812 -2.804688 15.125 -2.734375 C 13.988281 -2.660156 12.78125 -2.578125 11.5 -2.484375 C 12.519531 -2.921875 13.617188 -3.210938 14.796875 -3.359375 C 15.972656 -3.503906 17.109375 -3.691406 18.203125 -3.921875 C 19.296875 -4.160156 20.28125 -4.5625 21.15625 -5.125 C 22.03125 -5.695312 22.6875 -6.640625 23.125 -7.953125 L 23.640625 -8.125 C 23.753906 -8.707031 23.828125 -9.222656 23.859375 -9.671875 C 23.890625 -10.128906 23.90625 -10.648438 23.90625 -11.234375 C 23.90625 -13.035156 23.757812 -14.847656 23.46875 -16.671875 C 23.175781 -18.492188 22.632812 -20.140625 21.84375 -21.609375 C 21.0625 -23.078125 19.96875 -24.269531 18.5625 -25.1875 C 17.164062 -26.113281 15.378906 -26.578125 13.203125 -26.578125 C 12.378906 -26.578125 11.566406 -26.523438 10.765625 -26.421875 C 9.972656 -26.316406 9.179688 -26.175781 8.390625 -26 C 8.453125 -25.96875 8.484375 -25.925781 8.484375 -25.875 C 8.484375 -25.78125 8.46875 -25.734375 8.4375 -25.734375 C 9.976562 -26.054688 11.460938 -26.21875 12.890625 -26.21875 C 14.671875 -26.21875 16.210938 -25.90625 17.515625 -25.28125 C 18.828125 -24.65625 19.910156 -23.796875 20.765625 -22.703125 C 21.628906 -21.609375 22.273438 -20.332031 22.703125 -18.875 C 23.128906 -17.414062 23.351562 -15.859375 23.375 -14.203125 C 23.144531 -15.890625 22.828125 -17.453125 22.421875 -18.890625 C 22.015625 -20.335938 21.414062 -21.585938 20.625 -22.640625 C 19.84375 -23.691406 18.820312 -24.515625 17.5625 -25.109375 C 16.3125 -25.703125 14.726562 -26 12.8125 -26 C 12.082031 -26 11.351562 -25.984375 10.625 -25.953125 C 9.894531 -25.929688 9.179688 -25.800781 8.484375 -25.5625 C 8.628906 -23.757812 8.757812 -21.96875 8.875 -20.1875 C 8.988281 -18.414062 9.046875 -16.625 9.046875 -14.8125 C 9.046875 -12.425781 8.953125 -10.070312 8.765625 -7.75 C 8.578125 -5.4375 8.410156 -3.101562 8.265625 -0.75 C 8.554688 -1.039062 8.890625 -1.28125 9.265625 -1.46875 C 9.640625 -1.65625 9.988281 -1.863281 10.3125 -2.09375 Z M 27.75 -11.84375 C 27.75 -13.269531 27.65625 -14.710938 27.46875 -16.171875 C 27.28125 -17.628906 26.984375 -19.039062 26.578125 -20.40625 C 26.984375 -18.925781 27.265625 -17.441406 27.421875 -15.953125 C 27.578125 -14.460938 27.65625 -12.960938 27.65625 -11.453125 C 27.65625 -10.691406 27.613281 -9.921875 27.53125 -9.140625 C 27.5 -9.046875 27.484375 -8.957031 27.484375 -8.875 C 27.660156 -9.832031 27.75 -10.820312 27.75 -11.84375 Z M 23.515625 -11.671875 C 23.515625 -11.234375 23.484375 -10.8125 23.421875 -10.40625 C 23.453125 -10.570312 23.46875 -10.742188 23.46875 -10.921875 L 23.46875 -12.375 C 23.46875 -12.34375 23.46875 -12.3125 23.46875 -12.28125 C 23.5 -12.101562 23.515625 -11.898438 23.515625 -11.671875 Z M 23.46875 -12.375 C 23.46875 -12.539062 23.453125 -12.695312 23.421875 -12.84375 C 23.453125 -12.675781 23.46875 -12.519531 23.46875 -12.375 Z M 27.046875 -6.859375 C 27.109375 -7.035156 27.15625 -7.210938 27.1875 -7.390625 C 27.15625 -7.210938 27.109375 -7.035156 27.046875 -6.859375 Z M 27.046875 -6.859375 "/></g></g></g><g fill="#7c5b54" fill-opacity="1"><g transform="translate(163.224951, 218.584576)"><g><path d="M 18.09375 0.78125 C 16.988281 1.164062 16.144531 1.378906 15.5625 1.421875 C 14.976562 1.460938 14.46875 1.5 14.03125 1.53125 C 12.394531 1.53125 10.921875 1.222656 9.609375 0.609375 C 8.296875 -0.00390625 7.171875 -0.832031 6.234375 -1.875 C 5.304688 -2.925781 4.585938 -4.15625 4.078125 -5.5625 C 3.578125 -6.976562 3.328125 -8.488281 3.328125 -10.09375 C 3.328125 -11.03125 3.410156 -12 3.578125 -13 C 3.753906 -14.007812 4.015625 -15 4.359375 -15.96875 C 4.710938 -16.945312 5.164062 -17.859375 5.71875 -18.703125 C 6.25 -19.546875 6.878906 -20.304688 7.609375 -20.984375 C 6.847656 -20.367188 6.207031 -19.640625 5.6875 -18.796875 C 5.125 -17.953125 4.65625 -17.039062 4.28125 -16.0625 C 3.90625 -15.082031 3.628906 -14.078125 3.453125 -13.046875 C 3.273438 -12.015625 3.1875 -11.015625 3.1875 -10.046875 C 3.1875 -8.828125 3.382812 -7.523438 3.78125 -6.140625 C 4.175781 -4.753906 4.8125 -3.472656 5.6875 -2.296875 C 6.5625 -1.117188 7.6875 -0.140625 9.0625 0.640625 C 10.445312 1.429688 12.128906 1.828125 14.109375 1.828125 C 15.046875 1.828125 16.023438 1.695312 17.046875 1.4375 C 15.941406 2.164062 14.703125 2.53125 13.328125 2.53125 C 12.222656 2.53125 11.179688 2.363281 10.203125 2.03125 C 9.222656 1.695312 8.316406 1.226562 7.484375 0.625 C 6.660156 0.03125 5.910156 -0.671875 5.234375 -1.484375 C 4.566406 -2.296875 4.003906 -3.171875 3.546875 -4.109375 L 3.9375 -4.453125 C 3.4375 -5.441406 3.078125 -6.429688 2.859375 -7.421875 C 2.640625 -8.421875 2.53125 -9.425781 2.53125 -10.4375 C 2.53125 -11.925781 2.738281 -13.351562 3.15625 -14.71875 C 3.582031 -16.09375 4.144531 -17.394531 4.84375 -18.625 L 5.90625 -20.0625 C 6.070312 -20.382812 6.320312 -20.703125 6.65625 -21.015625 C 7 -21.335938 7.375 -21.648438 7.78125 -21.953125 C 8.1875 -22.265625 8.613281 -22.539062 9.0625 -22.78125 C 9.519531 -23.03125 9.953125 -23.257812 10.359375 -23.46875 C 11.410156 -23.988281 12.457031 -24.457031 13.5 -24.875 C 14.550781 -25.300781 15.773438 -25.617188 17.171875 -25.828125 L 17 -25.953125 C 14.320312 -25.691406 12.050781 -25.046875 10.1875 -24.015625 C 8.320312 -22.984375 6.804688 -21.722656 5.640625 -20.234375 C 4.472656 -18.742188 3.625 -17.117188 3.09375 -15.359375 C 2.570312 -13.597656 2.3125 -11.875 2.3125 -10.1875 C 2.3125 -9.28125 2.390625 -8.367188 2.546875 -7.453125 C 2.710938 -6.535156 2.957031 -5.625 3.28125 -4.71875 C 2.550781 -6.46875 2.1875 -8.316406 2.1875 -10.265625 C 2.1875 -12.191406 2.503906 -14.101562 3.140625 -16 C 3.785156 -17.894531 4.789062 -19.640625 6.15625 -21.234375 C 7.90625 -22.835938 9.8125 -24.066406 11.875 -24.921875 C 13.945312 -25.785156 15.945312 -26.21875 17.875 -26.21875 C 18.488281 -26.21875 19.113281 -26.113281 19.75 -25.90625 C 20.394531 -25.707031 20.976562 -25.394531 21.5 -24.96875 C 22.019531 -24.550781 22.445312 -24.003906 22.78125 -23.328125 C 23.125 -22.660156 23.296875 -21.847656 23.296875 -20.890625 C 23.296875 -20.097656 23.101562 -19.132812 22.71875 -18 C 22.34375 -16.863281 21.78125 -15.765625 21.03125 -14.703125 C 20.289062 -13.640625 19.367188 -12.734375 18.265625 -11.984375 C 17.160156 -11.242188 15.878906 -10.875 14.421875 -10.875 L 12.984375 -10.875 C 11.898438 -11.113281 10.914062 -11.382812 10.03125 -11.6875 C 9.144531 -12 8.304688 -12.238281 7.515625 -12.40625 C 7.398438 -11.945312 7.332031 -11.503906 7.3125 -11.078125 C 7.300781 -10.648438 7.296875 -10.234375 7.296875 -9.828125 C 7.296875 -8.984375 7.390625 -8.160156 7.578125 -7.359375 C 7.765625 -6.554688 8.0625 -5.820312 8.46875 -5.15625 C 8.882812 -4.488281 9.40625 -3.925781 10.03125 -3.46875 C 10.65625 -3.019531 11.421875 -2.738281 12.328125 -2.625 C 12.878906 -2.507812 13.359375 -2.441406 13.765625 -2.421875 C 14.171875 -2.410156 14.507812 -2.394531 14.78125 -2.375 C 15.0625 -2.363281 15.269531 -2.320312 15.40625 -2.25 C 15.539062 -2.175781 15.609375 -2.035156 15.609375 -1.828125 C 15.316406 -1.742188 15.015625 -1.6875 14.703125 -1.65625 C 14.398438 -1.625 14.085938 -1.609375 13.765625 -1.609375 C 12.742188 -1.609375 11.828125 -1.773438 11.015625 -2.109375 C 10.203125 -2.453125 9.503906 -2.84375 8.921875 -3.28125 C 9.585938 -2.601562 10.382812 -2.125 11.3125 -1.84375 C 12.25 -1.570312 13.171875 -1.4375 14.078125 -1.4375 C 14.566406 -1.4375 15.078125 -1.484375 15.609375 -1.578125 C 15.546875 -1.398438 15.515625 -1.296875 15.515625 -1.265625 C 15.515625 -1.085938 15.585938 -0.972656 15.734375 -0.921875 C 15.847656 -0.953125 16.050781 -1.03125 16.34375 -1.15625 C 16.632812 -1.289062 16.929688 -1.421875 17.234375 -1.546875 C 17.546875 -1.679688 17.847656 -1.796875 18.140625 -1.890625 C 18.429688 -1.992188 18.632812 -2.046875 18.75 -2.046875 C 18.894531 -2.046875 19.023438 -2.023438 19.140625 -1.984375 C 19.253906 -1.941406 19.3125 -1.773438 19.3125 -1.484375 C 19.3125 -1.191406 19.207031 -0.84375 19 -0.4375 C 18.800781 -0.03125 18.5 0.375 18.09375 0.78125 Z M 12.0625 -16.515625 L 13.03125 -16.34375 C 13.34375 -16.28125 13.628906 -16.25 13.890625 -16.25 C 14.179688 -16.25 14.523438 -16.34375 14.921875 -16.53125 C 15.316406 -16.726562 15.707031 -17 16.09375 -17.34375 C 16.488281 -17.695312 16.835938 -18.132812 17.140625 -18.65625 C 17.453125 -19.1875 17.679688 -19.785156 17.828125 -20.453125 L 17.921875 -20.71875 C 17.515625 -20.71875 16.898438 -20.613281 16.078125 -20.40625 C 15.265625 -20.207031 14.421875 -19.9375 13.546875 -19.59375 C 12.671875 -19.257812 11.851562 -18.867188 11.09375 -18.421875 C 10.34375 -17.972656 9.820312 -17.484375 9.53125 -16.953125 C 9.96875 -16.867188 10.394531 -16.789062 10.8125 -16.71875 C 11.238281 -16.644531 11.65625 -16.578125 12.0625 -16.515625 Z M 10.046875 -13.28125 C 10.109375 -13.34375 10.144531 -13.429688 10.15625 -13.546875 C 10.175781 -13.660156 10.1875 -13.75 10.1875 -13.8125 L 8.125 -14.546875 L 7.90625 -13.9375 Z M 8.828125 -3.359375 C 8.617188 -3.597656 8.414062 -3.832031 8.21875 -4.0625 C 8.039062 -4.269531 7.894531 -4.472656 7.78125 -4.671875 C 8.039062 -4.179688 8.390625 -3.742188 8.828125 -3.359375 Z M 8.828125 -3.359375 "/></g></g></g><g fill="#7c5b54" fill-opacity="1"><g transform="translate(188.270565, 218.584576)"><g><path d="M 5.8125 -7.03125 C 6.28125 -6.882812 6.84375 -6.625 7.5 -6.25 C 8.15625 -5.875 8.890625 -5.476562 9.703125 -5.0625 C 10.515625 -4.65625 11.410156 -4.289062 12.390625 -3.96875 C 13.367188 -3.65625 14.410156 -3.5 15.515625 -3.5 L 16 -3.5 C 16.164062 -3.5 16.367188 -3.523438 16.609375 -3.578125 L 17.09375 -3.234375 C 18.226562 -3.585938 19.160156 -4.25 19.890625 -5.21875 C 20.617188 -6.195312 20.984375 -7.515625 20.984375 -9.171875 C 20.984375 -10.367188 20.695312 -11.191406 20.125 -11.640625 C 19.550781 -12.097656 18.507812 -12.328125 17 -12.328125 C 16.070312 -12.328125 15.101562 -12.257812 14.09375 -12.125 C 13.09375 -12 12.035156 -11.9375 10.921875 -11.9375 C 10.429688 -11.9375 9.921875 -11.957031 9.390625 -12 C 8.867188 -12.039062 8.332031 -12.132812 7.78125 -12.28125 L 7.78125 -12.015625 C 8.945312 -11.722656 10.097656 -11.578125 11.234375 -11.578125 C 12.335938 -11.578125 13.390625 -11.640625 14.390625 -11.765625 C 15.398438 -11.898438 16.375 -11.96875 17.3125 -11.96875 C 18.09375 -11.96875 18.707031 -11.890625 19.15625 -11.734375 C 19.613281 -11.578125 19.957031 -11.363281 20.1875 -11.09375 C 20.425781 -10.832031 20.582031 -10.519531 20.65625 -10.15625 C 20.726562 -9.789062 20.765625 -9.390625 20.765625 -8.953125 C 20.765625 -7.585938 20.398438 -6.425781 19.671875 -5.46875 C 18.972656 -4.5625 18.140625 -3.992188 17.171875 -3.765625 C 18.253906 -4.140625 19.097656 -4.789062 19.703125 -5.71875 C 20.347656 -6.71875 20.671875 -7.828125 20.671875 -9.046875 C 20.671875 -9.921875 20.441406 -10.585938 19.984375 -11.046875 C 19.535156 -11.515625 18.757812 -11.75 17.65625 -11.75 C 16.75 -11.75 15.726562 -11.691406 14.59375 -11.578125 C 13.457031 -11.460938 12.25 -11.40625 10.96875 -11.40625 C 10.1875 -11.40625 9.273438 -11.503906 8.234375 -11.703125 C 7.203125 -11.910156 6.21875 -12.289062 5.28125 -12.84375 C 4.351562 -13.394531 3.566406 -14.160156 2.921875 -15.140625 C 2.285156 -16.117188 1.96875 -17.394531 1.96875 -18.96875 C 1.96875 -20.21875 2.222656 -21.375 2.734375 -22.4375 C 3.242188 -23.5 3.921875 -24.429688 4.765625 -25.234375 C 5.609375 -26.035156 6.578125 -26.671875 7.671875 -27.140625 C 8.765625 -27.609375 9.894531 -27.851562 11.0625 -27.875 C 12.164062 -27.875 13.21875 -27.722656 14.21875 -27.421875 C 15.226562 -27.117188 16.179688 -26.722656 17.078125 -26.234375 C 17.984375 -25.753906 18.84375 -25.222656 19.65625 -24.640625 C 20.476562 -24.066406 21.238281 -23.488281 21.9375 -22.90625 L 21.0625 -22.03125 C 20.863281 -22.03125 20.554688 -22.148438 20.140625 -22.390625 C 19.734375 -22.640625 19.109375 -23.070312 18.265625 -23.6875 L 18 -23.296875 C 19.050781 -22.453125 19.816406 -21.664062 20.296875 -20.9375 C 20.773438 -20.207031 21.015625 -19.640625 21.015625 -19.234375 C 20.960938 -18.992188 20.816406 -18.875 20.578125 -18.875 C 20.347656 -18.875 19.882812 -19.0625 19.1875 -19.4375 C 18.488281 -19.820312 17.691406 -20.25 16.796875 -20.71875 C 15.910156 -21.1875 14.972656 -21.609375 13.984375 -21.984375 C 12.992188 -22.359375 12.09375 -22.546875 11.28125 -22.546875 C 10.8125 -22.546875 10.34375 -22.457031 9.875 -22.28125 C 9.40625 -22.113281 8.984375 -21.875 8.609375 -21.5625 C 8.234375 -21.257812 7.921875 -20.890625 7.671875 -20.453125 C 7.421875 -20.015625 7.296875 -19.535156 7.296875 -19.015625 C 7.296875 -18.171875 7.6875 -17.601562 8.46875 -17.3125 C 9.257812 -17.019531 10.296875 -16.875 11.578125 -16.875 C 11.835938 -16.875 12.117188 -16.878906 12.421875 -16.890625 C 12.734375 -16.898438 13.019531 -16.9375 13.28125 -17 C 13.957031 -17 14.40625 -17.019531 14.625 -17.0625 C 14.84375 -17.101562 15.050781 -17.125 15.25 -17.125 C 16.5 -17.125 17.75 -17.035156 19 -16.859375 C 20.257812 -16.691406 21.382812 -16.316406 22.375 -15.734375 C 23.363281 -15.148438 24.164062 -14.316406 24.78125 -13.234375 C 25.394531 -12.160156 25.703125 -10.722656 25.703125 -8.921875 C 25.703125 -7.660156 25.488281 -6.410156 25.0625 -5.171875 C 24.644531 -3.941406 24.007812 -2.835938 23.15625 -1.859375 C 22.3125 -0.878906 21.265625 -0.09375 20.015625 0.5 C 18.765625 1.101562 17.296875 1.40625 15.609375 1.40625 C 14.585938 1.40625 13.382812 1.207031 12 0.8125 C 10.613281 0.414062 9.300781 -0.0507812 8.0625 -0.59375 C 6.820312 -1.132812 5.769531 -1.691406 4.90625 -2.265625 C 4.050781 -2.847656 3.625 -3.347656 3.625 -3.765625 C 3.625 -3.878906 3.695312 -3.960938 3.84375 -4.015625 C 5.625 -2.703125 7.429688 -1.625 9.265625 -0.78125 C 11.066406 0 12.914062 0.4375 14.8125 0.53125 C 13.882812 0.46875 12.953125 0.304688 12.015625 0.046875 C 11.054688 -0.242188 10.101562 -0.597656 9.15625 -1.015625 C 8.207031 -1.441406 7.300781 -1.925781 6.4375 -2.46875 C 5.582031 -3.007812 4.765625 -3.554688 3.984375 -4.109375 L 4.625 -4.671875 C 4.539062 -4.703125 4.378906 -4.804688 4.140625 -4.984375 C 3.910156 -5.160156 3.6875 -5.378906 3.46875 -5.640625 C 3.25 -5.898438 3.050781 -6.175781 2.875 -6.46875 C 2.707031 -6.757812 2.625 -7.035156 2.625 -7.296875 C 2.625 -7.585938 2.679688 -7.773438 2.796875 -7.859375 C 2.910156 -7.953125 3.039062 -8 3.1875 -8 C 3.332031 -8 3.640625 -7.894531 4.109375 -7.6875 C 4.578125 -7.488281 5.144531 -7.269531 5.8125 -7.03125 Z M 15.46875 -2.578125 C 14.445312 -2.578125 13.316406 -2.785156 12.078125 -3.203125 C 10.835938 -3.628906 9.664062 -4.175781 8.5625 -4.84375 C 9.46875 -4.238281 10.472656 -3.691406 11.578125 -3.203125 C 12.679688 -2.722656 13.960938 -2.484375 15.421875 -2.484375 C 17.378906 -2.484375 18.929688 -3.082031 20.078125 -4.28125 C 21.234375 -5.476562 21.8125 -7.082031 21.8125 -9.09375 L 21.8125 -9.53125 C 21.664062 -10.457031 21.347656 -11.21875 20.859375 -11.8125 C 20.378906 -12.414062 19.644531 -12.75 18.65625 -12.8125 C 19.269531 -12.6875 19.773438 -12.492188 20.171875 -12.234375 C 20.566406 -11.972656 20.875 -11.660156 21.09375 -11.296875 C 21.3125 -10.929688 21.460938 -10.53125 21.546875 -10.09375 C 21.628906 -9.65625 21.671875 -9.203125 21.671875 -8.734375 C 21.554688 -6.816406 20.945312 -5.3125 19.84375 -4.21875 C 18.738281 -3.125 17.28125 -2.578125 15.46875 -2.578125 Z M 21.015625 -0.875 C 21.742188 -1.34375 22.328125 -1.910156 22.765625 -2.578125 C 23.203125 -3.242188 23.582031 -3.941406 23.90625 -4.671875 C 23.289062 -3.453125 22.453125 -2.375 21.390625 -1.4375 C 20.328125 -0.507812 19.066406 0.0703125 17.609375 0.3125 C 18.160156 0.21875 18.734375 0.09375 19.328125 -0.0625 C 19.929688 -0.226562 20.492188 -0.5 21.015625 -0.875 Z M 25.171875 -9.09375 C 25.171875 -9.414062 25.113281 -9.722656 25 -10.015625 C 24.90625 -10.242188 24.832031 -10.488281 24.78125 -10.75 L 24.828125 -10.1875 C 24.847656 -9.945312 24.859375 -9.625 24.859375 -9.21875 C 24.859375 -8.4375 24.769531 -7.679688 24.59375 -6.953125 C 24.425781 -6.222656 24.210938 -5.507812 23.953125 -4.8125 C 24.210938 -5.445312 24.460938 -6.117188 24.703125 -6.828125 C 24.953125 -7.546875 25.109375 -8.300781 25.171875 -9.09375 Z M 24.78125 -10.875 C 24.78125 -10.851562 24.78125 -10.8125 24.78125 -10.75 C 24.78125 -10.8125 24.78125 -10.851562 24.78125 -10.875 Z M 17.125 -3.71875 C 17.101562 -3.71875 17.078125 -3.71875 17.046875 -3.71875 C 17.078125 -3.71875 17.101562 -3.71875 17.125 -3.71875 Z M 17.125 -3.71875 "/></g></g></g><g fill="#7c5b54" fill-opacity="1"><g transform="translate(216.375867, 218.584576)"><g><path d="M 20.671875 0.125 C 20.460938 -0.625 20.15625 -1.410156 19.75 -2.234375 C 19.375 -3.046875 18.9375 -3.859375 18.4375 -4.671875 C 18.90625 -3.859375 19.285156 -3.03125 19.578125 -2.1875 C 19.898438 -1.34375 20.117188 -0.523438 20.234375 0.265625 C 19.910156 -0.0859375 19.609375 -0.503906 19.328125 -0.984375 C 19.054688 -1.460938 18.773438 -1.972656 18.484375 -2.515625 C 18.191406 -3.054688 17.890625 -3.601562 17.578125 -4.15625 C 17.273438 -4.707031 16.953125 -5.226562 16.609375 -5.71875 C 16.785156 -5.894531 16.914062 -5.984375 17 -5.984375 C 15.800781 -7.378906 14.503906 -8.675781 13.109375 -9.875 C 11.710938 -11.070312 10.082031 -11.90625 8.21875 -12.375 L 8.21875 -11.625 C 9.0625 -11.445312 9.960938 -11.140625 10.921875 -10.703125 C 10.078125 -11.054688 9.203125 -11.289062 8.296875 -11.40625 C 8.242188 -10.5625 8.1875 -9.738281 8.125 -8.9375 C 8.070312 -8.132812 7.984375 -7.351562 7.859375 -6.59375 C 7.859375 -6.132812 7.875 -5.601562 7.90625 -5 C 7.9375 -4.40625 7.953125 -3.816406 7.953125 -3.234375 C 7.953125 -1.597656 7.734375 -0.78125 7.296875 -0.78125 C 7.242188 -0.78125 7.15625 -0.8125 7.03125 -0.875 C 7.0625 -1.34375 7.078125 -1.796875 7.078125 -2.234375 L 7.078125 -6.46875 C 7.023438 -5.5625 6.984375 -4.648438 6.953125 -3.734375 C 6.921875 -2.816406 6.847656 -1.921875 6.734375 -1.046875 C 6.410156 -0.847656 6.195312 -0.625 6.09375 -0.375 C 5.988281 -0.125 5.898438 0.0976562 5.828125 0.296875 C 5.753906 0.503906 5.648438 0.671875 5.515625 0.796875 C 5.390625 0.929688 5.15625 1 4.8125 1 C 4.488281 1 4.21875 0.859375 4 0.578125 C 3.78125 0.304688 3.566406 -0.03125 3.359375 -0.4375 L 3.5 -0.875 C 3.644531 -1.71875 3.738281 -2.582031 3.78125 -3.46875 C 3.820312 -4.363281 3.84375 -5.257812 3.84375 -6.15625 C 3.84375 -7.820312 3.878906 -9.410156 3.953125 -10.921875 C 4.023438 -12.441406 4.117188 -13.988281 4.234375 -15.5625 C 4.234375 -16.289062 4.226562 -17.003906 4.21875 -17.703125 C 4.207031 -18.398438 4.203125 -19.082031 4.203125 -19.75 L 3.765625 -10.359375 C 3.617188 -8.753906 3.546875 -7.128906 3.546875 -5.484375 C 3.546875 -3.835938 3.398438 -2.359375 3.109375 -1.046875 C 2.960938 -1.335938 2.851562 -1.632812 2.78125 -1.9375 C 2.707031 -2.25 2.671875 -2.625 2.671875 -3.0625 C 2.671875 -3.613281 2.660156 -4.113281 2.640625 -4.5625 C 2.628906 -5.019531 2.625 -5.492188 2.625 -5.984375 C 2.625 -6.335938 2.628906 -6.71875 2.640625 -7.125 C 2.660156 -7.53125 2.679688 -7.984375 2.703125 -8.484375 L 3.359375 -9.359375 C 3.335938 -9.765625 3.328125 -10.15625 3.328125 -10.53125 L 3.328125 -11.75 C 3.328125 -13.269531 3.351562 -14.78125 3.40625 -16.28125 C 3.46875 -17.78125 3.5 -19.300781 3.5 -20.84375 L 3.5 -22.03125 C 3.5 -22.375 3.484375 -22.707031 3.453125 -23.03125 C 3.421875 -23.351562 3.390625 -23.695312 3.359375 -24.0625 C 3.335938 -24.425781 3.296875 -24.828125 3.234375 -25.265625 L 3.109375 -25.265625 C 3.109375 -24.765625 3.113281 -24.3125 3.125 -23.90625 C 3.132812 -23.5 3.144531 -23.097656 3.15625 -22.703125 C 3.175781 -22.304688 3.1875 -21.90625 3.1875 -21.5 L 3.1875 -20.1875 C 3.1875 -16.632812 3.054688 -13.066406 2.796875 -9.484375 C 2.859375 -10.765625 2.898438 -12.023438 2.921875 -13.265625 C 2.953125 -14.503906 2.96875 -15.75 2.96875 -17 C 2.96875 -18.3125 2.953125 -19.578125 2.921875 -20.796875 C 2.898438 -22.023438 2.878906 -23.242188 2.859375 -24.453125 C 2.847656 -25.660156 2.828125 -26.890625 2.796875 -28.140625 C 2.765625 -29.398438 2.75 -30.710938 2.75 -32.078125 C 2.75 -32.835938 2.773438 -33.519531 2.828125 -34.125 C 2.890625 -34.738281 2.972656 -35.34375 3.078125 -35.9375 C 3.179688 -36.539062 3.285156 -37.160156 3.390625 -37.796875 C 3.492188 -38.441406 3.585938 -39.1875 3.671875 -40.03125 L 4.625 -39.984375 C 4.800781 -39.984375 4.953125 -39.914062 5.078125 -39.78125 C 5.210938 -39.65625 5.28125 -39.375 5.28125 -38.9375 C 5.28125 -38.789062 5.273438 -38.644531 5.265625 -38.5 C 5.253906 -38.351562 5.234375 -38.179688 5.203125 -37.984375 L 5.640625 -37.984375 C 5.867188 -38.859375 6.164062 -39.535156 6.53125 -40.015625 C 6.894531 -40.492188 7.238281 -40.734375 7.5625 -40.734375 C 7.96875 -40.734375 8.25 -40.359375 8.40625 -39.609375 C 8.570312 -38.867188 8.65625 -37.800781 8.65625 -36.40625 C 8.65625 -35.851562 8.644531 -35.359375 8.625 -34.921875 C 8.613281 -34.484375 8.59375 -34.046875 8.5625 -33.609375 C 8.53125 -33.171875 8.507812 -32.710938 8.5 -32.234375 C 8.488281 -31.753906 8.484375 -31.207031 8.484375 -30.59375 C 8.484375 -29.832031 8.492188 -29.117188 8.515625 -28.453125 C 8.546875 -27.785156 8.582031 -27.128906 8.625 -26.484375 C 8.675781 -25.835938 8.710938 -25.1875 8.734375 -24.53125 C 8.765625 -23.882812 8.78125 -23.195312 8.78125 -22.46875 L 8.78125 -16.078125 C 9.6875 -16.460938 10.632812 -17.078125 11.625 -17.921875 C 12.613281 -18.765625 13.546875 -19.679688 14.421875 -20.671875 C 15.296875 -21.660156 16.066406 -22.648438 16.734375 -23.640625 C 17.410156 -24.628906 17.878906 -25.460938 18.140625 -26.140625 C 18.222656 -26.015625 18.335938 -25.941406 18.484375 -25.921875 L 18.921875 -25.828125 C 19.066406 -25.796875 19.195312 -25.742188 19.3125 -25.671875 C 19.425781 -25.597656 19.484375 -25.472656 19.484375 -25.296875 C 19.484375 -25.148438 19.445312 -24.96875 19.375 -24.75 C 19.300781 -24.539062 19.164062 -24.273438 18.96875 -23.953125 L 19.40625 -23.640625 C 19.875 -24.285156 20.335938 -24.800781 20.796875 -25.1875 C 21.265625 -25.582031 21.660156 -25.78125 21.984375 -25.78125 C 22.421875 -25.78125 22.640625 -25.414062 22.640625 -24.6875 C 22.640625 -23.726562 22.410156 -22.773438 21.953125 -21.828125 C 21.503906 -20.878906 20.929688 -19.988281 20.234375 -19.15625 C 19.535156 -18.332031 18.738281 -17.554688 17.84375 -16.828125 C 16.957031 -16.097656 16.078125 -15.472656 15.203125 -14.953125 C 16.773438 -13.867188 18.144531 -12.59375 19.3125 -11.125 C 20.476562 -9.65625 21.394531 -8.144531 22.0625 -6.59375 C 22.238281 -6.300781 22.457031 -5.953125 22.71875 -5.546875 C 22.988281 -5.140625 23.253906 -4.71875 23.515625 -4.28125 C 23.773438 -3.84375 24 -3.410156 24.1875 -2.984375 C 24.375 -2.566406 24.46875 -2.210938 24.46875 -1.921875 C 24.46875 -1.546875 24.410156 -1.328125 24.296875 -1.265625 C 24.179688 -1.210938 24.050781 -1.1875 23.90625 -1.1875 C 23.5 -2.34375 23.003906 -3.40625 22.421875 -4.375 C 21.898438 -5.269531 21.375 -6.15625 20.84375 -7.03125 C 21.34375 -6.132812 21.835938 -5.25 22.328125 -4.375 C 22.859375 -3.40625 23.28125 -2.34375 23.59375 -1.1875 C 23.445312 -1.1875 23.316406 -1.171875 23.203125 -1.140625 C 23.085938 -1.109375 22.988281 -1.019531 22.90625 -0.875 C 22.925781 -0.726562 22.953125 -0.597656 22.984375 -0.484375 C 23.046875 -0.222656 23.117188 -0.0195312 23.203125 0.125 C 23.085938 0.59375 22.941406 0.90625 22.765625 1.0625 C 22.585938 1.226562 22.398438 1.3125 22.203125 1.3125 C 21.960938 1.3125 21.675781 1.21875 21.34375 1.03125 C 21.007812 0.84375 20.785156 0.6875 20.671875 0.5625 Z M 13.71875 -10.265625 C 14.738281 -9.421875 15.6875 -8.472656 16.5625 -7.421875 L 16.171875 -8.046875 C 15.523438 -9.066406 14.679688 -9.925781 13.640625 -10.625 C 12.648438 -11.289062 11.644531 -11.785156 10.625 -12.109375 C 11.695312 -11.703125 12.726562 -11.085938 13.71875 -10.265625 Z M 19.015625 -9.921875 C 18.515625 -10.828125 17.898438 -11.570312 17.171875 -12.15625 C 16.503906 -12.707031 15.804688 -13.257812 15.078125 -13.8125 C 15.710938 -13.257812 16.367188 -12.660156 17.046875 -12.015625 C 17.742188 -11.347656 18.398438 -10.648438 19.015625 -9.921875 Z M 15.6875 -6.859375 C 15.132812 -7.503906 14.460938 -8.164062 13.671875 -8.84375 C 12.890625 -9.53125 12.148438 -10.0625 11.453125 -10.4375 C 12.179688 -10.09375 12.914062 -9.632812 13.65625 -9.0625 C 14.394531 -8.5 15.070312 -7.765625 15.6875 -6.859375 Z M 15.6875 -6.859375 "/></g></g></g></svg>