<svg xmlns="http://www.w3.org/2000/svg" xmlns:xlink="http://www.w3.org/1999/xlink" width="500" zoomAndPan="magnify" viewBox="0 0 375 374.999991" height="500" preserveAspectRatio="xMidYMid meet" version="1.0"><path fill="#9d786c" d="M 278.46875 55.707031 C 281.8125 55.707031 285.160156 55.769531 288.507812 55.921875 C 293.425781 55.695312 298.566406 55.976562 303.429688 56.472656 C 304.445312 56.515625 305.492188 56.785156 306.410156 57.261719 C 306.691406 57.230469 306.992188 57.230469 307.273438 57.238281 C 307.488281 57.28125 307.683594 57.371094 307.84375 57.511719 C 307.855469 57.511719 307.878906 57.511719 307.890625 57.53125 C 308.050781 57.585938 308.179688 57.738281 308.265625 57.941406 C 308.535156 58.339844 308.71875 58.839844 308.894531 59.257812 C 309.84375 62.691406 309.949219 66.417969 310.144531 69.894531 C 310.144531 69.894531 310.15625 69.917969 310.144531 69.929688 C 310.835938 74.691406 311.363281 79.476562 311.71875 84.28125 C 318.03125 83.609375 325.253906 83.4375 326.320312 83.308594 C 333.1875 82.996094 339.824219 83.871094 346.664062 83.988281 C 356.34375 84.324219 371.832031 85.996094 376.601562 95.089844 C 388.332031 108.621094 384.425781 158.847656 383.152344 174.582031 C 382.105469 186.074219 381.683594 216.773438 372.167969 227.726562 C 371.171875 229.335938 370.039062 230.847656 368.734375 232.226562 C 358.613281 241.351562 343.71875 242.410156 330.703125 242.820312 C 320.601562 242.367188 310.457031 242.21875 300.355469 241.492188 C 298.628906 247.550781 296.6875 253.554688 294.582031 259.496094 C 293.601562 262.152344 292.175781 265.984375 290.40625 270.207031 C 289.414062 272.832031 288.429688 275.445312 286.996094 277.84375 C 286.898438 278.027344 286.789062 278.222656 286.679688 278.40625 C 283.410156 285.035156 279.472656 291.484375 275.167969 295.199219 C 260.4375 312.671875 239.855469 325.5 217.902344 331.027344 L 217.828125 331.027344 C 204.628906 335.003906 190.644531 336.429688 176.914062 336.351562 C 163.664062 336.417969 150.742188 333.425781 137.601562 332.832031 C 118.367188 330.652344 97.851562 328.75 81.859375 317.128906 C 70.441406 310.824219 60.199219 302.207031 51.921875 292.433594 C 36.683594 272.390625 26.546875 248.449219 22.976562 223.523438 C 20.3125 193.558594 21.789062 163.382812 21.605469 133.40625 C 21.5625 115.988281 22.511719 98.480469 22.628906 81.0625 C 23.289062 75.253906 22.230469 69.03125 24.066406 63.480469 C 24.519531 62.605469 25.144531 61.679688 26.050781 61.289062 C 26.839844 61.914062 27.316406 62.867188 27.542969 63.847656 C 27.671875 63.847656 27.800781 63.847656 27.910156 63.871094 C 29.871094 64.03125 31.824219 64.109375 33.8125 64.140625 C 49.761719 63.15625 65.671875 63.6875 81.652344 63.835938 C 103.886719 63.382812 126.019531 62.789062 148.242188 62.109375 C 172.457031 60.847656 196.699219 60.199219 220.882812 58.523438 C 239.886719 57.660156 258.925781 55.683594 277.941406 55.683594 L 278.46875 55.683594 Z M 306.605469 212.519531 C 306.984375 209.746094 307.304688 206.957031 307.554688 204.160156 C 308.503906 188.285156 308.859375 172.304688 309.183594 156.34375 C 310.890625 143.699219 310.878906 130.652344 311.351562 117.800781 C 324.820312 116.570312 340.964844 112.402344 348.8125 125.273438 C 351.574219 130.683594 350.929688 137.066406 352.394531 142.867188 C 352.40625 142.898438 352.40625 142.929688 352.417969 142.953125 C 352.480469 143.609375 352.535156 144.257812 352.558594 144.90625 C 351.921875 165.316406 358.289062 197.746094 337.339844 209.777344 C 328.609375 213.265625 318.765625 212.507812 309.527344 212.28125 C 308.558594 212.378906 307.574219 212.464844 306.605469 212.519531 Z M 306.605469 212.519531 " fill-opacity="1" fill-rule="evenodd"/><path fill="#f89998" d="M 308.417969 54.800781 C 310.671875 60.242188 310.800781 66.722656 306.980469 71.515625 C 305.265625 73.601562 303.148438 76.105469 300.398438 76.3125 C 295.101562 80.15625 288.6875 83.0625 282.765625 85.632812 C 268.886719 90.695312 254.292969 92.855469 239.789062 94.722656 C 211.265625 99.894531 182.320312 102.953125 153.289062 102.175781 C 134.933594 102.035156 116.523438 101.417969 98.292969 99.347656 C 97.679688 99.292969 97.054688 99.25 96.425781 99.183594 C 96.007812 99.183594 95.574219 99.140625 95.230469 99.183594 C 78.132812 99.367188 33.800781 91.515625 25.511719 72.316406 C 17.40625 61.320312 29.363281 47.976562 39.691406 43.203125 C 72.308594 28.664062 108.375 23.871094 143.78125 22.433594 C 145.800781 22.335938 147.828125 22.328125 149.847656 22.359375 C 175.273438 19.898438 200.960938 21.269531 226.300781 24.679688 C 237.761719 26.441406 259.765625 29.152344 276.355469 34.941406 C 284.71875 36.277344 292.972656 39.582031 299.546875 44.90625 C 300.917969 46.226562 302.988281 47.800781 304.335938 49.605469 C 304.347656 49.605469 304.347656 49.617188 304.359375 49.625 C 306.097656 50.945312 307.605469 52.671875 308.382812 54.722656 L 308.394531 54.734375 C 308.394531 54.757812 308.40625 54.777344 308.417969 54.800781 " fill-opacity="1" fill-rule="nonzero"/><path fill="#ffdbd9" d="M 40.609375 86.417969 C 40.675781 86.34375 40.75 86.257812 40.816406 86.171875 C 40.824219 86.148438 40.835938 86.136719 40.859375 86.128906 C 41.289062 85.535156 41.742188 84.992188 42.238281 84.507812 C 43.878906 82.695312 45.648438 81.007812 47.527344 79.464844 C 50.019531 76.871094 52.878906 74.636719 55.933594 72.867188 C 90.792969 50.058594 141.050781 43.6875 184.308594 48.199219 C 189.054688 47.910156 193.804688 49.367188 198.53125 50.15625 C 219.941406 53.265625 241.324219 57.46875 261.621094 65.21875 C 272.714844 68.890625 283.574219 73.644531 292.746094 80.964844 C 289.457031 82.695312 286.035156 84.214844 282.765625 85.628906 C 268.886719 90.695312 254.292969 92.855469 239.789062 94.722656 C 211.265625 99.894531 182.320312 102.953125 153.289062 102.175781 C 134.933594 102.035156 116.523438 101.417969 98.292969 99.347656 C 97.679688 99.292969 97.054688 99.25 96.425781 99.183594 C 96.007812 99.183594 95.574219 99.140625 95.230469 99.183594 C 83.175781 99.3125 57.5625 95.445312 40.609375 86.417969 Z M 40.609375 86.417969 " fill-opacity="1" fill-rule="nonzero"/><path fill="#ffdfab" d="M 185.914062 307.238281 C 182.679688 307.5 181.414062 303.285156 184.222656 301.699219 C 186.648438 300.132812 196.242188 298.4375 194.472656 303.738281 C 192.703125 306.351562 188.914062 307.238281 185.914062 307.238281 Z M 210.035156 300.910156 C 208.535156 300.847656 206.863281 300.984375 205.492188 300.695312 C 208.492188 297.789062 213.058594 297.023438 216.738281 295.8125 C 232.863281 288.199219 248.015625 277.464844 259.53125 263.816406 C 273.085938 247.574219 278.738281 226.539062 284.234375 206.527344 C 284.425781 205.683594 284.871094 204.851562 284.695312 203.988281 C 284.632812 203.277344 285.636719 202.824219 286.089844 203.4375 C 286.542969 204.34375 286.207031 205.683594 286.292969 206.613281 C 284.136719 232 275.859375 258.601562 257.296875 276.742188 C 244.9375 287.683594 226.773438 299.917969 210.035156 300.910156 Z M 128.953125 -1.0625 C 123.980469 -17.921875 139.457031 -25.859375 140.40625 -41.269531 C 141.550781 -57.976562 128.75 -69.832031 118.28125 -81.03125 C 112.378906 -87.628906 103.441406 -95.328125 105.15625 -105.082031 C 105.621094 -108.851562 110.402344 -130.179688 115.722656 -126.539062 C 116.046875 -126.117188 116.078125 -125.511719 115.746094 -125.070312 C 114.34375 -124.132812 113.824219 -122.433594 113.21875 -120.914062 C 109.734375 -110.546875 109.765625 -100.816406 118.109375 -92.898438 C 130.402344 -79.519531 145.5 -65.675781 145.972656 -46.269531 C 146.578125 -37.804688 144.0625 -29.121094 139.542969 -21.980469 C 134.945312 -15.285156 131.070312 -8.765625 128.988281 -1.042969 C 128.988281 -1.042969 128.953125 -1.054688 128.953125 -1.066406 Z M 210.609375 -6.3125 C 210.714844 -13.570312 213.035156 -20.285156 214.222656 -27.261719 C 214.277344 -33.203125 212.898438 -39.660156 208.902344 -44.238281 C 184.859375 -66.679688 179.203125 -93.117188 195.695312 -122.046875 C 196.417969 -123.234375 197.269531 -125.082031 198.921875 -125.015625 C 200.410156 -124.953125 201.175781 -123.191406 200.128906 -122.070312 C 196.363281 -115.394531 194.699219 -107.296875 194.410156 -99.875 C 192.8125 -81.464844 204.164062 -64.898438 215.984375 -51.84375 C 227.410156 -37.792969 222.609375 -17.964844 210.609375 -6.3125 Z M 210.609375 -6.3125 " fill-opacity="1" fill-rule="nonzero"/></svg>