<svg xmlns="http://www.w3.org/2000/svg" xmlns:xlink="http://www.w3.org/1999/xlink" width="300" zoomAndPan="magnify" viewBox="0 0 224.87999 374.999991" height="500" preserveAspectRatio="xMidYMid meet" version="1.0"><defs><clipPath id="28fb2d78d3"><path d="M 27.171875 156 L 196 156 L 196 374.898438 L 27.171875 374.898438 Z M 27.171875 156 " clip-rule="nonzero"/></clipPath><clipPath id="75ee93b168"><path d="M 27.171875 142 L 196 142 L 196 174 L 27.171875 174 Z M 27.171875 142 " clip-rule="nonzero"/></clipPath><clipPath id="8a99201a62"><path d="M 27.171875 314 L 196 314 L 196 374.898438 L 27.171875 374.898438 Z M 27.171875 314 " clip-rule="nonzero"/></clipPath><clipPath id="91fa17d6a8"><path d="M 119 0.101562 L 202.578125 0.101562 L 202.578125 174 L 119 174 Z M 119 0.101562 " clip-rule="nonzero"/></clipPath></defs><path fill="#ccd5b1" d="M 28.234375 157.652344 L 28.234375 358.402344 L 28.378906 358.402344 C 28.285156 358.683594 28.234375 358.972656 28.234375 359.261719 C 28.234375 367.347656 65.554688 373.90625 111.589844 373.90625 C 157.628906 373.90625 194.949219 367.347656 194.949219 359.261719 C 194.949219 358.972656 194.898438 358.683594 194.804688 358.402344 L 194.949219 358.402344 L 194.949219 157.652344 Z M 91.40625 171.867188 C 97.871094 172.148438 104.628906 172.300781 111.589844 172.300781 C 114.003906 172.300781 116.390625 172.28125 118.75 172.246094 Z M 58.890625 169 C 67.234375 170.199219 76.925781 171.117188 87.503906 171.679688 Z M 120.261719 172.21875 C 152.675781 171.632812 179.574219 167.78125 190.140625 162.566406 " fill-opacity="1" fill-rule="nonzero"/><g clip-path="url(#28fb2d78d3)"><path fill="#a57d71" d="M 111.589844 374.902344 C 89.269531 374.902344 68.277344 373.375 52.476562 370.597656 C 35.894531 367.6875 27.40625 363.917969 27.238281 359.398438 L 27.234375 359.398438 L 27.234375 156.65625 L 195.949219 156.65625 L 195.949219 359.398438 C 195.777344 363.917969 187.289062 367.6875 170.707031 370.597656 C 154.90625 373.375 133.914062 374.902344 111.589844 374.902344 Z M 29.234375 357.402344 L 29.761719 357.402344 L 29.324219 358.714844 C 29.261719 358.898438 29.230469 359.085938 29.230469 359.261719 C 29.230469 361.789062 35.429688 365.578125 52.820312 368.632812 C 68.507812 371.390625 89.382812 372.90625 111.589844 372.90625 C 133.796875 372.90625 154.671875 371.390625 170.359375 368.632812 C 187.753906 365.578125 193.949219 361.789062 193.949219 359.261719 C 193.949219 359.085938 193.917969 358.902344 193.855469 358.714844 L 193.421875 357.402344 L 193.949219 357.402344 L 193.949219 158.652344 L 29.234375 158.652344 Z M 111.589844 173.296875 C 104.738281 173.296875 97.929688 173.152344 91.363281 172.863281 L 91.417969 170.871094 L 118.761719 171.25 L 118.761719 173.246094 C 116.414062 173.28125 114 173.300781 111.589844 173.300781 Z M 120.28125 173.21875 L 120.242188 171.222656 C 151.835938 170.648438 179.101562 166.902344 189.699219 161.671875 L 190.582031 163.464844 C 179.742188 168.8125 152.148438 172.644531 120.28125 173.21875 Z M 87.449219 172.675781 C 76.949219 172.117188 67.292969 171.214844 58.746094 169.988281 L 58.984375 168.007812 L 87.59375 170.683594 Z M 87.449219 172.675781 " fill-opacity="1" fill-rule="nonzero"/></g><path fill="#ccd5b1" d="M 194.949219 157.652344 C 194.949219 159.378906 193.253906 161.03125 190.140625 162.566406 C 179.574219 167.78125 152.675781 171.632812 120.261719 172.21875 C 119.757812 172.230469 119.253906 172.238281 118.75 172.246094 C 116.390625 172.28125 114.003906 172.300781 111.589844 172.300781 C 104.628906 172.300781 97.871094 172.148438 91.40625 171.867188 C 90.09375 171.808594 88.789062 171.746094 87.503906 171.679688 C 76.925781 171.117188 67.234375 170.199219 58.890625 169 C 40.179688 166.316406 28.234375 162.226562 28.234375 157.652344 C 28.234375 153.488281 38.121094 149.734375 53.992188 147.0625 C 61.804688 145.753906 71.070312 144.703125 81.324219 144 C 84.585938 143.777344 87.953125 143.589844 91.40625 143.4375 C 97.871094 143.15625 104.628906 143.003906 111.589844 143.003906 C 114.003906 143.003906 116.390625 143.023438 118.75 143.058594 C 119.960938 143.078125 121.167969 143.101562 122.363281 143.128906 C 154.554688 143.855469 180.992188 147.8125 190.824219 153.089844 C 193.503906 154.527344 194.949219 156.058594 194.949219 157.652344 Z M 194.949219 157.652344 " fill-opacity="1" fill-rule="nonzero"/><g clip-path="url(#75ee93b168)"><path fill="#a57d71" d="M 111.589844 173.296875 C 104.738281 173.296875 97.929688 173.152344 91.363281 172.863281 C 89.953125 172.804688 88.675781 172.742188 87.449219 172.675781 C 76.953125 172.121094 67.296875 171.214844 58.75 169.992188 C 44.371094 167.925781 27.234375 164.109375 27.234375 157.652344 C 27.234375 155.136719 29.707031 152.917969 34.785156 150.871094 C 39.292969 149.058594 45.695312 147.445312 53.824219 146.078125 C 61.820312 144.738281 71.050781 143.703125 81.253906 143.003906 C 84.578125 142.777344 87.976562 142.589844 91.363281 142.441406 C 97.929688 142.152344 104.738281 142.007812 111.589844 142.007812 C 113.996094 142.007812 116.410156 142.027344 118.765625 142.0625 C 120.0625 142.082031 121.246094 142.105469 122.386719 142.128906 C 154.179688 142.851562 181.226562 146.804688 191.300781 152.210938 C 194.382812 153.867188 195.949219 155.695312 195.949219 157.652344 C 195.949219 159.75 194.140625 161.703125 190.582031 163.460938 C 179.738281 168.808594 152.144531 172.636719 120.28125 173.214844 C 119.777344 173.222656 119.273438 173.230469 118.765625 173.238281 C 116.414062 173.277344 114 173.292969 111.589844 173.292969 Z M 111.589844 144.003906 C 104.765625 144.003906 97.988281 144.148438 91.449219 144.4375 C 88.082031 144.582031 84.699219 144.773438 81.390625 144.996094 C 71.25 145.691406 62.089844 146.714844 54.15625 148.046875 C 35.78125 151.136719 29.234375 155.035156 29.234375 157.652344 C 29.234375 160.460938 37.039062 164.855469 59.03125 168.011719 C 67.519531 169.230469 77.117188 170.128906 87.554688 170.683594 C 88.773438 170.746094 90.042969 170.808594 91.449219 170.871094 C 97.988281 171.160156 104.765625 171.304688 111.589844 171.304688 C 113.992188 171.304688 116.394531 171.285156 118.734375 171.25 C 119.234375 171.242188 119.738281 171.234375 120.242188 171.222656 C 151.835938 170.652344 179.097656 166.90625 189.695312 161.675781 C 192.441406 160.324219 193.949219 158.894531 193.949219 157.65625 C 193.949219 156.507812 192.703125 155.234375 190.351562 153.96875 C 180.535156 148.703125 153.839844 144.839844 122.335938 144.125 C 121.199219 144.101562 120.023438 144.078125 118.730469 144.058594 C 116.386719 144.023438 113.984375 144.003906 111.585938 144.003906 Z M 111.589844 144.003906 " fill-opacity="1" fill-rule="nonzero"/></g><path fill="#fde0a6" d="M 194.949219 315.953125 L 194.949219 359.261719 C 194.949219 367.347656 157.628906 373.90625 111.589844 373.90625 C 65.554688 373.90625 28.234375 367.347656 28.234375 359.261719 L 28.234375 315.953125 C 47.671875 322.042969 76.210938 328.644531 111.105469 328.707031 C 146.476562 328.765625 175.375 322.085938 194.949219 315.953125 Z M 194.949219 315.953125 " fill-opacity="1" fill-rule="nonzero"/><g clip-path="url(#8a99201a62)"><path fill="#a57d71" d="M 111.589844 374.902344 C 89.269531 374.902344 68.277344 373.375 52.476562 370.597656 C 35.726562 367.65625 27.234375 363.839844 27.234375 359.261719 L 27.234375 314.59375 L 28.535156 315.003906 C 55.292969 323.382812 83.074219 327.660156 111.109375 327.707031 C 139.472656 327.761719 167.582031 323.480469 194.652344 315.003906 L 195.949219 314.59375 L 195.949219 359.261719 C 195.949219 363.839844 187.457031 367.65625 170.710938 370.597656 C 154.910156 373.375 133.914062 374.902344 111.59375 374.902344 Z M 29.234375 317.308594 L 29.234375 359.261719 C 29.234375 361.789062 35.429688 365.578125 52.824219 368.632812 C 68.511719 371.390625 89.382812 372.90625 111.589844 372.90625 C 133.800781 372.90625 154.671875 371.390625 170.363281 368.632812 C 187.753906 365.578125 193.949219 361.789062 193.949219 359.261719 L 193.949219 317.308594 C 167.242188 325.535156 139.542969 329.703125 111.59375 329.703125 C 111.429688 329.703125 111.265625 329.703125 111.105469 329.703125 C 83.320312 329.65625 55.785156 325.484375 29.234375 317.308594 Z M 29.234375 317.308594 " fill-opacity="1" fill-rule="nonzero"/></g><path fill="#fde0a6" d="M 39.773438 83.371094 L 66.460938 77.421875 L 77.988281 129.019531 L 51.300781 134.96875 Z M 39.773438 83.371094 " fill-opacity="1" fill-rule="nonzero"/><path fill="#a57d71" d="M 50.535156 136.164062 L 38.574219 82.617188 L 67.210938 76.238281 L 79.167969 129.78125 L 50.53125 136.164062 Z M 40.964844 84.132812 L 52.050781 133.78125 L 76.785156 128.265625 L 65.699219 78.617188 Z M 40.964844 84.132812 " fill-opacity="1" fill-rule="nonzero"/><path fill="#f7ece3" d="M 84.371094 157.652344 L 87.503906 171.679688 C 76.925781 171.117188 67.234375 170.199219 58.890625 169 L 56.355469 157.652344 L 53.992188 147.0625 L 51.292969 134.972656 L 77.976562 129.027344 L 81.324219 144 Z M 84.371094 157.652344 " fill-opacity="1" fill-rule="nonzero"/><path fill="#a57d71" d="M 88.765625 172.746094 L 87.449219 172.675781 C 76.953125 172.117188 67.296875 171.214844 58.75 169.988281 L 58.066406 169.890625 L 50.097656 134.214844 L 78.734375 127.832031 Z M 59.714844 168.109375 C 67.675781 169.226562 76.585938 170.066406 86.242188 170.609375 L 77.222656 130.214844 L 52.488281 135.726562 L 59.71875 168.105469 Z M 59.714844 168.109375 " fill-opacity="1" fill-rule="nonzero"/><path fill="#fde0a6" d="M 37.46875 73.054688 L 64.15625 67.105469 L 66.460938 77.425781 L 39.773438 83.375 Z M 37.46875 73.054688 " fill-opacity="1" fill-rule="nonzero"/><path fill="#a57d71" d="M 39.011719 84.566406 L 36.269531 72.300781 L 64.90625 65.917969 L 67.648438 78.1875 Z M 38.65625 73.8125 L 40.527344 82.183594 L 65.261719 76.671875 L 63.394531 68.300781 Z M 38.65625 73.8125 " fill-opacity="1" fill-rule="nonzero"/><path fill="#ccd5b1" d="M 51.210938 41.304688 L 44.703125 42.753906 L 38.195312 44.207031 C 37.953125 53.824219 37.707031 63.441406 37.460938 73.058594 L 50.804688 70.082031 L 64.148438 67.109375 C 59.839844 58.507812 55.523438 49.90625 51.210938 41.308594 Z M 51.210938 41.304688 " fill-opacity="1" fill-rule="nonzero"/><path fill="#a57d71" d="M 36.433594 74.308594 L 37.21875 43.402344 L 51.757812 40.160156 L 65.617188 67.804688 Z M 39.175781 45.007812 L 38.496094 71.800781 L 62.683594 66.414062 L 50.667969 42.449219 Z M 39.175781 45.007812 " fill-opacity="1" fill-rule="nonzero"/><path fill="#f7ece3" d="M 49.546875 41.675781 L 39.863281 43.832031 C 40.355469 38.449219 40.847656 33.0625 41.339844 27.675781 C 44.074219 32.34375 46.8125 37.007812 49.546875 41.675781 Z M 49.546875 41.675781 " fill-opacity="1" fill-rule="nonzero"/><path fill="#a57d71" d="M 38.742188 45.105469 L 40.625 24.492188 L 51.101562 42.355469 L 38.742188 45.109375 Z M 42.050781 30.871094 L 40.984375 42.5625 L 47.992188 41 Z M 42.050781 30.871094 " fill-opacity="1" fill-rule="nonzero"/><path fill="#fde0a6" d="M 91.40625 81.695312 L 118.75 81.695312 L 118.75 134.558594 L 91.40625 134.558594 Z M 91.40625 81.695312 " fill-opacity="1" fill-rule="nonzero"/><path fill="#a57d71" d="M 119.746094 135.558594 L 90.40625 135.558594 L 90.40625 80.699219 L 119.746094 80.699219 Z M 92.40625 133.566406 L 117.75 133.566406 L 117.75 82.695312 L 92.40625 82.695312 Z M 92.40625 133.566406 " fill-opacity="1" fill-rule="nonzero"/><path fill="#e0b9a5" d="M 118.75 134.5625 L 118.75 172.246094 C 116.390625 172.28125 114.003906 172.300781 111.589844 172.300781 C 104.628906 172.300781 97.871094 172.148438 91.40625 171.867188 L 91.40625 134.5625 Z M 118.75 134.5625 " fill-opacity="1" fill-rule="nonzero"/><path fill="#a57d71" d="M 111.589844 173.296875 C 104.738281 173.296875 97.929688 173.152344 91.363281 172.863281 L 90.40625 172.824219 L 90.40625 133.566406 L 119.746094 133.566406 L 119.746094 173.226562 L 118.765625 173.242188 C 116.414062 173.28125 114 173.296875 111.589844 173.296875 Z M 92.40625 170.910156 C 98.648438 171.171875 105.097656 171.300781 111.589844 171.300781 C 113.65625 171.300781 115.722656 171.289062 117.75 171.261719 L 117.75 135.558594 L 92.40625 135.558594 Z M 92.40625 170.910156 " fill-opacity="1" fill-rule="nonzero"/><path fill="#e0b9a5" d="M 91.40625 71.125 L 118.75 71.125 L 118.75 81.695312 L 91.40625 81.695312 Z M 91.40625 71.125 " fill-opacity="1" fill-rule="nonzero"/><path fill="#a57d71" d="M 119.746094 82.695312 L 90.40625 82.695312 L 90.40625 70.125 L 119.746094 70.125 Z M 92.40625 80.699219 L 117.75 80.699219 L 117.75 72.121094 L 92.40625 72.121094 Z M 92.40625 80.699219 " fill-opacity="1" fill-rule="nonzero"/><path fill="#fde0a6" d="M 111.746094 43.128906 L 98.410156 43.128906 C 96.074219 52.460938 93.738281 61.792969 91.40625 71.125 L 118.75 71.125 C 116.414062 61.792969 114.078125 52.460938 111.746094 43.128906 Z M 111.746094 43.128906 " fill-opacity="1" fill-rule="nonzero"/><path fill="#a57d71" d="M 120.027344 72.125 L 90.125 72.125 L 97.628906 42.128906 L 112.527344 42.128906 L 120.03125 72.125 Z M 92.683594 70.128906 L 117.46875 70.128906 L 110.964844 44.125 L 99.1875 44.125 Z M 92.683594 70.128906 " fill-opacity="1" fill-rule="nonzero"/><path fill="#f7ece3" d="M 110.039062 43.128906 L 100.117188 43.128906 C 101.773438 37.976562 103.425781 32.828125 105.078125 27.679688 C 106.734375 32.828125 108.386719 37.976562 110.039062 43.128906 Z M 110.039062 43.128906 " fill-opacity="1" fill-rule="nonzero"/><path fill="#a57d71" d="M 111.40625 44.125 L 98.746094 44.125 L 105.078125 24.410156 Z M 101.484375 42.128906 L 108.667969 42.128906 L 105.078125 30.945312 Z M 101.484375 42.128906 " fill-opacity="1" fill-rule="nonzero"/><path fill="#fde0a6" d="M 201.449219 6.132812 L 197.261719 64.039062 L 190.824219 153.089844 L 190.496094 157.652344 L 190.140625 162.566406 C 179.574219 167.78125 152.675781 171.632812 120.261719 172.21875 L 121.3125 157.652344 L 122.363281 143.128906 L 132.625 1.167969 Z M 201.449219 6.132812 " fill-opacity="1" fill-rule="nonzero"/><g clip-path="url(#91fa17d6a8)"><path fill="#a57d71" d="M 119.1875 173.238281 L 121.367188 143.054688 L 131.699219 0.101562 L 132.695312 0.171875 L 202.515625 5.207031 L 191.09375 163.207031 L 190.582031 163.460938 C 179.738281 168.8125 152.144531 172.640625 120.28125 173.21875 Z M 133.550781 2.234375 L 123.359375 143.199219 L 122.308594 157.722656 L 121.335938 171.199219 C 151.96875 170.570312 178.367188 166.957031 189.183594 161.914062 L 189.828125 153.015625 L 196.265625 63.964844 L 200.378906 7.050781 Z M 133.550781 2.234375 " fill-opacity="1" fill-rule="nonzero"/></g><path fill="#a57d71" d="M 199.429688 23.695312 C 199.402344 23.695312 199.378906 23.695312 199.355469 23.695312 L 187.664062 22.851562 C 187.113281 22.8125 186.699219 22.335938 186.738281 21.78125 C 186.777344 21.234375 187.253906 20.820312 187.808594 20.859375 L 199.496094 21.703125 C 200.046875 21.742188 200.460938 22.21875 200.421875 22.769531 C 200.386719 23.292969 199.949219 23.695312 199.429688 23.695312 Z M 199.429688 23.695312 " fill-opacity="1" fill-rule="nonzero"/><path fill="#a57d71" d="M 198.683594 34.015625 C 198.660156 34.015625 198.632812 34.015625 198.609375 34.015625 L 186.917969 33.171875 C 186.371094 33.132812 185.953125 32.65625 185.992188 32.105469 C 186.035156 31.554688 186.507812 31.144531 187.0625 31.179688 L 198.753906 32.023438 C 199.300781 32.0625 199.71875 32.539062 199.675781 33.089844 C 199.640625 33.617188 199.203125 34.015625 198.683594 34.015625 Z M 198.683594 34.015625 " fill-opacity="1" fill-rule="nonzero"/><path fill="#a57d71" d="M 197.9375 44.335938 C 197.914062 44.335938 197.890625 44.335938 197.863281 44.335938 L 186.171875 43.492188 C 185.625 43.453125 185.207031 42.976562 185.25 42.425781 C 185.289062 41.875 185.765625 41.460938 186.316406 41.5 L 198.007812 42.34375 C 198.554688 42.382812 198.972656 42.859375 198.933594 43.410156 C 198.894531 43.933594 198.457031 44.335938 197.9375 44.335938 Z M 197.9375 44.335938 " fill-opacity="1" fill-rule="nonzero"/><path fill="#a57d71" d="M 197.191406 54.660156 C 197.164062 54.660156 197.140625 54.660156 197.117188 54.65625 L 185.425781 53.8125 C 184.875 53.773438 184.460938 53.296875 184.5 52.746094 C 184.542969 52.195312 185.019531 51.78125 185.570312 51.820312 L 197.257812 52.664062 C 197.808594 52.703125 198.226562 53.179688 198.183594 53.730469 C 198.148438 54.257812 197.710938 54.660156 197.191406 54.660156 Z M 197.191406 54.660156 " fill-opacity="1" fill-rule="nonzero"/><path fill="#a57d71" d="M 197.265625 65.039062 C 197.238281 65.039062 197.214844 65.039062 197.191406 65.035156 L 180.59375 63.839844 C 180.042969 63.796875 179.628906 63.320312 179.667969 62.769531 C 179.707031 62.222656 180.183594 61.804688 180.738281 61.847656 L 197.332031 63.042969 C 197.882812 63.082031 198.296875 63.5625 198.257812 64.113281 C 198.222656 64.636719 197.785156 65.039062 197.265625 65.039062 Z M 197.265625 65.039062 " fill-opacity="1" fill-rule="nonzero"/><path fill="#a57d71" d="M 195.242188 78.339844 C 195.21875 78.339844 195.195312 78.339844 195.167969 78.335938 L 183.480469 77.496094 C 182.929688 77.457031 182.515625 76.976562 182.554688 76.425781 C 182.59375 75.878906 183.070312 75.464844 183.625 75.503906 L 195.3125 76.34375 C 195.863281 76.386719 196.277344 76.863281 196.238281 77.414062 C 196.199219 77.9375 195.761719 78.339844 195.242188 78.339844 Z M 195.242188 78.339844 " fill-opacity="1" fill-rule="nonzero"/><path fill="#a57d71" d="M 194.5 88.660156 C 194.472656 88.660156 194.449219 88.660156 194.425781 88.660156 L 182.734375 87.816406 C 182.183594 87.777344 181.769531 87.300781 181.808594 86.75 C 181.851562 86.199219 182.328125 85.785156 182.878906 85.824219 L 194.566406 86.667969 C 195.117188 86.707031 195.535156 87.183594 195.492188 87.734375 C 195.457031 88.261719 195.019531 88.660156 194.5 88.660156 Z M 194.5 88.660156 " fill-opacity="1" fill-rule="nonzero"/><path fill="#a57d71" d="M 193.75 98.980469 C 193.726562 98.980469 193.703125 98.980469 193.675781 98.980469 L 181.988281 98.136719 C 181.4375 98.097656 181.023438 97.621094 181.0625 97.070312 C 181.101562 96.519531 181.578125 96.105469 182.132812 96.144531 L 193.820312 96.988281 C 194.371094 97.027344 194.785156 97.503906 194.746094 98.054688 C 194.707031 98.578125 194.269531 98.980469 193.75 98.980469 Z M 193.75 98.980469 " fill-opacity="1" fill-rule="nonzero"/><path fill="#a57d71" d="M 193.003906 109.300781 C 192.980469 109.300781 192.957031 109.300781 192.929688 109.300781 L 181.242188 108.457031 C 180.691406 108.417969 180.277344 107.941406 180.316406 107.390625 C 180.355469 106.839844 180.832031 106.429688 181.386719 106.464844 L 193.074219 107.308594 C 193.625 107.347656 194.039062 107.824219 194 108.375 C 193.960938 108.902344 193.523438 109.300781 193.003906 109.300781 Z M 193.003906 109.300781 " fill-opacity="1" fill-rule="nonzero"/><path fill="#a57d71" d="M 193.078125 119.683594 C 193.054688 119.683594 193.03125 119.683594 193.003906 119.679688 L 176.40625 118.480469 C 175.855469 118.441406 175.441406 117.964844 175.480469 117.414062 C 175.519531 116.867188 175.996094 116.449219 176.550781 116.488281 L 193.148438 117.6875 C 193.695312 117.726562 194.113281 118.203125 194.074219 118.753906 C 194.035156 119.28125 193.597656 119.683594 193.078125 119.683594 Z M 193.078125 119.683594 " fill-opacity="1" fill-rule="nonzero"/><path fill="#a57d71" d="M 191.292969 133 C 191.269531 133 191.246094 133 191.21875 133 L 179.53125 132.15625 C 178.980469 132.117188 178.566406 131.640625 178.605469 131.089844 C 178.644531 130.539062 179.121094 130.128906 179.671875 130.164062 L 191.363281 131.007812 C 191.914062 131.046875 192.328125 131.523438 192.289062 132.074219 C 192.25 132.601562 191.8125 133 191.292969 133 Z M 191.292969 133 " fill-opacity="1" fill-rule="nonzero"/><path fill="#a57d71" d="M 190.546875 143.320312 C 190.523438 143.320312 190.5 143.320312 190.472656 143.320312 L 178.785156 142.476562 C 178.234375 142.4375 177.820312 141.960938 177.859375 141.410156 C 177.898438 140.859375 178.375 140.445312 178.929688 140.484375 L 190.617188 141.328125 C 191.167969 141.367188 191.582031 141.84375 191.542969 142.394531 C 191.503906 142.921875 191.066406 143.320312 190.546875 143.320312 Z M 190.546875 143.320312 " fill-opacity="1" fill-rule="nonzero"/><path fill="#a57d71" d="M 189.800781 153.644531 C 189.777344 153.644531 189.753906 153.644531 189.726562 153.640625 L 178.035156 152.796875 C 177.488281 152.757812 177.070312 152.28125 177.113281 151.730469 C 177.152344 151.183594 177.628906 150.765625 178.179688 150.804688 L 189.871094 151.648438 C 190.417969 151.6875 190.835938 152.164062 190.796875 152.714844 C 190.757812 153.242188 190.320312 153.644531 189.800781 153.644531 Z M 189.800781 153.644531 " fill-opacity="1" fill-rule="nonzero"/><path fill="#a57d71" d="M 189.054688 163.964844 C 189.03125 163.964844 189.007812 163.964844 188.980469 163.960938 L 177.292969 163.121094 C 176.742188 163.082031 176.328125 162.601562 176.367188 162.050781 C 176.40625 161.503906 176.882812 161.085938 177.4375 161.128906 L 189.125 161.96875 C 189.675781 162.011719 190.089844 162.488281 190.050781 163.039062 C 190.011719 163.5625 189.574219 163.964844 189.054688 163.964844 Z M 189.054688 163.964844 " fill-opacity="1" fill-rule="nonzero"/></svg>