<svg xmlns="http://www.w3.org/2000/svg" xmlns:xlink="http://www.w3.org/1999/xlink" width="500" zoomAndPan="magnify" viewBox="0 0 375 337.499995" height="450" preserveAspectRatio="xMidYMid meet" version="1.0"><defs><clipPath id="4ae77fa907"><path d="M 5 213 L 369 213 L 369 286.074219 L 5 286.074219 Z M 5 213 " clip-rule="nonzero"/></clipPath><clipPath id="f2dbaae28c"><path d="M 53 33.699219 L 321 33.699219 L 321 200 L 53 200 Z M 53 33.699219 " clip-rule="nonzero"/></clipPath></defs><g clip-path="url(#4ae77fa907)"><path fill="#a37b6f" d="M 16.453125 286.066406 L 358.304688 286.066406 C 364.476562 286.066406 368.921875 281.128906 368.839844 276.105469 L 368.839844 266.148438 L 362.089844 266.148438 C 348.671875 252.238281 319.605469 213.054688 315.734375 213.054688 L 59.019531 213.054688 C 55.148438 213.054688 26.085938 252.238281 12.664062 266.148438 L 5.996094 266.148438 L 5.996094 275.53125 C 5.417969 280.796875 10.113281 286.066406 16.453125 286.066406 Z M 16.453125 286.066406 " fill-opacity="1" fill-rule="evenodd"/></g><g clip-path="url(#f2dbaae28c)"><path fill="#deb9a4" d="M 68.570312 33.695312 L 306.183594 33.695312 C 314.171875 33.695312 320.757812 40.28125 320.757812 48.265625 L 320.757812 185.070312 C 320.757812 193.136719 314.171875 199.71875 306.183594 199.71875 L 68.570312 199.71875 C 60.582031 199.71875 53.996094 193.136719 53.996094 185.070312 L 53.996094 48.265625 C 53.996094 40.28125 60.582031 33.695312 68.570312 33.695312 Z M 68.570312 33.695312 " fill-opacity="1" fill-rule="evenodd"/></g><path fill="#fde0a6" d="M 68.570312 43.410156 L 306.183594 43.410156 C 308.820312 43.410156 311.042969 45.714844 311.042969 48.511719 L 311.042969 179.472656 C 311.042969 182.269531 308.820312 184.578125 306.183594 184.578125 L 68.570312 184.578125 C 65.933594 184.578125 63.710938 182.269531 63.710938 179.472656 L 63.710938 48.511719 C 63.710938 45.714844 65.9375 43.410156 68.570312 43.410156 Z M 68.570312 43.410156 " fill-opacity="1" fill-rule="evenodd"/><path fill="#deb9a4" d="M 16.453125 276.683594 L 358.304688 276.683594 C 366.949219 276.683594 371.886719 267.378906 366.125 260.878906 L 315.734375 203.671875 L 59.019531 203.671875 L 8.632812 260.878906 C 2.867188 267.378906 7.808594 276.683594 16.453125 276.683594 Z M 16.453125 276.683594 " fill-opacity="1" fill-rule="evenodd"/><path fill="#a37b6f" d="M 153.867188 271.660156 L 220.886719 271.660156 C 222.617188 271.660156 223.6875 269.769531 222.453125 268.53125 C 221.132812 267.214844 213.476562 257.335938 212.570312 257.335938 L 162.183594 257.335938 C 161.277344 257.335938 153.621094 267.214844 152.304688 268.53125 C 151.070312 269.769531 152.140625 271.660156 153.867188 271.660156 Z M 153.867188 271.660156 " fill-opacity="1" fill-rule="evenodd"/><path fill="#a37b6f" d="M 72.523438 213.054688 C 78.777344 213.054688 85.035156 213.054688 91.292969 213.054688 C 92.199219 213.054688 92.777344 213.382812 92.53125 213.796875 C 91.542969 215.277344 90.554688 216.839844 89.566406 218.40625 C 89.320312 218.734375 88.332031 219.0625 87.425781 219.0625 C 80.839844 219.0625 74.417969 219.0625 67.910156 219.0625 C 67.007812 219.0625 66.429688 218.734375 66.757812 218.40625 C 67.910156 216.84375 69.148438 215.277344 70.382812 213.796875 C 70.628906 213.382812 71.617188 213.054688 72.523438 213.054688 Z M 72.523438 213.054688 " fill-opacity="1" fill-rule="evenodd"/><path fill="#a37b6f" d="M 96.644531 213.054688 C 100.269531 213.054688 103.972656 213.054688 107.597656 213.054688 C 108.417969 213.054688 109.078125 213.382812 108.832031 213.796875 C 108.089844 215.277344 107.269531 216.839844 106.445312 218.40625 C 106.195312 218.734375 105.292969 219.0625 104.386719 219.0625 C 100.597656 219.0625 96.8125 219.0625 93.023438 219.0625 C 92.117188 219.0625 91.460938 218.734375 91.707031 218.40625 C 92.695312 216.84375 93.601562 215.277344 94.585938 213.796875 C 94.835938 213.382812 95.738281 213.054688 96.644531 213.054688 Z M 96.644531 213.054688 " fill-opacity="1" fill-rule="evenodd"/><path fill="#a37b6f" d="M 112.863281 213.054688 C 116.488281 213.054688 120.191406 213.054688 123.816406 213.054688 C 124.722656 213.054688 125.378906 213.382812 125.214844 213.796875 C 124.472656 215.277344 123.898438 216.839844 123.238281 218.40625 C 123.15625 218.734375 122.167969 219.0625 121.265625 219.0625 C 117.476562 219.0625 113.6875 219.0625 109.902344 219.0625 C 108.996094 219.0625 108.335938 218.734375 108.582031 218.40625 C 109.324219 216.84375 110.066406 215.277344 110.890625 213.796875 C 111.136719 213.382812 112.042969 213.054688 112.863281 213.054688 Z M 112.863281 213.054688 " fill-opacity="1" fill-rule="evenodd"/><path fill="#a37b6f" d="M 129.167969 213.054688 C 132.792969 213.054688 136.414062 213.054688 140.035156 213.054688 C 140.941406 213.054688 141.601562 213.382812 141.519531 213.796875 C 141.023438 215.277344 140.53125 216.839844 140.117188 218.40625 C 139.953125 218.734375 139.128906 219.0625 138.144531 219.0625 C 134.355469 219.0625 130.566406 219.0625 126.863281 219.0625 C 125.875 219.0625 125.214844 218.734375 125.382812 218.40625 C 126.039062 216.84375 126.617188 215.277344 127.273438 213.796875 C 127.4375 213.382812 128.261719 213.054688 129.167969 213.054688 Z M 129.167969 213.054688 " fill-opacity="1" fill-rule="evenodd"/><path fill="#a37b6f" d="M 145.386719 213.054688 C 149.011719 213.054688 152.632812 213.054688 156.339844 213.054688 C 157.160156 213.054688 157.902344 213.382812 157.820312 213.796875 C 157.492188 215.277344 157.160156 216.839844 156.914062 218.40625 C 156.832031 218.734375 156.007812 219.0625 155.101562 219.0625 C 151.316406 219.0625 147.527344 219.0625 143.742188 219.0625 C 142.753906 219.0625 142.09375 218.734375 142.175781 218.40625 C 142.589844 216.84375 143.082031 215.277344 143.578125 213.796875 C 143.660156 213.382812 144.480469 213.054688 145.386719 213.054688 Z M 145.386719 213.054688 " fill-opacity="1" fill-rule="evenodd"/><path fill="#a37b6f" d="M 161.605469 213.054688 C 165.230469 213.054688 168.933594 213.054688 172.558594 213.054688 C 173.464844 213.054688 174.203125 213.382812 174.121094 213.796875 C 174.039062 215.277344 173.875 216.839844 173.710938 218.40625 C 173.710938 218.734375 172.886719 219.0625 171.980469 219.0625 C 168.191406 219.0625 164.40625 219.0625 160.617188 219.0625 C 159.710938 219.0625 158.972656 218.734375 159.054688 218.40625 C 159.300781 216.84375 159.628906 215.277344 159.878906 213.796875 C 159.960938 213.382812 160.785156 213.054688 161.605469 213.054688 Z M 161.605469 213.054688 " fill-opacity="1" fill-rule="evenodd"/><path fill="#a37b6f" d="M 177.910156 213.054688 C 181.53125 213.054688 185.152344 213.054688 188.777344 213.054688 C 189.683594 213.054688 190.421875 213.382812 190.421875 213.796875 C 190.503906 215.277344 190.503906 216.839844 190.585938 218.40625 C 190.585938 218.734375 189.847656 219.0625 188.859375 219.0625 C 185.070312 219.0625 181.285156 219.0625 177.496094 219.0625 C 176.589844 219.0625 175.851562 218.734375 175.851562 218.40625 C 175.933594 216.84375 176.097656 215.277344 176.179688 213.796875 C 176.261719 213.382812 177.003906 213.054688 177.910156 213.054688 Z M 177.910156 213.054688 " fill-opacity="1" fill-rule="evenodd"/><path fill="#a37b6f" d="M 194.128906 213.054688 C 197.75 213.054688 201.375 213.054688 205.078125 213.054688 C 205.902344 213.054688 206.726562 213.382812 206.808594 213.796875 C 206.972656 215.277344 207.136719 216.839844 207.382812 218.40625 C 207.382812 218.734375 206.726562 219.0625 205.738281 219.0625 C 201.949219 219.0625 198.164062 219.0625 194.375 219.0625 C 193.46875 219.0625 192.730469 218.734375 192.648438 218.40625 C 192.648438 216.84375 192.566406 215.277344 192.566406 213.796875 C 192.566406 213.382812 193.222656 213.054688 194.128906 213.054688 Z M 194.128906 213.054688 " fill-opacity="1" fill-rule="evenodd"/><path fill="#a37b6f" d="M 210.351562 213.054688 C 213.972656 213.054688 217.675781 213.054688 221.300781 213.054688 C 222.207031 213.054688 223.03125 213.382812 223.113281 213.796875 C 223.441406 215.277344 223.851562 216.839844 224.179688 218.40625 C 224.261719 218.734375 223.605469 219.0625 222.699219 219.0625 C 218.832031 219.0625 215.125 219.0625 211.335938 219.0625 C 210.347656 219.0625 209.527344 218.734375 209.527344 218.40625 C 209.277344 216.84375 209.03125 215.277344 208.867188 213.796875 C 208.785156 213.382812 209.445312 213.054688 210.351562 213.054688 Z M 210.351562 213.054688 " fill-opacity="1" fill-rule="evenodd"/><path fill="#a37b6f" d="M 226.570312 213.054688 C 230.191406 213.054688 233.894531 213.054688 237.519531 213.054688 C 238.425781 213.054688 239.332031 213.382812 239.414062 213.796875 C 239.988281 215.277344 240.484375 216.839844 241.058594 218.40625 C 241.140625 218.734375 240.484375 219.0625 239.578125 219.0625 C 235.789062 219.0625 232.003906 219.0625 228.214844 219.0625 C 227.308594 219.0625 226.402344 218.734375 226.320312 218.40625 C 225.910156 216.84375 225.578125 215.277344 225.167969 213.796875 C 225.085938 213.382812 225.746094 213.054688 226.570312 213.054688 Z M 226.570312 213.054688 " fill-opacity="1" fill-rule="evenodd"/><path fill="#a37b6f" d="M 242.871094 213.054688 C 246.492188 213.054688 250.117188 213.054688 253.738281 213.054688 C 254.644531 213.054688 255.550781 213.382812 255.714844 213.796875 C 256.371094 215.277344 257.113281 216.839844 257.855469 218.40625 C 258.019531 218.734375 257.445312 219.0625 256.457031 219.0625 C 252.667969 219.0625 248.882812 219.0625 245.09375 219.0625 C 244.1875 219.0625 243.28125 218.734375 243.117188 218.40625 C 242.542969 216.84375 242.046875 215.277344 241.472656 213.796875 C 241.390625 213.382812 241.964844 213.054688 242.871094 213.054688 Z M 242.871094 213.054688 " fill-opacity="1" fill-rule="evenodd"/><path fill="#a37b6f" d="M 259.089844 213.054688 C 262.714844 213.054688 266.335938 213.054688 270.039062 213.054688 C 270.863281 213.054688 271.851562 213.382812 272.097656 213.796875 C 272.921875 215.277344 273.828125 216.839844 274.652344 218.40625 C 274.898438 218.734375 274.320312 219.0625 273.332031 219.0625 C 269.546875 219.0625 265.757812 219.0625 261.96875 219.0625 C 261.066406 219.0625 260.160156 218.734375 259.996094 218.40625 C 259.253906 216.84375 258.511719 215.277344 257.769531 213.796875 C 257.609375 213.382812 258.183594 213.054688 259.089844 213.054688 Z M 259.089844 213.054688 " fill-opacity="1" fill-rule="evenodd"/><path fill="#a37b6f" d="M 275.394531 213.054688 C 279.015625 213.054688 282.636719 213.054688 286.261719 213.054688 C 287.167969 213.054688 288.15625 213.382812 288.402344 213.796875 C 289.390625 215.277344 290.460938 216.839844 291.53125 218.40625 C 291.78125 218.734375 291.203125 219.0625 290.214844 219.0625 C 286.425781 219.0625 282.640625 219.0625 278.933594 219.0625 C 277.945312 219.0625 277.039062 218.734375 276.792969 218.40625 C 275.886719 216.84375 274.980469 215.277344 274.15625 213.796875 C 273.910156 213.382812 274.488281 213.054688 275.394531 213.054688 Z M 275.394531 213.054688 " fill-opacity="1" fill-rule="evenodd"/><path fill="#a37b6f" d="M 291.613281 213.054688 C 295.234375 213.054688 298.859375 213.054688 302.480469 213.054688 C 303.386719 213.054688 304.375 213.382812 304.703125 213.796875 C 305.855469 215.277344 307.09375 216.839844 308.328125 218.40625 C 308.65625 218.734375 308.082031 219.0625 307.175781 219.0625 C 303.386719 219.0625 299.601562 219.0625 295.8125 219.0625 C 294.824219 219.0625 293.921875 218.734375 293.671875 218.40625 C 292.601562 216.84375 291.53125 215.277344 290.460938 213.796875 C 290.214844 213.382812 290.707031 213.054688 291.613281 213.054688 Z M 291.613281 213.054688 " fill-opacity="1" fill-rule="evenodd"/><path fill="#a37b6f" d="M 307.914062 219.96875 C 301.328125 219.96875 294.824219 219.96875 288.320312 219.96875 C 287.332031 219.96875 286.753906 220.300781 287 220.710938 C 287.988281 222.273438 288.976562 223.757812 289.964844 225.320312 C 290.214844 225.734375 291.117188 225.980469 292.105469 225.980469 C 298.941406 225.980469 305.691406 225.980469 312.527344 225.980469 C 313.515625 225.980469 314.089844 225.730469 313.761719 225.320312 C 312.527344 223.757812 311.375 222.277344 310.136719 220.710938 C 309.890625 220.296875 308.820312 219.96875 307.914062 219.96875 Z M 307.914062 219.96875 " fill-opacity="1" fill-rule="evenodd"/><path fill="#a37b6f" d="M 282.636719 219.96875 C 278.851562 219.96875 274.980469 219.96875 271.195312 219.96875 C 270.289062 219.96875 269.628906 220.300781 269.875 220.710938 C 270.617188 222.273438 271.441406 223.757812 272.265625 225.320312 C 272.429688 225.734375 273.417969 225.980469 274.40625 225.980469 C 278.355469 225.980469 282.308594 225.980469 286.261719 225.980469 C 287.25 225.980469 287.824219 225.730469 287.660156 225.320312 C 286.671875 223.757812 285.769531 222.277344 284.78125 220.710938 C 284.53125 220.296875 283.542969 219.96875 282.636719 219.96875 Z M 282.636719 219.96875 " fill-opacity="1" fill-rule="evenodd"/><path fill="#a37b6f" d="M 265.59375 219.96875 C 261.808594 219.96875 258.019531 219.96875 254.234375 219.96875 C 253.246094 219.96875 252.667969 220.300781 252.75 220.710938 C 253.410156 222.273438 254.070312 223.757812 254.726562 225.320312 C 254.890625 225.734375 255.796875 225.980469 256.785156 225.980469 C 260.738281 225.980469 264.6875 225.980469 268.640625 225.980469 C 269.628906 225.980469 270.203125 225.730469 270.039062 225.320312 C 269.21875 223.757812 268.476562 222.277344 267.652344 220.710938 C 267.488281 220.296875 266.582031 219.96875 265.59375 219.96875 Z M 265.59375 219.96875 " fill-opacity="1" fill-rule="evenodd"/><path fill="#a37b6f" d="M 248.632812 219.96875 C 244.847656 219.96875 240.976562 219.96875 237.191406 219.96875 C 236.285156 219.96875 235.625 220.300781 235.707031 220.710938 C 236.203125 222.273438 236.695312 223.757812 237.109375 225.320312 C 237.273438 225.734375 238.175781 225.980469 239.082031 225.980469 C 243.035156 225.980469 246.988281 225.980469 250.941406 225.980469 C 251.925781 225.980469 252.667969 225.730469 252.503906 225.320312 C 251.84375 223.757812 251.269531 222.277344 250.609375 220.710938 C 250.445312 220.296875 249.539062 219.96875 248.632812 219.96875 Z M 248.632812 219.96875 " fill-opacity="1" fill-rule="evenodd"/><path fill="#a37b6f" d="M 231.589844 219.96875 C 227.804688 219.96875 224.015625 219.96875 220.230469 219.96875 C 219.242188 219.96875 218.582031 220.300781 218.664062 220.710938 C 218.914062 222.273438 219.242188 223.757812 219.570312 225.320312 C 219.652344 225.734375 220.476562 225.980469 221.464844 225.980469 C 225.414062 225.980469 229.367188 225.980469 233.320312 225.980469 C 234.308594 225.980469 235.050781 225.730469 234.882812 225.320312 C 234.472656 223.757812 233.976562 222.277344 233.566406 220.710938 C 233.402344 220.296875 232.578125 219.96875 231.589844 219.96875 Z M 231.589844 219.96875 " fill-opacity="1" fill-rule="evenodd"/><path fill="#a37b6f" d="M 214.632812 219.96875 C 210.84375 219.96875 206.972656 219.96875 203.1875 219.96875 C 202.28125 219.96875 201.539062 220.300781 201.539062 220.710938 C 201.703125 222.273438 201.789062 223.757812 201.953125 225.320312 C 202.035156 225.734375 202.859375 225.980469 203.847656 225.980469 C 207.714844 225.980469 211.75 225.980469 215.703125 225.980469 C 216.609375 225.980469 217.433594 225.730469 217.347656 225.320312 C 217.019531 223.757812 216.773438 222.277344 216.441406 220.710938 C 216.359375 220.296875 215.617188 219.96875 214.632812 219.96875 Z M 214.632812 219.96875 " fill-opacity="1" fill-rule="evenodd"/><path fill="#a37b6f" d="M 197.585938 219.96875 C 193.800781 219.96875 190.011719 219.96875 186.226562 219.96875 C 185.238281 219.96875 184.496094 220.300781 184.496094 220.710938 C 184.414062 222.273438 184.414062 223.757812 184.414062 225.320312 C 184.414062 225.734375 185.15625 225.980469 186.144531 225.980469 C 190.09375 225.980469 194.046875 225.980469 198 225.980469 C 198.988281 225.980469 199.8125 225.730469 199.730469 225.320312 C 199.648438 223.757812 199.480469 222.277344 199.398438 220.710938 C 199.398438 220.296875 198.574219 219.96875 197.585938 219.96875 Z M 197.585938 219.96875 " fill-opacity="1" fill-rule="evenodd"/><path fill="#a37b6f" d="M 180.625 219.96875 C 176.757812 219.96875 172.96875 219.96875 169.183594 219.96875 C 168.277344 219.96875 167.453125 220.300781 167.371094 220.710938 C 167.207031 222.273438 167.039062 223.757812 166.792969 225.320312 C 166.710938 225.734375 167.535156 225.980469 168.523438 225.980469 C 172.476562 225.980469 176.34375 225.980469 180.378906 225.980469 C 181.367188 225.980469 182.191406 225.730469 182.191406 225.320312 C 182.191406 223.757812 182.273438 222.277344 182.273438 220.710938 C 182.355469 220.296875 181.53125 219.96875 180.625 219.96875 Z M 180.625 219.96875 " fill-opacity="1" fill-rule="evenodd"/><path fill="#a37b6f" d="M 163.664062 219.96875 C 159.796875 219.96875 156.007812 219.96875 152.222656 219.96875 C 151.234375 219.96875 150.410156 220.300781 150.328125 220.710938 C 149.914062 222.273438 149.585938 223.757812 149.257812 225.320312 C 149.09375 225.734375 149.832031 225.980469 150.820312 225.980469 C 154.773438 225.980469 158.726562 225.980469 162.675781 225.980469 C 163.664062 225.980469 164.488281 225.730469 164.570312 225.320312 C 164.820312 223.757812 164.984375 222.277344 165.230469 220.710938 C 165.3125 220.296875 164.570312 219.96875 163.664062 219.96875 Z M 163.664062 219.96875 " fill-opacity="1" fill-rule="evenodd"/><path fill="#a37b6f" d="M 146.621094 219.96875 C 142.835938 219.96875 138.964844 219.96875 135.175781 219.96875 C 134.273438 219.96875 133.367188 220.300781 133.285156 220.710938 C 132.707031 222.273438 132.214844 223.757812 131.636719 225.320312 C 131.554688 225.734375 132.214844 225.980469 133.203125 225.980469 C 137.152344 225.980469 141.105469 225.980469 145.058594 225.980469 C 146.046875 225.980469 146.871094 225.730469 147.035156 225.320312 C 147.363281 223.757812 147.777344 222.277344 148.1875 220.710938 C 148.269531 220.296875 147.527344 219.96875 146.621094 219.96875 Z M 146.621094 219.96875 " fill-opacity="1" fill-rule="evenodd"/><path fill="#a37b6f" d="M 129.582031 219.96875 C 125.792969 219.96875 122.003906 219.96875 118.21875 219.96875 C 117.230469 219.96875 116.324219 220.300781 116.160156 220.710938 C 115.5 222.273438 114.761719 223.757812 114.101562 225.320312 C 113.9375 225.734375 114.597656 225.980469 115.585938 225.980469 C 119.535156 225.980469 123.40625 225.980469 127.441406 225.980469 C 128.347656 225.980469 129.332031 225.730469 129.414062 225.320312 C 129.992188 223.757812 130.566406 222.277344 131.144531 220.710938 C 131.226562 220.296875 130.566406 219.96875 129.582031 219.96875 Z M 129.582031 219.96875 " fill-opacity="1" fill-rule="evenodd"/><path fill="#a37b6f" d="M 112.617188 219.96875 C 108.832031 219.96875 104.960938 219.96875 101.257812 219.96875 C 100.269531 219.96875 99.28125 220.300781 99.117188 220.710938 C 98.210938 222.273438 97.386719 223.757812 96.480469 225.320312 C 96.230469 225.734375 96.890625 225.980469 97.878906 225.980469 C 101.832031 225.980469 105.785156 225.980469 109.734375 225.980469 C 110.722656 225.980469 111.710938 225.730469 111.878906 225.320312 C 112.535156 223.757812 113.277344 222.277344 114.019531 220.710938 C 114.183594 220.296875 113.523438 219.96875 112.617188 219.96875 Z M 112.617188 219.96875 " fill-opacity="1" fill-rule="evenodd"/><path fill="#a37b6f" d="M 95.574219 219.96875 C 91.789062 219.96875 88 219.96875 84.214844 219.96875 C 83.226562 219.96875 82.320312 220.300781 82.070312 220.710938 C 81.003906 222.273438 79.929688 223.757812 78.941406 225.320312 C 78.695312 225.734375 79.273438 225.980469 80.261719 225.980469 C 84.128906 225.980469 88.164062 225.980469 92.117188 225.980469 C 93.105469 225.980469 94.011719 225.730469 94.257812 225.320312 C 95.164062 223.757812 95.988281 222.277344 96.894531 220.710938 C 97.140625 220.296875 96.5625 219.96875 95.574219 219.96875 Z M 95.574219 219.96875 " fill-opacity="1" fill-rule="evenodd"/><path fill="#a37b6f" d="M 78.613281 219.96875 C 74.828125 219.96875 70.957031 219.96875 67.171875 219.96875 C 66.265625 219.96875 65.277344 220.300781 64.945312 220.710938 C 63.710938 222.273438 62.558594 223.757812 61.324219 225.320312 C 61.074219 225.734375 61.570312 225.980469 62.558594 225.980469 C 66.511719 225.980469 70.464844 225.980469 74.414062 225.980469 C 75.402344 225.980469 76.390625 225.730469 76.722656 225.320312 C 77.789062 223.757812 78.777344 222.277344 79.851562 220.710938 C 80.097656 220.296875 79.519531 219.96875 78.613281 219.96875 Z M 78.613281 219.96875 " fill-opacity="1" fill-rule="evenodd"/><path fill="#a37b6f" d="M 61.984375 226.71875 C 68.816406 226.71875 75.652344 226.71875 82.484375 226.71875 C 83.472656 226.71875 84.046875 227.050781 83.882812 227.378906 C 82.894531 228.941406 81.90625 230.503906 80.921875 232.070312 C 80.671875 232.398438 79.601562 232.726562 78.613281 232.726562 C 71.535156 232.726562 64.453125 232.726562 57.453125 232.726562 C 56.382812 232.726562 55.808594 232.398438 56.054688 232.070312 C 57.289062 230.503906 58.523438 228.941406 59.675781 227.378906 C 60.007812 227.046875 61.078125 226.71875 61.984375 226.71875 Z M 61.984375 226.71875 " fill-opacity="1" fill-rule="evenodd"/><path fill="#a37b6f" d="M 88.414062 226.71875 C 92.28125 226.71875 96.316406 226.71875 100.269531 226.71875 C 101.257812 226.71875 101.914062 227.050781 101.75 227.378906 C 100.925781 228.941406 100.105469 230.503906 99.28125 232.070312 C 99.117188 232.398438 98.128906 232.726562 97.058594 232.726562 C 92.941406 232.726562 88.824219 232.726562 84.707031 232.726562 C 83.71875 232.726562 83.0625 232.398438 83.308594 232.070312 C 84.214844 230.503906 85.203125 228.941406 86.1875 227.378906 C 86.4375 227.046875 87.425781 226.71875 88.414062 226.71875 Z M 88.414062 226.71875 " fill-opacity="1" fill-rule="evenodd"/><path fill="#a37b6f" d="M 106.113281 226.71875 C 110.066406 226.71875 114.019531 226.71875 117.96875 226.71875 C 118.957031 226.71875 119.699219 227.050781 119.535156 227.378906 C 118.875 228.941406 118.214844 230.503906 117.640625 232.070312 C 117.476562 232.398438 116.488281 232.726562 115.417969 232.726562 C 111.300781 232.726562 107.183594 232.726562 103.148438 232.726562 C 102.078125 232.726562 101.417969 232.398438 101.585938 232.070312 C 102.328125 230.503906 103.148438 228.941406 103.972656 227.378906 C 104.136719 227.046875 105.125 226.71875 106.113281 226.71875 Z M 106.113281 226.71875 " fill-opacity="1" fill-rule="evenodd"/><path fill="#a37b6f" d="M 123.816406 226.71875 C 127.765625 226.71875 131.71875 226.71875 135.753906 226.71875 C 136.742188 226.71875 137.398438 227.050781 137.316406 227.378906 C 136.824219 228.941406 136.328125 230.503906 135.917969 232.070312 C 135.835938 232.398438 134.847656 232.726562 133.859375 232.726562 C 129.742188 232.726562 125.628906 232.726562 121.511719 232.726562 C 120.441406 232.726562 119.78125 232.398438 119.945312 232.070312 C 120.523438 230.503906 121.097656 228.941406 121.757812 227.378906 C 121.921875 227.046875 122.828125 226.71875 123.816406 226.71875 Z M 123.816406 226.71875 " fill-opacity="1" fill-rule="evenodd"/><path fill="#a37b6f" d="M 141.601562 226.71875 C 145.550781 226.71875 149.503906 226.71875 153.457031 226.71875 C 154.445312 226.71875 155.1875 227.050781 155.101562 227.378906 C 154.773438 228.941406 154.527344 230.503906 154.195312 232.070312 C 154.113281 232.398438 153.289062 232.726562 152.222656 232.726562 C 148.105469 232.726562 143.988281 232.726562 139.871094 232.726562 C 138.882812 232.726562 138.140625 232.398438 138.226562 232.070312 C 138.636719 230.503906 139.128906 228.941406 139.542969 227.378906 C 139.707031 227.046875 140.613281 226.71875 141.601562 226.71875 Z M 141.601562 226.71875 " fill-opacity="1" fill-rule="evenodd"/><path fill="#a37b6f" d="M 159.300781 226.71875 C 163.253906 226.71875 167.207031 226.71875 171.15625 226.71875 C 172.144531 226.71875 172.96875 227.050781 172.96875 227.378906 C 172.804688 228.941406 172.640625 230.503906 172.558594 232.070312 C 172.476562 232.398438 171.652344 232.726562 170.582031 232.726562 C 166.464844 232.726562 162.347656 232.726562 158.3125 232.726562 C 157.242188 232.726562 156.421875 232.398438 156.503906 232.070312 C 156.832031 230.503906 157.078125 228.941406 157.40625 227.378906 C 157.40625 227.046875 158.3125 226.71875 159.300781 226.71875 Z M 159.300781 226.71875 " fill-opacity="1" fill-rule="evenodd"/><path fill="#a37b6f" d="M 177.003906 226.71875 C 180.953125 226.71875 184.988281 226.71875 188.941406 226.71875 C 189.929688 226.71875 190.753906 227.050781 190.753906 227.378906 C 190.835938 228.941406 190.835938 230.503906 190.835938 232.070312 C 190.835938 232.398438 190.011719 232.726562 189.023438 232.726562 C 184.90625 232.726562 180.789062 232.726562 176.671875 232.726562 C 175.605469 232.726562 174.78125 232.398438 174.863281 232.070312 C 174.945312 230.503906 175.109375 228.941406 175.191406 227.378906 C 175.191406 227.046875 176.015625 226.71875 177.003906 226.71875 Z M 177.003906 226.71875 " fill-opacity="1" fill-rule="evenodd"/><path fill="#a37b6f" d="M 194.789062 226.71875 C 198.738281 226.71875 202.691406 226.71875 206.644531 226.71875 C 207.632812 226.71875 208.539062 227.050781 208.539062 227.378906 C 208.703125 228.941406 208.949219 230.503906 209.113281 232.070312 C 209.195312 232.398438 208.457031 232.726562 207.382812 232.726562 C 203.265625 232.726562 199.152344 232.726562 195.035156 232.726562 C 194.046875 232.726562 193.140625 232.398438 193.140625 232.070312 C 193.140625 230.503906 193.058594 228.941406 192.976562 227.378906 C 192.976562 227.046875 193.800781 226.71875 194.789062 226.71875 Z M 194.789062 226.71875 " fill-opacity="1" fill-rule="evenodd"/><path fill="#a37b6f" d="M 212.488281 226.71875 C 216.441406 226.71875 220.476562 226.71875 224.429688 226.71875 C 225.332031 226.71875 226.238281 227.050781 226.320312 227.378906 C 226.734375 228.941406 227.0625 230.503906 227.472656 232.070312 C 227.554688 232.398438 226.816406 232.726562 225.742188 232.726562 C 221.625 232.726562 217.511719 232.726562 213.476562 232.726562 C 212.40625 232.726562 211.5 232.398438 211.417969 232.070312 C 211.253906 230.503906 211.007812 228.941406 210.84375 227.378906 C 210.761719 227.046875 211.5 226.71875 212.488281 226.71875 Z M 212.488281 226.71875 " fill-opacity="1" fill-rule="evenodd"/><path fill="#a37b6f" d="M 230.191406 226.71875 C 234.144531 226.71875 238.175781 226.71875 242.128906 226.71875 C 243.117188 226.71875 244.023438 227.050781 244.1875 227.378906 C 244.679688 228.941406 245.257812 230.503906 245.75 232.070312 C 245.914062 232.398438 245.175781 232.726562 244.1875 232.726562 C 240.070312 232.726562 235.953125 232.726562 231.753906 232.726562 C 230.847656 232.726562 229.859375 232.398438 229.777344 232.070312 C 229.367188 230.503906 228.957031 228.941406 228.628906 227.378906 C 228.460938 227.046875 229.285156 226.71875 230.191406 226.71875 Z M 230.191406 226.71875 " fill-opacity="1" fill-rule="evenodd"/><path fill="#a37b6f" d="M 247.976562 226.71875 C 251.925781 226.71875 255.878906 226.71875 259.832031 226.71875 C 260.820312 226.71875 261.808594 227.050781 261.972656 227.378906 C 262.632812 228.941406 263.375 230.503906 264.03125 232.070312 C 264.195312 232.398438 263.621094 232.726562 262.550781 232.726562 C 258.433594 232.726562 254.316406 232.726562 250.199219 232.726562 C 249.210938 232.726562 248.222656 232.398438 248.058594 232.070312 C 247.5625 230.503906 246.988281 228.941406 246.410156 227.378906 C 246.246094 227.046875 246.988281 226.71875 247.976562 226.71875 Z M 247.976562 226.71875 " fill-opacity="1" fill-rule="evenodd"/><path fill="#a37b6f" d="M 265.675781 226.71875 C 269.628906 226.71875 273.664062 226.71875 277.617188 226.71875 C 278.519531 226.71875 279.589844 227.050781 279.757812 227.378906 C 280.664062 228.941406 281.488281 230.503906 282.390625 232.070312 C 282.554688 232.398438 281.898438 232.726562 280.910156 232.726562 C 276.792969 232.726562 272.675781 232.726562 268.558594 232.726562 C 267.574219 232.726562 266.585938 232.398438 266.335938 232.070312 C 265.679688 230.503906 264.9375 228.941406 264.195312 227.378906 C 264.03125 227.046875 264.6875 226.71875 265.675781 226.71875 Z M 265.675781 226.71875 " fill-opacity="1" fill-rule="evenodd"/><path fill="#a37b6f" d="M 283.460938 226.71875 C 287.414062 226.71875 291.367188 226.71875 295.316406 226.71875 C 296.304688 226.71875 297.292969 227.050781 297.625 227.378906 C 298.613281 228.941406 299.683594 230.503906 300.667969 232.070312 C 300.917969 232.398438 300.339844 232.726562 299.269531 232.726562 C 295.152344 232.726562 291.117188 232.726562 287 232.726562 C 285.933594 232.726562 284.859375 232.398438 284.695312 232.070312 C 283.871094 230.503906 282.886719 228.941406 282.0625 227.378906 C 281.816406 227.046875 282.472656 226.71875 283.460938 226.71875 Z M 283.460938 226.71875 " fill-opacity="1" fill-rule="evenodd"/><path fill="#a37b6f" d="M 57.042969 233.632812 C 65.523438 233.632812 74.003906 233.632812 82.484375 233.632812 C 83.722656 233.632812 84.542969 233.878906 84.378906 234.289062 C 83.472656 235.855469 82.484375 237.417969 81.496094 238.902344 C 81.332031 239.3125 80.097656 239.640625 78.78125 239.640625 C 69.96875 239.640625 61.242188 239.640625 52.433594 239.640625 C 51.199219 239.640625 50.375 239.3125 50.703125 238.902344 C 51.855469 237.417969 53.09375 235.855469 54.242188 234.289062 C 54.574219 233.878906 55.890625 233.632812 57.042969 233.632812 Z M 57.042969 233.632812 " fill-opacity="1" fill-rule="evenodd"/><path fill="#a37b6f" d="M 89.070312 233.632812 C 93.1875 233.632812 97.304688 233.632812 101.421875 233.632812 C 102.492188 233.632812 103.152344 233.878906 102.902344 234.289062 C 102.160156 235.855469 101.421875 237.417969 100.679688 238.902344 C 100.429688 239.3125 99.445312 239.640625 98.375 239.640625 C 94.09375 239.640625 89.8125 239.640625 85.53125 239.640625 C 84.460938 239.640625 83.800781 239.3125 83.964844 238.902344 C 84.871094 237.417969 85.859375 235.855469 86.765625 234.289062 C 86.929688 233.878906 88 233.632812 89.070312 233.632812 Z M 89.070312 233.632812 " fill-opacity="1" fill-rule="evenodd"/><path fill="#a37b6f" d="M 107.515625 233.632812 C 111.632812 233.632812 115.746094 233.632812 119.945312 233.632812 C 120.933594 233.632812 121.675781 233.878906 121.511719 234.289062 C 120.933594 235.855469 120.273438 237.417969 119.699219 238.902344 C 119.535156 239.3125 118.628906 239.640625 117.558594 239.640625 C 113.195312 239.640625 108.914062 239.640625 104.714844 239.640625 C 103.5625 239.640625 102.902344 239.3125 103.066406 238.902344 C 103.808594 237.417969 104.632812 235.855469 105.289062 234.289062 C 105.457031 233.878906 106.445312 233.632812 107.515625 233.632812 Z M 107.515625 233.632812 " fill-opacity="1" fill-rule="evenodd"/><path fill="#a37b6f" d="M 126.039062 233.632812 C 130.15625 233.632812 134.273438 233.632812 138.390625 233.632812 C 139.378906 233.632812 140.117188 233.878906 140.035156 234.289062 C 139.625 235.855469 139.210938 237.417969 138.71875 238.902344 C 138.636719 239.3125 137.730469 239.640625 136.660156 239.640625 C 132.378906 239.640625 128.097656 239.640625 123.816406 239.640625 C 122.746094 239.640625 122.003906 239.3125 122.085938 238.902344 C 122.660156 237.417969 123.320312 235.855469 123.816406 234.289062 C 123.980469 233.878906 124.96875 233.632812 126.039062 233.632812 Z M 126.039062 233.632812 " fill-opacity="1" fill-rule="evenodd"/><path fill="#a37b6f" d="M 144.480469 233.632812 C 148.597656 233.632812 152.714844 233.632812 156.832031 233.632812 C 157.902344 233.632812 158.644531 233.878906 158.644531 234.289062 C 158.394531 235.855469 158.148438 237.417969 157.820312 238.902344 C 157.738281 239.3125 156.832031 239.640625 155.761719 239.640625 C 151.480469 239.640625 147.199219 239.640625 143 239.640625 C 141.929688 239.640625 141.105469 239.3125 141.1875 238.902344 C 141.601562 237.417969 142.011719 235.855469 142.425781 234.289062 C 142.507812 233.878906 143.410156 233.632812 144.480469 233.632812 Z M 144.480469 233.632812 " fill-opacity="1" fill-rule="evenodd"/><path fill="#a37b6f" d="M 162.925781 233.632812 C 167.042969 233.632812 171.242188 233.632812 175.355469 233.632812 C 176.34375 233.632812 177.167969 233.878906 177.167969 234.289062 C 177.085938 235.855469 177.003906 237.417969 176.921875 238.902344 C 176.921875 239.3125 176.015625 239.640625 174.945312 239.640625 C 170.664062 239.640625 166.300781 239.640625 162.101562 239.640625 C 161.03125 239.640625 160.207031 239.3125 160.289062 238.902344 C 160.453125 237.417969 160.785156 235.855469 160.949219 234.289062 C 161.03125 233.878906 161.9375 233.632812 162.925781 233.632812 Z M 162.925781 233.632812 " fill-opacity="1" fill-rule="evenodd"/><path fill="#a37b6f" d="M 181.449219 233.632812 C 185.566406 233.632812 189.683594 233.632812 193.882812 233.632812 C 194.871094 233.632812 195.695312 233.878906 195.695312 234.289062 C 195.777344 235.855469 195.941406 237.417969 195.941406 238.902344 C 195.941406 239.3125 195.117188 239.640625 194.046875 239.640625 C 189.765625 239.640625 185.484375 239.640625 181.203125 239.640625 C 180.132812 239.640625 179.308594 239.3125 179.308594 238.902344 C 179.390625 237.417969 179.472656 235.855469 179.558594 234.289062 C 179.554688 233.878906 180.378906 233.632812 181.449219 233.632812 Z M 181.449219 233.632812 " fill-opacity="1" fill-rule="evenodd"/><path fill="#a37b6f" d="M 199.894531 233.632812 C 204.011719 233.632812 208.210938 233.632812 212.324219 233.632812 C 213.3125 233.632812 214.21875 233.878906 214.300781 234.289062 C 214.550781 235.855469 214.796875 237.417969 215.042969 238.902344 C 215.042969 239.3125 214.300781 239.640625 213.230469 239.640625 C 208.949219 239.640625 204.667969 239.640625 200.386719 239.640625 C 199.316406 239.640625 198.410156 239.3125 198.328125 238.902344 C 198.246094 237.417969 198.164062 235.855469 198.082031 234.289062 C 198 233.878906 198.902344 233.632812 199.894531 233.632812 Z M 199.894531 233.632812 " fill-opacity="1" fill-rule="evenodd"/><path fill="#a37b6f" d="M 218.417969 233.632812 C 222.535156 233.632812 226.652344 233.632812 230.769531 233.632812 C 231.839844 233.632812 232.746094 233.878906 232.828125 234.289062 C 233.238281 235.855469 233.730469 237.417969 234.0625 238.902344 C 234.144531 239.3125 233.402344 239.640625 232.332031 239.640625 C 228.050781 239.640625 223.769531 239.640625 219.488281 239.640625 C 218.417969 239.640625 217.511719 239.3125 217.429688 238.902344 C 217.183594 237.417969 216.9375 235.855469 216.605469 234.289062 C 216.605469 233.878906 217.347656 233.632812 218.417969 233.632812 Z M 218.417969 233.632812 " fill-opacity="1" fill-rule="evenodd"/><path fill="#a37b6f" d="M 236.859375 233.632812 C 240.976562 233.632812 245.175781 233.632812 249.292969 233.632812 C 250.363281 233.632812 251.269531 233.878906 251.433594 234.289062 C 251.925781 235.855469 252.503906 237.417969 253.078125 238.902344 C 253.242188 239.3125 252.585938 239.640625 251.515625 239.640625 C 247.152344 239.640625 242.871094 239.640625 238.589844 239.640625 C 237.519531 239.640625 236.613281 239.3125 236.449219 238.902344 C 236.035156 237.417969 235.625 235.855469 235.210938 234.289062 C 235.132812 233.878906 235.789062 233.632812 236.859375 233.632812 Z M 236.859375 233.632812 " fill-opacity="1" fill-rule="evenodd"/><path fill="#a37b6f" d="M 255.386719 233.632812 C 259.503906 233.632812 263.617188 233.632812 267.734375 233.632812 C 268.804688 233.632812 269.792969 233.878906 269.957031 234.289062 C 270.699219 235.855469 271.441406 237.417969 272.183594 238.902344 C 272.347656 239.3125 271.6875 239.640625 270.617188 239.640625 C 266.335938 239.640625 262.054688 239.640625 257.773438 239.640625 C 256.703125 239.640625 255.714844 239.3125 255.550781 238.902344 C 254.976562 237.417969 254.316406 235.855469 253.738281 234.289062 C 253.574219 233.878906 254.316406 233.632812 255.386719 233.632812 Z M 255.386719 233.632812 " fill-opacity="1" fill-rule="evenodd"/><path fill="#a37b6f" d="M 273.828125 233.632812 C 277.945312 233.632812 282.0625 233.632812 286.261719 233.632812 C 287.25 233.632812 288.316406 233.878906 288.484375 234.289062 C 289.390625 235.855469 290.378906 237.417969 291.285156 238.902344 C 291.449219 239.3125 290.789062 239.640625 289.71875 239.640625 C 285.4375 239.640625 281.15625 239.640625 276.957031 239.640625 C 275.886719 239.640625 274.816406 239.3125 274.570312 238.902344 C 273.828125 237.417969 273.089844 235.855469 272.265625 234.289062 C 272.101562 233.878906 272.839844 233.632812 273.828125 233.632812 Z M 273.828125 233.632812 " fill-opacity="1" fill-rule="evenodd"/><path fill="#a37b6f" d="M 292.269531 233.632812 C 300.914062 233.632812 309.5625 233.632812 318.207031 233.632812 C 319.195312 233.632812 320.265625 233.878906 320.59375 234.289062 C 321.746094 235.855469 322.980469 237.417969 324.21875 238.902344 C 324.464844 239.3125 323.886719 239.640625 322.816406 239.640625 C 313.925781 239.640625 304.949219 239.640625 296.058594 239.640625 C 294.988281 239.640625 293.917969 239.3125 293.671875 238.902344 C 292.765625 237.417969 291.777344 235.855469 290.871094 234.289062 C 290.625 233.878906 291.285156 233.632812 292.269531 233.632812 Z M 292.269531 233.632812 " fill-opacity="1" fill-rule="evenodd"/><path fill="#a37b6f" d="M 51.9375 240.546875 C 57.457031 240.546875 63.054688 240.546875 68.570312 240.546875 C 69.96875 240.546875 70.875 240.878906 70.628906 241.207031 C 69.640625 242.769531 68.652344 244.332031 67.582031 245.898438 C 67.335938 246.226562 66.019531 246.554688 64.535156 246.554688 C 58.855469 246.554688 53.09375 246.554688 47.328125 246.554688 C 45.929688 246.554688 44.941406 246.226562 45.269531 245.898438 C 46.421875 244.332031 47.660156 242.769531 48.894531 241.207031 C 49.140625 240.878906 50.539062 240.546875 51.9375 240.546875 Z M 51.9375 240.546875 " fill-opacity="1" fill-rule="evenodd"/><path fill="#a37b6f" d="M 75.488281 240.546875 C 79.851562 240.546875 84.132812 240.546875 88.414062 240.546875 C 89.484375 240.546875 90.222656 240.878906 89.976562 241.207031 C 89.152344 242.769531 88.246094 244.332031 87.425781 245.898438 C 87.175781 246.226562 86.105469 246.554688 85.039062 246.554688 C 80.589844 246.554688 76.144531 246.554688 71.699219 246.554688 C 70.628906 246.554688 69.886719 246.226562 70.136719 245.898438 C 71.125 244.332031 72.109375 242.769531 73.097656 241.207031 C 73.34375 240.878906 74.414062 240.546875 75.488281 240.546875 Z M 75.488281 240.546875 " fill-opacity="1" fill-rule="evenodd"/><path fill="#a37b6f" d="M 94.75 240.546875 C 99.035156 240.546875 103.316406 240.546875 107.679688 240.546875 C 108.746094 240.546875 109.488281 240.878906 109.242188 241.207031 C 108.582031 242.769531 107.925781 244.332031 107.265625 245.898438 C 107.101562 246.226562 106.03125 246.554688 104.960938 246.554688 C 100.515625 246.554688 96.066406 246.554688 91.621094 246.554688 C 90.46875 246.554688 89.730469 246.226562 89.894531 245.898438 C 90.71875 244.332031 91.539062 242.769531 92.445312 241.207031 C 92.613281 240.878906 93.683594 240.546875 94.75 240.546875 Z M 94.75 240.546875 " fill-opacity="1" fill-rule="evenodd"/><path fill="#a37b6f" d="M 113.9375 240.546875 C 118.300781 240.546875 122.582031 240.546875 126.863281 240.546875 C 127.933594 240.546875 128.757812 240.878906 128.59375 241.207031 C 128.097656 242.769531 127.605469 244.332031 127.109375 245.898438 C 126.945312 246.226562 125.957031 246.554688 124.804688 246.554688 C 120.359375 246.554688 115.914062 246.554688 111.46875 246.554688 C 110.316406 246.554688 109.574219 246.226562 109.738281 245.898438 C 110.394531 244.332031 111.054688 242.769531 111.714844 241.207031 C 111.878906 240.878906 112.863281 240.546875 113.9375 240.546875 Z M 113.9375 240.546875 " fill-opacity="1" fill-rule="evenodd"/><path fill="#a37b6f" d="M 133.203125 240.546875 C 137.484375 240.546875 141.847656 240.546875 146.128906 240.546875 C 147.199219 240.546875 147.941406 240.878906 147.859375 241.207031 C 147.527344 242.769531 147.199219 244.332031 146.871094 245.898438 C 146.789062 246.226562 145.882812 246.554688 144.726562 246.554688 C 140.28125 246.554688 135.753906 246.554688 131.390625 246.554688 C 130.238281 246.554688 129.496094 246.226562 129.578125 245.898438 C 130.074219 244.332031 130.566406 242.769531 131.0625 241.207031 C 131.144531 240.878906 132.132812 240.546875 133.203125 240.546875 Z M 133.203125 240.546875 " fill-opacity="1" fill-rule="evenodd"/><path fill="#a37b6f" d="M 152.46875 240.546875 C 156.75 240.546875 161.03125 240.546875 165.3125 240.546875 C 166.382812 240.546875 167.289062 240.878906 167.207031 241.207031 C 167.042969 242.769531 166.875 244.332031 166.710938 245.898438 C 166.628906 246.226562 165.722656 246.554688 164.570312 246.554688 C 160.125 246.554688 155.679688 246.554688 151.234375 246.554688 C 150.164062 246.554688 149.257812 246.226562 149.339844 245.898438 C 149.667969 244.332031 149.996094 242.769531 150.328125 241.207031 C 150.410156 240.878906 151.398438 240.546875 152.46875 240.546875 Z M 152.46875 240.546875 " fill-opacity="1" fill-rule="evenodd"/><path fill="#a37b6f" d="M 171.652344 240.546875 C 175.933594 240.546875 180.296875 240.546875 184.578125 240.546875 C 185.648438 240.546875 186.554688 240.878906 186.554688 241.207031 C 186.554688 242.769531 186.554688 244.332031 186.554688 245.898438 C 186.554688 246.226562 185.566406 246.554688 184.496094 246.554688 C 180.050781 246.554688 175.601562 246.554688 171.15625 246.554688 C 170.089844 246.554688 169.183594 246.226562 169.183594 245.898438 C 169.347656 244.332031 169.511719 242.769531 169.675781 241.207031 C 169.675781 240.878906 170.664062 240.546875 171.652344 240.546875 Z M 171.652344 240.546875 " fill-opacity="1" fill-rule="evenodd"/><path fill="#a37b6f" d="M 190.917969 240.546875 C 195.199219 240.546875 199.5625 240.546875 203.84375 240.546875 C 204.914062 240.546875 205.820312 240.878906 205.820312 241.207031 C 205.984375 242.769531 206.148438 244.332031 206.316406 245.898438 C 206.316406 246.226562 205.492188 246.554688 204.421875 246.554688 C 199.890625 246.554688 195.445312 246.554688 191.082031 246.554688 C 189.929688 246.554688 189.023438 246.226562 189.023438 245.898438 C 189.023438 244.332031 188.941406 242.769531 188.941406 241.207031 C 188.941406 240.878906 189.847656 240.546875 190.917969 240.546875 Z M 190.917969 240.546875 " fill-opacity="1" fill-rule="evenodd"/><path fill="#a37b6f" d="M 210.183594 240.546875 C 214.464844 240.546875 218.746094 240.546875 223.109375 240.546875 C 224.097656 240.546875 225.085938 240.878906 225.167969 241.207031 C 225.496094 242.769531 225.828125 244.332031 226.15625 245.898438 C 226.238281 246.226562 225.414062 246.554688 224.261719 246.554688 C 219.816406 246.554688 215.371094 246.554688 210.925781 246.554688 C 209.855469 246.554688 208.867188 246.226562 208.78125 245.898438 C 208.617188 244.332031 208.453125 242.769531 208.289062 241.207031 C 208.207031 240.878906 209.113281 240.546875 210.183594 240.546875 Z M 210.183594 240.546875 " fill-opacity="1" fill-rule="evenodd"/><path fill="#a37b6f" d="M 229.367188 240.546875 C 233.648438 240.546875 238.011719 240.546875 242.292969 240.546875 C 243.363281 240.546875 244.351562 240.878906 244.4375 241.207031 C 244.929688 242.769531 245.507812 244.332031 246 245.898438 C 246.082031 246.226562 245.257812 246.554688 244.1875 246.554688 C 239.742188 246.554688 235.214844 246.554688 230.851562 246.554688 C 229.699219 246.554688 228.710938 246.226562 228.628906 245.898438 C 228.296875 244.332031 227.96875 242.769531 227.558594 241.207031 C 227.476562 240.878906 228.296875 240.546875 229.367188 240.546875 Z M 229.367188 240.546875 " fill-opacity="1" fill-rule="evenodd"/><path fill="#a37b6f" d="M 248.632812 240.546875 C 252.914062 240.546875 257.195312 240.546875 261.558594 240.546875 C 262.628906 240.546875 263.617188 240.878906 263.785156 241.207031 C 264.441406 242.769531 265.101562 244.332031 265.757812 245.898438 C 265.921875 246.226562 265.183594 246.554688 264.03125 246.554688 C 259.585938 246.554688 255.136719 246.554688 250.691406 246.554688 C 249.621094 246.554688 248.550781 246.226562 248.46875 245.898438 C 247.972656 244.332031 247.398438 242.769531 246.90625 241.207031 C 246.824219 240.878906 247.5625 240.546875 248.632812 240.546875 Z M 248.632812 240.546875 " fill-opacity="1" fill-rule="evenodd"/><path fill="#a37b6f" d="M 267.902344 240.546875 C 272.183594 240.546875 276.464844 240.546875 280.746094 240.546875 C 281.816406 240.546875 282.886719 240.878906 283.050781 241.207031 C 283.957031 242.769531 284.78125 244.332031 285.601562 245.898438 C 285.765625 246.226562 285.027344 246.554688 283.957031 246.554688 C 279.511719 246.554688 275.0625 246.554688 270.617188 246.554688 C 269.546875 246.554688 268.476562 246.226562 268.230469 245.898438 C 267.574219 244.332031 266.914062 242.769531 266.171875 241.207031 C 266.007812 240.878906 266.746094 240.546875 267.902344 240.546875 Z M 267.902344 240.546875 " fill-opacity="1" fill-rule="evenodd"/><path fill="#a37b6f" d="M 301.164062 226.71875 C 305.113281 226.71875 309.066406 226.71875 313.019531 226.71875 C 314.007812 226.71875 315.078125 227.050781 315.40625 227.378906 C 316.644531 228.941406 317.878906 230.503906 319.03125 232.070312 C 319.359375 232.398438 318.699219 232.726562 317.714844 232.726562 C 313.597656 232.726562 309.480469 232.726562 305.363281 232.726562 C 304.292969 232.726562 303.304688 232.398438 302.976562 232.070312 C 301.988281 230.503906 300.917969 228.941406 299.847656 227.378906 C 299.601562 227.046875 300.175781 226.71875 301.164062 226.71875 Z M 301.164062 226.71875 " fill-opacity="1" fill-rule="evenodd"/><path fill="#a37b6f" d="M 287.25 240.464844 C 299.269531 240.464844 311.375 240.464844 323.476562 240.464844 C 324.546875 240.464844 325.617188 240.714844 325.945312 241.125 C 327.179688 242.6875 328.332031 244.25 329.484375 245.734375 C 329.816406 246.144531 329.15625 246.476562 328.085938 246.476562 C 315.570312 246.476562 303.136719 246.476562 290.707031 246.476562 C 289.554688 246.476562 288.480469 246.144531 288.316406 245.734375 C 287.414062 244.25 286.589844 242.6875 285.765625 241.125 C 285.519531 240.710938 286.179688 240.464844 287.25 240.464844 Z M 287.25 240.464844 " fill-opacity="1" fill-rule="evenodd"/><path fill="#a37b6f" d="M 222.78125 247.296875 C 206.726562 247.296875 190.589844 247.296875 174.535156 247.296875 C 158.476562 247.296875 142.421875 247.296875 126.367188 247.296875 C 124.96875 247.296875 123.652344 247.625 123.488281 248.039062 C 122.992188 249.519531 122.417969 251.082031 121.921875 252.648438 C 121.757812 252.976562 122.910156 253.304688 124.394531 253.304688 C 140.941406 253.304688 157.574219 253.304688 174.125 253.304688 C 190.671875 253.304688 207.304688 253.304688 223.933594 253.304688 C 225.417969 253.304688 226.570312 252.976562 226.488281 252.648438 C 226.15625 251.085938 225.910156 249.519531 225.582031 248.039062 C 225.414062 247.625 224.179688 247.296875 222.78125 247.296875 Z M 222.78125 247.296875 " fill-opacity="1" fill-rule="evenodd"/><path fill="#a37b6f" d="M 119.207031 247.296875 C 114.761719 247.296875 110.230469 247.296875 105.785156 247.296875 C 104.714844 247.296875 103.644531 247.625 103.480469 248.039062 C 102.820312 249.519531 102.082031 251.082031 101.421875 252.648438 C 101.257812 252.976562 102 253.304688 103.152344 253.304688 C 107.761719 253.304688 112.371094 253.304688 116.984375 253.304688 C 118.136719 253.304688 119.207031 252.976562 119.371094 252.648438 C 119.867188 251.085938 120.441406 249.519531 121.015625 248.039062 C 121.097656 247.625 120.359375 247.296875 119.207031 247.296875 Z M 119.207031 247.296875 " fill-opacity="1" fill-rule="evenodd"/><path fill="#a37b6f" d="M 99.199219 247.296875 C 94.753906 247.296875 90.304688 247.296875 85.859375 247.296875 C 84.707031 247.296875 83.636719 247.625 83.390625 248.039062 C 82.566406 249.519531 81.660156 251.082031 80.839844 252.648438 C 80.589844 252.976562 81.414062 253.304688 82.484375 253.304688 C 87.097656 253.304688 91.707031 253.304688 96.316406 253.304688 C 97.554688 253.304688 98.621094 252.976562 98.785156 252.648438 C 99.527344 251.085938 100.269531 249.519531 100.929688 248.039062 C 101.09375 247.625 100.351562 247.296875 99.199219 247.296875 Z M 99.199219 247.296875 " fill-opacity="1" fill-rule="evenodd"/><path fill="#a37b6f" d="M 79.273438 247.296875 C 74.746094 247.296875 70.300781 247.296875 65.855469 247.296875 C 64.785156 247.296875 63.628906 247.625 63.382812 248.039062 C 62.3125 249.519531 61.328125 251.082031 60.253906 252.648438 C 60.007812 252.976562 60.75 253.304688 61.902344 253.304688 C 66.511719 253.304688 71.121094 253.304688 75.734375 253.304688 C 76.886719 253.304688 78.039062 252.976562 78.203125 252.648438 C 79.109375 251.085938 80.015625 249.519531 80.921875 248.039062 C 81.085938 247.625 80.34375 247.296875 79.273438 247.296875 Z M 79.273438 247.296875 " fill-opacity="1" fill-rule="evenodd"/><path fill="#a37b6f" d="M 59.265625 247.296875 C 54.820312 247.296875 50.375 247.296875 45.925781 247.296875 C 44.777344 247.296875 43.703125 247.625 43.375 248.039062 C 42.140625 249.519531 40.90625 251.082031 39.753906 252.648438 C 39.421875 252.976562 40.082031 253.304688 41.234375 253.304688 C 45.84375 253.304688 50.457031 253.304688 55.148438 253.304688 C 56.300781 253.304688 57.371094 252.976562 57.699219 252.648438 C 58.6875 251.085938 59.757812 249.519531 60.828125 248.039062 C 61.078125 247.625 60.417969 247.296875 59.265625 247.296875 Z M 59.265625 247.296875 " fill-opacity="1" fill-rule="evenodd"/><path fill="#a37b6f" d="M 328.746094 247.296875 C 324.300781 247.296875 319.769531 247.296875 315.324219 247.296875 C 314.253906 247.296875 313.515625 247.625 313.84375 248.039062 C 314.914062 249.519531 315.902344 251.082031 316.972656 252.648438 C 317.21875 252.976562 318.371094 253.304688 319.523438 253.304688 C 324.136719 253.304688 328.746094 253.304688 333.355469 253.304688 C 334.507812 253.304688 335.25 252.976562 334.921875 252.648438 C 333.769531 251.085938 332.53125 249.519531 331.296875 248.039062 C 330.96875 247.625 329.898438 247.296875 328.746094 247.296875 Z M 328.746094 247.296875 " fill-opacity="1" fill-rule="evenodd"/><path fill="#a37b6f" d="M 308.738281 247.296875 C 304.292969 247.296875 299.847656 247.296875 295.402344 247.296875 C 294.25 247.296875 293.507812 247.625 293.753906 248.039062 C 294.660156 249.519531 295.566406 251.082031 296.390625 252.648438 C 296.636719 252.976562 297.789062 253.304688 298.859375 253.304688 C 303.46875 253.304688 308.082031 253.304688 312.773438 253.304688 C 313.925781 253.304688 314.667969 252.976562 314.335938 252.648438 C 313.347656 251.085938 312.28125 249.519531 311.292969 248.039062 C 311.042969 247.625 309.890625 247.296875 308.738281 247.296875 Z M 308.738281 247.296875 " fill-opacity="1" fill-rule="evenodd"/><path fill="#a37b6f" d="M 288.8125 247.296875 C 284.367188 247.296875 279.839844 247.296875 275.394531 247.296875 C 274.324219 247.296875 273.5 247.625 273.664062 248.039062 C 274.40625 249.519531 275.144531 251.082031 275.886719 252.648438 C 276.050781 252.976562 277.121094 253.304688 278.273438 253.304688 C 282.886719 253.304688 287.496094 253.304688 292.105469 253.304688 C 293.257812 253.304688 294 252.976562 293.835938 252.648438 C 292.929688 251.085938 292.105469 249.519531 291.203125 248.039062 C 291.035156 247.625 289.882812 247.296875 288.8125 247.296875 Z M 288.8125 247.296875 " fill-opacity="1" fill-rule="evenodd"/><path fill="#a37b6f" d="M 248.140625 247.296875 C 242.210938 247.296875 236.285156 247.296875 230.4375 247.296875 C 228.957031 247.296875 227.804688 247.625 227.886719 248.039062 C 228.214844 249.519531 228.546875 251.082031 228.875 252.648438 C 228.957031 252.976562 230.273438 253.304688 231.757812 253.304688 C 237.929688 253.304688 244.023438 253.304688 250.117188 253.304688 C 251.679688 253.304688 252.835938 252.976562 252.667969 252.648438 C 252.175781 251.085938 251.597656 249.519531 251.105469 248.039062 C 250.941406 247.625 249.621094 247.296875 248.140625 247.296875 Z M 248.140625 247.296875 " fill-opacity="1" fill-rule="evenodd"/><path fill="#a37b6f" d="M 269.054688 247.296875 C 264.605469 247.296875 260.160156 247.296875 255.714844 247.296875 C 254.5625 247.296875 253.738281 247.625 253.902344 248.039062 C 254.398438 249.519531 254.972656 251.082031 255.550781 252.648438 C 255.714844 252.976562 256.785156 253.304688 257.9375 253.304688 C 262.546875 253.304688 267.074219 253.304688 271.769531 253.304688 C 272.921875 253.304688 273.664062 252.976562 273.5 252.648438 C 272.839844 251.085938 272.097656 249.519531 271.441406 248.039062 C 271.195312 247.625 270.207031 247.296875 269.054688 247.296875 Z M 269.054688 247.296875 " fill-opacity="1" fill-rule="evenodd"/><path fill="#a37b6f" d="M 276.628906 197.664062 L 292.765625 197.664062 C 294.164062 197.664062 295.316406 198.816406 295.316406 200.214844 L 295.316406 203.257812 C 295.316406 204.660156 294.164062 205.808594 292.765625 205.808594 L 276.628906 205.808594 C 275.226562 205.808594 274.074219 204.660156 274.074219 203.257812 L 274.074219 200.214844 C 274.074219 198.816406 275.226562 197.664062 276.628906 197.664062 Z M 276.628906 197.664062 " fill-opacity="1" fill-rule="evenodd"/><path fill="#a37b6f" d="M 81.90625 197.664062 L 98.128906 197.664062 C 99.527344 197.664062 100.679688 198.816406 100.679688 200.214844 L 100.679688 203.257812 C 100.679688 204.660156 99.527344 205.808594 98.128906 205.808594 L 81.90625 205.808594 C 80.507812 205.808594 79.4375 204.660156 79.4375 203.257812 L 79.4375 200.214844 C 79.4375 198.816406 80.507812 197.664062 81.90625 197.664062 Z M 81.90625 197.664062 " fill-opacity="1" fill-rule="evenodd"/><path fill="#f9b3a4" d="M 197.175781 60.117188 L 290.460938 60.117188 L 290.460938 109.09375 L 197.175781 109.09375 Z M 197.175781 60.117188 " fill-opacity="1" fill-rule="evenodd"/><path fill="#ccd6b2" d="M 197.175781 118.890625 L 290.460938 118.890625 L 290.460938 167.867188 L 197.175781 167.867188 Z M 197.175781 118.890625 " fill-opacity="1" fill-rule="evenodd"/><path fill="#f9b3a4" d="M 84.296875 64.644531 L 180.871094 64.644531 L 180.871094 67.195312 L 84.296875 67.195312 Z M 84.296875 64.644531 " fill-opacity="1" fill-rule="evenodd"/><path fill="#f9b3a4" d="M 84.296875 83.90625 L 180.871094 83.90625 L 180.871094 86.375 L 84.296875 86.375 Z M 84.296875 83.90625 " fill-opacity="1" fill-rule="evenodd"/><path fill="#f9b3a4" d="M 84.296875 103.085938 L 180.871094 103.085938 L 180.871094 105.636719 L 84.296875 105.636719 Z M 84.296875 103.085938 " fill-opacity="1" fill-rule="evenodd"/><path fill="#f9b3a4" d="M 84.296875 122.347656 L 180.871094 122.347656 L 180.871094 124.898438 L 84.296875 124.898438 Z M 84.296875 122.347656 " fill-opacity="1" fill-rule="evenodd"/><path fill="#f9b3a4" d="M 84.296875 141.609375 L 180.871094 141.609375 L 180.871094 144.078125 L 84.296875 144.078125 Z M 84.296875 141.609375 " fill-opacity="1" fill-rule="evenodd"/><path fill="#f9b3a4" d="M 84.296875 160.785156 L 180.871094 160.785156 L 180.871094 163.339844 L 84.296875 163.339844 Z M 84.296875 160.785156 " fill-opacity="1" fill-rule="evenodd"/></svg>