<svg xmlns="http://www.w3.org/2000/svg" xmlns:xlink="http://www.w3.org/1999/xlink" width="160" zoomAndPan="magnify" viewBox="0 0 120 344.999992" height="460" preserveAspectRatio="xMidYMid meet" version="1.0"><defs><clipPath id="0fd98529e3"><path d="M 14 0 L 114.75 0 L 114.75 332 L 14 332 Z M 14 0 " clip-rule="nonzero"/></clipPath></defs><g clip-path="url(#0fd98529e3)"><path fill="#809971" d="M 56.96875 0.101562 L 57.875 0.101562 C 57.597656 3.96875 57.859375 7.859375 57.570312 11.726562 C 57.300781 15 57.398438 18.386719 56.234375 21.503906 C 57.007812 21.527344 57.925781 21.347656 58.539062 21.953125 C 59.503906 24.96875 59.152344 28.195312 58.839844 31.289062 C 58.746094 32.515625 58.148438 33.632812 58.011719 34.851562 C 58.367188 35.765625 59.007812 36.539062 59.414062 37.429688 C 60.554688 39.5625 60.523438 42.054688 61.359375 44.296875 C 62.164062 46.347656 62.375 48.546875 62.804688 50.6875 C 63.5625 52.839844 63.554688 55.136719 63.96875 57.355469 C 64.457031 59.902344 64.410156 62.523438 64.980469 65.0625 C 65.351562 69.160156 66.105469 73.203125 66.445312 77.300781 C 67.171875 82.378906 67.363281 87.542969 68.453125 92.570312 C 69.074219 97.78125 69.792969 102.976562 70.285156 108.203125 C 70.355469 110.644531 70.949219 113.027344 71.074219 115.464844 C 71.761719 119.171875 71.757812 122.980469 72.65625 126.664062 C 73.644531 130.796875 74.433594 134.972656 75.046875 139.179688 C 75.21875 140.457031 75.117188 141.78125 75.542969 143.015625 C 76.324219 145.238281 76.605469 147.589844 77.335938 149.828125 C 77.726562 151.476562 78.644531 152.941406 79.027344 154.601562 C 79.472656 156.453125 80.445312 158.136719 80.757812 160.027344 C 80.90625 161.414062 82.042969 162.382812 82.425781 163.679688 C 82.679688 165.140625 81.828125 166.546875 82.074219 168.011719 C 82.265625 169.339844 82.550781 170.65625 82.742188 171.996094 C 83.058594 171.761719 83.382812 171.527344 83.710938 171.300781 C 83.675781 169.363281 83.851562 167.40625 83.433594 165.492188 C 83.292969 164.253906 82.703125 162.953125 83.199219 161.71875 C 83.644531 160.75 84.785156 160.417969 85.65625 159.925781 C 87.527344 158.921875 89.703125 159.472656 91.609375 160.070312 C 93.105469 160.761719 94.335938 161.933594 95.332031 163.230469 C 96.015625 164.136719 97.128906 164.582031 97.828125 165.472656 C 97.792969 166.589844 97.3125 167.625 97.136719 168.71875 C 96.90625 169.910156 96.839844 171.164062 96.25 172.257812 C 95.753906 173.328125 94.550781 173.78125 93.488281 174.066406 C 90.226562 174.578125 87.191406 172.902344 84.003906 172.601562 C 83.578125 172.980469 82.941406 173.453125 83.164062 174.117188 C 83.507812 175.84375 83.8125 177.578125 84.144531 179.308594 C 84.570312 180.300781 85.175781 181.28125 84.921875 182.410156 C 85.828125 181.199219 87.378906 180.8125 88.722656 180.289062 C 90.445312 179.730469 91.976562 178.585938 93.828125 178.464844 C 96.144531 178.140625 98.441406 178.75 100.742188 178.949219 C 104.40625 179.402344 107.277344 181.914062 110.316406 183.761719 C 112.371094 185.09375 113.675781 187.25 114.738281 189.394531 C 113.335938 190.34375 112.109375 191.515625 110.714844 192.476562 C 108.699219 193.652344 106.269531 193.734375 103.992188 193.636719 C 102.832031 193.578125 101.578125 193.789062 100.515625 193.207031 C 98.984375 192.367188 97.226562 191.78125 96.085938 190.394531 C 95.238281 189.46875 94.824219 188.269531 94.207031 187.203125 C 93.46875 185.910156 92.105469 185.199219 91.152344 184.109375 C 90.449219 183.335938 89.992188 182.382812 89.304688 181.609375 C 88.105469 181.527344 87.039062 182.375 85.925781 182.734375 C 85.3125 183.269531 86.242188 183.597656 86.546875 183.996094 C 88.136719 185.703125 88.730469 188.105469 88.730469 190.394531 C 88.953125 190.9375 89.167969 191.480469 89.378906 192.03125 C 91.546875 193.296875 93.777344 194.515625 95.433594 196.453125 C 97.3125 196.507812 99.25 196.621094 100.996094 197.386719 C 105.425781 198.976562 108.925781 202.984375 109.9375 207.574219 C 110.59375 210.640625 109.765625 213.726562 108.96875 216.675781 C 108.070312 215.539062 107.253906 214.25 105.964844 213.523438 C 102.914062 211.855469 99.625 210.605469 96.804688 208.5625 C 94.527344 206.957031 93.113281 204.160156 93.320312 201.367188 C 93.261719 199.929688 94.105469 198.71875 94.507812 197.398438 C 93.429688 195.730469 91.511719 194.757812 89.816406 193.78125 C 90.277344 195.09375 90.648438 196.453125 91.285156 197.699219 C 92.589844 199.90625 91.910156 202.578125 92.058594 205.003906 C 92.25 206.945312 91.800781 208.886719 92 210.835938 C 92.070312 212.941406 92.601562 215.027344 92.441406 217.140625 C 92.578125 217.890625 92.667969 218.648438 92.75 219.410156 C 94.304688 220.753906 96.328125 222.019531 96.675781 224.214844 C 96.828125 225.261719 97.285156 226.332031 96.910156 227.390625 C 98.015625 227.484375 99.417969 227.308594 100.148438 228.339844 C 101.0625 229.671875 101.507812 231.296875 101.707031 232.890625 C 101.820312 236.371094 99.554688 239.410156 96.855469 241.375 C 95.472656 242.164062 94.019531 242.835938 92.578125 243.5 C 92.714844 243.941406 92.851562 244.378906 92.992188 244.824219 C 92.464844 246.984375 91.722656 249.097656 90.515625 250.980469 C 89.558594 252.125 89.550781 253.738281 88.609375 254.90625 C 87.835938 255.851562 88.085938 257.160156 87.585938 258.21875 C 87.21875 258.921875 86.5 259.328125 85.902344 259.808594 C 85.152344 263.183594 83.636719 266.332031 82.777344 269.679688 C 81.375 273.207031 80.109375 276.800781 79.1875 280.488281 C 78.730469 283.332031 79.003906 286.222656 79.183594 289.082031 C 79.75 290.246094 80.078125 291.503906 80.53125 292.714844 C 81.90625 292.484375 83.261719 292.15625 84.628906 291.875 C 84.804688 291.566406 84.988281 291.265625 85.175781 290.964844 C 83.898438 290.65625 82.476562 290.4375 81.503906 289.480469 C 80.773438 288.308594 80.65625 286.875 80.480469 285.539062 C 80.1875 283.320312 81.453125 281.34375 82.238281 279.363281 C 82.867188 277.667969 83.828125 276.136719 84.585938 274.503906 C 86.160156 276.316406 87.761719 278.148438 88.820312 280.324219 C 90.015625 282.128906 91.457031 283.949219 91.421875 286.242188 C 91.40625 287.917969 91.742188 290.183594 90.042969 291.191406 C 88.960938 291.9375 87.691406 291.175781 86.574219 290.921875 C 85.636719 293.023438 83.042969 293.949219 80.898438 293.605469 C 81.625 295.625 82.910156 297.609375 82.617188 299.835938 C 83.234375 299.949219 83.925781 299.917969 84.464844 300.308594 C 85.910156 301.414062 87.300781 303.148438 86.605469 305.082031 C 87.039062 306.261719 87.632812 307.441406 87.667969 308.722656 C 87.464844 309.777344 86.515625 310.390625 85.5625 310.695312 C 86.980469 312.417969 86.902344 314.816406 88.085938 316.683594 C 88.839844 316.550781 89.613281 316.644531 90.261719 317.082031 C 88.347656 315.078125 88.839844 311.96875 90.171875 309.789062 C 90.964844 308.128906 92.558594 307.074219 93.476562 305.5 C 95.042969 307.71875 96.050781 310.289062 96.242188 313.007812 C 96.332031 314.617188 96.714844 316.648438 95.386719 317.878906 C 94.09375 318.714844 92.578125 317.75 91.207031 317.65625 C 90.507812 318.207031 89.648438 318.003906 88.871094 317.800781 C 89.566406 319.175781 90.417969 320.453125 91.519531 321.546875 C 92.5625 323.101562 94.023438 324.28125 95.15625 325.765625 C 96.164062 326.332031 97.042969 327.097656 97.949219 327.816406 C 99.164062 328.886719 100.476562 330.203125 100.273438 331.976562 C 98.769531 330.472656 97.492188 328.734375 95.8125 327.402344 C 92.386719 324.886719 89.675781 321.546875 87.371094 318.011719 C 85.851562 315.660156 85.671875 312.796875 84.457031 310.320312 C 82.953125 309.851562 81.394531 309.285156 80.363281 308.03125 C 78.773438 306.207031 76.578125 305.054688 74.964844 303.253906 C 74.320312 302.5625 73.695312 301.847656 73.078125 301.136719 C 73.945312 300.917969 74.816406 300.730469 75.714844 300.65625 C 77.816406 300.515625 79.875 299.957031 81.992188 300.003906 C 81.582031 298.703125 81.320312 297.347656 80.675781 296.136719 C 79.941406 294.796875 79.824219 293.242188 79.191406 291.867188 C 77.640625 288.386719 77.667969 284.488281 77.859375 280.757812 C 77.914062 279.742188 78.53125 278.886719 78.753906 277.914062 C 79.257812 275.316406 80.046875 272.75 81.265625 270.390625 C 81.835938 269.042969 81.945312 267.550781 82.527344 266.207031 C 83.464844 264.210938 84.03125 262.054688 85.160156 260.148438 C 84.332031 260.214844 83.492188 260.226562 82.707031 259.921875 C 79.4375 258.769531 76.054688 257.949219 72.792969 256.765625 C 74.222656 255.652344 75.375 254.253906 76.269531 252.6875 C 78.605469 249.316406 83.414062 248.703125 86.980469 250.289062 C 87.898438 250.832031 88.117188 251.976562 88.535156 252.882812 C 88.742188 252.101562 89 251.339844 89.390625 250.632812 C 90.558594 248.433594 91.597656 246.105469 91.90625 243.613281 C 89.945312 243.960938 87.992188 244.355469 86.105469 245.011719 C 85.425781 243.828125 84.828125 242.601562 84.34375 241.324219 C 83.8125 239.917969 83.90625 238.390625 83.804688 236.914062 C 83.6875 234.882812 83.71875 232.761719 84.574219 230.875 C 85.96875 228.191406 87.996094 225.429688 91.199219 224.90625 C 92.496094 220.265625 91.15625 215.488281 90.707031 210.824219 C 89.453125 213.496094 87.152344 215.421875 84.746094 217.03125 C 83.058594 218.136719 80.683594 218.582031 78.945312 217.335938 C 77.28125 216.089844 75.421875 215.113281 73.84375 213.757812 C 72.652344 212.738281 71.152344 212.117188 70.105469 210.929688 C 73.878906 208.746094 77.847656 206.710938 82.199219 206.058594 C 83.539062 206.050781 84.871094 206.234375 86.210938 206.289062 C 88.0625 206.320312 89.710938 207.484375 90.777344 208.9375 C 90.753906 205.808594 90.953125 202.683594 90.824219 199.554688 C 90.527344 197.941406 89.6875 196.507812 88.96875 195.050781 C 88.214844 192.742188 87.382812 190.414062 87.328125 187.957031 C 87.394531 186.746094 86.570312 185.824219 85.902344 184.921875 C 85.539062 184.433594 85.144531 183.976562 84.75 183.519531 C 84.507812 185.421875 84.753906 187.382812 84.171875 189.234375 C 83.734375 191.082031 82.285156 192.390625 81.21875 193.878906 C 79.917969 195.464844 78.628906 197.230469 76.65625 198.019531 C 73.953125 199.21875 71.25 200.425781 68.671875 201.882812 C 67.601562 200.480469 66.578125 199.039062 65.730469 197.484375 C 64.820312 195.835938 63.5625 194.242188 63.523438 192.269531 C 63.375 189.664062 64.195312 187.121094 64.554688 184.554688 C 64.203125 184.507812 63.5 184.414062 63.148438 184.367188 C 63.234375 187.304688 62 190.140625 60.253906 192.457031 C 58.269531 195.644531 55.277344 198.253906 51.734375 199.546875 C 50.082031 200.132812 48.636719 201.21875 46.90625 201.578125 C 45.507812 201.859375 44.074219 201.789062 42.660156 201.800781 C 42.484375 203.511719 41.984375 205.210938 42.121094 206.945312 C 42.457031 209.695312 43.472656 212.355469 43.539062 215.144531 C 43.269531 217.4375 43.375 219.808594 42.570312 222.011719 C 42.253906 223.070312 41.578125 224.074219 41.660156 225.21875 C 41.300781 225.453125 40.945312 225.683594 40.589844 225.921875 C 41.292969 227.09375 41.933594 228.34375 42.183594 229.695312 C 42.242188 230.789062 41.925781 231.902344 42.410156 232.949219 C 43.300781 233.167969 44.171875 233.46875 45.042969 233.769531 C 45.089844 233.851562 45.183594 234.015625 45.234375 234.09375 C 47.113281 235.554688 48.816406 237.628906 48.695312 240.152344 C 48.808594 243.582031 46.324219 246.226562 44.210938 248.617188 C 42.933594 247.128906 40.765625 247 39.488281 245.527344 C 38.582031 244.65625 38.046875 243.503906 37.574219 242.359375 C 37.042969 241.066406 35.917969 239.796875 36.539062 238.320312 C 37.15625 236.132812 38.628906 233.402344 41.269531 233.550781 C 41.121094 232.199219 41.015625 230.84375 40.941406 229.488281 C 40.507812 228.644531 40.148438 227.761719 39.972656 226.835938 C 39.144531 228.613281 37.871094 230.125 36.703125 231.679688 C 36.117188 232.738281 35.59375 233.835938 34.785156 234.757812 C 34.597656 237.359375 33.347656 239.710938 32.980469 242.28125 C 32.25 245 31.863281 247.804688 31.964844 250.625 C 32.160156 251.855469 32.453125 253.078125 32.542969 254.332031 C 32.585938 255.390625 33.402344 256.769531 32.171875 257.464844 C 31.820312 256.199219 31.222656 254.945312 31.328125 253.605469 C 31.386719 252.445312 31.09375 251.3125 30.960938 250.171875 C 28.222656 250.050781 25.25 251.035156 22.699219 249.648438 C 21.484375 248.953125 20.167969 248.332031 19.230469 247.261719 C 17.886719 245.582031 17.421875 243.40625 17.140625 241.324219 C 16.792969 239.089844 17.105469 236.789062 16.46875 234.59375 C 18.035156 235.601562 19.21875 237.042969 20.503906 238.367188 C 22.25 240.261719 24.234375 241.921875 25.871094 243.917969 C 27.773438 245.621094 28.421875 248.433594 30.851562 249.585938 C 30.867188 248.386719 30.796875 247.183594 30.957031 245.992188 C 31.691406 242.699219 32.035156 239.238281 33.5625 236.179688 C 33.109375 236.683594 32.691406 237.316406 31.992188 237.492188 C 30.261719 237.957031 28.410156 238.164062 26.640625 237.828125 C 24.972656 237.375 23.351562 236.746094 21.847656 235.902344 C 20.121094 234.984375 19.132812 233.164062 18.4375 231.414062 C 17.457031 228.871094 17.96875 226.121094 17.683594 223.480469 C 20.109375 223.445312 22.574219 222.695312 24.976562 223.378906 C 26.839844 224.003906 28.328125 225.347656 29.980469 226.367188 C 31.765625 227.589844 34.027344 228.761719 34.488281 231.089844 C 34.410156 231.980469 34.175781 232.851562 34.066406 233.738281 C 34.933594 233.21875 35.105469 232.148438 35.570312 231.324219 C 36.085938 229.980469 37.496094 229.320312 38.136719 228.054688 C 38.882812 226.632812 39.949219 225.378906 40.523438 223.871094 C 40.96875 221.945312 40.335938 220 40.144531 218.082031 C 39.824219 215.835938 38.40625 214.046875 37.050781 212.324219 C 36.863281 212.960938 36.976562 213.851562 36.3125 214.234375 C 35.21875 214.792969 33.96875 214.941406 32.863281 215.46875 C 31.382812 216.136719 29.820312 216.796875 28.164062 216.679688 C 24.765625 216.746094 21.777344 214.847656 19.179688 212.867188 C 17.589844 211.320312 15.921875 209.847656 14.027344 208.679688 C 15.097656 206.398438 17.695312 206.117188 19.777344 205.285156 C 23.035156 203.585938 26.699219 202.722656 30.367188 202.617188 C 32.050781 202.390625 33.625 203.207031 35.15625 203.796875 C 37.695312 204.847656 38.566406 208.199219 37.570312 210.585938 C 37.851562 211.789062 38.828125 212.601562 39.574219 213.527344 C 40.171875 214.890625 40.875 216.226562 41.179688 217.691406 C 41.453125 218.910156 41.128906 220.234375 41.726562 221.378906 C 43.070312 217.375 42.488281 213.070312 41.5 209.058594 C 40.910156 206.867188 41.339844 204.597656 41.925781 202.460938 C 41.078125 200.421875 39.058594 198.695312 39.625 196.273438 C 38.921875 197.164062 38.179688 198.039062 37.316406 198.777344 C 35.894531 199.382812 34.304688 199.375 32.8125 199.730469 C 30.960938 200.109375 29.355469 198.933594 27.78125 198.167969 C 23.460938 195.808594 20.804688 191.441406 16.878906 188.59375 C 17.355469 188.242188 17.839844 187.882812 18.402344 187.679688 C 20.59375 186.851562 22.765625 185.949219 25.074219 185.5 C 27.808594 184.542969 30.765625 184.515625 33.597656 184.984375 C 35.410156 185.097656 37.042969 186.054688 38.25 187.378906 C 39.105469 188.226562 39.894531 189.136719 40.660156 190.066406 C 41.335938 188.511719 42.230469 187.058594 43.296875 185.738281 C 42.996094 184.820312 42.671875 183.910156 42.257812 183.039062 C 41.925781 182.335938 41.574219 181.636719 41.28125 180.921875 C 40.929688 180.597656 40.582031 180.277344 40.234375 179.960938 C 40.148438 180.996094 40.085938 182.046875 39.804688 183.058594 L 39.300781 183.265625 C 39.292969 181.953125 39.320312 180.640625 39.363281 179.328125 C 38.871094 179.042969 38.363281 178.773438 37.847656 178.539062 C 35.457031 179.5625 33.355469 181.3125 30.710938 181.636719 C 28.136719 182.042969 25.703125 180.8125 23.582031 179.511719 C 22.277344 178.753906 21.417969 177.476562 20.632812 176.234375 C 19.121094 173.761719 19.230469 170.726562 18.058594 168.121094 C 20.730469 168.175781 23.4375 168.003906 25.996094 167.203125 C 29.105469 166.265625 32.609375 166.285156 35.53125 167.8125 C 36.863281 168.589844 38.4375 169.152344 39.304688 170.515625 C 39.546875 167.402344 39.574219 164.277344 39.996094 161.183594 C 40.039062 158.359375 40.480469 155.570312 40.539062 152.753906 C 40.90625 148.925781 41.765625 145.175781 42.539062 141.417969 C 43.304688 132.632812 44.707031 123.890625 45 115.066406 C 45.148438 111.898438 46.148438 108.835938 46.117188 105.65625 C 46.269531 103.839844 46.53125 102.035156 46.597656 100.207031 C 47.191406 97.101562 47.503906 93.9375 47.472656 90.773438 C 48.023438 86.234375 47.5625 81.492188 49.265625 77.160156 C 49.675781 76.054688 49.683594 74.863281 49.867188 73.714844 C 51.058594 68.054688 52.175781 62.375 52.902344 56.632812 C 53.871094 52.09375 54.4375 47.484375 55.007812 42.882812 C 55.429688 40.074219 56.480469 37.378906 56.6875 34.539062 C 56.636719 33.433594 55.671875 32.644531 55.445312 31.585938 C 55.246094 30.40625 54.5 29.410156 54.355469 28.21875 C 54.152344 26.675781 53.828125 25.027344 54.449219 23.53125 C 54.789062 22.671875 55.515625 22.035156 55.882812 21.195312 C 56.253906 20.125 56.425781 18.996094 56.511719 17.871094 C 56.804688 11.953125 56.785156 6.023438 56.96875 0.101562 M 55.859375 23.089844 C 55.320312 24.386719 55.058594 25.757812 55.078125 27.164062 C 55.460938 27.804688 55.46875 28.5625 55.542969 29.289062 C 56.621094 30.199219 56.457031 31.785156 57.378906 32.808594 C 57.726562 30.871094 57.910156 28.902344 57.839844 26.9375 C 57.777344 25.578125 58.136719 24.148438 57.605469 22.84375 C 57.007812 22.59375 56.390625 22.804688 55.859375 23.089844 M 57.699219 35.894531 C 57.105469 37.933594 57.078125 40.058594 56.808594 42.15625 C 56.574219 44.691406 57.082031 47.242188 56.660156 49.769531 C 56.609375 52.535156 56.839844 55.316406 56.5 58.078125 C 56.394531 61.964844 56.285156 65.859375 55.75 69.71875 C 55.246094 72.359375 55.140625 75.058594 54.710938 77.714844 C 54.976562 79.179688 54.601562 80.625 54.570312 82.085938 C 54.714844 85.351562 54.265625 88.605469 54.390625 91.871094 C 54.046875 95.101562 54.011719 98.347656 54.03125 101.589844 C 53.921875 105.238281 53.160156 108.855469 53.375 112.519531 C 53.160156 114.941406 53.597656 117.371094 53.246094 119.78125 C 53.277344 122.925781 53.378906 126.070312 53.246094 129.214844 C 53.328125 131.148438 52.863281 133.046875 52.886719 134.984375 C 52.910156 137.917969 51.933594 140.816406 52.585938 143.734375 C 52.683594 148.519531 52.53125 153.316406 52.816406 158.097656 C 56.050781 160.40625 57.898438 164.019531 60.335938 167.050781 C 61.226562 168.167969 61.703125 169.535156 62.335938 170.804688 C 63.148438 172.742188 63.578125 175.085938 62.636719 177.054688 C 61.742188 178.824219 59.613281 179.042969 57.890625 179.410156 C 58.898438 179.847656 59.539062 180.925781 59.449219 182.019531 C 59.710938 182.300781 59.972656 182.585938 60.238281 182.871094 C 61.269531 183.125 62.484375 183.226562 62.988281 184.324219 C 63.542969 184.347656 64.097656 184.371094 64.65625 184.394531 C 64.835938 183.292969 64.917969 182.171875 65.167969 181.085938 C 65.933594 179.230469 67.738281 178.0625 69.597656 177.484375 C 70.125 175.640625 70.929688 173.703125 72.535156 172.539062 C 72.824219 171.839844 73.160156 171.152344 73.761719 170.667969 C 72.308594 170.335938 70.699219 170.398438 69.414062 169.539062 C 68.402344 168.886719 67.210938 168.410156 66.460938 167.425781 C 65.753906 166.152344 65.203125 164.796875 64.519531 163.515625 C 63.019531 160.476562 63.355469 156.964844 62.191406 153.839844 C 61.941406 153.082031 61.402344 152.425781 61.34375 151.613281 C 63.679688 151.820312 65.777344 153.023438 68.09375 153.316406 C 70.351562 153.808594 72.929688 153.824219 74.621094 155.640625 C 76.027344 157.359375 77.761719 158.789062 79.605469 160.007812 C 78.992188 157.84375 78.300781 155.699219 77.738281 153.523438 C 75.371094 148.527344 74.617188 142.992188 73.785156 137.582031 C 73.09375 134.664062 72.832031 131.648438 71.84375 128.808594 C 71.117188 125.613281 70.84375 122.34375 70.367188 119.105469 C 69.871094 115.824219 69.441406 112.535156 69.101562 109.230469 C 68.890625 107.421875 69.09375 105.582031 68.742188 103.785156 C 68.382812 101.828125 68.390625 99.816406 67.898438 97.882812 C 67.417969 95.046875 67.203125 92.164062 66.511719 89.367188 C 66.128906 86.21875 65.820312 83.066406 65.527344 79.910156 C 64.71875 71.402344 63.269531 62.964844 62.398438 54.460938 C 61.757812 50.449219 60.90625 46.46875 59.863281 42.539062 C 59.285156 40.296875 59.054688 37.835938 57.699219 35.894531 M 55.476562 46.609375 L 55.621094 46.898438 C 55.167969 48.863281 55.097656 50.875 54.886719 52.867188 C 54.039062 57.027344 53.378906 61.226562 52.464844 65.375 C 51.886719 67.871094 51.785156 70.453125 51.121094 72.933594 C 50.453125 76.339844 49.238281 79.644531 49.066406 83.136719 C 48.824219 88.355469 48.738281 93.59375 48.023438 98.777344 C 47.410156 103.109375 47.664062 107.554688 46.539062 111.8125 C 46.074219 113.828125 46.179688 115.914062 45.941406 117.957031 C 45.871094 123.074219 45.332031 128.183594 44.675781 133.253906 C 44.0625 137.34375 44.027344 141.527344 42.890625 145.527344 C 41.871094 150.304688 41.558594 155.195312 41.3125 160.0625 C 40.863281 164.269531 40.3125 168.484375 40.511719 172.726562 C 40.652344 174.675781 40.3125 176.613281 40.304688 178.558594 C 42 179.378906 43.09375 181.210938 43.179688 183.070312 L 43.257812 183.082031 C 43.449219 183.613281 43.648438 184.15625 43.851562 184.691406 C 44.417969 184.371094 44.796875 183.835938 45.152344 183.304688 C 46.835938 181.539062 49.195312 180.074219 51.730469 180.703125 C 51.660156 179.992188 51.597656 179.28125 51.53125 178.574219 C 50.386719 178.363281 49.210938 178.289062 48.140625 177.796875 C 45.148438 176.785156 42.953125 174.148438 41.953125 171.222656 C 40.394531 167.855469 41.78125 164.164062 42.320312 160.726562 C 42.46875 159.234375 43.738281 158.203125 44.144531 156.800781 C 44.410156 156.074219 44.40625 155.242188 44.84375 154.589844 C 45.355469 154.328125 45.722656 154.917969 46.089844 155.171875 C 47.566406 156.679688 49.71875 157.042969 51.675781 157.554688 C 51.742188 155.464844 51.765625 153.375 51.675781 151.285156 C 51.398438 144.40625 51.554688 137.515625 52.082031 130.65625 C 52.003906 126.421875 52.265625 122.191406 52.101562 117.957031 C 52.15625 113.738281 51.757812 109.460938 52.667969 105.300781 C 52.890625 102.761719 53.082031 100.195312 52.828125 97.65625 C 52.664062 95.34375 53.074219 93.054688 53.171875 90.757812 C 52.949219 88.097656 53.34375 85.441406 53.296875 82.777344 C 53.539062 79.492188 53.566406 76.191406 54.085938 72.929688 C 54.816406 68.164062 55.234375 63.347656 55.214844 58.53125 C 55.941406 54.328125 54.941406 49.976562 56.152344 45.851562 C 55.933594 46.113281 55.714844 46.367188 55.476562 46.609375 M 78.976562 169.894531 C 77.949219 170.097656 76.898438 170.144531 75.875 170.347656 C 75.21875 170.980469 74.390625 171.488281 74.011719 172.355469 C 73.46875 173.480469 72.46875 174.257812 71.554688 175.070312 C 71.292969 175.910156 71.003906 176.738281 70.699219 177.566406 C 71.996094 177.429688 73.359375 177.304688 74.558594 177.941406 C 76.109375 178.785156 77.792969 177.898438 79.375 177.640625 C 79.964844 176.085938 80.789062 174.613281 81.828125 173.3125 C 81.597656 171.5625 81.269531 169.832031 81.015625 168.085938 C 80.289062 168.648438 79.996094 169.773438 78.976562 169.894531 M 80.4375 177.703125 C 81.367188 177.769531 82.214844 178.144531 83 178.628906 C 82.699219 177.359375 82.421875 176.085938 82.109375 174.820312 C 81.582031 175.796875 81.125 176.820312 80.4375 177.703125 M 52.449219 178.828125 C 52.433594 179.46875 52.421875 180.113281 52.410156 180.757812 C 53.28125 180.890625 54.15625 181.0625 54.992188 181.375 C 56.253906 181.746094 57.257812 182.769531 58.621094 182.855469 C 58.445312 182.21875 58.328125 181.554688 57.953125 181.003906 C 56.425781 179.636719 54.367188 179.304688 52.449219 178.828125 M 92.957031 221.257812 C 92.710938 222.511719 92.890625 223.96875 91.898438 224.945312 C 93.425781 225.0625 94.804688 225.757812 96.03125 226.636719 C 95.980469 225.425781 95.539062 224.257812 95.042969 223.167969 C 94.445312 222.433594 93.695312 221.839844 92.957031 221.257812 Z M 92.957031 221.257812 " fill-opacity="1" fill-rule="nonzero"/></g><path fill="#809971" d="M 28.484375 258.71875 C 30.367188 258.15625 32.253906 256.992188 34.289062 257.542969 C 36.339844 258.359375 38.25 260.324219 37.957031 262.695312 C 38.140625 262.578125 38.5 262.339844 38.679688 262.222656 C 39.21875 262.382812 40.148438 262.613281 39.820312 263.402344 C 38.691406 265.769531 36.425781 267.242188 34.542969 268.957031 C 34.3125 271.800781 33.867188 274.703125 34.648438 277.507812 C 34.441406 279 35.09375 280.378906 35.101562 281.863281 C 35.257812 283.480469 35.398438 285.113281 35.171875 286.738281 C 35.589844 288.246094 36.050781 289.769531 36.207031 291.335938 C 36.261719 292.390625 37.304688 293.121094 37.207031 294.214844 C 37.292969 296.507812 35.109375 298.410156 35.785156 300.726562 C 35.941406 303.273438 35.59375 305.820312 35.351562 308.355469 C 34.554688 310.832031 34.996094 313.449219 35.144531 315.984375 C 35.078125 317.820312 34.796875 319.648438 34.40625 321.445312 C 34.085938 322.84375 34.5 324.546875 33.339844 325.640625 C 34.34375 325.902344 35.457031 325.996094 36.339844 326.585938 C 37.34375 327.578125 37.800781 329.085938 37.609375 330.476562 C 37.394531 331.476562 36.867188 332.378906 36.648438 333.382812 C 36.351562 334.726562 36.441406 336.117188 36.4375 337.492188 C 34.488281 336.273438 33.671875 333.941406 32.007812 332.414062 C 31.132812 331.648438 30.515625 330.613281 30.359375 329.457031 C 28.3125 331.730469 27.375 334.722656 26.039062 337.417969 C 25.328125 338.398438 24.679688 339.429688 23.898438 340.359375 C 22.625 341.578125 21.09375 342.5 19.492188 343.226562 C 17.640625 343.964844 15.789062 344.824219 13.761719 344.914062 C 15.503906 343.042969 18.339844 342.96875 20.332031 341.453125 C 21.566406 340.539062 23.183594 340.011719 24.03125 338.65625 C 25.203125 336.761719 26.410156 334.835938 27.039062 332.675781 C 27.480469 331.398438 28.199219 330.222656 29.046875 329.183594 C 29.820312 328.234375 30.222656 327.027344 31.117188 326.175781 C 31.890625 325.421875 32.835938 324.726562 33.046875 323.589844 C 33.324219 321.546875 33.484375 319.488281 33.753906 317.449219 C 34.0625 315.03125 33.445312 312.605469 33.792969 310.199219 C 33.90625 309.09375 34.1875 308.015625 34.269531 306.910156 C 34.339844 304.832031 34.898438 302.773438 34.617188 300.691406 C 33.339844 302.820312 31.742188 304.75 30.601562 306.957031 C 28.835938 305.207031 27.113281 303.378906 25.84375 301.226562 C 24.269531 298.515625 23.957031 295.019531 25.355469 292.171875 C 26.292969 290.667969 27.808594 289.457031 29.585938 289.164062 C 30.390625 289 30.941406 289.726562 31.628906 290.007812 C 32.730469 290.390625 33.847656 290.753906 34.972656 291.082031 C 34.828125 290.164062 34.828125 289.234375 34.574219 288.339844 C 34.046875 286.332031 34.289062 284.230469 33.886719 282.207031 C 33.75 281.640625 33.828125 281.0625 33.914062 280.503906 C 33.710938 280.007812 33.339844 279.550781 33.351562 279 C 33.394531 277.285156 32.976562 275.609375 32.949219 273.902344 C 32.84375 272.671875 33.300781 271.496094 33.398438 270.28125 C 31.886719 271.167969 30.339844 272.289062 28.488281 272.148438 C 24.488281 271.96875 20.617188 270.761719 16.933594 269.257812 C 18.660156 267.308594 19.960938 265.007812 21.652344 263.019531 C 22.652344 261.835938 24.308594 261.640625 25.449219 260.652344 C 26.367188 259.878906 27.285156 259.03125 28.484375 258.71875 Z M 28.484375 258.71875 " fill-opacity="1" fill-rule="nonzero"/><path fill="#809971" d="M 85 263.609375 C 86.417969 263.121094 87.890625 262.527344 89.421875 262.828125 C 91.136719 263.140625 93.023438 263.410156 94.332031 264.667969 C 95.183594 266.214844 96.851562 267.011719 97.828125 268.46875 C 98.570312 269.808594 99.710938 270.855469 100.644531 272.054688 C 102.4375 272.917969 104.539062 272.714844 106.25 273.789062 C 106.960938 274.125 107.5 274.734375 107.78125 275.480469 C 106.847656 275.394531 106.042969 274.9375 105.234375 274.519531 C 103.664062 273.980469 101.996094 273.679688 100.480469 273 C 98.382812 271.585938 96.957031 269.433594 95.457031 267.453125 C 93.910156 267.011719 93.5625 265.164062 92.046875 264.683594 C 90.132812 264.082031 87.976562 263.640625 86.027344 264.335938 C 85.546875 264.460938 85.0625 264.558594 84.574219 264.625 C 84.683594 264.371094 84.890625 263.863281 85 263.609375 Z M 85 263.609375 " fill-opacity="1" fill-rule="nonzero"/><path fill="#809971" d="M 20.574219 272.09375 C 20.980469 271.558594 21.578125 271.148438 22.28125 271.191406 C 20.949219 273.289062 19.78125 275.503906 19.058594 277.890625 C 18.359375 279.117188 17.953125 280.546875 16.941406 281.566406 C 15.910156 282.417969 14.609375 282.960938 13.277344 283.078125 C 11.230469 282.707031 9.089844 282.964844 7.15625 283.714844 C 5.117188 283.4375 3.121094 282.996094 1.15625 282.382812 C 0.660156 282.175781 0.320312 281.734375 -0.0078125 281.34375 C 2.472656 281.113281 4.710938 282.539062 7.140625 282.636719 C 8.847656 282.183594 10.535156 281.472656 12.351562 281.78125 C 11.175781 281.011719 9.921875 280.351562 8.921875 279.347656 C 8.019531 279.171875 6.949219 279.199219 6.496094 278.21875 C 8.203125 277.460938 9.921875 278.675781 11.25 279.664062 C 12.332031 280.121094 13.15625 281.066406 14.351562 281.265625 C 14.402344 281.382812 14.503906 281.613281 14.554688 281.730469 C 16.347656 280.992188 17.015625 279.066406 17.894531 277.507812 C 18.445312 275.550781 19.367188 273.722656 20.574219 272.09375 Z M 20.574219 272.09375 " fill-opacity="1" fill-rule="nonzero"/><path fill="#ccd4c5" d="M 38.410156 183.714844 C 38.703125 183.558594 39 183.410156 39.300781 183.265625 L 39.804688 183.058594 C 40.621094 183.027344 41.4375 183.035156 42.257812 183.039062 C 42.671875 183.910156 42.996094 184.820312 43.296875 185.738281 C 42.230469 187.058594 41.335938 188.511719 40.660156 190.066406 C 39.894531 189.136719 39.105469 188.226562 38.25 187.378906 C 38.105469 186.152344 38.101562 184.914062 38.410156 183.714844 Z M 38.410156 183.714844 " fill-opacity="1" fill-rule="nonzero"/><path fill="#ccd4c5" d="M 43.257812 183.082031 C 43.882812 183.167969 44.515625 183.257812 45.152344 183.304688 C 44.796875 183.835938 44.417969 184.371094 43.851562 184.691406 C 43.648438 184.15625 43.449219 183.613281 43.257812 183.082031 Z M 43.257812 183.082031 " fill-opacity="1" fill-rule="nonzero"/><path fill="#ccd4c5" d="M 84.75 183.519531 C 85.144531 183.976562 85.539062 184.433594 85.902344 184.921875 C 86.445312 186.980469 86.09375 189.136719 86.367188 191.238281 C 86.4375 196.253906 86.214844 201.273438 86.210938 206.289062 C 84.871094 206.234375 83.539062 206.050781 82.199219 206.058594 C 77.847656 206.710938 73.878906 208.746094 70.105469 210.929688 C 71.152344 212.117188 72.652344 212.738281 73.84375 213.757812 C 75.421875 215.113281 77.28125 216.089844 78.945312 217.335938 C 80.683594 218.582031 83.058594 218.136719 84.746094 217.03125 C 83.667969 222.867188 82.457031 228.675781 81.546875 234.542969 C 76.355469 235.261719 71.117188 234.914062 65.898438 234.988281 C 62.035156 234.921875 58.09375 235.128906 54.316406 234.160156 C 52.875 233.84375 51.394531 234.011719 49.933594 233.976562 C 48.367188 233.992188 46.789062 233.828125 45.234375 234.09375 C 45.183594 234.015625 45.089844 233.851562 45.042969 233.769531 C 43.734375 230.992188 42.105469 228.3125 41.660156 225.21875 C 41.578125 224.074219 42.253906 223.070312 42.570312 222.011719 C 43.375 219.808594 43.269531 217.4375 43.539062 215.144531 C 43.472656 212.355469 42.457031 209.695312 42.121094 206.945312 C 41.984375 205.210938 42.484375 203.511719 42.660156 201.800781 C 44.074219 201.789062 45.507812 201.859375 46.90625 201.578125 C 48.636719 201.21875 50.082031 200.132812 51.734375 199.546875 C 55.277344 198.253906 58.269531 195.644531 60.253906 192.457031 C 62 190.140625 63.234375 187.304688 63.148438 184.367188 C 63.5 184.414062 64.203125 184.507812 64.554688 184.554688 C 64.195312 187.121094 63.375 189.664062 63.523438 192.269531 C 63.5625 194.242188 64.820312 195.835938 65.730469 197.484375 C 66.578125 199.039062 67.601562 200.480469 68.671875 201.882812 C 71.25 200.425781 73.953125 199.21875 76.65625 198.019531 C 78.628906 197.230469 79.917969 195.464844 81.21875 193.878906 C 82.285156 192.390625 83.734375 191.082031 84.171875 189.234375 C 84.753906 187.382812 84.507812 185.421875 84.75 183.519531 Z M 84.75 183.519531 " fill-opacity="1" fill-rule="nonzero"/><path fill="#ccd4c5" d="M 37.316406 198.777344 C 38.179688 198.039062 38.921875 197.164062 39.625 196.273438 C 39.058594 198.695312 41.078125 200.421875 41.925781 202.460938 C 41.339844 204.597656 40.910156 206.867188 41.5 209.058594 C 42.488281 213.070312 43.070312 217.375 41.726562 221.378906 C 41.128906 220.234375 41.453125 218.910156 41.179688 217.691406 C 40.875 216.226562 40.171875 214.890625 39.574219 213.527344 C 39.121094 210.644531 38.621094 207.765625 38.003906 204.914062 C 37.476562 202.847656 37.722656 200.707031 37.703125 198.601562 Z M 37.316406 198.777344 " fill-opacity="1" fill-rule="nonzero"/></svg>